<svg xmlns="http://www.w3.org/2000/svg" viewBox="0 0 581.44 647.51"><defs><style>.cls-1{fill:#ffbf9c;}.cls-2{fill:#efa57f;}.cls-3{fill:#263238;}.cls-4{fill:#455a64;}.cls-5{fill:#f5b045;}.cls-6{opacity:0.3;}.cls-7{fill:#e0e0e0;}.cls-8{fill:#fff;}</style></defs><g id="Layer_2" data-name="Layer 2"><g id="Character"><path class="cls-1" d="M446.57,108.45,430.43,253.72c-2.74,24.71-11.82,60.44-50.68,54.32h0c-33.32-7.85-38.32-40.93-35.74-64,1.23-10.94,2.23-20.06,2.28-21.19,0,0-36.6-7.58-35.2-44.48.67-17.84,5.05-54.45,9.39-87.53a68.79,68.79,0,0,1,71.66-59.7l3.56.18C434,35.51,451.79,70.32,446.57,108.45Z"/><path class="cls-2" d="M346.29,222.87s23.17,2.53,48.72-11.79c0,0-13.06,26.35-49.69,21.19Z"/><path class="cls-3" d="M381.06,113.54c.63.83,5.27-2,11.41-1.45s10.33,4.16,11.07,3.45c.36-.31-.22-1.76-2.05-3.4a15.41,15.41,0,0,0-8.77-3.71,14.94,14.94,0,0,0-9.17,2.11C381.52,111.85,380.75,113.17,381.06,113.54Z"/><path class="cls-3" d="M379.68,126.22a5,5,0,0,0,4.55,5.26,4.77,4.77,0,0,0,5.36-4.23A5,5,0,0,0,385,122,4.77,4.77,0,0,0,379.68,126.22Z"/><path class="cls-3" d="M360.47,154.2c0-.32-3.45-1.1-9.12-2.12-1.44-.22-2.79-.58-3-1.58s.4-2.59,1.19-4.24l4.83-10.8c6.73-15.39,11.68-28.08,11.06-28.34s-6.59,12-13.32,27.38c-1.62,3.8-3.18,7.42-4.65,10.88-.63,1.62-1.67,3.43-1,5.64a3.67,3.67,0,0,0,2.27,2.24,9.91,9.91,0,0,0,2.45.46C356.87,154.32,360.44,154.52,360.47,154.2Z"/><path class="cls-3" d="M386.51,90.86c.42,1.43,5.44,1,11.27,2s10.49,2.92,11.33,1.7c.38-.59-.38-1.95-2.22-3.41a18.69,18.69,0,0,0-8.29-3.48,18.5,18.5,0,0,0-8.93.64C387.47,89.13,386.33,90.18,386.51,90.86Z"/><path class="cls-3" d="M329,90.85c.5,1.19,5.43.55,11.24,1.09s10.51,1.87,11.27.79c.33-.52-.5-1.63-2.41-2.76a20.36,20.36,0,0,0-8.38-2.47,21,21,0,0,0-8.76,1C329.84,89.34,328.78,90.29,329,90.85Z"/><path class="cls-1" d="M442.18,135.6c.65-.24,25.72-6.22,23.65,19s-26.92,17.9-26.9,17.18S442.18,135.6,442.18,135.6Z"/><path class="cls-2" d="M447.4,162.82c.12-.07.42.35,1.13.75a4.36,4.36,0,0,0,3.27.33c2.74-.75,5.33-4.79,5.82-9.32a14.64,14.64,0,0,0-.71-6.38c-.62-1.9-1.7-3.29-3-3.63a2.23,2.23,0,0,0-2.69,1c-.39.67-.27,1.19-.41,1.22s-.51-.47-.22-1.49a2.87,2.87,0,0,1,1.12-1.5,3.38,3.38,0,0,1,2.48-.44c1.93.3,3.53,2.23,4.26,4.28a14.94,14.94,0,0,1,.94,7.14c-.58,5.06-3.56,9.59-7.29,10.35a4.7,4.7,0,0,1-3.95-1C447.4,163.44,447.31,162.86,447.4,162.82Z"/><path class="cls-3" d="M364.24,172.27c-.2-.66,4.89-1.53,8.91-5.7a28.39,28.39,0,0,0,4.28-6.11c.95-1.73,1.65-2.81,1.91-2.69s0,1.34-.62,3.26a18.57,18.57,0,0,1-4.13,6.93,15.11,15.11,0,0,1-7,4.11C365.58,172.61,364.28,172.5,364.24,172.27Z"/><path class="cls-3" d="M327.19,105.61c.63.83,5.27-2,11.41-1.45s10.33,4.16,11.07,3.45c.36-.31-.22-1.76-2.05-3.4a15.41,15.41,0,0,0-8.77-3.71,14.94,14.94,0,0,0-9.17,2.11C327.65,103.92,326.88,105.24,327.19,105.61Z"/><path class="cls-3" d="M326.76,119.67a5,5,0,0,0,4.55,5.27,4.77,4.77,0,0,0,5.36-4.23,5,5,0,0,0-4.54-5.27A4.78,4.78,0,0,0,326.76,119.67Z"/><path class="cls-3" d="M462.07,113.08c-1.85,7-6.23,23-12.51,21.6-12.45-2.83-11.68,17.09-17.68,14.75s-7.41-18.18-6.74-24.49c2.08-19.71,9.65-33.88,1.31-56.4-5.43-9-14.89-15-25.4-15a30.55,30.55,0,0,0-26,14.53c-1.27-6.89-4.88-17.24-11.11-20.43s-14.45-2.6-19.65,2.09-6.45,13.46-2.14,19a6.94,6.94,0,0,1-7.84-2.62A11.88,11.88,0,0,0,337.64,75a11,11,0,0,1-6.38-4.23l2,8.54c-10.42.51-20.86-9.35-24-18.28-4.7-13.52-1.63-27.34,5.7-39.64S335.8.2,350.12,0s26.46,6.31,32.29,19.39c9.14-6.79,27.91-9.5,38.38-5a33.42,33.42,0,0,1,19.64,26.05c6.42-2.89,14.25-.94,19.81,3.37.47.36.92.73,1.35,1.12a29.74,29.74,0,0,1,9.28,27.24c-.67,4-1.94,8.13-2.68,11.33C466,93,462.07,113.08,462.07,113.08Z"/><path class="cls-4" d="M332.7,65.53a3.88,3.88,0,0,1-.84-.64,14.25,14.25,0,0,1-2.1-2.2,20.89,20.89,0,0,1-4.33-10.27,19.79,19.79,0,0,1,4.5-15.72,21.35,21.35,0,0,1,18.45-7.46,24.13,24.13,0,0,1,10,3.64,32.26,32.26,0,0,1,7.42,6.48A38.62,38.62,0,0,1,373.57,54,37.74,37.74,0,0,1,375,65c-.06,1.32-.12,2.35-.23,3a4.23,4.23,0,0,1-.19,1c-.3,0,.91-5.93-1.78-14.92A38.83,38.83,0,0,0,365,40c-4-4.56-9.75-8.84-16.76-9.7a20.52,20.52,0,0,0-17.57,7,19.16,19.16,0,0,0-4.49,15,21.29,21.29,0,0,0,3.9,10.11C331.63,64.53,332.78,65.45,332.7,65.53Z"/><path class="cls-4" d="M328.18,76.54a6.4,6.4,0,0,1-.77-1.17c-.46-.79-1.15-2-2-3.47a75.1,75.1,0,0,1-6-13.46,38.64,38.64,0,0,1-1.83-10.07,28.38,28.38,0,0,1,1.84-11.63,22.54,22.54,0,0,1,8.13-10.14,27.38,27.38,0,0,1,13.14-4.69,33.2,33.2,0,0,1,13.83,1.89A43.36,43.36,0,0,1,365.93,30c6.67,5,11.13,11.48,12.74,17.59a24.44,24.44,0,0,1-.38,14.66,19.73,19.73,0,0,1-1.74,3.63,6.82,6.82,0,0,1-.83,1.13,32.35,32.35,0,0,0,2.17-4.89,24.65,24.65,0,0,0,.05-14.32c-1.66-5.9-6.05-12.19-12.6-17S350.13,22.2,340.76,23a26.45,26.45,0,0,0-12.64,4.49,21.59,21.59,0,0,0-7.81,9.64,27.68,27.68,0,0,0-1.87,11.23,39.12,39.12,0,0,0,1.67,9.88,83.62,83.62,0,0,0,5.68,13.48c.75,1.47,1.35,2.65,1.81,3.57A7.3,7.3,0,0,1,328.18,76.54Z"/><path class="cls-4" d="M453.11,97.51c-.14-.15,2.2-1.87,5.08-5.46a35.74,35.74,0,0,0,6.19-33.75c-1.42-4.38-3-6.82-2.81-6.92A6.68,6.68,0,0,1,462.75,53a29.82,29.82,0,0,1,2.35,5,34.4,34.4,0,0,1-6.32,34.48,29.87,29.87,0,0,1-4,3.85A6.23,6.23,0,0,1,453.11,97.51Z"/><path class="cls-4" d="M430.89,97.33c0-.11,1.21-.57,3.11-1.94a17.64,17.64,0,0,0,6-7.54l1-2.35L440.78,88c-.23,3.44-.5,7.4-.78,11.69l-.81-.46a32,32,0,0,0,12.93-20.94,32.5,32.5,0,0,0-.33-11.45c-1.39-6.46-3.9-9.89-3.68-10,0,0,.2.18.48.58s.66,1,1.13,1.84a30,30,0,0,1,2.81,7.41,31.93,31.93,0,0,1-12.75,33.39l-.9.63.09-1.08c.36-4.29.69-8.25,1-11.68l.8.19a17.31,17.31,0,0,1-6.48,7.61,14.17,14.17,0,0,1-2.44,1.27A2.89,2.89,0,0,1,430.89,97.33Z"/><path class="cls-4" d="M423,46.16c-.21.16-1.34-3.44-5.81-6.9a20.73,20.73,0,0,0-8.86-3.88,21.84,21.84,0,0,0-11.71,1.34,25.17,25.17,0,0,0-9.67,6.86,30.13,30.13,0,0,0-5.1,8.35c-2.09,5.24-2.23,8.83-2.45,8.79a8.37,8.37,0,0,1,.11-2.48,31,31,0,0,1,1.63-6.58,29.33,29.33,0,0,1,5.06-8.73,25.54,25.54,0,0,1,10-7.22,22.3,22.3,0,0,1,12.28-1.3,20.71,20.71,0,0,1,9.15,4.25,18,18,0,0,1,4.39,5.2,11.34,11.34,0,0,1,.77,1.68C422.92,45.94,423,46.15,423,46.16Z"/><path class="cls-4" d="M416.82,27.69c-.11.21-2.41-1.54-6.78-2.43A24.32,24.32,0,0,0,393.36,28,30.38,30.38,0,0,0,381.79,40.6c-2,4-2.64,6.74-2.83,6.68a6.72,6.72,0,0,1,.33-2,30.53,30.53,0,0,1,13.53-18.26,24,24,0,0,1,17.38-2.56,18.27,18.27,0,0,1,5,2A6,6,0,0,1,416.82,27.69Z"/><path class="cls-5" d="M511.17,281.39s28.75,16.57,34.58,36c3.54,11.81,30.37,163,34.61,192.82,4.29,30.1-4.71,51.9-17.42,61.79s-51.26,23.06-51.26,23.06l-54.22,17.56-15.54-39.55L493.54,499l-5-50Z"/><path class="cls-5" d="M454.64,255.27,433,242.94s-19.68,23-46.52,20.19-42.74-23.37-42.74-23.37l-80,16.3h0c-5.37,1.08-15.16,4.47-24.53,17.85-10.45,14.93-60,81.13-60,81.13H144.53a25.75,25.75,0,0,0-22.79,13.75c-5.92,11.28-13,26.35-12.34,32.6C110.58,412,108.54,441,122.7,450c4.5,2.87,20.57,11.48,33,10.9,18.4-.87,39.77-10.45,52.09-19.06,10.42-7.29,34.68-32.5,44-42.34v.16l6,210,209.86-6,43.5-322.27S456.76,255.27,454.64,255.27Z"/><path class="cls-3" d="M251.09,311.53c.3,0,.84,26,1.22,58.13s.45,58.14.15,58.14-.85-26-1.23-58.13S250.79,311.54,251.09,311.53Z"/><path class="cls-3" d="M536.58,481.28c0,.1-1.78.28-5,.89a61.11,61.11,0,0,0-13,4.13,84.74,84.74,0,0,0-17.3,10.45,150.88,150.88,0,0,0-18.23,16.86c-6,6.48-11.48,12.89-16.63,18.58a202.69,202.69,0,0,1-14.3,14.57,102.06,102.06,0,0,1-10.74,8.59c-1.32,1-2.43,1.58-3.15,2a6.36,6.36,0,0,1-1.14.63,6.32,6.32,0,0,1,1-.81c.67-.52,1.74-1.2,3-2.2a118.56,118.56,0,0,0,10.47-8.81c4.24-3.94,9-9,14.08-14.67s10.55-12.15,16.58-18.65A145.22,145.22,0,0,1,500.73,496a82.31,82.31,0,0,1,17.6-10.36,56.42,56.42,0,0,1,13.22-3.85,36.65,36.65,0,0,1,3.72-.42A5.67,5.67,0,0,1,536.58,481.28Z"/><path class="cls-3" d="M541.32,467.05c0,.2-3.17.64-8.17,2a75.87,75.87,0,0,0-34.37,20.47c-3.61,3.74-5.52,6.35-5.68,6.23a9.22,9.22,0,0,1,1.22-1.93,50.36,50.36,0,0,1,3.9-4.82A68.94,68.94,0,0,1,533,468.34a49.52,49.52,0,0,1,6.09-1.13A9.68,9.68,0,0,1,541.32,467.05Z"/><g class="cls-6"><path d="M150.73,430.2c11.11,3,24.45-13,34.54-23,5.25-5.21,10.71-10.76,12.64-17.89,1.6-5.89.56-12.25-1.74-17.91a66.28,66.28,0,0,0-7.39-14.35c.93,8.63,3.05,21.84.15,32.68-2.42,9-8.15,16.24-14.22,23.06-6.43,7.22-14,14.8-24,17.37"/></g><path class="cls-3" d="M198.23,421.05c-.21-.06,1.08-3.66,2.12-9.68a74.09,74.09,0,0,0,1-10.67,73.13,73.13,0,0,0-4.08-25.78,74,74,0,0,0-4.25-9.83c-2.85-5.41-5.18-8.43-5-8.56a12.81,12.81,0,0,1,1.7,2.07,27.88,27.88,0,0,1,1.81,2.57c.65,1,1.45,2.19,2.16,3.56a67.49,67.49,0,0,1,4.52,9.86,75.35,75.35,0,0,1,3.32,12.88,76.14,76.14,0,0,1,.81,13.26,67.49,67.49,0,0,1-1.26,10.78c-.25,1.52-.66,2.86-1,4.05a29.26,29.26,0,0,1-.92,3A13.18,13.18,0,0,1,198.23,421.05Z"/><path class="cls-3" d="M352.51,247.88c.14.28-2.32,1.71-4.89,4s-4.3,4.56-4.57,4.39,1.13-2.79,3.85-5.2S352.4,247.62,352.51,247.88Z"/><path class="cls-3" d="M374.34,260.56c.23.23-1.88,2.5-3.58,5.85s-2.35,6.37-2.66,6.31-.13-3.28,1.7-6.81S374.18,260.35,374.34,260.56Z"/><path class="cls-3" d="M411.73,273.73c-.3.06-1.15-2.81-2.4-6.26s-2.41-6.22-2.14-6.36,1.89,2.46,3.16,6S412,273.67,411.73,273.73Z"/><path class="cls-3" d="M435.79,262.36c-.31.07-1.13-3.6-3.5-7.46s-5.19-6.32-5-6.57,3.45,1.92,5.9,6S436.06,262.35,435.79,262.36Z"/><path class="cls-3" d="M504.89,330.35c.3,0-3.25,28.72-7.93,64.06s-8.71,64-9,63.92,3.25-28.72,7.93-64.06S504.6,330.31,504.89,330.35Z"/><path class="cls-3" d="M190.4,376.79a15,15,0,0,1-.06,3,23.37,23.37,0,0,1-.43,3.45c-.12.68-.24,1.4-.36,2.15s-.39,1.53-.6,2.36A64.35,64.35,0,0,1,184.81,399a76.5,76.5,0,0,1-7.71,12.53,66.1,66.1,0,0,1-10.25,10.55,44.11,44.11,0,0,1-10.29,6.21c-.79.33-1.54.67-2.26.93l-2.11.59-1.83.5c-.57.12-1.11.15-1.58.22a14.77,14.77,0,0,1-2.95.23c-.06-.29,4.27-.37,10.42-3.17a46,46,0,0,0,10-6.28,68.65,68.65,0,0,0,10-10.44,81.87,81.87,0,0,0,7.67-12.3,68.45,68.45,0,0,0,4.29-11C190.1,381,190.16,376.77,190.4,376.79Z"/><g class="cls-6"><path d="M498.14,616.82c8.9-4.3,10.92-15.85,11.83-25.69l8-86.53c1.25-13.56,1.86-29-7.7-38.74-8.74-8.85-22.62-9.39-35.05-9.35-76.8.22-144.62,2.46-221.42,2.69l3.92,134.33Z"/></g><path class="cls-7" d="M220.69,480l8.18,155.8a11.35,11.35,0,0,0,11.41,10.71l248.19.44a11.39,11.39,0,0,0,11.42-10.76L509.36,483c.32-6.36-4.21-14.82-10.65-15l-266.37,0A11.36,11.36,0,0,0,220.69,480Z"/><path class="cls-3" d="M220.69,480s0-.2,0-.59a10.76,10.76,0,0,1,.09-1.73,11.23,11.23,0,0,1,2.94-6.07,11.54,11.54,0,0,1,4.16-2.83,14.57,14.57,0,0,1,6-.83l15.09,0,96.17-.18,142.62-.13h10.12A9,9,0,0,1,503,468.9a12.69,12.69,0,0,1,3.79,3.72,18,18,0,0,1,3.12,10.05c-.21,3.47-.42,7-.62,10.48q-1.31,21-2.65,42.91c-1.79,29.15-3.66,59.33-5.56,90.25l-.36,5.79c-.17,1.94-.14,3.8-.48,5.83a11.85,11.85,0,0,1-7.49,8.78,14.29,14.29,0,0,1-5.82.78h-5.71l-11.36,0-44.55-.09L341,647.2,264.82,647l-17.59,0h-4.3a36.86,36.86,0,0,1-4.31-.14,11.83,11.83,0,0,1-10.21-12c-.14-2.71-.28-5.4-.42-8q-.41-8-.79-15.56c-2.06-40.53-3.72-73.34-4.87-96-.55-11.33-1-20.12-1.27-26.11q-.21-4.46-.31-6.8c-.06-1.53-.06-2.31-.06-2.31s.08.78.17,2.31.24,3.82.41,6.78c.34,6,.84,14.79,1.48,26.1,1.23,22.7,3,55.49,5.21,96q.4,7.6.83,15.56c.14,2.65.29,5.33.43,8a11.21,11.21,0,0,0,2.59,7.35,11,11,0,0,0,6.93,3.81,35.93,35.93,0,0,0,4.19.12h4.3l17.59,0,76.22.08,84.24.12,44.56.07,11.35,0h5.71a13.57,13.57,0,0,0,5.45-.71,10.81,10.81,0,0,0,6.8-8c.31-1.77.31-3.78.46-5.68l.36-5.79c1.91-30.91,3.78-61.1,5.59-90.25q1.37-21.86,2.67-42.91.31-5.25.62-10.45a16.88,16.88,0,0,0-2.93-9.45c-1.83-2.75-4.75-4.85-8.09-4.59H487.71l-142.62-.1-96.16-.16-15.09-.05a14.42,14.42,0,0,0-5.9.76,11.35,11.35,0,0,0-7.08,8.67A23,23,0,0,0,220.69,480Z"/><circle class="cls-8" cx="366.86" cy="556" r="14.62"/><path class="cls-3" d="M381.48,556c-.12,0-.06-1.3-.66-3.52a14.63,14.63,0,0,0-5.34-7.8,14.22,14.22,0,0,0-13.43-1.94,13.91,13.91,0,0,0-6.53,4.93,14.07,14.07,0,0,0,0,16.66,14,14,0,0,0,6.53,4.93,14.22,14.22,0,0,0,13.43-1.94,14.63,14.63,0,0,0,5.34-7.8c.6-2.22.54-3.53.66-3.52a2.85,2.85,0,0,1,.06.94,11,11,0,0,1-.31,2.68,14.56,14.56,0,0,1-5.29,8.3,14.85,14.85,0,0,1-6.29,2.88,15.09,15.09,0,0,1-7.93-.6,14.85,14.85,0,0,1-7.05-5.25,15,15,0,0,1,0-17.9,14.85,14.85,0,0,1,7.05-5.25,15.06,15.06,0,0,1,7.92-.6,14.71,14.71,0,0,1,6.3,2.88,14.5,14.5,0,0,1,5.29,8.3,10.94,10.94,0,0,1,.31,2.68A2.85,2.85,0,0,1,381.48,556Z"/><path class="cls-3" d="M229.05,497.25c.3,0,1.52,26.18,2.73,58.48s1.95,58.5,1.66,58.52-1.53-26.17-2.74-58.48S228.75,497.26,229.05,497.25Z"/><path class="cls-1" d="M154.45,294c-1.45-1.23,4.91-25.7,4.91-25.7s-16.84-27.47-17.28-36.33,6.64-27,6.64-27L197,192.5s15.51,28.8,18.61,39-5.32,44.75-5.32,44.75L202.13,294S177.46,313.46,154.45,294Z"/><path class="cls-1" d="M142.17,237.23a105.57,105.57,0,0,1-5.09-10.72c-3.06-7.25-6.81-14.36,0-18.42a8.88,8.88,0,0,1,7.28-1.15s-1.05-6.1,2.6-8.39a7.85,7.85,0,0,1,7.16-.62s-1.15-8.61,4.1-12.27c6.59-4.58,13.38-.38,13.38-.38s-4.16-37.69-4.52-39.68c-1.32-7.33,1.39-13.81,8.68-12,2.67.67,4.15,3.48,7.29,15.75s8.17,33.22,8.17,33.22,8.48,14.74,12.48,22.74,11.93,26.19,12.59,31c1.71,12.47-5.59,29-5.59,29l-51.34,3S144.12,240.81,142.17,237.23Z"/><path class="cls-2" d="M145.37,208.57c.13-.08,1.64,2,4,5.54l4.07,6.18a26.18,26.18,0,0,1,2.2,3.86,7.88,7.88,0,0,1,.61,4.9,5,5,0,0,1-3.25,3.8,6.42,6.42,0,0,1-4.59-.57,20.72,20.72,0,0,1-3.43-2.12c-1-.73-1.94-1.42-2.77-2.07-1.66-1.3-3-2.42-3.83-3.22s-1.32-1.28-1.27-1.33,2.14,1.5,5.56,3.94a44.55,44.55,0,0,0,6.14,3.89,5.51,5.51,0,0,0,3.87.47,3.9,3.9,0,0,0,2.52-3,6.91,6.91,0,0,0-.53-4.25,27.55,27.55,0,0,0-2.07-3.74l-3.87-6.3C146.53,210.92,145.25,208.65,145.37,208.57Z"/><path class="cls-2" d="M187.48,213c-.28,0-.54-3.67.54-8.06s3-7.57,3.2-7.43-1.14,3.42-2.16,7.68S187.79,213.05,187.48,213Z"/><path class="cls-1" d="M207.83,224.06a34.12,34.12,0,0,0-17.18-9,64.39,64.39,0,0,0-19.55-.75c-5.23.47-11.19,1.82-13.57,6.49s.5,11,5.13,13.78S173,237.5,178.4,237s10.8-1.49,16.13-.66"/><path class="cls-2" d="M194.53,236.35c0,.09-1.45-.14-4.05-.11a109.76,109.76,0,0,0-11,1,46.34,46.34,0,0,1-7.71.32,20.89,20.89,0,0,1-8.65-2.17,13.34,13.34,0,0,1-6.43-7.47,10.15,10.15,0,0,1-.36-5.34,9.17,9.17,0,0,1,2.83-4.75c2.87-2.53,6.54-3.34,9.87-3.83a83.11,83.11,0,0,1,9.76-.59,49.55,49.55,0,0,1,16.32,2.47,32.56,32.56,0,0,1,9.79,5.29,22.87,22.87,0,0,1,2.25,2,4.3,4.3,0,0,1,.68.81c-.07.08-1.08-1-3.18-2.51a34.82,34.82,0,0,0-9.79-4.9,50.38,50.38,0,0,0-16.07-2.2,87.58,87.58,0,0,0-9.62.64c-3.24.48-6.73,1.31-9.28,3.59a8,8,0,0,0-2.51,4.18,9,9,0,0,0,.32,4.78,12.31,12.31,0,0,0,5.88,6.92,20.21,20.21,0,0,0,8.24,2.16,48,48,0,0,0,7.58-.19,87.66,87.66,0,0,1,11.08-.71,27.5,27.5,0,0,1,3,.28A4,4,0,0,1,194.53,236.35Z"/><path class="cls-1" d="M145.74,209.16c5.41,8.2,10.17,17.21,14.73,25.92,1.32,2.53,2.72,5.21,5.15,6.7,1.95,1.2,6.78-1,8.95-1.71l-14.83-33.75"/><path class="cls-2" d="M159.74,206.32a15.76,15.76,0,0,1,1.31,2.51l3.29,7.07c2.75,6,6.51,14.43,10.72,23.95l.23.53-.55.19c-1.6.57-3.32,1.29-5.17,1.76a10.63,10.63,0,0,1-2.27.34,4,4,0,0,1-1.22-.13A3.45,3.45,0,0,1,165,242a11.58,11.58,0,0,1-3-3.2c-1.53-2.39-2.6-4.79-3.81-7-2.33-4.49-4.46-8.51-6.32-11.85s-3.4-6-4.49-7.86a24.14,24.14,0,0,1-1.62-2.9,17.31,17.31,0,0,1,2,2.68c1.19,1.78,2.86,4.4,4.8,7.7s4.15,7.3,6.53,11.77c1.22,2.2,2.35,4.65,3.81,6.9a10.71,10.71,0,0,0,2.71,2.9c.94.76,2.38.48,3.74.17,1.75-.44,3.42-1.13,5.08-1.72l-.31.72c-4.17-9.54-7.82-18-10.4-24.09l-3-7.2A15,15,0,0,1,159.74,206.32Z"/><path class="cls-1" d="M155.74,196.29,170,232.16a24.42,24.42,0,0,0,3.85,7.19c1.79,2.07,4.49,3.54,7.2,3.14,3.72-.56,6.16-4.51,6.35-8.27s-1.3-7.38-2.68-10.89a226,226,0,0,1-10.25-33.56"/><path class="cls-2" d="M174.51,189.77a5.43,5.43,0,0,1,.36,1.09l.84,3.17c.74,2.75,1.82,6.73,3.33,11.59s3.46,10.6,5.92,16.86c1.2,3.11,2.74,6.43,3,10.26a11.14,11.14,0,0,1-1.08,5.69,8.34,8.34,0,0,1-4.3,4.21,7.23,7.23,0,0,1-6-.48,11.31,11.31,0,0,1-4.22-4c-2-3.23-3-6.65-4.33-9.75l-6.52-16.67c-1.78-4.66-3.24-8.47-4.32-11.28l-1.12-3.09a4.55,4.55,0,0,1-.32-1.1,5.24,5.24,0,0,1,.52,1l1.31,3c1.16,2.78,2.72,6.55,4.63,11.15,1.94,4.77,4.22,10.38,6.74,16.6,1.33,3.08,2.38,6.54,4.29,9.53a10.19,10.19,0,0,0,3.83,3.6,6.16,6.16,0,0,0,5.13.44,7.29,7.29,0,0,0,3.72-3.68,10,10,0,0,0,1-5.16c-.21-3.56-1.68-6.82-2.86-10-2.43-6.31-4.31-12.1-5.73-17s-2.39-8.93-3-11.71c-.3-1.4-.53-2.48-.66-3.22A4.26,4.26,0,0,1,174.51,189.77Z"/><path class="cls-1" d="M156.89,280.38s-32.75,96.54-34,101.28,6.47,39.21,20.69,47.4,41.8-25.86,45.25-38.35,0-33.62,0-33.62l22.08-83.18"/><path class="cls-2" d="M188.78,265.38c0,.12-1.22.14-3.08-.41a17.13,17.13,0,0,1-10.81-9.91c-.7-1.81-.79-3-.67-3,.31-.13,1.45,4.59,5.69,8.4S188.88,265.06,188.78,265.38Z"/><rect class="cls-5" y="41.12" width="254.16" height="86.31" rx="5.29"/><path class="cls-8" d="M46.74,83.05c0-5.44,4.18-9.34,9.8-9.34A9.33,9.33,0,0,1,64,76.91l-2.68,2.48a5.81,5.81,0,0,0-4.54-2.12,5.78,5.78,0,0,0,0,11.56,5.77,5.77,0,0,0,4.54-2.14L64,89.17a9.28,9.28,0,0,1-7.46,3.22C50.92,92.39,46.74,88.5,46.74,83.05Z"/><path class="cls-8" d="M66.77,74H71V88.68H80v3.4H66.77Z"/><path class="cls-8" d="M82.35,74h4.18V92.08H82.35Z"/><path class="cls-8" d="M89.67,83.05c0-5.44,4.18-9.34,9.81-9.34a9.35,9.35,0,0,1,7.43,3.2l-2.69,2.48a5.78,5.78,0,0,0-4.54-2.12,5.78,5.78,0,0,0,0,11.56,5.74,5.74,0,0,0,4.54-2.14l2.69,2.48a9.29,9.29,0,0,1-7.46,3.22C93.85,92.39,89.67,88.5,89.67,83.05Z"/><path class="cls-8" d="M116.29,85l-2.43,2.53v4.56h-4.15V74h4.15v8.44l8-8.44h4.64l-7.48,8,7.92,10h-4.87Z"/><path class="cls-8" d="M152.65,74V92.08h-4.18v-7.4h-8.2v7.4h-4.18V74h4.18v7.12h8.2V74Z"/><path class="cls-8" d="M170.91,88.73v3.35h-14V74h13.65v3.36h-9.49V81.3h8.38v3.25h-8.38v4.18Z"/><path class="cls-8" d="M185.73,92.08l-3.48-5h-3.84v5h-4.18V74H182c4.83,0,7.85,2.5,7.85,6.55a5.89,5.89,0,0,1-3.72,5.71l4.05,5.8Zm-3.92-14.65h-3.4v6.29h3.4c2.56,0,3.85-1.18,3.85-3.15S184.37,77.43,181.81,77.43Z"/><path class="cls-8" d="M207.16,88.73v3.35h-14V74h13.65v3.36h-9.5V81.3h8.39v3.25h-8.39v4.18Z"/></g></g></svg>