<svg xmlns="http://www.w3.org/2000/svg" viewBox="0 0 441.18 304.28"><defs><style>.cls-1{fill:#f5f5f5;}.cls-2{fill:#fafafa;}.cls-3{fill:#e0e0e0;}.cls-4{fill:#263238;}.cls-5{fill:#455a64;}.cls-6{fill:#5396CE;}.cls-7{fill:#ebebeb;}.cls-10,.cls-8{fill:#fff;}.cls-10,.cls-9{opacity:0.5;}.cls-10{isolation:isolate;}.cls-11{fill:#ffbe9d;}.cls-12{fill:#eb996e;}.cls-13{opacity:0.2;}</style></defs><g id="Layer_2" data-name="Layer 2"><g id="Layer_1-2" data-name="Layer 1"><rect class="cls-1" x="0.45" y="44.45" width="84.76" height="259.65"/><rect class="cls-2" x="84.95" y="44.45" width="66.99" height="259.65"/><rect class="cls-3" x="5" y="86.01" width="71.9" height="20.24"/><rect class="cls-1" x="7.01" y="88.55" width="4.03" height="15.49"/><path class="cls-2" d="M15.78,91.81a1.28,1.28,0,1,1-1.28-1.28h0A1.28,1.28,0,0,1,15.78,91.81Z"/><circle class="cls-2" cx="14.5" cy="97.29" r="1.28"/><rect class="cls-1" x="20.89" y="90.53" width="3.96" height="11.9"/><rect class="cls-1" x="26.61" y="90.53" width="3.96" height="11.9"/><rect class="cls-1" x="32.32" y="90.53" width="3.96" height="11.9"/><rect class="cls-1" x="38.04" y="90.53" width="3.96" height="11.9"/><rect class="cls-1" x="43.75" y="90.53" width="3.96" height="11.9"/><rect class="cls-1" x="49.47" y="90.53" width="3.96" height="11.9"/><rect class="cls-1" x="55.18" y="90.53" width="3.96" height="11.9"/><rect class="cls-1" x="60.9" y="90.53" width="3.96" height="11.9"/><rect class="cls-1" x="66.61" y="90.53" width="3.96" height="11.9"/><rect class="cls-1" x="72.33" y="90.53" width="3.96" height="11.9"/><rect class="cls-3" x="5" y="118.43" width="71.9" height="20.24"/><rect class="cls-1" x="7.01" y="120.98" width="4.03" height="15.49"/><path class="cls-2" d="M15.78,124.24A1.28,1.28,0,1,1,14.5,123h0A1.28,1.28,0,0,1,15.78,124.24Z"/><circle class="cls-2" cx="14.5" cy="129.71" r="1.28"/><rect class="cls-1" x="20.89" y="122.96" width="3.96" height="11.9"/><rect class="cls-1" x="26.61" y="122.96" width="3.96" height="11.9"/><rect class="cls-1" x="32.32" y="122.96" width="3.96" height="11.9"/><rect class="cls-1" x="38.04" y="122.96" width="3.96" height="11.9"/><rect class="cls-1" x="43.75" y="122.96" width="3.96" height="11.9"/><rect class="cls-1" x="49.47" y="122.96" width="3.96" height="11.9"/><rect class="cls-1" x="55.18" y="122.96" width="3.96" height="11.9"/><rect class="cls-1" x="60.9" y="122.96" width="3.96" height="11.9"/><rect class="cls-1" x="66.61" y="122.96" width="3.96" height="11.9"/><rect class="cls-1" x="72.33" y="122.96" width="3.96" height="11.9"/><rect class="cls-3" x="5" y="150.86" width="71.9" height="20.24"/><rect class="cls-1" x="7.01" y="153.4" width="4.03" height="15.49"/><path class="cls-2" d="M15.78,156.66a1.28,1.28,0,1,1-1.28-1.28h0A1.28,1.28,0,0,1,15.78,156.66Z"/><circle class="cls-2" cx="14.5" cy="162.13" r="1.28"/><rect class="cls-1" x="20.89" y="155.38" width="3.96" height="11.9"/><rect class="cls-1" x="26.61" y="155.38" width="3.96" height="11.9"/><rect class="cls-1" x="32.32" y="155.38" width="3.96" height="11.9"/><rect class="cls-1" x="38.04" y="155.38" width="3.96" height="11.9"/><rect class="cls-1" x="43.75" y="155.38" width="3.96" height="11.9"/><rect class="cls-1" x="49.47" y="155.38" width="3.96" height="11.9"/><rect class="cls-1" x="55.18" y="155.38" width="3.96" height="11.9"/><rect class="cls-1" x="60.9" y="155.38" width="3.96" height="11.9"/><rect class="cls-1" x="66.61" y="155.38" width="3.96" height="11.9"/><rect class="cls-1" x="72.33" y="155.38" width="3.96" height="11.9"/><rect class="cls-3" x="5" y="183.28" width="71.9" height="20.24"/><rect class="cls-1" x="7.01" y="185.82" width="4.03" height="15.49"/><path class="cls-2" d="M15.78,189.08a1.28,1.28,0,1,1-1.28-1.28h0A1.28,1.28,0,0,1,15.78,189.08Z"/><circle class="cls-2" cx="14.5" cy="194.56" r="1.28"/><rect class="cls-1" x="20.89" y="187.8" width="3.96" height="11.9"/><rect class="cls-1" x="26.61" y="187.8" width="3.96" height="11.9"/><rect class="cls-1" x="32.32" y="187.8" width="3.96" height="11.9"/><rect class="cls-1" x="38.04" y="187.8" width="3.96" height="11.9"/><rect class="cls-1" x="43.75" y="187.8" width="3.96" height="11.9"/><rect class="cls-1" x="49.47" y="187.8" width="3.96" height="11.9"/><rect class="cls-1" x="55.18" y="187.8" width="3.96" height="11.9"/><rect class="cls-1" x="60.9" y="187.8" width="3.96" height="11.9"/><rect class="cls-1" x="66.61" y="187.8" width="3.96" height="11.9"/><rect class="cls-1" x="72.33" y="187.8" width="3.96" height="11.9"/><rect class="cls-3" x="5" y="215.7" width="71.9" height="20.24"/><rect class="cls-1" x="7.01" y="218.25" width="4.03" height="15.49"/><path class="cls-2" d="M15.78,221.51a1.28,1.28,0,1,1-1.28-1.28h0A1.28,1.28,0,0,1,15.78,221.51Z"/><circle class="cls-2" cx="14.5" cy="226.98" r="1.28"/><rect class="cls-1" x="20.89" y="220.23" width="3.96" height="11.9"/><rect class="cls-1" x="26.61" y="220.23" width="3.96" height="11.9"/><rect class="cls-1" x="32.32" y="220.23" width="3.96" height="11.9"/><rect class="cls-1" x="38.04" y="220.23" width="3.96" height="11.9"/><rect class="cls-1" x="43.75" y="220.23" width="3.96" height="11.9"/><rect class="cls-1" x="49.47" y="220.23" width="3.96" height="11.9"/><rect class="cls-1" x="55.18" y="220.23" width="3.96" height="11.9"/><rect class="cls-1" x="60.9" y="220.23" width="3.96" height="11.9"/><rect class="cls-1" x="66.61" y="220.23" width="3.96" height="11.9"/><rect class="cls-1" x="72.33" y="220.23" width="3.96" height="11.9"/><rect class="cls-3" x="5" y="248.13" width="71.9" height="20.24"/><rect class="cls-1" x="7.01" y="250.67" width="4.03" height="15.49"/><path class="cls-2" d="M15.78,253.92a1.28,1.28,0,1,1-1.28-1.28h0A1.28,1.28,0,0,1,15.78,253.92Z"/><circle class="cls-2" cx="14.5" cy="259.4" r="1.28"/><rect class="cls-1" x="20.89" y="252.65" width="3.96" height="11.9"/><rect class="cls-1" x="26.61" y="252.65" width="3.96" height="11.9"/><rect class="cls-1" x="32.32" y="252.65" width="3.96" height="11.9"/><rect class="cls-1" x="38.04" y="252.65" width="3.96" height="11.9"/><rect class="cls-1" x="43.75" y="252.65" width="3.96" height="11.9"/><rect class="cls-1" x="49.47" y="252.65" width="3.96" height="11.9"/><rect class="cls-1" x="55.18" y="252.65" width="3.96" height="11.9"/><rect class="cls-1" x="60.9" y="252.65" width="3.96" height="11.9"/><rect class="cls-1" x="66.61" y="252.65" width="3.96" height="11.9"/><rect class="cls-1" x="72.33" y="252.65" width="3.96" height="11.9"/><rect class="cls-3" x="5" y="280.55" width="71.9" height="20.24"/><rect class="cls-1" x="7.01" y="283.09" width="4.03" height="15.49"/><circle class="cls-2" cx="14.5" cy="286.35" r="1.28"/><circle class="cls-2" cx="14.5" cy="291.83" r="1.28"/><rect class="cls-1" x="20.89" y="285.07" width="3.96" height="11.9"/><rect class="cls-1" x="26.61" y="285.07" width="3.96" height="11.9"/><rect class="cls-1" x="32.32" y="285.07" width="3.96" height="11.9"/><rect class="cls-1" x="38.04" y="285.07" width="3.96" height="11.9"/><rect class="cls-1" x="43.75" y="285.07" width="3.96" height="11.9"/><rect class="cls-1" x="49.47" y="285.07" width="3.96" height="11.9"/><rect class="cls-1" x="55.18" y="285.07" width="3.96" height="11.9"/><rect class="cls-1" x="60.9" y="285.07" width="3.96" height="11.9"/><rect class="cls-1" x="66.61" y="285.07" width="3.96" height="11.9"/><rect class="cls-1" x="72.33" y="285.07" width="3.96" height="11.9"/><path class="cls-3" d="M49.47,86a2.72,2.72,0,0,1-.08-.63c0-.41-.06-1-.08-1.79s0-1.74-.09-2.84a18.39,18.39,0,0,0-.49-3.69,13.31,13.31,0,0,0-1.92-4,8.91,8.91,0,0,0-3.94-3.16,18.66,18.66,0,0,0-5.58-1.13l-6.19-.54C22.61,67.49,14.92,67,9.34,66.91c-2.79-.06-5,0-6.61,0H.94a3.31,3.31,0,0,1-.63,0,2.15,2.15,0,0,1,.62-.08l1.8-.11c1.56-.07,3.82-.14,6.62-.12,5.59,0,13.3.43,21.8,1.16l6.19.55a19.34,19.34,0,0,1,5.72,1.2,9.26,9.26,0,0,1,4.1,3.35,13.18,13.18,0,0,1,1.92,4.19,17.72,17.72,0,0,1,.43,3.77v4.65A3.27,3.27,0,0,1,49.47,86Z"/><path class="cls-3" d="M27.66,86a1.94,1.94,0,0,1,0-.59V83.73c0-.69,0-1.64-.09-2.67a8,8,0,0,0-.88-3.32,6.31,6.31,0,0,0-3.24-2.49,8.84,8.84,0,0,0-4.72-.48,7.83,7.83,0,0,0-2.44.83,4.59,4.59,0,0,0-1.89,1.79,2.55,2.55,0,0,0,0,2.51,3.34,3.34,0,0,0,2.14,1.6A2.69,2.69,0,0,0,19,80.78a3.61,3.61,0,0,0,.36-4.86,5.42,5.42,0,0,0-1.89-1.67,7,7,0,0,0-2.37-.61c-.81-.12-1.6-.23-2.37-.32-1.53-.17-3-.27-4.26-.32-2.62-.11-4.75-.07-6.22-.07H.59a2.91,2.91,0,0,1-.59,0,2.32,2.32,0,0,1,.59-.07l1.69-.09c1.47-.06,3.59-.15,6.23-.09,1.31,0,2.76.11,4.3.26.77.08,1.57.18,2.38.29.42.07.82.12,1.25.2a4.78,4.78,0,0,1,1.27.44,5.75,5.75,0,0,1,2.08,1.81,4.12,4.12,0,0,1,.85,2.77,4.21,4.21,0,0,1-1.27,2.72,3.23,3.23,0,0,1-3,.85,3.85,3.85,0,0,1-2.47-1.86,3,3,0,0,1,0-3,5.06,5.06,0,0,1,2.1-2,8.84,8.84,0,0,1,2.6-.86,9.28,9.28,0,0,1,5,.55,6.72,6.72,0,0,1,3.4,2.7A8.16,8.16,0,0,1,27.85,81c.06,1,0,1.95,0,2.69s-.06,1.25-.08,1.69A3.84,3.84,0,0,1,27.66,86Z"/><path class="cls-3" d="M55.39,86a3.82,3.82,0,0,1-.15-.67c-.08-.44-.21-1.09-.39-1.92a38,38,0,0,0-2.12-6.85,20,20,0,0,0-6.26-8.39A11.74,11.74,0,0,0,40.75,66,60.75,60.75,0,0,0,34,65.64c-9.29-.17-17.71-.14-23.81-.38-3-.11-5.51-.26-7.21-.38l-2-.17a2.59,2.59,0,0,1-.68-.09,4,4,0,0,1,.69,0l2,.07c1.7.06,4.16.15,7.2.21,6.09.15,14.51.06,23.81.23a59.48,59.48,0,0,1,6.8.38,12.21,12.21,0,0,1,5.94,2.3,18.09,18.09,0,0,1,4,4.19,24.72,24.72,0,0,1,2.35,4.43,34.76,34.76,0,0,1,2,7c.15.84.24,1.5.29,1.94A3.42,3.42,0,0,1,55.39,86Z"/><rect class="cls-3" x="5.99" y="47.68" width="69.92" height="10.15"/><rect class="cls-1" x="21.37" y="52.76" width="38.07" height="5.08"/><rect class="cls-4" x="307.4" y="173.53" width="112.71" height="123.66"/><rect class="cls-5" x="290.94" y="198.26" width="123.21" height="30.57"/><rect class="cls-4" x="296.41" y="204.56" width="24.26" height="3.73"/><rect class="cls-4" x="296.41" y="210.98" width="24.26" height="3.73"/><rect class="cls-4" x="296.41" y="217.62" width="24.26" height="3.73"/><path class="cls-4" d="M330.27,206.81a1.4,1.4,0,1,1-1.41-1.39h0A1.39,1.39,0,0,1,330.27,206.81Z"/><path class="cls-4" d="M336.39,206.81a1.4,1.4,0,1,1-1.41-1.39h0A1.39,1.39,0,0,1,336.39,206.81Z"/><path class="cls-4" d="M342.55,206.81a1.39,1.39,0,1,1-1.39-1.39A1.39,1.39,0,0,1,342.55,206.81Z"/><path class="cls-4" d="M348.69,206.81a1.39,1.39,0,1,1-1.39-1.39A1.39,1.39,0,0,1,348.69,206.81Z"/><path class="cls-4" d="M396.28,206.81a1.39,1.39,0,1,1-1.39-1.39A1.39,1.39,0,0,1,396.28,206.81Z"/><path class="cls-4" d="M402.54,206.81a1.39,1.39,0,1,1-1.39-1.39A1.39,1.39,0,0,1,402.54,206.81Z"/><path class="cls-4" d="M354.83,206.81a1.39,1.39,0,1,1-1.39-1.39A1.39,1.39,0,0,1,354.83,206.81Z"/><path class="cls-4" d="M385,206.81a1.39,1.39,0,1,1-1.39-1.39A1.39,1.39,0,0,1,385,206.81Z"/><path class="cls-1" d="M361,206.81a1.39,1.39,0,1,1-1.39-1.39A1.39,1.39,0,0,1,361,206.81Z"/><path class="cls-1" d="M367.11,206.81a1.39,1.39,0,1,1-1.39-1.39A1.39,1.39,0,0,1,367.11,206.81Z"/><path class="cls-1" d="M379.57,206.81a1.39,1.39,0,1,1-1.39-1.39A1.39,1.39,0,0,1,379.57,206.81Z"/><path class="cls-1" d="M407.64,206.81a1.4,1.4,0,1,1-1.41-1.39h0A1.39,1.39,0,0,1,407.64,206.81Z"/><path class="cls-6" d="M373.26,206.81a1.4,1.4,0,1,1-1.41-1.39h0A1.4,1.4,0,0,1,373.26,206.81Z"/><path class="cls-6" d="M390.84,206.81a1.39,1.39,0,1,1-1.39-1.39A1.39,1.39,0,0,1,390.84,206.81Z"/><path class="cls-4" d="M404.85,213.52a1.4,1.4,0,1,1,1.41,1.39h0A1.4,1.4,0,0,1,404.85,213.52Z"/><path class="cls-4" d="M398.71,213.52a1.4,1.4,0,1,1,1.41,1.39h0a1.39,1.39,0,0,1-1.39-1.39Z"/><path class="cls-4" d="M392.57,213.52a1.39,1.39,0,1,1,1.39,1.39,1.39,1.39,0,0,1-1.39-1.39Z"/><path class="cls-4" d="M386.39,213.52a1.39,1.39,0,1,1,1.39,1.39,1.39,1.39,0,0,1-1.39-1.39Z"/><path class="cls-4" d="M338.84,213.52a1.39,1.39,0,1,1,1.39,1.39,1.39,1.39,0,0,1-1.39-1.39Z"/><path class="cls-4" d="M332.58,213.52a1.39,1.39,0,1,1,1.39,1.39,1.39,1.39,0,0,1-1.39-1.39Z"/><path class="cls-4" d="M380.29,213.52a1.39,1.39,0,1,1,1.39,1.39,1.39,1.39,0,0,1-1.39-1.39Z"/><path class="cls-4" d="M350.13,213.52a1.39,1.39,0,1,1,1.39,1.39,1.39,1.39,0,0,1-1.39-1.39Z"/><path class="cls-1" d="M374.15,213.52a1.39,1.39,0,1,1,1.39,1.39,1.39,1.39,0,0,1-1.39-1.39Z"/><path class="cls-1" d="M368,213.52a1.39,1.39,0,1,1,1.38,1.4,1.39,1.39,0,0,1-1.38-1.4Z"/><path class="cls-1" d="M355.55,213.52a1.39,1.39,0,1,1,1.39,1.39,1.39,1.39,0,0,1-1.39-1.39Z"/><path class="cls-1" d="M327.48,213.52a1.4,1.4,0,1,1,1.41,1.39h0A1.4,1.4,0,0,1,327.48,213.52Z"/><path class="cls-6" d="M361.87,213.52a1.39,1.39,0,1,1,1.39,1.39,1.39,1.39,0,0,1-1.39-1.39Z"/><path class="cls-6" d="M344.28,213.52a1.4,1.4,0,1,1,1.41,1.39h0a1.39,1.39,0,0,1-1.39-1.39Z"/><circle class="cls-4" cx="328.88" cy="219.49" r="1.39"/><circle class="cls-4" cx="335.02" cy="219.49" r="1.39"/><circle class="cls-4" cx="341.16" cy="219.49" r="1.39"/><circle class="cls-4" cx="347.3" cy="219.49" r="1.39"/><circle class="cls-4" cx="394.89" cy="219.49" r="1.39"/><circle class="cls-4" cx="401.15" cy="219.49" r="1.39"/><circle class="cls-4" cx="353.44" cy="219.49" r="1.39"/><path class="cls-4" d="M385,219.49a1.39,1.39,0,1,1-1.39-1.39,1.39,1.39,0,0,1,1.39,1.39Z"/><circle class="cls-1" cx="359.58" cy="219.49" r="1.39"/><path class="cls-1" d="M367.11,219.49a1.39,1.39,0,1,1-1.39-1.39,1.39,1.39,0,0,1,1.39,1.39Z"/><circle class="cls-1" cx="378.18" cy="219.49" r="1.39"/><path class="cls-1" d="M407.64,219.49a1.4,1.4,0,1,1-1.41-1.39h0a1.39,1.39,0,0,1,1.39,1.39Z"/><circle class="cls-6" cx="371.86" cy="219.49" r="1.39"/><circle class="cls-6" cx="389.45" cy="219.49" r="1.39"/><rect class="cls-5" x="290.94" y="235.99" width="123.21" height="30.57"/><path class="cls-4" d="M330,244.23a1.39,1.39,0,1,1-1.39-1.39,1.39,1.39,0,0,1,1.39,1.39Z"/><path class="cls-4" d="M336.1,244.23a1.39,1.39,0,1,1-1.39-1.39,1.39,1.39,0,0,1,1.39,1.39Z"/><path class="cls-4" d="M342.24,244.23a1.39,1.39,0,1,1-1.39-1.39,1.39,1.39,0,0,1,1.39,1.39Z"/><path class="cls-4" d="M348.39,244.23a1.4,1.4,0,1,1-1.41-1.39h0A1.4,1.4,0,0,1,348.39,244.23Z"/><path class="cls-4" d="M396,244.23a1.39,1.39,0,1,1-1.39-1.39,1.39,1.39,0,0,1,1.39,1.39Z"/><path class="cls-4" d="M402.24,244.23a1.4,1.4,0,1,1-1.41-1.39h0A1.4,1.4,0,0,1,402.24,244.23Z"/><path class="cls-4" d="M354.53,244.23a1.4,1.4,0,1,1-1.41-1.39h0A1.4,1.4,0,0,1,354.53,244.23Z"/><path class="cls-4" d="M384.69,244.23a1.4,1.4,0,1,1-1.41-1.39h0A1.4,1.4,0,0,1,384.69,244.23Z"/><path class="cls-1" d="M360.67,244.23a1.4,1.4,0,1,1-1.41-1.39h0a1.39,1.39,0,0,1,1.39,1.39Z"/><path class="cls-1" d="M366.81,244.23a1.39,1.39,0,1,1-1.39-1.39,1.39,1.39,0,0,1,1.39,1.39Z"/><path class="cls-1" d="M379.27,244.23a1.39,1.39,0,1,1-1.39-1.39,1.39,1.39,0,0,1,1.39,1.39Z"/><path class="cls-1" d="M407.33,244.23a1.39,1.39,0,1,1-1.39-1.39,1.39,1.39,0,0,1,1.39,1.39Z"/><path class="cls-6" d="M373,244.23a1.39,1.39,0,1,1-1.39-1.39,1.39,1.39,0,0,1,1.39,1.39Z"/><path class="cls-6" d="M390.53,244.23a1.39,1.39,0,1,1-1.39-1.39,1.39,1.39,0,0,1,1.39,1.39Z"/><path class="cls-4" d="M404.55,250.92a1.39,1.39,0,1,1,1.39,1.39,1.39,1.39,0,0,1-1.39-1.39Z"/><path class="cls-4" d="M398.39,250.92a1.39,1.39,0,1,1,1.39,1.39,1.39,1.39,0,0,1-1.39-1.39Z"/><path class="cls-4" d="M392.27,250.92a1.39,1.39,0,1,1,1.39,1.39,1.39,1.39,0,0,1-1.39-1.39Z"/><path class="cls-4" d="M386.12,250.92a1.4,1.4,0,1,1,1.41,1.39h0A1.4,1.4,0,0,1,386.12,250.92Z"/><path class="cls-4" d="M338.54,250.92a1.39,1.39,0,1,1,1.39,1.39,1.39,1.39,0,0,1-1.39-1.39Z"/><path class="cls-4" d="M332.27,250.92a1.4,1.4,0,1,1,1.41,1.39h0A1.4,1.4,0,0,1,332.27,250.92Z"/><path class="cls-4" d="M380,250.92a1.4,1.4,0,1,1,1.41,1.39h0A1.4,1.4,0,0,1,380,250.92Z"/><path class="cls-4" d="M349.82,250.92a1.4,1.4,0,1,1,1.41,1.39h0A1.4,1.4,0,0,1,349.82,250.92Z"/><path class="cls-1" d="M373.84,250.92a1.4,1.4,0,1,1,1.41,1.39h0a1.39,1.39,0,0,1-1.39-1.39Z"/><path class="cls-1" d="M367.7,250.92a1.39,1.39,0,1,1,1.39,1.39,1.39,1.39,0,0,1-1.39-1.39Z"/><path class="cls-1" d="M355.24,250.92a1.39,1.39,0,1,1,1.39,1.39,1.39,1.39,0,0,1-1.39-1.39Z"/><path class="cls-1" d="M327.18,250.92a1.39,1.39,0,1,1,1.39,1.39,1.39,1.39,0,0,1-1.39-1.39Z"/><path class="cls-6" d="M361.56,250.92a1.39,1.39,0,1,1,1.39,1.39,1.39,1.39,0,0,1-1.39-1.39Z"/><path class="cls-6" d="M344,250.92a1.39,1.39,0,1,1,1.39,1.39,1.39,1.39,0,0,1-1.39-1.39Z"/><circle class="cls-4" cx="328.57" cy="256.91" r="1.39"/><circle class="cls-4" cx="334.71" cy="256.91" r="1.39"/><circle class="cls-4" cx="340.85" cy="256.91" r="1.39"/><circle class="cls-4" cx="346.99" cy="256.91" r="1.39"/><circle class="cls-4" cx="394.58" cy="256.91" r="1.39"/><circle class="cls-4" cx="400.84" cy="256.91" r="1.39"/><circle class="cls-4" cx="353.13" cy="256.91" r="1.39"/><circle class="cls-4" cx="383.29" cy="256.91" r="1.39"/><circle class="cls-1" cx="359.28" cy="256.91" r="1.39"/><circle class="cls-1" cx="365.42" cy="256.91" r="1.39"/><circle class="cls-1" cx="377.88" cy="256.91" r="1.39"/><path class="cls-1" d="M407.33,256.92a1.39,1.39,0,1,1-1.39-1.39,1.39,1.39,0,0,1,1.39,1.39Z"/><circle class="cls-6" cx="371.56" cy="256.91" r="1.39"/><circle class="cls-6" cx="389.14" cy="256.91" r="1.39"/><rect class="cls-4" x="296.41" y="242.28" width="24.26" height="3.73"/><rect class="cls-4" x="296.41" y="248.7" width="24.26" height="3.73"/><rect class="cls-4" x="296.41" y="255.34" width="24.26" height="3.73"/><rect class="cls-5" x="290.94" y="273.71" width="123.21" height="30.57"/><rect class="cls-4" x="296.41" y="280" width="24.26" height="3.73"/><rect class="cls-4" x="296.41" y="286.43" width="24.26" height="3.73"/><rect class="cls-4" x="296.41" y="293.07" width="24.26" height="3.73"/><path class="cls-4" d="M329.52,281.92a1.4,1.4,0,1,1-1.4-1.4h0A1.4,1.4,0,0,1,329.52,281.92Z"/><path class="cls-4" d="M335.66,281.92a1.4,1.4,0,1,1-1.4-1.4h0A1.4,1.4,0,0,1,335.66,281.92Z"/><path class="cls-4" d="M341.8,281.92a1.4,1.4,0,1,1-1.4-1.4h0A1.4,1.4,0,0,1,341.8,281.92Z"/><path class="cls-4" d="M347.94,281.92a1.39,1.39,0,1,1-1.39-1.4,1.39,1.39,0,0,1,1.39,1.4Z"/><path class="cls-4" d="M395.53,281.92a1.4,1.4,0,1,1-1.4-1.4h0A1.4,1.4,0,0,1,395.53,281.92Z"/><path class="cls-4" d="M401.79,281.92a1.39,1.39,0,1,1-1.39-1.4,1.39,1.39,0,0,1,1.39,1.4Z"/><path class="cls-4" d="M354.08,281.92a1.39,1.39,0,1,1-1.39-1.4,1.39,1.39,0,0,1,1.39,1.4Z"/><path class="cls-4" d="M384.24,281.92a1.39,1.39,0,1,1-1.39-1.4,1.39,1.39,0,0,1,1.39,1.4Z"/><path class="cls-1" d="M360.22,281.92a1.39,1.39,0,1,1-1.39-1.4,1.39,1.39,0,0,1,1.39,1.4Z"/><path class="cls-1" d="M366.39,281.92a1.39,1.39,0,1,1-1.39-1.4,1.39,1.39,0,0,1,1.39,1.4Z"/><path class="cls-1" d="M378.82,281.92a1.39,1.39,0,1,1-1.39-1.4,1.39,1.39,0,0,1,1.39,1.4Z"/><path class="cls-1" d="M406.89,281.92a1.4,1.4,0,1,1-1.4-1.4h0A1.4,1.4,0,0,1,406.89,281.92Z"/><path class="cls-6" d="M372.5,281.92a1.39,1.39,0,1,1-1.39-1.4,1.39,1.39,0,0,1,1.39,1.4Z"/><path class="cls-6" d="M390.09,281.92a1.4,1.4,0,1,1-1.4-1.4h0A1.4,1.4,0,0,1,390.09,281.92Z"/><path class="cls-4" d="M404.1,288.66a1.4,1.4,0,1,1,1.4,1.4h0A1.4,1.4,0,0,1,404.1,288.66Z"/><path class="cls-4" d="M398,288.66a1.39,1.39,0,1,1,1.39,1.4,1.39,1.39,0,0,1-1.39-1.4Z"/><path class="cls-4" d="M391.82,288.66a1.39,1.39,0,1,1,1.39,1.4,1.39,1.39,0,0,1-1.39-1.4Z"/><path class="cls-4" d="M385.68,288.66a1.39,1.39,0,1,1,1.39,1.4,1.39,1.39,0,0,1-1.39-1.4Z"/><path class="cls-4" d="M338.09,288.66a1.39,1.39,0,1,1,1.39,1.4,1.39,1.39,0,0,1-1.39-1.4Z"/><path class="cls-4" d="M331.83,288.66a1.39,1.39,0,1,1,1.39,1.4,1.39,1.39,0,0,1-1.39-1.4Z"/><path class="cls-4" d="M379.54,288.66a1.39,1.39,0,1,1,1.39,1.4,1.39,1.39,0,0,1-1.39-1.4Z"/><path class="cls-4" d="M349.39,288.66a1.39,1.39,0,1,1,1.39,1.4,1.39,1.39,0,0,1-1.39-1.4Z"/><path class="cls-1" d="M373.39,288.66a1.39,1.39,0,1,1,1.39,1.4,1.39,1.39,0,0,1-1.39-1.4Z"/><path class="cls-1" d="M367.26,288.66a1.39,1.39,0,1,1,1.39,1.4,1.39,1.39,0,0,1-1.39-1.4Z"/><path class="cls-1" d="M354.8,288.66a1.39,1.39,0,1,1,1.39,1.4,1.39,1.39,0,0,1-1.39-1.4Z"/><path class="cls-1" d="M326.73,288.66a1.4,1.4,0,1,1,1.4,1.4h0A1.4,1.4,0,0,1,326.73,288.66Z"/><path class="cls-6" d="M361.11,288.66a1.4,1.4,0,1,1,1.4,1.4h0A1.4,1.4,0,0,1,361.11,288.66Z"/><path class="cls-6" d="M343.53,288.66a1.39,1.39,0,1,1,1.39,1.4,1.39,1.39,0,0,1-1.39-1.4Z"/><path class="cls-4" d="M329.52,294.63a1.4,1.4,0,1,1-1.41-1.39h0A1.4,1.4,0,0,1,329.52,294.63Z"/><path class="cls-4" d="M335.66,294.63a1.4,1.4,0,1,1-1.41-1.39h0A1.4,1.4,0,0,1,335.66,294.63Z"/><path class="cls-4" d="M341.8,294.63a1.4,1.4,0,1,1-1.41-1.39h0a1.39,1.39,0,0,1,1.39,1.39Z"/><path class="cls-4" d="M347.94,294.63a1.39,1.39,0,1,1-1.39-1.39,1.39,1.39,0,0,1,1.39,1.39Z"/><path class="cls-4" d="M395.53,294.63a1.4,1.4,0,1,1-1.41-1.39h0a1.39,1.39,0,0,1,1.39,1.39Z"/><path class="cls-4" d="M401.79,294.63a1.39,1.39,0,1,1-1.39-1.39,1.39,1.39,0,0,1,1.39,1.39Z"/><path class="cls-4" d="M354.08,294.63a1.39,1.39,0,1,1-1.39-1.39,1.39,1.39,0,0,1,1.39,1.39Z"/><path class="cls-4" d="M384.24,294.63a1.39,1.39,0,1,1-1.39-1.39,1.39,1.39,0,0,1,1.39,1.39Z"/><path class="cls-1" d="M360.22,294.63a1.39,1.39,0,1,1-1.39-1.39,1.39,1.39,0,0,1,1.39,1.39Z"/><path class="cls-1" d="M366.39,294.63a1.39,1.39,0,1,1-1.39-1.39,1.39,1.39,0,0,1,1.39,1.39Z"/><path class="cls-1" d="M378.82,294.63a1.39,1.39,0,1,1-1.39-1.39,1.39,1.39,0,0,1,1.39,1.39Z"/><path class="cls-1" d="M406.89,294.63a1.4,1.4,0,1,1-1.41-1.39h0A1.4,1.4,0,0,1,406.89,294.63Z"/><path class="cls-6" d="M372.5,294.63a1.39,1.39,0,1,1-1.39-1.39,1.39,1.39,0,0,1,1.39,1.39Z"/><path class="cls-6" d="M390.09,294.63a1.4,1.4,0,1,1-1.41-1.39h0a1.39,1.39,0,0,1,1.39,1.39Z"/><polygon class="cls-4" points="432.67 228.78 414.15 228.83 414.15 198.26 432.67 198.21 432.67 228.78"/><polygon class="cls-4" points="432.67 191.61 414.15 191.66 414.15 161.1 432.67 161.05 432.67 191.61"/><polygon class="cls-4" points="432.67 266.27 414.15 266.32 414.15 235.75 432.67 235.7 432.67 266.27"/><polygon class="cls-4" points="432.67 304.23 414.15 304.28 414.15 273.71 432.67 273.66 432.67 304.23"/><rect class="cls-5" x="291.84" y="160.81" width="123.21" height="30.57"/><rect class="cls-4" x="297.31" y="167.11" width="24.26" height="3.73"/><rect class="cls-4" x="297.31" y="173.53" width="24.26" height="3.73"/><rect class="cls-4" x="297.31" y="180.17" width="24.26" height="3.73"/><path class="cls-4" d="M331.16,169.36a1.39,1.39,0,1,1-1.39-1.39A1.39,1.39,0,0,1,331.16,169.36Z"/><path class="cls-4" d="M337.3,169.36a1.39,1.39,0,1,1-1.39-1.39A1.39,1.39,0,0,1,337.3,169.36Z"/><path class="cls-4" d="M343.44,169.36a1.39,1.39,0,1,1-1.39-1.39A1.39,1.39,0,0,1,343.44,169.36Z"/><path class="cls-4" d="M349.58,169.36a1.39,1.39,0,1,1-1.39-1.39A1.39,1.39,0,0,1,349.58,169.36Z"/><path class="cls-4" d="M397.17,169.36a1.39,1.39,0,1,1-1.39-1.39A1.39,1.39,0,0,1,397.17,169.36Z"/><path class="cls-4" d="M403.39,169.36A1.39,1.39,0,1,1,402,168,1.39,1.39,0,0,1,403.39,169.36Z"/><path class="cls-4" d="M355.72,169.36a1.39,1.39,0,1,1-1.39-1.39A1.39,1.39,0,0,1,355.72,169.36Z"/><path class="cls-4" d="M385.88,169.36a1.39,1.39,0,1,1-1.39-1.39A1.39,1.39,0,0,1,385.88,169.36Z"/><path class="cls-1" d="M361.86,169.36a1.39,1.39,0,1,1-1.39-1.39A1.39,1.39,0,0,1,361.86,169.36Z"/><path class="cls-1" d="M368,169.36A1.4,1.4,0,1,1,366.6,168h0A1.4,1.4,0,0,1,368,169.36Z"/><path class="cls-1" d="M380.47,169.36a1.4,1.4,0,1,1-1.41-1.39h0A1.4,1.4,0,0,1,380.47,169.36Z"/><path class="cls-1" d="M408.53,169.36a1.39,1.39,0,1,1-1.39-1.39A1.39,1.39,0,0,1,408.53,169.36Z"/><path class="cls-6" d="M374.15,169.36a1.4,1.4,0,1,1-1.41-1.39h0A1.39,1.39,0,0,1,374.15,169.36Z"/><path class="cls-6" d="M391.73,169.36a1.39,1.39,0,1,1-1.39-1.39A1.39,1.39,0,0,1,391.73,169.36Z"/><path class="cls-4" d="M405.75,176.07a1.39,1.39,0,1,1,1.39,1.39,1.39,1.39,0,0,1-1.39-1.39Z"/><path class="cls-4" d="M399.6,176.07a1.4,1.4,0,1,1,1.41,1.39h0A1.4,1.4,0,0,1,399.6,176.07Z"/><path class="cls-4" d="M393.46,176.07a1.4,1.4,0,1,1,1.41,1.39h0A1.4,1.4,0,0,1,393.46,176.07Z"/><path class="cls-4" d="M387.32,176.07a1.4,1.4,0,1,1,1.41,1.39h0a1.39,1.39,0,0,1-1.39-1.39Z"/><path class="cls-4" d="M339.73,176.07a1.4,1.4,0,1,1,1.41,1.39h0a1.39,1.39,0,0,1-1.39-1.39Z"/><path class="cls-4" d="M333.47,176.07a1.39,1.39,0,1,1,1.39,1.39,1.39,1.39,0,0,1-1.39-1.39Z"/><path class="cls-4" d="M381.18,176.07a1.39,1.39,0,1,1,1.39,1.39,1.39,1.39,0,0,1-1.39-1.39Z"/><path class="cls-4" d="M351,176.07a1.39,1.39,0,1,1,1.39,1.39,1.39,1.39,0,0,1-1.39-1.39Z"/><path class="cls-1" d="M375,176.07a1.39,1.39,0,1,1,1.39,1.39,1.39,1.39,0,0,1-1.39-1.39Z"/><path class="cls-1" d="M368.9,176.07a1.39,1.39,0,1,1,1.39,1.39,1.39,1.39,0,0,1-1.39-1.39Z"/><path class="cls-1" d="M356.44,176.07a1.39,1.39,0,1,1,1.39,1.39,1.39,1.39,0,0,1-1.39-1.39Z"/><path class="cls-1" d="M328.39,176.07a1.39,1.39,0,1,1,1.39,1.39,1.39,1.39,0,0,1-1.39-1.39Z"/><path class="cls-6" d="M362.76,176.07a1.39,1.39,0,1,1,1.39,1.39,1.39,1.39,0,0,1-1.39-1.39Z"/><path class="cls-6" d="M345.17,176.07a1.4,1.4,0,1,1,1.41,1.39h0A1.4,1.4,0,0,1,345.17,176.07Z"/><path class="cls-4" d="M331.16,182a1.39,1.39,0,1,1-1.39-1.39,1.39,1.39,0,0,1,1.39,1.39Z"/><path class="cls-4" d="M337.3,182a1.39,1.39,0,1,1-1.39-1.39A1.39,1.39,0,0,1,337.3,182Z"/><path class="cls-4" d="M343.44,182a1.39,1.39,0,1,1-1.39-1.39,1.39,1.39,0,0,1,1.39,1.39Z"/><path class="cls-4" d="M349.58,182a1.39,1.39,0,1,1-1.39-1.39,1.39,1.39,0,0,1,1.39,1.39Z"/><path class="cls-4" d="M397.17,182a1.39,1.39,0,1,1-1.39-1.39,1.39,1.39,0,0,1,1.39,1.39Z"/><path class="cls-4" d="M403.39,182a1.39,1.39,0,1,1-1.39-1.39,1.39,1.39,0,0,1,1.39,1.39Z"/><path class="cls-4" d="M355.72,182a1.39,1.39,0,1,1-1.39-1.39,1.39,1.39,0,0,1,1.39,1.39Z"/><path class="cls-4" d="M385.88,182a1.39,1.39,0,1,1-1.39-1.39,1.39,1.39,0,0,1,1.39,1.39Z"/><path class="cls-1" d="M361.86,182a1.39,1.39,0,1,1-1.39-1.39,1.39,1.39,0,0,1,1.39,1.39Z"/><path class="cls-1" d="M368,182a1.4,1.4,0,1,1-1.41-1.39h0A1.4,1.4,0,0,1,368,182Z"/><path class="cls-1" d="M380.47,182a1.4,1.4,0,1,1-1.41-1.39h0A1.4,1.4,0,0,1,380.47,182Z"/><path class="cls-1" d="M408.53,182a1.39,1.39,0,1,1-1.39-1.39,1.39,1.39,0,0,1,1.39,1.39Z"/><path class="cls-6" d="M374.15,182a1.4,1.4,0,1,1-1.41-1.39h0a1.39,1.39,0,0,1,1.39,1.39Z"/><path class="cls-6" d="M391.73,182a1.39,1.39,0,1,1-1.39-1.39,1.39,1.39,0,0,1,1.39,1.39Z"/><rect class="cls-7" x="111.35" y="7.78" width="96.61" height="295.95"/><polygon class="cls-3" points="284.18 303.73 207.97 303.73 207.83 7.78 284.18 7.78 284.18 303.73"/><rect class="cls-4" x="116.7" y="55.14" width="81.95" height="23.07"/><rect class="cls-5" x="118.99" y="58.04" width="4.59" height="17.66"/><path class="cls-8" d="M129,61.76a1.46,1.46,0,1,1-1.46-1.46A1.47,1.47,0,0,1,129,61.76Z"/><path class="cls-8" d="M129,68a1.46,1.46,0,1,1-1.46-1.46A1.47,1.47,0,0,1,129,68Z"/><rect class="cls-5" x="134.82" y="60.3" width="4.51" height="13.56"/><rect class="cls-5" x="141.33" y="60.3" width="4.51" height="13.56"/><rect class="cls-5" x="147.84" y="60.3" width="4.51" height="13.56"/><rect class="cls-5" x="154.36" y="60.3" width="4.51" height="13.56"/><rect class="cls-5" x="160.87" y="60.3" width="4.51" height="13.56"/><rect class="cls-5" x="167.39" y="60.3" width="4.51" height="13.56"/><rect class="cls-5" x="173.9" y="60.3" width="4.51" height="13.56"/><rect class="cls-5" x="180.41" y="60.3" width="4.51" height="13.56"/><rect class="cls-5" x="186.93" y="60.3" width="4.51" height="13.56"/><rect class="cls-5" x="193.44" y="60.3" width="4.51" height="13.56"/><rect class="cls-4" x="116.7" y="88.29" width="81.95" height="23.07"/><rect class="cls-5" x="118.99" y="91.19" width="4.59" height="17.66"/><path class="cls-8" d="M129,94.92a1.46,1.46,0,1,1-1.46-1.46A1.46,1.46,0,0,1,129,94.92Z"/><path class="cls-8" d="M129,101.14a1.46,1.46,0,1,1-1.46-1.46,1.46,1.46,0,0,1,1.46,1.46Z"/><rect class="cls-5" x="134.82" y="93.44" width="4.51" height="13.56"/><rect class="cls-5" x="141.33" y="93.44" width="4.51" height="13.56"/><rect class="cls-5" x="147.84" y="93.44" width="4.51" height="13.56"/><rect class="cls-5" x="154.36" y="93.44" width="4.51" height="13.56"/><rect class="cls-5" x="160.87" y="93.44" width="4.51" height="13.56"/><rect class="cls-5" x="167.39" y="93.44" width="4.51" height="13.56"/><rect class="cls-5" x="173.9" y="93.44" width="4.51" height="13.56"/><rect class="cls-5" x="180.41" y="93.44" width="4.51" height="13.56"/><rect class="cls-5" x="186.93" y="93.44" width="4.51" height="13.56"/><rect class="cls-5" x="193.44" y="93.44" width="4.51" height="13.56"/><rect class="cls-4" x="116.7" y="121.7" width="81.95" height="23.07"/><rect class="cls-5" x="118.99" y="124.6" width="4.59" height="17.66"/><path class="cls-8" d="M129,128.31a1.46,1.46,0,1,1-1.47-1.45h0A1.47,1.47,0,0,1,129,128.31Z"/><path class="cls-8" d="M129,134.55a1.46,1.46,0,1,1-1.47-1.45h0A1.47,1.47,0,0,1,129,134.55Z"/><rect class="cls-5" x="134.82" y="126.86" width="4.51" height="13.56"/><rect class="cls-5" x="141.33" y="126.86" width="4.51" height="13.56"/><rect class="cls-5" x="147.84" y="126.86" width="4.51" height="13.56"/><rect class="cls-5" x="154.36" y="126.86" width="4.51" height="13.56"/><rect class="cls-5" x="160.87" y="126.86" width="4.51" height="13.56"/><rect class="cls-5" x="167.39" y="126.86" width="4.51" height="13.56"/><rect class="cls-5" x="173.9" y="126.86" width="4.51" height="13.56"/><rect class="cls-5" x="180.41" y="126.86" width="4.51" height="13.56"/><rect class="cls-5" x="186.93" y="126.86" width="4.51" height="13.56"/><rect class="cls-5" x="193.44" y="126.86" width="4.51" height="13.56"/><rect class="cls-4" x="116.7" y="157.79" width="81.95" height="23.07"/><rect class="cls-5" x="118.99" y="160.69" width="4.59" height="17.66"/><path class="cls-8" d="M129,164.41a1.46,1.46,0,1,1-1.46-1.46A1.47,1.47,0,0,1,129,164.41Z"/><path class="cls-8" d="M129,170.65a1.46,1.46,0,1,1-1.46-1.46h0A1.46,1.46,0,0,1,129,170.65Z"/><rect class="cls-5" x="134.82" y="162.95" width="4.51" height="13.56"/><rect class="cls-5" x="141.33" y="162.95" width="4.51" height="13.56"/><rect class="cls-5" x="147.84" y="162.95" width="4.51" height="13.56"/><rect class="cls-5" x="154.36" y="162.95" width="4.51" height="13.56"/><rect class="cls-5" x="160.87" y="162.95" width="4.51" height="13.56"/><rect class="cls-5" x="167.39" y="162.95" width="4.51" height="13.56"/><rect class="cls-5" x="173.9" y="162.95" width="4.51" height="13.56"/><rect class="cls-5" x="180.41" y="162.95" width="4.51" height="13.56"/><rect class="cls-5" x="186.93" y="162.95" width="4.51" height="13.56"/><rect class="cls-5" x="193.44" y="162.95" width="4.51" height="13.56"/><rect class="cls-4" x="116.7" y="194.24" width="81.95" height="23.07"/><rect class="cls-5" x="118.99" y="197.14" width="4.59" height="17.66"/><path class="cls-8" d="M129,200.86a1.46,1.46,0,1,1-1.46-1.46h0A1.46,1.46,0,0,1,129,200.86Z"/><path class="cls-8" d="M129,207.1a1.46,1.46,0,1,1-1.46-1.46h0A1.46,1.46,0,0,1,129,207.1Z"/><rect class="cls-5" x="134.82" y="199.4" width="4.51" height="13.56"/><rect class="cls-5" x="141.33" y="199.4" width="4.51" height="13.56"/><rect class="cls-5" x="147.84" y="199.4" width="4.51" height="13.56"/><rect class="cls-5" x="154.36" y="199.4" width="4.51" height="13.56"/><rect class="cls-5" x="160.87" y="199.4" width="4.51" height="13.56"/><rect class="cls-5" x="167.39" y="199.4" width="4.51" height="13.56"/><rect class="cls-5" x="173.9" y="199.4" width="4.51" height="13.56"/><rect class="cls-5" x="180.41" y="199.4" width="4.51" height="13.56"/><rect class="cls-5" x="186.93" y="199.4" width="4.51" height="13.56"/><rect class="cls-5" x="193.44" y="199.4" width="4.51" height="13.56"/><rect class="cls-4" x="116.7" y="266.78" width="81.95" height="23.07"/><rect class="cls-5" x="118.99" y="269.68" width="4.59" height="17.66"/><path class="cls-8" d="M129,273.4a1.46,1.46,0,1,1-1.46-1.46h0A1.47,1.47,0,0,1,129,273.4Z"/><path class="cls-8" d="M129,279.64a1.46,1.46,0,1,1-1.46-1.46h0A1.47,1.47,0,0,1,129,279.64Z"/><rect class="cls-5" x="134.82" y="271.94" width="4.51" height="13.56"/><rect class="cls-5" x="141.33" y="271.94" width="4.51" height="13.56"/><rect class="cls-5" x="147.84" y="271.94" width="4.51" height="13.56"/><rect class="cls-5" x="154.36" y="271.94" width="4.51" height="13.56"/><rect class="cls-5" x="160.87" y="271.94" width="4.51" height="13.56"/><rect class="cls-5" x="167.39" y="271.94" width="4.51" height="13.56"/><rect class="cls-5" x="173.9" y="271.94" width="4.51" height="13.56"/><rect class="cls-5" x="180.41" y="271.94" width="4.51" height="13.56"/><rect class="cls-5" x="186.93" y="271.94" width="4.51" height="13.56"/><rect class="cls-5" x="193.44" y="271.94" width="4.51" height="13.56"/><rect class="cls-4" x="116.7" y="230.54" width="81.95" height="23.07"/><rect class="cls-5" x="118.99" y="233.44" width="4.59" height="17.66"/><path class="cls-8" d="M129,237.16a1.46,1.46,0,1,1-1.46-1.46h0A1.47,1.47,0,0,1,129,237.16Z"/><path class="cls-8" d="M129,243.4a1.46,1.46,0,1,1-1.46-1.46h0A1.47,1.47,0,0,1,129,243.4Z"/><rect class="cls-5" x="134.82" y="235.7" width="4.51" height="13.56"/><rect class="cls-5" x="141.33" y="235.7" width="4.51" height="13.56"/><rect class="cls-5" x="147.84" y="235.7" width="4.51" height="13.56"/><rect class="cls-5" x="154.36" y="235.7" width="4.51" height="13.56"/><rect class="cls-5" x="160.87" y="235.7" width="4.51" height="13.56"/><rect class="cls-5" x="167.39" y="235.7" width="4.51" height="13.56"/><rect class="cls-5" x="173.9" y="235.7" width="4.51" height="13.56"/><rect class="cls-5" x="180.41" y="235.7" width="4.51" height="13.56"/><rect class="cls-5" x="186.93" y="235.7" width="4.51" height="13.56"/><rect class="cls-5" x="193.44" y="235.7" width="4.51" height="13.56"/><path class="cls-4" d="M167.39,55.14a2.82,2.82,0,0,1-.09-.71c0-.47-.06-1.16-.08-2s0-2-.1-3.24a19.92,19.92,0,0,0-.56-4.21,14.81,14.81,0,0,0-2.17-4.66,10.26,10.26,0,0,0-4.49-3.62,21.68,21.68,0,0,0-6.37-1.29l-7.06-.61c-9.67-.84-18.44-1.38-24.8-1.49-3.18-.07-5.75,0-7.53,0h-2a4.33,4.33,0,0,1-.72,0,3.53,3.53,0,0,1,.72-.08l2-.12c1.78-.07,4.36-.15,7.54-.13,6.38,0,15.17.5,24.85,1.34l7.06.62a22,22,0,0,1,6.51,1.36,10.71,10.71,0,0,1,4.66,3.81A15.21,15.21,0,0,1,167,44.88a20,20,0,0,1,.49,4.29v5.25A5.81,5.81,0,0,1,167.39,55.14Z"/><path class="cls-4" d="M142.52,55.14a3.75,3.75,0,0,1,0-.67V52.54c0-.8,0-1.86-.09-3a9.33,9.33,0,0,0-1-3.8,7.32,7.32,0,0,0-3.7-2.85,10.15,10.15,0,0,0-5.4-.55,9.22,9.22,0,0,0-2.79,1,5.15,5.15,0,0,0-2.16,2,2.92,2.92,0,0,0,0,2.89,3.87,3.87,0,0,0,2.46,1.85,3.13,3.13,0,0,0,2.88-.83A4.28,4.28,0,0,0,134,46.51a4.15,4.15,0,0,0-.86-2.8A6.07,6.07,0,0,0,131,41.79a8,8,0,0,0-2.71-.69c-.92-.14-1.82-.26-2.69-.36-1.75-.2-3.38-.31-4.87-.37-3-.11-5.41-.07-7.08-.07H111.7a3.75,3.75,0,0,1-.67,0,2.5,2.5,0,0,1,.67-.07l1.92-.1c1.68-.06,4.1-.17,7.1-.1,1.5,0,3.14.13,4.9.31.88.09,1.79.2,2.72.33l1.42.22a5.26,5.26,0,0,1,1.44.51,6.66,6.66,0,0,1,2.36,2.05,4.63,4.63,0,0,1-.49,6.21,3.63,3.63,0,0,1-3.34,1,4.38,4.38,0,0,1-2.8-2.1,3.42,3.42,0,0,1,0-3.39,5.65,5.65,0,0,1,2.37-2.25,9.62,9.62,0,0,1,2.95-1,10.55,10.55,0,0,1,5.64.62,7.6,7.6,0,0,1,3.86,3.07,9.57,9.57,0,0,1,1,4c.06,1.2,0,2.23,0,3.06s-.06,1.44-.08,1.93A2.72,2.72,0,0,1,142.52,55.14Z"/><path class="cls-4" d="M174.08,55.14a4,4,0,0,1-.17-.76c-.09-.5-.23-1.24-.43-2.19a42.62,42.62,0,0,0-2.41-7.82,22.71,22.71,0,0,0-7.14-9.57,13.45,13.45,0,0,0-6.53-2.49,65.82,65.82,0,0,0-7.69-.42c-10.59-.2-20.19-.15-27.13-.42-3.48-.12-6.28-.29-8.22-.42l-2.23-.19a4.17,4.17,0,0,1-.78-.1,3.48,3.48,0,0,1,.79,0l2.23.08c1.94.08,4.75.19,8.22.26,6.94.17,16.53.07,27.13.27a66.85,66.85,0,0,1,7.75.43,13.92,13.92,0,0,1,6.75,2.61,20.64,20.64,0,0,1,4.51,4.77,27.71,27.71,0,0,1,2.67,5,39.64,39.64,0,0,1,2.28,7.92c.17,1,.28,1.7.33,2.21A6.85,6.85,0,0,1,174.08,55.14Z"/><rect class="cls-4" x="117.83" y="11.46" width="79.7" height="11.57"/><rect class="cls-5" x="135.36" y="17.24" width="43.39" height="5.78"/><path class="cls-4" d="M230,251.41c0,.06-.87.14-2.4.59a20.7,20.7,0,0,0-6,2.95,17.06,17.06,0,0,0-3.38,3.14,11.49,11.49,0,0,0-1.38,2.14,13.65,13.65,0,0,0-.87,2.57c-.91,3.66-.64,7.84-.46,12.2s-.1,8.7-1.82,12.19a13.48,13.48,0,0,1-3.26,4.34,15.51,15.51,0,0,1-4,2.54,15.12,15.12,0,0,1-3.73,1.11,13.77,13.77,0,0,1-2.94.13A10.26,10.26,0,0,1,198,295a3.41,3.41,0,0,1-.62-.19c0-.06.87.21,2.46.28a15.34,15.34,0,0,0,10.37-3.9,13.34,13.34,0,0,0,3.1-4.23c1.65-3.39,1.92-7.63,1.74-12s-.45-8.59.51-12.33a15.79,15.79,0,0,1,.92-2.66,12.13,12.13,0,0,1,1.47-2.21,16.48,16.48,0,0,1,3.5-3.17,19.87,19.87,0,0,1,6.18-2.85,12.67,12.67,0,0,1,1.82-.34A2.57,2.57,0,0,1,230,251.41Z"/><rect class="cls-4" x="193.31" y="291.25" width="6.54" height="7.96"/><rect class="cls-5" x="230.04" y="231.31" width="36.69" height="40.2"/><circle class="cls-4" cx="248.37" cy="251.53" r="12.08"/><path class="cls-5" d="M254.39,251.57a6,6,0,1,1-6-6A6,6,0,0,1,254.39,251.57Z"/><circle class="cls-4" cx="235.01" cy="237.55" r="1.12"/><circle class="cls-4" cx="261.12" cy="237.55" r="1.12"/><path class="cls-4" d="M262.48,267.23a1.12,1.12,0,1,1-1.12-1.12h0A1.12,1.12,0,0,1,262.48,267.23Z"/><circle class="cls-4" cx="235.01" cy="267.69" r="1.12"/><rect class="cls-4" x="266.73" y="231.31" width="2.96" height="40.2"/><g id="Character"><polygon class="cls-3" points="406.94 146.66 414.48 156.51 428.86 150.16 419.66 135.4 406.94 146.66"/><polygon class="cls-5" points="411.41 147.82 411.64 152.7 416.4 154.93 416.15 149.93 411.41 147.82"/><polygon class="cls-5" points="415.92 145.09 416.15 149.97 420.91 152.2 420.66 147.2 415.92 145.09"/><polygon class="cls-5" points="420.51 142.36 420.74 147.24 425.49 149.47 425.25 144.47 420.51 142.36"/><path class="cls-6" d="M429.39,149.92l-1.64-2.51-14.09,8.91,3.33,5.57.92-.46c4.09-2.09,20.67-10.9,22.86-13.24C443.24,145.61,429.39,149.92,429.39,149.92Z"/><g class="cls-9"><path class="cls-8" d="M422.17,158.79a5.86,5.86,0,0,0-3.57-2.15,4.82,4.82,0,0,0-4.09,1.08l2.41,4Z"/></g><path class="cls-10" d="M436.3,148.05s5-1.26,4.88-.24S424.64,158.36,417,161.92l-.17-.34,19.25-11S435.49,148.57,436.3,148.05Z"/><path class="cls-4" d="M416.63,161.72l.26-.12.74-.37,2.68-1.41c2.25-1.2,5.34-2.9,8.71-4.85s6.39-3.8,8.56-5.15l2.55-1.63.68-.45.23-.17a1.19,1.19,0,0,0-.25.13l-.71.42c-.7.43-1.56,1-2.58,1.57-2.18,1.33-5.21,3.15-8.58,5.1s-6.45,3.68-8.68,4.91l-2.65,1.46-.72.4A1.25,1.25,0,0,0,416.63,161.72Z"/><path class="cls-4" d="M436.23,150.86a7.16,7.16,0,0,1-.23-1.53,6,6,0,0,1,.31-1.52A2.72,2.72,0,0,0,436.23,150.86Z"/><path class="cls-4" d="M430.74,151.17c.06,0,.12-.36.13-.81a1.88,1.88,0,0,0-.06-.82c-.06,0-.12.36-.14.81S430.68,151.17,430.74,151.17Z"/><path class="cls-4" d="M429.22,151.23a2.47,2.47,0,0,0,.31-.63c.12-.37.17-.68.12-.69s-.19.26-.31.63S429.17,151.22,429.22,151.23Z"/><path class="cls-4" d="M427.69,150.3a2,2,0,0,0,.81-.34c.42-.24.73-.46.71-.51a1.93,1.93,0,0,0-.81.34A2.11,2.11,0,0,0,427.69,150.3Z"/><path class="cls-4" d="M426.89,149.49a1.6,1.6,0,0,0,1-.24c.51-.24.84-.58.8-.62a6,6,0,0,0-.88.44A5.1,5.1,0,0,0,426.89,149.49Z"/><path class="cls-4" d="M430.5,149.64a3.17,3.17,0,0,0,.92-.55,6.38,6.38,0,0,0,.86-.78,4,4,0,0,0,.43-.56.62.62,0,0,0,.06-.42.42.42,0,0,0-.36-.29,2,2,0,0,0-1.8,1.71,1.76,1.76,0,0,0,0,.79.66.66,0,0,0,.12.27,3.35,3.35,0,0,1,0-1,1.89,1.89,0,0,1,.49-1,1.67,1.67,0,0,1,1.14-.56c.21,0,.26.23.15.42a3.21,3.21,0,0,1-.39.52,6.8,6.8,0,0,1-.81.8C430.84,149.4,430.48,149.61,430.5,149.64Z"/><path class="cls-4" d="M430.77,149.54a1.19,1.19,0,0,0-.27-.7,1.82,1.82,0,0,0-.64-.53,1.09,1.09,0,0,0-1.05,0,.41.41,0,0,0,0,.58h0a1.22,1.22,0,0,0,.39.32,3.57,3.57,0,0,0,.76.31,1.47,1.47,0,0,0,.75.06s-.28-.06-.71-.2a4.47,4.47,0,0,1-.7-.33c-.24-.12-.54-.42-.33-.6a1,1,0,0,1,.84,0,1.79,1.79,0,0,1,.61.45A4.82,4.82,0,0,1,430.77,149.54Z"/><path class="cls-4" d="M414.64,157.61a6.38,6.38,0,0,1,1.08-.58,5.19,5.19,0,0,1,5.51.82c.58.49.84.89.87.87s0-.12-.17-.29a3.91,3.91,0,0,0-.6-.69,5.1,5.1,0,0,0-5.7-.84,4.81,4.81,0,0,0-.78.48C414.72,157.52,414.63,157.6,414.64,157.61Z"/><path class="cls-4" d="M423.17,156.33a13.53,13.53,0,0,0,4.22-2.41s-.94.56-2.1,1.22S423.14,156.28,423.17,156.33Z"/><path class="cls-4" d="M420.39,157.92c0,.06.19.16.41.32s.38.32.43.29-.06-.27-.31-.46A.77.77,0,0,0,420.39,157.92Z"/><path class="cls-4" d="M418.52,157.26a1,1,0,0,0,.4.21c.24.06.44.08.45,0s-.16-.15-.4-.21S418.53,157.21,418.52,157.26Z"/><path class="cls-4" d="M416.65,157.54a4.71,4.71,0,0,1,.48-.12c.26,0,.47,0,.49-.08s-.22-.18-.53-.12S416.61,157.5,416.65,157.54Z"/><path class="cls-4" d="M415.39,157.92c0,.06.13.08.28.06s.26-.09.25-.14-.14-.08-.28-.06S415.39,157.83,415.39,157.92Z"/><path class="cls-4" d="M311.55,139.36l56.23-53A18.48,18.48,0,0,1,381,80.79h0a18.48,18.48,0,0,1,16.05,9.31l28.77,49.44-18.25,10.53-27.71-35.23-27.77,25.08Z"/><path class="cls-4" d="M295,142c-.24.71-1.9,18.83,22.41,18.83h65a14.89,14.89,0,0,0,14.86-14.92h0a14.89,14.89,0,0,0-14.87-14.85H321.88a14.92,14.92,0,0,0-6.27,1.38Z"/><path class="cls-5" d="M388.11,131.07c0,.14-13.41.26-30,.26s-30-.12-30-.26,13.41-.26,30-.26S388.11,130.92,388.11,131.07Z"/><path class="cls-5" d="M378.09,102.41c.15,0,.16,2.81.67,6.22s1.3,6.1,1.15,6.15a19.44,19.44,0,0,1-1.67-6.07A19.59,19.59,0,0,1,378.09,102.41Z"/><path class="cls-5" d="M380.85,102a26.27,26.27,0,0,1,0,6.39,27,27,0,0,1-1.06,6.31c-.15,0,.25-2.85.54-6.35S380.7,102,380.85,102Z"/><path class="cls-4" d="M330.47,22.25a1.89,1.89,0,0,1-3.08,1.67c-1.11-.86-.94-2.59-.43-3.9s1.25-2.66.93-4a9.7,9.7,0,0,0-1.66-2.74,6,6,0,0,1-.67-5.37,5.09,5.09,0,0,1,4.2-3.26c1.91-.15,4,.84,5.63-.21,1.16-.76,1.52-2.3,2.49-3.28C339.4-.37,341.93-.17,344,.53s4,1.78,6.18,1.67c1.8-.1,3.44-1,5.18-1.44a9.41,9.41,0,0,1,9.56,15c-.88,1.09-2.84,4.36-6.76,3.55"/><path class="cls-11" d="M332.7,7.45l-.52,2.82L324,52.39c-.95,4.89,2.5,9.6,7.74,10.57h0c5.3,1,10.43-2.21,11.47-7.13,1.09-5.17,2.33-10.59,2.33-10.59s6.89.28,10.08-8.13c1.58-4.18,2.84-11.31,3.67-17.18a9.37,9.37,0,0,0-7.94-10.61l-.4-.05Z"/><path class="cls-4" d="M355.39,24.11a1.15,1.15,0,0,1-1.31.9,1.08,1.08,0,0,1-.94-1.22v0a1.14,1.14,0,0,1,1.25-.85,1.09,1.09,0,0,1,1,1.17Z"/><path class="cls-4" d="M357,23.3c-.17.11-.88-.69-2.08-.93s-2.21.17-2.31,0,.15-.32.59-.52a3.11,3.11,0,0,1,1.88-.17,3,3,0,0,1,1.62.92C357,22.92,357.09,23.25,357,23.3Z"/><path class="cls-4" d="M343.9,21.78a1.15,1.15,0,0,1-1.31.9,1.08,1.08,0,0,1-.94-1.22v0a1.14,1.14,0,0,1,1.31-.91,1.1,1.1,0,0,1,.94,1.24Z"/><path class="cls-4" d="M345.17,21.07c-.17.12-.88-.68-2.08-.93s-2.21.17-2.31,0,.15-.31.59-.51a3.11,3.11,0,0,1,1.88-.18,3,3,0,0,1,1.62.92C345.18,20.73,345.25,21,345.17,21.07Z"/><path class="cls-4" d="M347.68,30.92a8.36,8.36,0,0,1,2,.06c.31,0,.62,0,.71-.17a1.56,1.56,0,0,0,0-1q-.19-1.2-.42-2.52a38.78,38.78,0,0,1-.76-6.53,41.61,41.61,0,0,1,1.29,6.45c.13.88.26,1.72.38,2.53a1.86,1.86,0,0,1-.09,1.23.82.82,0,0,1-.6.35,2.44,2.44,0,0,1-.54,0A7.84,7.84,0,0,1,347.68,30.92Z"/><path class="cls-12" d="M345.56,45.24a22.65,22.65,0,0,1-11-5.52s1.59,6.56,10.46,7.55Z"/><path class="cls-4" d="M344,31c.19,0-.07,1.33.85,2.49s2.34,1.3,2.31,1.48-.36.19-.95.09a3.3,3.3,0,0,1-1.95-1.17,2.94,2.94,0,0,1-.63-2.07C343.68,31.24,343.89,30.92,344,31Z"/><path class="cls-4" d="M346.46,16.44c-.19.3-1.35-.11-2.8-.23s-2.66,0-2.78-.3.2-.43.73-.65a4.83,4.83,0,0,1,4.25.41C346.33,16,346.54,16.29,346.46,16.44Z"/><path class="cls-4" d="M357.29,19.73c-.27.23-1-.22-2-.44s-1.87-.2-2-.52c-.06-.16.13-.41.55-.59a2.88,2.88,0,0,1,1.74-.1,2.91,2.91,0,0,1,1.51.88C357.39,19.32,357.39,19.62,357.29,19.73Z"/><path class="cls-4" d="M360.39,16.13s-4.92,1.41-10.31-2.57c-3.54-2.62-7.89-4.35-9-3.75s-2,4.57-6.08,5.06c0,0-1.07,7.66-4.06,6.86s.62-15.88.62-15.88L340,7.13,348.39,7l7.46,2.41,5.62,2.65Z"/><path class="cls-4" d="M331.79,3.65c0-.13.75-.25,1.52.23s1,1.21.9,1.25-.49-.47-1.14-.85S331.79,3.78,331.79,3.65Z"/><path class="cls-4" d="M334.83,1.61c.14,0-.09.92-.15,2s.23,1.9.11,2-.64-.79-.57-2A3,3,0,0,1,334.83,1.61Z"/><path class="cls-11" d="M331.75,18.65c-.11-.09-4.67-2.76-5.77,2.3s4.2,5.12,4.24,5S331.75,18.65,331.75,18.65Z"/><path class="cls-12" d="M329.09,23.67a.65.65,0,0,0-.26.08.85.85,0,0,1-.66-.13,2.21,2.21,0,0,1-.58-2.18,2.87,2.87,0,0,1,.52-1.2,1,1,0,0,1,.81-.54.46.46,0,0,1,.47.36v.26s.13-.06.14-.27a.59.59,0,0,0-.13-.36.64.64,0,0,0-.46-.24,1.28,1.28,0,0,0-1.1.58,3.25,3.25,0,0,0-.61,1.35,2.34,2.34,0,0,0,.81,2.46.93.93,0,0,0,.83,0C329.06,23.79,329.11,23.69,329.09,23.67Z"/><path class="cls-5" d="M348.52,21.61a9.07,9.07,0,0,0-.27-1.29,5.38,5.38,0,0,0-2-2.84,5.15,5.15,0,1,0,0,8.26,5.38,5.38,0,0,0,2-2.84c.23-.81.22-1.29.27-1.29s0,.12,0,.34a4.19,4.19,0,0,1-.1,1A5.41,5.41,0,0,1,346.48,26a5.54,5.54,0,0,1-5.28.85,5.47,5.47,0,0,1-2.63-1.94,5.59,5.59,0,0,1,7.79-7.84l.12.09a5.36,5.36,0,0,1,1.94,3.08,4.19,4.19,0,0,1,.1,1C348.55,21.49,348.54,21.61,348.52,21.61Z"/><path class="cls-5" d="M361.39,23.92a4.7,4.7,0,0,0-.26-1.29,5.43,5.43,0,0,0-2-2.84,5.16,5.16,0,1,0,0,8.26,5.43,5.43,0,0,0,2-2.84c.22-.81.21-1.29.26-1.29s0,.12,0,.35a3.74,3.74,0,0,1-.11,1,5.31,5.31,0,0,1-1.94,3.08,5.59,5.59,0,1,1,0-8.84,5.36,5.36,0,0,1,1.94,3.08,3.74,3.74,0,0,1,.11,1C361.45,23.82,361.44,23.92,361.39,23.92Z"/><path class="cls-5" d="M338.39,18.63a10.7,10.7,0,0,1-3.24.27,10.38,10.38,0,0,1-3.24-.25,10.39,10.39,0,0,1,3.24-.27A10.09,10.09,0,0,1,338.39,18.63Z"/><path class="cls-5" d="M350.67,22.92c-.13.06-.45-.43-1-.6s-1.12.07-1.2,0,0-.21.29-.35a1.42,1.42,0,0,1,1.05-.1,1.49,1.49,0,0,1,.84.66C350.74,22.71,350.73,22.92,350.67,22.92Z"/><polygon class="cls-3" points="338.77 130.64 338.77 127.3 386.27 128.28 413.63 84.58 416.14 86.39 388.12 131.07 338.77 130.64"/><path class="cls-11" d="M371.64,116.08l2.39,3.54v7.3a1.58,1.58,0,0,1-1.73-.7,28.71,28.71,0,0,1-1.16-4.37l-1.16,3a2.6,2.6,0,0,1-3,1.57l-8.8-2.21,3.56-10.29Z"/><path class="cls-6" d="M323,45.58s-13.15,3.29-17.09,9.2-8.44,15.74-13.28,34.78c-4.22,16.62-7.48,43.16-2.91,49.39,3.15,4.28,5.16,5.37,5.16,5.37L305,140.69a78.42,78.42,0,0,0,26.42-15.9L347,110.59l-8.24-6.5s6.27-33.87,4.61-45.7C341.92,48.05,323,45.58,323,45.58Z"/><path class="cls-6" d="M326.39,55.79c-5.06,1.25-9.93,3.31-16.84,3.88a7.7,7.7,0,0,1-4.67-1C300.51,56,302,51,304.41,47.62c2.53-3.56,6.51-6.62,10.86-6.18a5,5,0,0,1,2.48-5.86,8.23,8.23,0,0,1,6.73-.15,24.25,24.25,0,0,1,5.89,3.62l7.43,5.61a14.08,14.08,0,0,1,4.35,4.44c1,1.85,4.52,9.12,2.94,10.49,0,0-2,.59-3,0l-.18-.13A18.15,18.15,0,0,0,326.39,55.79Z"/><path class="cls-6" d="M318.92,61.92l-8.69,40.62a14.54,14.54,0,0,0,9.25,16.71l37.77,7.25L362,112.42h0l-30.65-9.5,9-39.25Z"/><path class="cls-4" d="M309.91,110.3a1.05,1.05,0,0,1,.06.24l.14.7a3.92,3.92,0,0,0,.1.52,4.44,4.44,0,0,0,.22.6l.26.71.42.76a10,10,0,0,0,3,3.22,17,17,0,0,0,5.54,2.42L357,126.31l-.25.14c1.55-4.46,3.2-9.17,4.91-14.08l.16.31-30.66-9.54-.23-.08.06-.24c.53-2.09,1.1-4.33,1.68-6.59,1.78-7.11,3.45-14.07,4.9-20.83.71-3.38,1.39-6.71,1.85-10,.14-.82.14-1.63.21-2.44a10.59,10.59,0,0,0-.27-2.38,9.81,9.81,0,0,0-2.09-4.16,10.23,10.23,0,0,0-8-3.59,10.46,10.46,0,0,0-7.43,3.77A19.28,19.28,0,0,0,318,63.66,61.15,61.15,0,0,0,316.29,71c-1.86,9.42-3.36,17-4.41,22.34-.53,2.61-.94,4.66-1.22,6.06l-.27,1.55c-.08.35-.13.53-.13.53a2.81,2.81,0,0,1,.08-.54c.08-.36.16-.91.28-1.59.26-1.41.64-3.46,1.12-6.08,1-5.3,2.46-12.94,4.25-22.37a62,62,0,0,1,1.71-7.37,20.09,20.09,0,0,1,3.89-7.22,10.89,10.89,0,0,1,7.75-3.93,10.69,10.69,0,0,1,8.39,3.73,10.42,10.42,0,0,1,2.2,4.36,11,11,0,0,1,.28,2.49c-.07.83-.07,1.68-.2,2.5-.47,3.31-1.14,6.65-1.85,10-1.45,6.76-3.11,13.73-4.9,20.85-.57,2.26-1.14,4.5-1.68,6.59l-.17-.31,30.64,9.58.24.07-.08.24c-1.73,4.9-3.38,9.62-4.95,14.07l-.06.18H357c-15.46-2.89-28.33-5.25-37.35-7a17.16,17.16,0,0,1-5.59-2.5,10,10,0,0,1-3.08-3.28c-.15-.27-.28-.53-.41-.77a3.8,3.8,0,0,1-.24-.72c-.07-.22-.15-.43-.21-.62l-.09-.53a3.54,3.54,0,0,0-.11-.71A.82.82,0,0,1,309.91,110.3Z"/><path class="cls-4" d="M326,108.21c-.06,0-.11-.48.08-1.22a5.66,5.66,0,0,1,1.52-2.51,5.53,5.53,0,0,1,2.58-1.42c.74-.16,1.22-.09,1.22,0s-.45.14-1.12.38a6.9,6.9,0,0,0-2.32,1.44,6.7,6.7,0,0,0-1.53,2.26C326.2,107.77,326.12,108.22,326,108.21Z"/><g class="cls-13"><path d="M318,61.41a233.64,233.64,0,0,0-9.1,43.39,34.87,34.87,0,0,0-.2,10.2c.59,3.37,2.25,6.69,5.11,8.55a12.78,12.78,0,0,0,9.23,1.41c3.14-.6,8.2-1.29,11.09-2.65l-16.9-3.49s-10.9-.68-6.22-21.54S318,61.41,318,61.41Z"/></g><g class="cls-13"><path d="M303.63,57.92c-.07,1.67.09,3.73,1.6,4.42s3.25-.58,4.51-1.74a72.7,72.7,0,0,1,17.18-11.78,40.3,40.3,0,0,0-23.26,9.4"/></g><path class="cls-4" d="M336.73,52.85a28.16,28.16,0,0,0-4.66-2.49,19.9,19.9,0,0,0-5.54-1.26,18.5,18.5,0,0,0-6.9.75,34.82,34.82,0,0,0-6.41,2.81c-1.91,1-3.6,2-5.06,2.79a35.33,35.33,0,0,1-3.53,1.67,6.57,6.57,0,0,1-1.36.45,9,9,0,0,1,1.28-.64c.83-.4,2-1,3.43-1.81l5-2.88a33.37,33.37,0,0,1,6.49-2.89,18.27,18.27,0,0,1,7.09-.72A19,19,0,0,1,332.2,50a16.62,16.62,0,0,1,3.42,1.91,8.69,8.69,0,0,1,.84.66C336.65,52.75,336.74,52.84,336.73,52.85Z"/><path class="cls-4" d="M342,54.92c-.07.06-1.26-1.13-3.38-2.83a48.79,48.79,0,0,0-18.8-9.37c-2.63-.66-4.3-.9-4.29-1a4.31,4.31,0,0,1,1.19.08,31.26,31.26,0,0,1,3.19.55,43.48,43.48,0,0,1,18.95,9.44c1,.9,1.84,1.66,2.36,2.22A5.68,5.68,0,0,1,342,54.92Z"/><path class="cls-3" d="M344.54,87.83a3,3,0,0,1-.2-.84c-.1-.56-.24-1.37-.33-2.4a12,12,0,0,1,.17-3.73,2.13,2.13,0,0,1,1.64-1.68,1.25,1.25,0,0,1,1.29.52,1.15,1.15,0,0,1-.08,1.46h-.12a1.64,1.64,0,0,1-1.44-.57,2.57,2.57,0,0,1-.61-1.41c-.12-1-.13-2-.19-3-.25-4.8-.45-9.14-.57-12.28,0-1.5-.08-2.75-.11-3.73a7.84,7.84,0,0,1,0-1.37,6.18,6.18,0,0,1,.18,1.36c.07,1,.16,2.23.27,3.72.21,3.14.47,7.47.72,12.27.06,1,.07,2,.17,2.92a2.14,2.14,0,0,0,.48,1.15,1.14,1.14,0,0,0,1,.42l-.12.06a.66.66,0,0,0,0-.84.78.78,0,0,0-.82-.33,1.73,1.73,0,0,0-1.31,1.34,12.79,12.79,0,0,0-.27,3.6C344.39,86.62,344.61,87.82,344.54,87.83Z"/><path class="cls-4" d="M328.12,120.92a11.06,11.06,0,0,1-1.22,1.15c-.8.72-2,1.72-3.52,2.92a109.77,109.77,0,0,1-12.44,8.51,103.8,103.8,0,0,1-13.55,6.67c-1.79.73-3.25,1.28-4.28,1.62a11,11,0,0,1-1.6.49,8.7,8.7,0,0,1,1.53-.68c1-.4,2.44-1,4.21-1.77a121.93,121.93,0,0,0,13.39-6.8,134.4,134.4,0,0,0,12.49-8.35c1.53-1.16,2.77-2.12,3.61-2.79A11,11,0,0,1,328.12,120.92Z"/><path class="cls-4" d="M297.66,143.63c-.11.09-.71-.51-1.33-1.34a4.14,4.14,0,0,1-.92-1.65c.08-.08.71.51,1.34,1.34S297.78,143.54,297.66,143.63Z"/><path class="cls-4" d="M303.7,141.08c-.08.11-.91-.35-1.68-1.21s-1.16-1.71-1-1.78.68.63,1.42,1.43S303.79,140.92,303.7,141.08Z"/><path class="cls-4" d="M311.28,138.58c-.1.09-.94-.68-1.87-1.73a6.56,6.56,0,0,1-1.48-2.07,6.76,6.76,0,0,1,1.87,1.73C310.72,137.56,311.39,138.48,311.28,138.58Z"/><path class="cls-4" d="M319.39,134.26c-.11.09-1-.81-2-2a7.63,7.63,0,0,1-1.6-2.33c.11-.09,1,.8,2,2A7.8,7.8,0,0,1,319.39,134.26Z"/><path class="cls-4" d="M327,128.6c-.1.11-1-.6-2.14-1.58s-1.88-1.85-1.78-2,1.05.6,2.13,1.58S327.08,128.5,327,128.6Z"/></g></g></g></svg>