<svg xmlns="http://www.w3.org/2000/svg" viewBox="0 0 529.13 394.25"><defs><style>.cls-1{fill:#ffbe9d;}.cls-2{fill:#eb996e;}.cls-3{fill:#263238;}.cls-4{fill:#455a64;}.cls-5{opacity:0.3;}.cls-6{fill:#5396CE;}.cls-7{fill:#e0e0e0;}.cls-8{fill:#ebebeb;}.cls-9{fill:#fafafa;}.cls-10{fill:#f5f5f5;}.cls-11,.cls-13,.cls-14,.cls-15{isolation:isolate;font-family:RobotoMono-Bold, Roboto Mono;font-weight:700;}.cls-11{font-size:14.76px;}.cls-11,.cls-12,.cls-13,.cls-14,.cls-15{fill:#fff;}.cls-13{font-size:10.68px;}.cls-14{font-size:16.98px;}.cls-15{font-size:17px;}</style></defs><g id="Layer_2" data-name="Layer 2"><g id="Layer_1-2" data-name="Layer 1"><g id="Character"><path class="cls-1" d="M259.82,64.77,258.6,167.18c-.21,17.42,3,43,30.58,42.13h0c23.84-2.6,30.17-25.17,30.35-41.42.09-7.71.18-14.14.24-14.93,0,0,26.1-2.13,28.3-27.91,1.07-12.46,1.17-38.3,1-61.67a48.21,48.21,0,0,0-44.7-47.68l-2.48-.18C274.86,15.1,259.47,37.81,259.82,64.77Z"/><path class="cls-2" d="M319.72,153s-16.34-.23-32.87-12.39c0,0,6.82,19.45,32.73,19Z"/><path class="cls-3" d="M304.94,73.94c-.51.52-3.49-1.87-7.81-2s-7.54,2-8,1.45c-.22-.25.31-1.2,1.72-2.19a10.76,10.76,0,0,1,6.42-1.82,10.33,10.33,0,0,1,6.2,2.25C304.77,72.73,305.19,73.71,304.94,73.94Z"/><path class="cls-3" d="M304,82.88a3.51,3.51,0,0,1-3.62,3.27,3.35,3.35,0,0,1-3.36-3.34v-.07a3.48,3.48,0,0,1,3.61-3.27A3.36,3.36,0,0,1,304,82.8Z"/><path class="cls-3" d="M315.76,104c0-.23,2.49-.48,6.52-.69,1,0,2-.17,2.22-.84a5.14,5.14,0,0,0-.46-3c-.77-2.52-1.58-5.17-2.43-7.93-3.36-11.29-5.71-20.53-5.25-20.66s3.54,8.9,6.9,20.19c.8,2.78,1.56,5.44,2.3,8,.3,1.18.86,2.53.24,4a2.59,2.59,0,0,1-1.78,1.36,7.17,7.17,0,0,1-1.73.12C318.25,104.38,315.76,104.21,315.76,104Z"/><path class="cls-3" d="M303.1,57.7c-.42,1-3.87.24-8,.45s-7.55,1.13-8,.21c-.21-.44.43-1.33,1.84-2.18A13.16,13.16,0,0,1,295,54.47a12.86,12.86,0,0,1,6.16,1.21C302.6,56.42,303.28,57.25,303.1,57.7Z"/><path class="cls-3" d="M344.12,65.71c-.45.78-3.82-.09-7.91-.22s-7.47.4-7.9-.42c-.19-.38.48-1.08,1.91-1.7a14,14,0,0,1,6-1,14.58,14.58,0,0,1,6,1.48C343.67,64.58,344.32,65.33,344.12,65.71Z"/><path class="cls-1" d="M260.54,84c-.43-.22-17.35-6.54-18.08,11.14s17.18,14.77,17.23,14.26S260.54,84,260.54,84Z"/><path class="cls-2" d="M254.6,102.51c-.08-.06-.32.2-.85.42a3.08,3.08,0,0,1-2.31,0c-1.84-.76-3.29-3.79-3.24-7a10.07,10.07,0,0,1,1-4.38,3.47,3.47,0,0,1,2.4-2.29,1.58,1.58,0,0,1,1.79.91c.22.51.09.86.18.89s.39-.28.28-1a2.06,2.06,0,0,0-.65-1.13,2.31,2.31,0,0,0-1.69-.52A4.32,4.32,0,0,0,248.18,91a10.52,10.52,0,0,0-1.27,4.88c0,3.57,1.66,7,4.18,7.82a3.31,3.31,0,0,0,2.84-.35A1.47,1.47,0,0,0,254.6,102.51Z"/><path class="cls-3" d="M311.6,116.23c.19-.45-3.28-1.48-5.71-4.73a19.88,19.88,0,0,1-2.45-4.62c-.51-1.28-.9-2.09-1.1-2s-.13.92.15,2.32a13,13,0,0,0,2.28,5.17,10.58,10.58,0,0,0,4.52,3.46C310.6,116.35,311.54,116.38,311.6,116.23Z"/><path class="cls-3" d="M383.25,40.23a4.16,4.16,0,0,0-2-2.43c-2-1.2-4.34-1-6.59-1.07a37.26,37.26,0,0,1-19.39-5.9,87.27,87.27,0,0,0-9-10.93C338.45,11.84,332,6.36,325.37,3.68c-8.6-3.46-23-4.87-32-2.51S276.37,10.8,275.1,20c-5-4.25-12.59-4.22-18.71-1.76l-.16-.06c-6.76,2.43-10.63,9.64-12.63,16.6S240.73,49.17,237,55.4c-.77,1.31-1.68,2.87-1,4.23a2.87,2.87,0,0,0,3,1.31,8.57,8.57,0,0,0,3.18-1.44L239.94,65a16.22,16.22,0,0,0,7.42-.5c1.45,6.51,3.18,13.94,4.85,18.35,2.86,0,5.47.2,7.23,1.78,2.38,2.15,3.45,6.19,7.42,4.66,2-.79,3.87-5,4.55-7.09a100.63,100.63,0,0,0,4.35-42.59,32.12,32.12,0,0,1,10-7.2l-.3.27c7.2-2.5,15.35-5,22.19-1.58,5.3,2.62,8.42,8.13,12.38,12.52a40.44,40.44,0,0,0,28.85,13.32c.38,7.26-.23,17.52.15,24.78l6.08-11.59h0c.5-.85.92-1.71,1.32-2.57l.14-.26h0a42.24,42.24,0,0,1,2-4.17l.07.06c3.93,3.47,9.73-1.84,6.62-6.07a10.62,10.62,0,0,0-2.19-2.2,7.17,7.17,0,0,0,6.84,1.77,5.65,5.65,0,0,0,4-5.56,4.78,4.78,0,0,0-2.86-3.84,16.24,16.24,0,0,0,9.2-2C382.08,44.22,383.87,42.52,383.25,40.23Z"/><path class="cls-4" d="M283.27,23a21.37,21.37,0,0,0-2.58,2.36,18.32,18.32,0,0,0-4,8.57,31.31,31.31,0,0,0-.66,6.55c0,2.38.18,4.92.36,7.6a68.24,68.24,0,0,1,.2,8.46A31.85,31.85,0,0,1,276,61a9.47,9.47,0,0,1-1.82,4.33,4,4,0,0,1-3.58,1.22,5.8,5.8,0,0,1-3.27-1.85c-1.66-1.94-2.07-4.39-2.49-6.56l.55.07a22.42,22.42,0,0,1-3.14,5.4,7.71,7.71,0,0,1-5,2.73,4.86,4.86,0,0,1-2.66-.46,4.24,4.24,0,0,1-1.8-1.78,4.36,4.36,0,0,1-.55-2.29,3.1,3.1,0,0,1,.83-2l.27.24a17,17,0,0,1-5.54,4.16,17.92,17.92,0,0,1-1.72.66,3.39,3.39,0,0,1-.61.15,3,3,0,0,1,.58-.24c.38-.16.95-.39,1.66-.75a17.4,17.4,0,0,0,5.35-4.22l.27.24a3.32,3.32,0,0,0-.17,3.84,3.83,3.83,0,0,0,1.64,1.57,4.43,4.43,0,0,0,2.41.39,7.19,7.19,0,0,0,4.65-2.59,21.76,21.76,0,0,0,3-5.29l.38-.83.17.9c.41,2.16.85,4.52,2.36,6.26a5.22,5.22,0,0,0,2.93,1.66,3.34,3.34,0,0,0,3.1-1,8.93,8.93,0,0,0,1.68-4,30.58,30.58,0,0,0,.58-4.37,71,71,0,0,0-.16-8.38c-.17-2.68-.34-5.24-.31-7.64a31.5,31.5,0,0,1,.74-6.64,18.16,18.16,0,0,1,4.2-8.63A10.27,10.27,0,0,1,283.27,23Z"/><path class="cls-4" d="M363.05,48a1.54,1.54,0,0,1-.2.18l-.65.47a10.59,10.59,0,0,1-1.09.7,15.6,15.6,0,0,1-1.57.82,23,23,0,0,1-11,2A29.24,29.24,0,0,1,333,46.46c-5.15-3.7-9.68-9.16-13.37-15.41-1.88-3.12-3.41-6.32-5.09-9.28a34.49,34.49,0,0,0-5.77-7.85,17.71,17.71,0,0,0-7.43-4.51A12.38,12.38,0,0,0,297.4,9a12.83,12.83,0,0,0-3.58.69,14.8,14.8,0,0,0-8.29,7,17,17,0,0,0-1.33,3.87.62.62,0,0,1,0-.27,5.88,5.88,0,0,1,.12-.79,12.6,12.6,0,0,1,1-2.92,14.43,14.43,0,0,1,2.89-3.91,14.83,14.83,0,0,1,5.47-3.4,13.67,13.67,0,0,1,3.7-.75,13.08,13.08,0,0,1,4.08.44,18.1,18.1,0,0,1,7.68,4.59,34.31,34.31,0,0,1,5.89,8c1.71,3,3.24,6.17,5.1,9.26,3.66,6.2,8.12,11.6,13.18,15.27a29.07,29.07,0,0,0,15.26,5.77A23.18,23.18,0,0,0,359.48,50,37.84,37.84,0,0,0,363.05,48Z"/><path class="cls-4" d="M365.4,36.71a4.46,4.46,0,0,1-.92.64,20.13,20.13,0,0,1-2.74,1.39,26.89,26.89,0,0,1-4.34,1.43,30.47,30.47,0,0,1-5.54.73,29.8,29.8,0,0,1-5.59-.38,26.69,26.69,0,0,1-4.41-1.14A21.5,21.5,0,0,1,339,38.17a4.15,4.15,0,0,1-1-.58c0-.11,1.47.63,3.92,1.39a31.07,31.07,0,0,0,4.37,1,34.54,34.54,0,0,0,5.48.32,33.41,33.41,0,0,0,5.44-.67,30.76,30.76,0,0,0,4.3-1.28C364,37.43,365.34,36.61,365.4,36.71Z"/><path class="cls-3" d="M344.32,75.57c-.52.52-3.49-1.88-7.81-2s-7.55,2-8,1.45c-.22-.25.31-1.21,1.72-2.19A10.7,10.7,0,0,1,336.65,71a10.37,10.37,0,0,1,6.19,2.26C344.14,74.35,344.6,75.34,344.32,75.57Z"/><path class="cls-3" d="M339.91,84.1a3.5,3.5,0,0,1-3.62,3.27,3.34,3.34,0,0,1-3.36-3.32V84a3.5,3.5,0,0,1,3.67-3.25A3.35,3.35,0,0,1,339.91,84.1Z"/><path class="cls-1" d="M501,178.42c0-7.49-7.16-7.49-7.16-7.49-2.73-3.59-5.8-2.28-5.8-2.28l-11.59,7.81c-1.7,2.93-13,14-13,14-3.07-2.28-3.07-6.84-6.74-12.38s-12-4.88-12-4.88,6.48,14.65,7.16,23.77-5,34.56-5,34.56l32.77,9.21s2.07-14,5.74-15.08c4.42-1.36,6.88-7.88,6.88-7.88,4.77-9.67,14.47-23.74,15.84-30.9S501,178.42,501,178.42Z"/><path class="cls-4" d="M257.35,162.22c20.87,13.11,41.9,18,63.2,9.55l32,8.18,31.5,210.5L199.36,392.1l9.1-48.89,22.9-175.65Z"/><path class="cls-4" d="M352.6,180S377.5,190.3,387,208.41s24.78,69,24.78,69l28.15-51.68,52.21,13.37s-38.88,107.24-48.64,117c-10.69,10.69-39.81,21.47-54.07,13.15s-17.16-39.89-17.16-39.89Z"/><path class="cls-3" d="M354.29,268c-.14,0-.26-9.34-.26-20.87s.12-20.89.26-20.89.26,9.35.26,20.89S354.44,268,354.29,268Z"/><path class="cls-3" d="M364,192a30.68,30.68,0,0,1-1.21,3.45c-.78,2.11-1.83,5-2.84,8.33s-1.82,6.3-2.37,8.48a29.16,29.16,0,0,1-.94,3.53,3,3,0,0,1,.1-1c.09-.62.26-1.52.49-2.63.45-2.21,1.2-5.25,2.22-8.55s2.12-6.23,3-8.31c.43-1,.8-1.88,1.08-2.45A3.54,3.54,0,0,1,364,192Z"/><path class="cls-4" d="M228,246.33,233.76,167s-43.48,4-57.87,34.71C163.77,227.58,130.3,305.35,126.72,316c-10.52,31.22,5.88,74.11,73.61,71.66l7.72-42.45Z"/><path class="cls-3" d="M179.3,354.1a3.49,3.49,0,0,1,.35-.76l1.1-2.13,4.15-7.81,1.39-2.58a7.32,7.32,0,0,1,2-2.55,5.34,5.34,0,0,1,3.35-1,15.3,15.3,0,0,1,3.6.59,37.44,37.44,0,0,1,7.28,2.75,19.07,19.07,0,0,1,3.49,2.22l.4.35a1.53,1.53,0,0,1,.35.54,5,5,0,0,1,.22,1.09,19.46,19.46,0,0,1,0,2.16c-.14,2.77-.41,5.54-.82,8.29s-.77,5.22-1.18,7.66c-.82,4.87-1.63,9.23-2.34,12.9s-1.28,6.57-1.69,8.67c-.2,1-.35,1.77-.47,2.36,0,.27-.1.55-.17.82a3,3,0,0,1,.07-.84c.07-.55.19-1.35.37-2.38l1.53-8.7c.66-3.67,1.44-8,2.23-12.91.39-2.43.79-5,1.15-7.65a82.76,82.76,0,0,0,.8-8.24,18,18,0,0,0,0-2.08,4.78,4.78,0,0,0-.19-1,.93.93,0,0,0-.21-.33l-.38-.34a19.59,19.59,0,0,0-3.4-2.17,37,37,0,0,0-7.16-2.74,14.82,14.82,0,0,0-3.49-.59,4.93,4.93,0,0,0-3.08.85,7.16,7.16,0,0,0-1.89,2.41l-1.42,2.56L181,351.24l-1.19,2.09A7.45,7.45,0,0,1,179.3,354.1Z"/><path class="cls-3" d="M147.85,316.37a2.26,2.26,0,0,1,.52,0l1.46.05c1.26.07,3.09.17,5.35.38a68,68,0,0,1,7.9,1.15,40.86,40.86,0,0,1,9.29,3.08,36.37,36.37,0,0,1,8.17,5.39,21.87,21.87,0,0,1,5,6.27,14.14,14.14,0,0,1,1.5,5.17,12,12,0,0,1,0,1.47,4.17,4.17,0,0,1,0,.5c-.06,0,0-.7-.19-2a14.7,14.7,0,0,0-1.63-5,22,22,0,0,0-4.95-6.08,37.11,37.11,0,0,0-8.08-5.28,40.82,40.82,0,0,0-9.16-3.08,76.84,76.84,0,0,0-7.83-1.25c-2.25-.26-4.08-.42-5.34-.54l-1.45-.16A2.1,2.1,0,0,1,147.85,316.37Z"/><path class="cls-3" d="M194.38,312.37a21.3,21.3,0,0,1-1.08,3.12c-.75,1.9-1.86,4.49-3.13,7.32l-3.26,7.29a27.4,27.4,0,0,1-1.42,3,17,17,0,0,1,1.08-3.13c.74-1.89,1.85-4.48,3.12-7.32s2.37-5.26,3.27-7.25A20.91,20.91,0,0,1,194.38,312.37Z"/><path class="cls-3" d="M218.44,250c-.15,0-.26-5-.26-11.23s.11-11.23.26-11.23.26,5,.26,11.23S218.6,250,218.44,250Z"/><g class="cls-5"><path d="M187,339.82c-11.44,4-19.17,14.37-22.3,26.08-.32,1.22-.54,2.67.28,3.64a2.88,2.88,0,0,0,3.59.3,8.7,8.7,0,0,0,2.55-2.94C176.62,358.09,182,349.9,187,339.82Z"/></g><g class="cls-5"><path d="M172.8,317.2c-6-3.33-12.86-4.75-19.69-5.17a29.85,29.85,0,0,0-8,.7c-3.57.75-7.68,2.56-8.46,5.12,8.21-2.57,20.3-.88,28.7,1a30.83,30.83,0,0,1,20.14,14.25A28.67,28.67,0,0,0,172.8,317.2Z"/></g><path class="cls-3" d="M212,216.17a7,7,0,0,1-.4-1.25c-.21-.81-.56-2-1-3.41a54.74,54.74,0,0,0-11.83-20.08c-1-1.11-1.87-2-2.47-2.56a6.14,6.14,0,0,1-.91-1,5.91,5.91,0,0,1,1,.81c.65.54,1.55,1.38,2.61,2.46a49.43,49.43,0,0,1,11.9,20.22c.35,1.14.64,2.3.88,3.47A6.58,6.58,0,0,1,212,216.17Z"/><path class="cls-6" d="M228,392,179.6,275.1c-2.21-5.34.56-9.66,6.2-9.66h9.74c4,0,6.69-2.19,7-5.61l.32-4.3c.26-3.42,3-5.61,7-5.61h46.32a16.19,16.19,0,0,1,10.72,4.74l3.76,3.64a16.14,16.14,0,0,0,10.64,4.8h59c5.63,0,11.94,4.32,14.09,9.66l48,119.28Z"/><g class="cls-5"><path d="M228,392,179.6,275.1c-2.21-5.34.56-9.66,6.2-9.66h9.74c4,0,6.69-2.19,7-5.61l.32-4.3c.26-3.42,3-5.61,7-5.61h46.32a16.19,16.19,0,0,1,10.72,4.74l3.76,3.64a16.14,16.14,0,0,0,10.64,4.8h59c5.63,0,11.94,4.32,14.09,9.66l48,119.28Z"/></g><path class="cls-7" d="M220,352.32l-18.27-70.65c-1.2-4.65,1.85-9.32,6.09-9.32H351a6.54,6.54,0,0,1,6.1,5.26L383.74,384c1.17,4.67-.7,7.47-4.94,7.42H234.69a6.51,6.51,0,0,1-6-5.22Z"/><path class="cls-8" d="M229.9,388.82l-7.78-111.25a6.82,6.82,0,0,1,6.32-7.29H377.33V388.82Z"/><path class="cls-9" d="M228.24,391.37l17.66-114.7a8.2,8.2,0,0,1,8.07-6.4H404.09a8.11,8.11,0,0,1,8.23,8,8.23,8.23,0,0,1-.65,3.32l-32.42,105Z"/><path class="cls-6" d="M228,392l36.41-107.42a10.76,10.76,0,0,1,10.18-7.45H429.31a7.54,7.54,0,0,1,7.31,7.77,7.69,7.69,0,0,1-.4,2.23L402.36,392Z"/><g class="cls-5"><path d="M302.84,374s-5.84.27-8.54.45a79.36,79.36,0,0,1-37.6-6.67c-3.64-1.62-7.49-3.91-8.6-7.74-1.23-4.29,1.55-8.76,4.94-11.67s7.51-5,10.45-8.34,4.33-8.79,1.43-12.19l-.8.59c-2.09,5.3-7.92,7.86-12.75,10.9a44.93,44.93,0,0,0-18.9,24.7c-1.7,5.56-2.15,12,1.22,16.78,2.39,3.37,6.31,5.28,10.18,6.71,11.71,4.34,24.22,4.51,36.71,4.52,3.94,0,16-.16,16-.16,3.81-1,5.06-3,7.36-6.23C306.09,382.68,305.6,376.29,302.84,374Z"/></g><path class="cls-1" d="M302.84,374l-40.36-6.07-15.68-9a7.09,7.09,0,0,1-3.6-5.7v-.13a7.15,7.15,0,0,1,4.44-6.83c5-2.09,12.85-4.88,16.21-10.77,4.82-8.45,0-10.21,0-10.21l-33.71,13.48L206.28,355l-4.81,27.11L234.76,393s37.1,2.09,47.34.94S292.33,388,292.33,388c1.9-.6,5.75-4,5.75-7.12,5-4.66,4.76-6.86,4.76-6.86"/><path class="cls-2" d="M251.21,385.64a7.27,7.27,0,0,1,1.66.32c1.06.25,2.59.59,4.49,1a95.52,95.52,0,0,0,30.13,1.14c1.93-.23,3.48-.45,4.55-.63a8,8,0,0,1,1.69-.18,9.5,9.5,0,0,1-1.64.45c-1.06.25-2.61.54-4.53.84a82.16,82.16,0,0,1-30.3-1.18c-1.9-.45-3.42-.86-4.46-1.2A8.82,8.82,0,0,1,251.21,385.64Z"/><path class="cls-2" d="M254.9,379.4a7.53,7.53,0,0,1,1.69.32c1.07.26,2.63.6,4.56,1a98.84,98.84,0,0,0,15.25,1.69,105.07,105.07,0,0,0,15.35-.71c2-.23,3.53-.46,4.62-.63a8.88,8.88,0,0,1,1.71-.2,8.9,8.9,0,0,1-1.66.46c-1.08.26-2.65.55-4.61.85a86.61,86.61,0,0,1-15.43.91,83.25,83.25,0,0,1-15.33-1.9c-1.93-.43-3.48-.84-4.53-1.18A8.31,8.31,0,0,1,254.9,379.4Z"/><path class="cls-8" d="M493,230.1l-71.72,14.17a9.15,9.15,0,0,1-10.74-7.17l-19.61-99.27a9.14,9.14,0,0,1,7.2-10.75l45.51-9L486,147.44l14.22,71.95A9.16,9.16,0,0,1,493,230.1Z"/><path class="cls-10" d="M443.6,118.1,449.12,146a8.49,8.49,0,0,0,10,6.7h0l26.86-5.3Z"/><path class="cls-7" d="M450,148.38s1,6.84,9.14,7.55H460c3.63-.06,27.53-.52,27.43-1s-1.49-7.5-1.49-7.5l-26.86,5.3S452.34,153.8,450,148.38Z"/><path class="cls-3" d="M493,230.1l.39-.11a9.32,9.32,0,0,0,1.13-.37,9.09,9.09,0,0,0,5.67-9.67c-.52-2.91-1.23-6.25-2-10l-12.44-62.49.09.13-42.39-29.3h.19l-26.25,5.2-13.73,2.71-3.48.69a22.21,22.21,0,0,0-3.43.81,8.85,8.85,0,0,0-5,4.65,8.53,8.53,0,0,0-.72,4.75c.25,1.61.62,3.26.93,4.88l1.91,9.68q1.89,9.61,3.73,18.93l7.06,35.79q1.68,8.56,3.28,16.67.8,4,1.57,8c.26,1.31.51,2.61.77,3.9a19.53,19.53,0,0,0,.91,3.75,8.92,8.92,0,0,0,8.78,5.51c1.19-.14,2.38-.34,3.56-.6L437,241l40.86-8L489,230.81l2.89-.55,1-.17s-.33.09-1,.23l-2.89.59-11.1,2.24-40.83,8.15L423.6,244a33.85,33.85,0,0,1-3.6.62,9.34,9.34,0,0,1-9.21-5.75,20.57,20.57,0,0,1-1-3.83c-.25-1.29-.51-2.59-.77-3.9q-.78-3.93-1.58-8l-3.3-16.66-7.09-35.79q-1.83-9.3-3.74-18.93l-1.83-9.65c-.31-1.63-.68-3.23-.94-4.91a9.23,9.23,0,0,1,.76-5,9.35,9.35,0,0,1,5.26-4.92,22.12,22.12,0,0,1,3.51-.83l3.48-.69L417.28,123l26.25-5.18h.1l.09.06,42.36,29.37h.07v.08c5.09,26,9.31,47.51,12.25,62.54.72,3.76,1.42,7.09,1.92,10a9.14,9.14,0,0,1-5.84,9.76,7.47,7.47,0,0,1-1.14.34Z"/><path class="cls-3" d="M486,147.4a4.27,4.27,0,0,1-.68.18l-2,.44L476,149.54l-10.78,2.18L458.85,153a8.74,8.74,0,0,1-9.13-4.43,10.07,10.07,0,0,1-1.07-3.33c-.43-2.21-.85-4.34-1.24-6.38-.78-4.05-1.48-7.71-2.08-10.8L444,120.75c-.15-.82-.26-1.48-.35-2a2.79,2.79,0,0,1-.08-.7,5.27,5.27,0,0,1,.19.68l.43,2c.37,1.77.89,4.24,1.52,7.26s1.37,6.74,2.19,10.78c.41,2,.83,4.16,1.27,6.37a9.44,9.44,0,0,0,1,3.18,8.16,8.16,0,0,0,2.23,2.59,8.29,8.29,0,0,0,6.37,1.59l6.37-1.23,10.8-2.07,7.3-1.36,2-.34A2.92,2.92,0,0,1,486,147.4Z"/><path class="cls-3" d="M447.15,143.26c0,.14-8.42,1.93-18.87,4s-18.94,3.62-19,3.48,8.42-1.93,18.87-4S447.12,143.1,447.15,143.26Z"/><path class="cls-3" d="M467.85,153.65c0,.14-12.44,2.72-27.84,5.76s-27.92,5.4-28,5.26,12.44-2.72,27.85-5.77S467.82,153.51,467.85,153.65Z"/><path class="cls-3" d="M470.6,167.59c0,.14-12.44,2.72-27.84,5.76s-27.92,5.4-28,5.26,12.44-2.73,27.85-5.77S470.6,167.44,470.6,167.59Z"/><path class="cls-3" d="M417.6,192.54c0-.14,12.44-2.72,27.84-5.76s27.92-5.4,27.95-5.26-12.44,2.72-27.85,5.77S417.6,192.68,417.6,192.54Z"/><path class="cls-3" d="M476.11,195.46c0,.14-12.44,2.72-27.84,5.76s-27.92,5.4-27.95,5.26,12.44-2.72,27.84-5.77S476.08,195.32,476.11,195.46Z"/><path class="cls-3" d="M478.86,209.4c0,.14-12.44,2.72-27.84,5.76s-27.92,5.4-27.95,5.26,12.44-2.73,27.85-5.77S478.83,209.26,478.86,209.4Z"/><rect class="cls-6" x="389.07" y="196.23" width="62.09" height="27.9" rx="4.22" transform="translate(-32.76 85.37) rotate(-11.17)"/><path class="cls-1" d="M481.68,156.22s5.3-6.7,9.38-3,2.9,5.68-1,11.6c0,0,8.66-.45,5.88,8.44,0,0,8.63-1,7.8,6.33,0,0,6.52,6.37,3.13,10.48s-15.68,11.53-18.78,10.25-3.13-5.67-3.13-5.67-3.69-1.66-4.71-3.61.73-4.67.73-4.67-3.11-3.18-3.88-4.07.42-5,.42-5l5-4.82s-6.84,3-8.27,1.84-3-2.12-1.51-4.18,7-6.7,7-6.7Z"/><path class="cls-2" d="M485.67,195.21a23.37,23.37,0,0,1,2.25-2.72,25.44,25.44,0,0,1,6.32-5.79,63.05,63.05,0,0,0,7.1-4.57c1.65-1.37,2.3-2.57,2.42-2.49s-.4,1.38-2,2.92a46.68,46.68,0,0,1-7,4.83,31.65,31.65,0,0,0-6.34,5.49A11.35,11.35,0,0,1,485.67,195.21Z"/><path class="cls-2" d="M480.88,187.7c-.16-.16,3-3.59,7.1-7.66a67.14,67.14,0,0,1,5.32-5.15,6.28,6.28,0,0,1,2.66-1.58c.06.11-.93.72-2.27,2s-3.05,3.26-5.13,5.29C484.48,184.69,481,187.86,480.88,187.7Z"/><path class="cls-2" d="M482.51,172.52c-.16-.21,1.8-1.77,4-3.84s3.3-4.27,3.51-4.19-.61,2.61-2.93,4.78S482.6,172.67,482.51,172.52Z"/><path class="cls-2" d="M481.68,156.2a2.09,2.09,0,0,1-.08.5l-.34,1.41q-.51,2-1.4,5.39h0c-1,.88-2.13,1.89-3.34,3a28.74,28.74,0,0,0-3.69,3.95,2.05,2.05,0,0,0-.38,1.25,2,2,0,0,0,.67,1.17,11.8,11.8,0,0,0,1.22,1,1.86,1.86,0,0,0,1.38.27,26.5,26.5,0,0,0,6.71-2.08l1.6-.66-1.24,1.21-5,4.83.08-.1a6.26,6.26,0,0,0-.26,5,14.09,14.09,0,0,0,3.92,4l.34.25-.32.51c-1.09,1.28-1.85,3.3-.44,4.54a18.22,18.22,0,0,0,4.7,3.21l-.59.32v-.12h0c.11.12-.23-.29.24.35,1.12-.53.32-.22.57-.3h0v.6a5.56,5.56,0,0,0,.08.81,6,6,0,0,0,.44,1.59,4,4,0,0,0,.88,1.32,2.43,2.43,0,0,0,1.28.73,7.67,7.67,0,0,0,3.27-.64,30.45,30.45,0,0,0,3.25-1.46,56.72,56.72,0,0,0,5.79-3.5,35.24,35.24,0,0,0,5.06-4.15,4.16,4.16,0,0,0,1.31-2.61,6.44,6.44,0,0,0-.53-2.91,16.81,16.81,0,0,0-3.41-5l-.12-.13v-.19a6.36,6.36,0,0,0-.29-2.84,4.2,4.2,0,0,0-1.75-2.06,9.22,9.22,0,0,0-5.33-1h-.5l.12-.49c.13-.54.28-1.07.39-1.6a9.47,9.47,0,0,0,.13-1.59,4.51,4.51,0,0,0-.89-2.82,6.5,6.5,0,0,0-5.16-2h-.58l.31-.48a52.08,52.08,0,0,0,2.77-4.58,7.18,7.18,0,0,0,.71-2.26,3.69,3.69,0,0,0-.45-2.09,9.42,9.42,0,0,0-2.72-3,4,4,0,0,0-3.24-.33,10.62,10.62,0,0,0-4,2.52c-.41.37-.7.68-.9.88s-.3.31-.32.3a1,1,0,0,1,.25-.36c.18-.22.45-.55.84-1a12,12,0,0,1,1.56-1.37,8.16,8.16,0,0,1,2.5-1.34,4.31,4.31,0,0,1,3.54.29l.83.61.75.72a8.36,8.36,0,0,1,1.36,1.76,4.16,4.16,0,0,1,.53,2.37,7,7,0,0,1-.73,2.44,49.55,49.55,0,0,1-2.77,4.65l-.27-.47a9,9,0,0,1,3,.43,5.63,5.63,0,0,1,2.69,1.78,5.22,5.22,0,0,1,1.06,3.21,11.1,11.1,0,0,1-.13,1.73c-.11.56-.27,1.12-.4,1.7l-.38-.46a10,10,0,0,1,5.8,1.09,4.89,4.89,0,0,1,2.06,2.42,7.12,7.12,0,0,1,.36,3.21l-.11-.32a17.34,17.34,0,0,1,3.59,5.2,7,7,0,0,1,.6,3.29,5,5,0,0,1-.48,1.69,7.67,7.67,0,0,1-1,1.39,34.69,34.69,0,0,1-5.18,4.27,55.05,55.05,0,0,1-5.88,3.56,30.18,30.18,0,0,1-3.34,1.5,8.61,8.61,0,0,1-3.68.69,4.1,4.1,0,0,1-2.79-2.55,6.85,6.85,0,0,1-.49-1.77c0-.3-.07-.6-.08-.9v-.75h0c.24-.09-.55.22.57-.31.47.64.13.23.23.35v.24l-.06.6-.52-.28a19,19,0,0,1-4.92-3.4,3.77,3.77,0,0,1-.85-1.35,3.1,3.1,0,0,1-.06-1.6,5.88,5.88,0,0,1,1.35-2.65l.06.58a14.44,14.44,0,0,1-4.13-4.29,5.11,5.11,0,0,1-.46-2.93,8.69,8.69,0,0,1,.73-2.74V177h0l5-4.8.36.54a26.36,26.36,0,0,1-6.93,2.07,2.47,2.47,0,0,1-1.79-.41,12.81,12.81,0,0,1-1.25-1.07,2.2,2.2,0,0,1-.34-3.1,27.41,27.41,0,0,1,3.84-4c1.24-1.12,2.38-2.11,3.4-3l-.05.09c.66-2.29,1.19-4.08,1.56-5.38.18-.56.32-1,.43-1.38A1.62,1.62,0,0,1,481.68,156.2Z"/></g><text class="cls-11" transform="translate(399.02 219.96) rotate(-10.97)">PATCH</text><path class="cls-12" d="M519.48,88.56c-1.94,2.19-2,5.38-.11,7.1s5.09,1.36,7.07-.83,2-5.38.11-7.11S521.46,86.36,519.48,88.56Z"/><path class="cls-12" d="M454.61,71.23c0,1.54-1.17,2.5-3,2.5H450.2v1.91h-1.63V68.7h3C453.44,68.7,454.61,69.66,454.61,71.23Zm-1.63,0c0-.77-.5-1.21-1.47-1.21H450.2v2.4h1.31C452.48,72.41,453,72,453,71.23Z"/><path class="cls-12" d="M455.75,68.7h3.14c2.27,0,3.82,1.37,3.82,3.47s-1.55,3.46-3.82,3.46h-3.14Zm3.06,5.62a2.15,2.15,0,0,0,0-4.3h-1.46v4.3Z"/><path class="cls-8" d="M521.47,105.37H461.62a7.49,7.49,0,0,1-7.48-7.49h0V15a7.48,7.48,0,0,1,7.48-7.49h38L529,37.83V97.88a7.5,7.5,0,0,1-7.49,7.49Z"/><path class="cls-10" d="M499.58,7.55V30.86a7,7,0,0,0,7,7H529Z"/><path class="cls-7" d="M499.88,32.89s-.29,5.66,6.15,7.51a6,6,0,0,0,.73.17c2.91.52,22.2,4,22.2,3.5V37.81H506.54S500.94,37.65,499.88,32.89Z"/><path class="cls-3" d="M521.47,105.37a7.72,7.72,0,0,0,1.29-.16,7.55,7.55,0,0,0,3.4-1.58,7.41,7.41,0,0,0,2.68-5.29V90c0-12.55,0-30.48-.09-52.17l.06.15L499.41,7.72l.18.07H463.31a18.89,18.89,0,0,0-2.91.11,7.25,7.25,0,0,0-4.7,2.91,7.09,7.09,0,0,0-1.33,3.68V96.12a17.45,17.45,0,0,0,.14,3.15,7.31,7.31,0,0,0,6.15,5.82,28.39,28.39,0,0,0,2.92.08h11.3l34.09.09h9.26l-9.26,0-34.09.08h-11.3c-1,0-2,0-3-.08a7.66,7.66,0,0,1-6.51-6.1,17.44,17.44,0,0,1-.15-3.23V14.49a7.66,7.66,0,0,1,1.42-3.94,7.79,7.79,0,0,1,5-3.14,18.89,18.89,0,0,1,2.91-.11h36.37l.06.07,29.36,30.3.06.07v.08c0,21.69-.07,39.62-.09,52.17v8.35a7.48,7.48,0,0,1-6.25,6.93,8,8,0,0,1-1,.09Z"/><path class="cls-3" d="M529,37.83a2.88,2.88,0,0,1-.59.06h-1.65l-6.07.09-9,0h-5.32a7.19,7.19,0,0,1-6.67-5,8.32,8.32,0,0,1-.33-2.85V24.82c0-3.37,0-6.42,0-9s.06-4.57.08-6.07a15.59,15.59,0,0,1,.05-1.65,2.29,2.29,0,0,1,.06-.58,5.61,5.61,0,0,1,0,.58l.05,1.65c0,1.5,0,3.56.07,6.07s0,5.64.06,9v5.32a8.22,8.22,0,0,0,.31,2.7,7.09,7.09,0,0,0,1.37,2.42,6.77,6.77,0,0,0,4.86,2.27h5.31l9,.06,6.07.07,1.66.05A3.6,3.6,0,0,1,529,37.83Z"/><path class="cls-3" d="M498.44,28.35c0,.15-7.07.25-15.78.25s-15.79-.1-15.79-.25,7.07-.25,15.79-.25S498.44,28.21,498.44,28.35Z"/><path class="cls-3" d="M513.43,40c0,.13-10.43.25-23.31.25s-23.31-.12-23.31-.25,10.42-.26,23.31-.26S513.43,39.84,513.43,40Z"/><path class="cls-3" d="M513.43,51.61c0,.15-10.43.25-23.31.25s-23.31-.1-23.31-.25,10.42-.25,23.31-.25S513.43,51.47,513.43,51.61Z"/><path class="cls-3" d="M513.43,63.25c0,.13-10.43.25-23.31.25s-23.31-.12-23.31-.25S477.23,63,490.12,63,513.43,63.1,513.43,63.25Z"/><path class="cls-3" d="M513.43,74.87c0,.15-10.43.25-23.31.25s-23.31-.1-23.31-.25,10.42-.25,23.31-.25S513.43,74.74,513.43,74.87Z"/><path class="cls-3" d="M513.43,89.22c0,.14-10.43.25-23.31.25s-23.31-.11-23.31-.25S477.23,89,490.12,89,513.43,89.08,513.43,89.22Z"/><rect class="cls-6" x="440.71" y="66.37" width="50.83" height="22.84" rx="4.1"/><text class="cls-13" transform="translate(447.56 81.67)">DELETE</text><path class="cls-9" d="M172.57,9.55a4.4,4.4,0,0,0-2.66-.22,3.19,3.19,0,0,0-2,1.71,3,3,0,0,0,3.79,3.64,3.23,3.23,0,0,0,1.63-2.13A4.55,4.55,0,0,0,173,9.9a1.43,1.43,0,0,1,.59.57,3.38,3.38,0,0,1,.38,2.2,3.82,3.82,0,0,1-1.9,2.78,3.75,3.75,0,0,1-4.95-4.77,3.76,3.76,0,0,1,2.69-2A3.34,3.34,0,0,1,172,9C172.44,9.26,172.59,9.52,172.57,9.55Z"/><path class="cls-9" d="M170.59,70.33c-.25,0-.47-11.52-.47-25.75s.22-25.76.47-25.76.46,11.53.46,25.76S170.85,70.33,170.59,70.33Z"/><path class="cls-8" d="M196.53,131H123a9.2,9.2,0,0,1-9.2-9.2V19.9a9.2,9.2,0,0,1,9.2-9.16h46.66L205.74,48v73.81A9.21,9.21,0,0,1,196.53,131Z"/><path class="cls-10" d="M169.62,10.74V39.4A8.57,8.57,0,0,0,178.14,48h27.6Z"/><path class="cls-7" d="M170,42s-.37,7,7.55,9.24c.29.08.6.14.9.21,3.64.64,27.29,4.85,27.29,4.3V48H178.18S171.31,47.73,170,42Z"/><path class="cls-3" d="M196.53,131a9.92,9.92,0,0,0,1.59-.19,9.45,9.45,0,0,0,4.18-1.94,9.15,9.15,0,0,0,3.29-6.5V112.09c0-15.42-.06-37.47-.1-64.13l.07.18L169.42,11l.21.08H125.05a24.6,24.6,0,0,0-3.54.14,8.83,8.83,0,0,0-5.77,3.64,8.68,8.68,0,0,0-1.63,4.52V119.68a21.81,21.81,0,0,0,.17,3.87,9,9,0,0,0,7.57,7.12,34,34,0,0,0,3.64.08h13.88l41.91.1h11.39l-11.39.06-41.91.1H125.49c-1.22,0-2.43,0-3.64-.1a9.79,9.79,0,0,1-3.64-1.21,9.51,9.51,0,0,1-4.41-6.26,22,22,0,0,1-.2-4V19.27a9.34,9.34,0,0,1,1.75-4.85,9.46,9.46,0,0,1,6.18-3.86,24.63,24.63,0,0,1,3.64-.15h44.71l.08.1L206,47.76l.08.08V48c0,26.68-.09,48.71-.11,64.12,0,3.86,0,7.28-.06,10.29a9.23,9.23,0,0,1-7.69,8.5A7.1,7.1,0,0,1,197,131Z"/><path class="cls-3" d="M205.74,48a2.48,2.48,0,0,1-.72.07h-2l-7.46.11-11.07.06h-6.55a8.87,8.87,0,0,1-8.2-6.18,10,10,0,0,1-.4-3.52V32c0-4.14,0-7.89.07-11.07s.07-5.61.1-7.46v-2a2.2,2.2,0,0,1,.06-.72,2.89,2.89,0,0,1,0,.72c0,.53,0,1.21.06,2,0,1.85.06,4.38.1,7.46s0,6.93.07,11.07v6.54a9.54,9.54,0,0,0,.38,3.32,8.32,8.32,0,0,0,7.62,5.77h6.53l11.07.07,7.46.1h2A5.22,5.22,0,0,1,205.74,48Z"/><path class="cls-3" d="M168.23,36.32c0,.17-8.69.32-19.41.32s-19.4-.15-19.4-.32,8.69-.32,19.4-.32S168.23,36.14,168.23,36.32Z"/><path class="cls-3" d="M186.65,50.61c0,.18-12.82.31-28.61.31s-28.62-.13-28.62-.31,12.8-.32,28.62-.32S186.65,50.44,186.65,50.61Z"/><path class="cls-3" d="M186.65,64.91c0,.17-12.82.31-28.61.31s-28.62-.14-28.62-.31,12.8-.32,28.62-.32S186.65,64.74,186.65,64.91Z"/><path class="cls-3" d="M186.65,79.21c0,.17-12.82.31-28.61.31s-28.62-.14-28.62-.31,12.8-.32,28.62-.32S186.65,79,186.65,79.21Z"/><path class="cls-3" d="M186.65,93.49c0,.18-12.82.32-28.61.32s-28.62-.14-28.62-.32,12.8-.31,28.62-.31S186.65,93.32,186.65,93.49Z"/><path class="cls-3" d="M186.65,107.79c0,.18-12.82.32-28.61.32s-28.62-.15-28.62-.32,12.8-.31,28.62-.31S186.65,107.62,186.65,107.79Z"/><rect class="cls-6" x="97.26" y="83.05" width="62.48" height="28.08" rx="5.12"/><text class="cls-14" transform="translate(111.77 102.66)">GET</text><path class="cls-8" d="M108.91,271.87H28.2A10.08,10.08,0,0,1,18.1,261.8V150.07A10.1,10.1,0,0,1,28.2,140H79.39L119,180.81v81a10.1,10.1,0,0,1-10.1,10.09Z"/><path class="cls-10" d="M79.39,140v31.39a9.39,9.39,0,0,0,9.39,9.4H119Z"/><path class="cls-7" d="M79.79,174.21s-.39,7.63,8.29,10.14a6.86,6.86,0,0,0,1,.22c3.92.71,29.93,5.34,29.93,4.74v-8.45H88.78S81.23,180.6,79.79,174.21Z"/><path class="cls-3" d="M108.91,271.87a11.87,11.87,0,0,0,1.74-.19,10.27,10.27,0,0,0,4.58-2.13,10,10,0,0,0,3.62-7.13V251.15c0-16.91,0-41.11-.12-70.34l.08.19L79.16,140.19l.24.11H30.48a24.6,24.6,0,0,0-3.93.14,9.76,9.76,0,0,0-8.12,8.92V259.43a21.55,21.55,0,0,0,.18,4.25,9.88,9.88,0,0,0,4.57,6.55,9.72,9.72,0,0,0,3.73,1.3,34.15,34.15,0,0,0,3.92.11H46.06l46,.1,12.5.07h0l-12.5.06-46,.11H30.83a38.85,38.85,0,0,1-4-.11A10.35,10.35,0,0,1,18,263.65a24.57,24.57,0,0,1-.2-4.37V149.37a10.5,10.5,0,0,1,8.7-9.55,26.62,26.62,0,0,1,4-.14h49l.1.09,39.6,40.88.08.08v.12c0,29.23-.09,53.43-.13,70.34v11.28a10.06,10.06,0,0,1-8.44,9.32,5.76,5.76,0,0,1-1.31.12A3,3,0,0,1,108.91,271.87Z"/><path class="cls-3" d="M119,180.86a2.53,2.53,0,0,1-.77.06L116,181l-8.19.1-12.14.08H88.49a9.78,9.78,0,0,1-9-6.79,11.67,11.67,0,0,1-.44-3.86V151.2c0-3.49.09-6.16.11-8.18v-2.23a3.3,3.3,0,0,1,0-.77,3.35,3.35,0,0,1,.07.77V143c0,2,0,4.8.1,8.18s0,7.6.08,12.16v7.16a10.45,10.45,0,0,0,.43,3.65,8.88,8.88,0,0,0,1.85,3.26,9,9,0,0,0,6.54,3.08h19.31l8.18.11,2.24.07A2.69,2.69,0,0,1,119,180.86Z"/><path class="cls-3" d="M77.86,168.08c0,.18-9.54.34-21.29.34s-21.29-.16-21.29-.34,9.52-.34,21.29-.34S77.86,167.88,77.86,168.08Z"/><path class="cls-3" d="M98.07,183.76c0,.19-14.07.34-31.4.34s-31.39-.15-31.39-.34,14-.34,31.39-.34S98.07,183.57,98.07,183.76Z"/><path class="cls-3" d="M98.07,199.45c0,.18-14.07.34-31.4.34s-31.39-.16-31.39-.34,14-.34,31.39-.34S98.07,199.25,98.07,199.45Z"/><path class="cls-3" d="M98.07,215.13c0,.18-14.07.34-31.4.34s-31.39-.16-31.39-.34,14-.34,31.39-.34S98.07,214.93,98.07,215.13Z"/><path class="cls-3" d="M98.07,230.81c0,.19-14.07.34-31.4.34s-31.39-.15-31.39-.34,14-.34,31.39-.34S98.07,230.63,98.07,230.81Z"/><path class="cls-3" d="M98.07,246.5c0,.18-14.07.34-31.4.34s-31.39-.16-31.39-.34,14-.34,31.39-.34S98.07,246.31,98.07,246.5Z"/><rect class="cls-6" y="219.35" width="68.56" height="30.8" rx="5.52"/><text class="cls-15" transform="translate(12.46 240.72)">POST</text></g></g></svg>