<svg xmlns="http://www.w3.org/2000/svg" viewBox="0 0 453.8 439.69"><defs><style>.cls-1{fill:#fff;}.cls-2,.cls-5{fill:#e0e0e0;}.cls-3{opacity:0.3;}.cls-4{fill:none;}.cls-5{fill-rule:evenodd;}.cls-6{fill:#ebebeb;}.cls-7{fill:#263238;}.cls-8{fill:#f5b045;}.cls-9{fill:#455a64;}.cls-10{fill:#fafafa;}.cls-11{fill:#ffbe9d;}.cls-12{opacity:0.6;}.cls-13{fill:#eb996e;}</style></defs><g id="Layer_2" data-name="Layer 2"><g id="Background_Complete" data-name="Background Complete"><rect class="cls-1" x="49.67" y="83.5" width="125.22" height="83.84"/><path class="cls-2" d="M174.89,167.34s0-.52,0-1.52,0-2.49,0-4.42c0-3.89,0-9.58,0-16.87,0-14.56-.06-35.5-.1-61l.18.18-125.21,0h0l.23-.23c0,29.87,0,58.27,0,83.84l-.21-.2,90.21.1,25.78,0,6.85,0h2.38l-.58,0h-1.75l-6.81,0-25.73.06-90.35.1h-.2v-.21c0-25.57,0-54,0-83.84v-.22h.23l125.21,0h.18v.18c0,25.58-.07,46.55-.09,61.15,0,7.27,0,12.95,0,16.82,0,1.92,0,3.39,0,4.39S174.89,167.34,174.89,167.34Z"/><path class="cls-2" d="M49.67,91c0-.13,28-.23,62.56-.23s62.56.1,62.56.23-28,.22-62.56.22S49.67,91.11,49.67,91Z"/><g class="cls-3"><path class="cls-2" d="M54.61,87.21a1,1,0,0,1-2,0,1,1,0,0,1,2,0Z"/></g><g class="cls-3"><circle class="cls-2" cx="57.05" cy="87.21" r="1"/></g><g class="cls-3"><path class="cls-2" d="M61.44,87.21a1,1,0,1,1-1-1A1,1,0,0,1,61.44,87.21Z"/></g><rect class="cls-2" x="60.44" y="99.73" width="33.4" height="33.4"/><path class="cls-2" d="M157.72,109.17c0,.12-13,.22-29.09.22s-29.1-.1-29.1-.22,13-.22,29.1-.22S157.72,109.05,157.72,109.17Z"/><path class="cls-2" d="M157.72,115.38c0,.12-13,.22-29.09.22s-29.1-.1-29.1-.22,13-.23,29.1-.23S157.72,115.25,157.72,115.38Z"/><path class="cls-2" d="M157.72,121.58c0,.13-13,.23-29.09.23s-29.1-.1-29.1-.23,13-.22,29.1-.22S157.72,121.46,157.72,121.58Z"/><path class="cls-2" d="M133.92,127.79a8.12,8.12,0,0,1-1.35.09l-3.69.07c-3.11,0-7.41.07-12.15.07s-9,0-12.16-.07l-3.69-.07a8.12,8.12,0,0,1-1.35-.09,8.12,8.12,0,0,1,1.35-.09l3.69-.07c3.11,0,7.41-.06,12.16-.06s9,0,12.15.06l3.69.07A8.12,8.12,0,0,1,133.92,127.79Z"/><rect class="cls-2" x="62.53" y="144.39" width="15.7" height="15.7"/><rect class="cls-2" x="91" y="144.39" width="15.7" height="15.7"/><rect class="cls-2" x="119.46" y="144.39" width="15.7" height="15.7"/><rect class="cls-2" x="147.93" y="144.39" width="15.7" height="15.7"/><path class="cls-4" d="M409,110.75a14.44,14.44,0,0,1-2.66,2.8l.69,3.51-5.41,2.4-2.13-2.87a14.65,14.65,0,0,1-3.86.1l-2,3-5.53-2.13.52-3.54a14.69,14.69,0,0,1-2.79-2.66l-3.51.69-2.4-5.41,2.87-2.14a14.57,14.57,0,0,1-.1-3.85l-3-2,2.13-5.53,3.54.52a14.09,14.09,0,0,1,2.66-2.79l-.7-3.51,5.41-2.4,2.14,2.87a14.23,14.23,0,0,1,3.86-.1l2-3,5.52,2.13-.52,3.54a14.15,14.15,0,0,1,2.8,2.66l3.51-.7,2.4,5.41-2.87,2.14a14.64,14.64,0,0,1,.1,3.86l3,2-2.13,5.52-3.54-.52Zm-6-6a6.35,6.35,0,1,0-8.21,3.64A6.35,6.35,0,0,0,403.06,104.72Z"/><path class="cls-2" d="M403.06,104.72a5,5,0,0,1-.69,1.42,6.33,6.33,0,0,1-3.43,2.51,6.43,6.43,0,0,1-3,.18,6.52,6.52,0,0,1-3.09-1.48,6.48,6.48,0,0,1-2-3.2,6.49,6.49,0,0,1,2.77-7.2,5.94,5.94,0,0,1,1.79-.79,6.28,6.28,0,0,1,1.86-.23A6.42,6.42,0,0,1,402.64,99a6.33,6.33,0,0,1,.86,4.17,4.94,4.94,0,0,1-.44,1.51c-.05,0,.19-.53.3-1.53a6.34,6.34,0,0,0-.94-4,6.19,6.19,0,0,0-2-2,6.38,6.38,0,0,0-3.14-.91,6.31,6.31,0,0,0-1.76.23,5.77,5.77,0,0,0-1.68.76,6.16,6.16,0,0,0-2.43,3,6.23,6.23,0,0,0-.2,3.83,5.91,5.91,0,0,0,.75,1.7,6,6,0,0,0,1.15,1.35,6.23,6.23,0,0,0,2.93,1.43,6.13,6.13,0,0,0,2.85-.13,6.28,6.28,0,0,0,3.39-2.34C402.84,105.24,403,104.7,403.06,104.72Z"/><path class="cls-2" d="M409,110.75l.22,0,.67.09,2.66.35-.07,0c.54-1.42,1.25-3.28,2.1-5.53l0,.1-3-2-.06,0v-.06a14.2,14.2,0,0,0-.11-3.83v-.07l.06,0,2.86-2.14,0,.16c-.76-1.71-1.57-3.51-2.41-5.41l.16.08-3.51.7-.09,0-.06-.07a14.25,14.25,0,0,0-2.77-2.63l-.07-.05v-.1c.16-1.09.33-2.3.51-3.54l.1.18-5.52-2.12.2-.07-2,3-.06.08h-.1A14.42,14.42,0,0,0,395,88l-.11,0-.06-.09L392.66,85l.22.06-5.41,2.4.1-.2.7,3.51,0,.11-.09.07a14.32,14.32,0,0,0-2.62,2.75h0l-.17.07h-.22l-.22,0-.45-.07-.88-.13-1.77-.26.2-.11-2.13,5.52-.07-.21,3,2,.09.06v.11a14.28,14.28,0,0,0,.09,3.81l0,.1-.09.07-2.87,2.13.06-.21q1.22,2.77,2.39,5.41l-.18-.09,3.51-.69.09,0,.07.08a14.23,14.23,0,0,0,2.75,2.63l.08.06V114c-.18,1.21-.36,2.39-.53,3.54l-.09-.16,5.52,2.14-.17,0,2-3,0-.06h.08a14.28,14.28,0,0,0,3.83-.09h.07l0,.06,2.13,2.87-.13,0L407,117l0,.09c-.27-1.4-.49-2.55-.67-3.51v0l0,0a15.32,15.32,0,0,0,2.09-2l.46-.55.15-.19a1,1,0,0,1-.13.2c-.09.13-.23.33-.43.58a14.43,14.43,0,0,1-2.06,2.06l0,0c.19.95.43,2.1.71,3.5v.06l-.06,0-5.39,2.42-.08,0-.05-.07c-.67-.88-1.37-1.82-2.15-2.86l.11,0a15.12,15.12,0,0,1-3.89.11l.13-.06-2,3-.06.1-.1,0-5.53-2.12-.11,0,0-.12c.16-1.14.33-2.32.51-3.53l.06.15a15,15,0,0,1-2.83-2.69l.16.06-3.51.69-.13,0-.06-.12-2.4-5.41-.06-.12.11-.09,2.87-2.14-.07.17a14.94,14.94,0,0,1-.1-3.9l.08.17-3-2-.12-.08,0-.14L381.72,93l0-.14.14,0,1.77.26.89.13.44.07.22,0h.22c-.34.15-.09,0-.17.07h0A14.48,14.48,0,0,1,388,90.69l-.06.17c-.24-1.2-.47-2.4-.69-3.51l0-.14.13-.06,5.41-2.4.13,0,.09.11,2.13,2.87-.17-.07a14.74,14.74,0,0,1,3.91-.09l-.17.07,2-3,.07-.12.13,0,5.52,2.14.12,0,0,.13c-.18,1.23-.36,2.44-.52,3.54l-.06-.15A14.8,14.8,0,0,1,408.71,93l-.15,0,3.51-.69.11,0,.05.11c.84,1.9,1.63,3.71,2.39,5.41l0,.1-.08.06L411.7,100l.05-.12a14.6,14.6,0,0,1,.08,3.89l0-.1,3,2,.06,0,0,.07c-.88,2.25-1.6,4.1-2.16,5.51l0,0h0l-2.62-.42-.68-.11A1.16,1.16,0,0,1,409,110.75Z"/><path class="cls-5" d="M440.5,93.92a12.17,12.17,0,0,1-2.21,2.32l.57,2.91-4.48,2-1.78-2.38a11.79,11.79,0,0,1-3.2.08l-1.65,2.46-4.58-1.76.43-2.94a11.83,11.83,0,0,1-2.32-2.2l-2.91.57-2-4.49,2.38-1.77a11.8,11.8,0,0,1-.08-3.2l-2.47-1.65L418,79.28l2.94.42a12.06,12.06,0,0,1,2.2-2.31l-.57-2.91,4.49-2,1.77,2.38a12.67,12.67,0,0,1,3.2-.08l1.65-2.46,4.58,1.77L437.81,77a11.88,11.88,0,0,1,2.32,2.21l2.91-.58,2,4.49-2.38,1.77a11.82,11.82,0,0,1,.08,3.2l2.47,1.66-1.77,4.58-2.93-.43Zm-5-5a5.27,5.27,0,1,0-6.81,3A5.26,5.26,0,0,0,435.54,88.91Z"/><path class="cls-5" d="M421.16,66.57a19.24,19.24,0,0,1-3.46,3.63l.9,4.57-7,3.12-2.78-3.73a19.14,19.14,0,0,1-5,.13l-2.59,3.86L394,75.38l.67-4.6A19.3,19.3,0,0,1,391,67.32l-4.56.9-3.12-7,3.73-2.78a19.14,19.14,0,0,1-.13-5l-3.86-2.59,2.77-7.19,4.6.68a19,19,0,0,1,3.46-3.64l-.9-4.56,7-3.13,2.78,3.74a18.72,18.72,0,0,1,5-.13l2.59-3.86,7.18,2.77-.67,4.6a18.7,18.7,0,0,1,3.64,3.46l4.56-.9,3.12,7-3.73,2.78a19.12,19.12,0,0,1,.13,5l3.86,2.59-2.77,7.18-4.6-.67Zm-7.77-7.85a8.26,8.26,0,1,0-10.68,4.74A8.26,8.26,0,0,0,413.39,58.72Z"/><path class="cls-2" d="M350.57,28.45a3.23,3.23,0,0,1,.52-.6l1.52-1.52c1.29-1.28,3.1-3,5.1-4.94l.05-.05v.26c-2-1.88-3.84-3.59-5.14-4.84l-1.53-1.5a3.22,3.22,0,0,1-.52-.58,3.53,3.53,0,0,1,.62.48l1.6,1.42c1.34,1.2,3.19,2.88,5.21,4.76l.14.13-.14.13,0,0c-2,1.92-3.84,3.64-5.18,4.87L351.18,28A3.61,3.61,0,0,1,350.57,28.45Z"/><path class="cls-2" d="M335,14.68a3.4,3.4,0,0,1-.53.59l-1.51,1.53c-1.3,1.28-3.1,3-5.11,4.94l0,0v-.25c2,1.87,3.84,3.59,5.14,4.84l1.53,1.49a3.4,3.4,0,0,1,.53.59,3.3,3.3,0,0,1-.62-.48l-1.61-1.42c-1.34-1.2-3.18-2.89-5.21-4.76l-.13-.13.13-.13.05-.05c2-1.91,3.84-3.63,5.17-4.86.63-.57,1.17-1.05,1.6-1.45A3.16,3.16,0,0,1,335,14.68Z"/><path class="cls-2" d="M339,31.69c-.09,0,1.55-4.64,3.66-10.28s3.9-10.2,4-10.16-1.54,4.63-3.66,10.28S339.06,31.73,339,31.69Z"/><path class="cls-2" d="M368.3,41.54s0-.26,0-.77,0-1.25,0-2.21c0-2,0-4.78,0-8.39,0-7.22,0-17.55-.08-30l.15.14-50.76,0h0l.18-.17c0,15,0,29.07,0,41.36l-.16-.15,36.66.08,10.39,0,2.76,0h0l-2.73,0-10.36,0-36.76.08h-.15v-.16c0-12.29,0-26.41,0-41.36V0h.18L368.3,0h.15V.18c0,12.48-.06,22.84-.08,30.08,0,3.6,0,6.42,0,8.36,0,1,0,1.68,0,2.19S368.3,41.54,368.3,41.54Z"/><path class="cls-2" d="M368.7,6.31c0,.1-11.46.18-25.59.18s-25.6-.08-25.6-.18,11.46-.17,25.6-.17S368.7,6.22,368.7,6.31Z"/><path class="cls-2" d="M321.68,3.3a.69.69,0,1,1-.69-.69A.69.69,0,0,1,321.68,3.3Z"/><circle class="cls-2" cx="323.48" cy="3.3" r="0.68"/><path class="cls-2" d="M326.66,3.3a.69.69,0,0,1-1.37,0,.69.69,0,1,1,1.37,0Z"/><rect class="cls-1" x="152.78" y="20.13" width="117.38" height="47.68"/><path class="cls-2" d="M270.16,67.81s0-.29,0-.85,0-1.39,0-2.48c0-2.17,0-5.37,0-9.48,0-8.23,0-20.14-.07-34.87l.13.13-117.37.06h0l.18-.19V67.81l-.18-.18,84.16.09,24.41,0,6.54,0h0l-6.5,0-24.37.05L152.78,68h-.18v-.18c0-14.87,0-31,0-47.68v-.19h.2L270.16,20h.13v.13c0,14.77-.05,26.7-.07,34.94,0,4.11,0,7.29,0,9.46,0,1.08,0,1.89,0,2.45S270.16,67.81,270.16,67.81Z"/><path class="cls-2" d="M152.9,26.56c0-.1,26.23-.19,58.59-.19s58.6.09,58.6.19-26.23.19-58.6.19S152.9,26.66,152.9,26.56Z"/><g class="cls-3"><path class="cls-6" d="M157.81,23.68a.85.85,0,1,1-1.7,0,.85.85,0,1,1,1.7,0Z"/></g><g class="cls-3"><path class="cls-6" d="M160.73,23.68a.85.85,0,1,1-1.7,0,.85.85,0,0,1,1.7,0Z"/></g><g class="cls-3"><circle class="cls-6" cx="162.75" cy="23.68" r="0.85"/></g><rect class="cls-2" x="162.75" y="34.31" width="28.35" height="28.35"/><path class="cls-2" d="M262,41.91c0,.1-14.59.18-32.58.18s-32.59-.08-32.59-.18,14.59-.19,32.59-.19S262,41.8,262,41.91Z"/><path class="cls-2" d="M262,47.68c0,.11-14.59.19-32.58.19s-32.59-.08-32.59-.19,14.59-.18,32.59-.18S262,47.58,262,47.68Z"/><path class="cls-2" d="M238.82,53.46l-.42,0-1.23,0-4.49.06-14.83.06L203,53.59l-4.49-.06-1.22,0-.43,0a1.84,1.84,0,0,1,.43,0l1.22,0,4.49-.06,14.84-.06,14.83.06,4.49.06,1.23,0A1.69,1.69,0,0,1,238.82,53.46Z"/></g><g id="Floor"><path class="cls-7" d="M453.8,412.17c0,.15-99.78.27-222.85.27s-222.87-.12-222.87-.27,99.76-.26,222.87-.26S453.8,412,453.8,412.17Z"/></g><g id="Screens"><rect class="cls-2" x="275.98" y="102.49" width="140.13" height="114.16"/><rect class="cls-6" x="266.01" y="109.75" width="140.13" height="114.16"/><rect class="cls-1" x="252.28" y="117.7" width="143.87" height="117.21"/><path class="cls-7" d="M396.15,234.9s0-.74,0-2.16,0-3.52,0-6.25c0-5.49,0-13.52-.05-23.75,0-20.46-.07-49.74-.12-85l.22.22L252.3,118h0l.26-.26c0,42.38,0,82.4,0,117.2l-.24-.23,104,.12,29.42.06,7.8,0h2.69l-.66,0h-2l-7.75,0-29.37.06-104.11.12h-.23v-.24c0-34.8,0-74.82,0-117.2v-.26h.28l143.85,0h.22v.22c-.05,35.36-.09,64.68-.11,85.17,0,10.22-.05,18.23-.06,23.7,0,2.72,0,4.8,0,6.22S396.15,234.9,396.15,234.9Z"/><path class="cls-8" d="M269.82,134.64l-1.55.56,1.55.56v.58l-2.21-.84v-.6l2.21-.84Z"/><path class="cls-8" d="M273.46,133.58v3.24h-.75v-1.33h-1.47v1.33h-.76v-3.24h.76v1.28h1.47v-1.28Z"/><path class="cls-8" d="M274.9,134.19h-1v-.61h2.83v.61h-1v2.63h-.75Z"/><path class="cls-8" d="M280.05,136.82v-1.94l-1,1.6h-.34l-.95-1.56v1.9h-.71v-3.24h.62l1.22,2,1.2-2h.61v3.24Z"/><path class="cls-8" d="M281.52,133.58h.75v2.63h1.63v.61h-2.38Z"/><path class="cls-8" d="M286.43,134.9v.6l-2.21.84v-.58l1.54-.56-1.54-.56v-.58Z"/><path class="cls-8" d="M268.51,223.52l-1.55.56,1.55.56v.58l-2.21-.84v-.6l2.21-.84Z"/><path class="cls-8" d="M270.17,221.8h.64l-1.53,4.37h-.65Z"/><path class="cls-8" d="M274,222.46v3.25h-.75v-1.33h-1.48v1.33H271v-3.25h.75v1.28h1.48v-1.28Z"/><path class="cls-8" d="M275.41,223.07h-1v-.61h2.83v.61h-1v2.64h-.75Z"/><path class="cls-8" d="M280.55,225.71v-2l-1,1.6h-.34l-.95-1.56v1.91h-.7v-3.25h.62l1.21,2,1.2-2h.62v3.25Z"/><path class="cls-8" d="M282,222.46h.75v2.63h1.63v.62H282Z"/><path class="cls-8" d="M286.93,223.78v.6l-2.21.84v-.58l1.55-.56-1.55-.56v-.58Z"/><path d="M280,143.52l-1.65.64,1.65.63v.39l-2.08-.82V144l2.08-.82Z"/><path d="M283.6,142.54v3.24h-.47v-1.44h-1.86v1.44h-.47v-3.24h.47v1.39h1.86v-1.39Z"/><path d="M286.92,145.38v.4h-2.35v-3.24h2.29v.4H285v1h1.63v.39H285v1Z"/><path d="M289.74,145H288l-.35.81h-.48l1.47-3.24h.46l1.47,3.24h-.48Zm-.16-.37-.7-1.59-.7,1.59Z"/><path d="M291.06,142.54h1.37a1.62,1.62,0,1,1,0,3.24h-1.37Zm1.34,2.84a1.22,1.22,0,1,0,0-2.44h-.87v2.44Z"/><path d="M296.79,144v.4l-2.08.82v-.39l1.65-.63-1.65-.64v-.38Z"/><path d="M280,154.65l-1.65.63,1.65.64v.38l-2.08-.82v-.4l2.08-.82Z"/><path d="M281.45,154.06h-1.12v-.4H283v.4h-1.11v2.84h-.46Z"/><path d="M283.52,153.66H284v3.24h-.47Z"/><path d="M285.6,154.06h-1.11v-.4h2.69v.4h-1.12v2.84h-.46Z"/><path d="M287.68,153.66h.46v2.84h1.76v.4h-2.22Z"/><path d="M292.79,156.5v.4h-2.36v-3.24h2.29v.4H290.9v1h1.62v.39H290.9v1.05Z"/><path d="M295.44,155.08v.4l-2.08.82v-.38l1.65-.64-1.65-.63v-.39Z"/><path d="M297.48,153.66h.46v2.84h1.76v.4h-2.22Z"/><path d="M299.91,155.68a1.28,1.28,0,1,1,1.28,1.25A1.22,1.22,0,0,1,299.91,155.68Zm2.1,0a.83.83,0,1,0-.82.86A.81.81,0,0,0,302,155.68Z"/><path d="M304.4,154.42v.43h-.1a.74.74,0,0,0-.78.83v1.22h-.44v-2.45h.42v.41A1,1,0,0,1,304.4,154.42Z"/><path d="M307.13,155.82h-2a.83.83,0,0,0,.89.72.94.94,0,0,0,.71-.29l.25.28a1.26,1.26,0,0,1-1,.4,1.23,1.23,0,0,1-1.33-1.25,1.21,1.21,0,0,1,1.24-1.26,1.18,1.18,0,0,1,1.21,1.27A.57.57,0,0,1,307.13,155.82Zm-2-.32h1.58a.8.8,0,0,0-1.58,0Z"/><path d="M311.84,155.49v1.41h-.45v-1.36c0-.48-.23-.72-.63-.72s-.74.28-.74.82v1.26h-.44v-1.36c0-.48-.24-.72-.64-.72s-.74.28-.74.82v1.26h-.44v-2.45h.42v.36a1,1,0,0,1,.85-.39.92.92,0,0,1,.86.46,1.1,1.1,0,0,1,.94-.46A1,1,0,0,1,311.84,155.49Z"/><path d="M313.82,153.69a.31.31,0,1,1,.3.28A.28.28,0,0,1,313.82,153.69Zm.08.76h.45v2.45h-.45Z"/><path d="M317.74,155.68a1.19,1.19,0,0,1-1.24,1.25,1,1,0,0,1-.86-.4v1.27h-.45v-3.35h.43v.39a1,1,0,0,1,.88-.42A1.19,1.19,0,0,1,317.74,155.68Zm-.45,0a.83.83,0,1,0-1.65,0,.83.83,0,1,0,1.65,0Z"/><path d="M318,156.64l.19-.35a1.56,1.56,0,0,0,.86.26c.42,0,.59-.13.59-.34,0-.55-1.56-.07-1.56-1.05,0-.44.4-.74,1-.74a1.75,1.75,0,0,1,.89.23l-.19.35a1.22,1.22,0,0,0-.71-.2c-.39,0-.58.15-.58.34,0,.58,1.56.11,1.56,1.06,0,.45-.41.73-1.06.73A1.74,1.74,0,0,1,318,156.64Z"/><path d="M323,154.45v2.45h-.42v-.37a1,1,0,0,1-.84.4,1,1,0,0,1-1.06-1.07v-1.41h.45v1.36c0,.48.24.72.66.72a.71.71,0,0,0,.76-.81v-1.27Z"/><path d="M327.9,155.49v1.41h-.45v-1.36c0-.48-.23-.72-.64-.72s-.73.28-.73.82v1.26h-.45v-1.36c0-.48-.23-.72-.63-.72s-.74.28-.74.82v1.26h-.45v-2.45h.43v.36a1,1,0,0,1,.85-.39.9.9,0,0,1,.85.46,1.12,1.12,0,0,1,.95-.46A1,1,0,0,1,327.9,155.49Z"/><path d="M331.93,154.65l-1.65.63,1.65.64v.38l-2.08-.82v-.4l2.08-.82Z"/><path d="M333.64,153h.4l-1.53,4.37h-.41Z"/><path d="M335.14,154.06H334v-.4h2.69v.4h-1.12v2.84h-.45Z"/><path d="M337.21,153.66h.47v3.24h-.47Z"/><path d="M339.29,154.06h-1.11v-.4h2.68v.4h-1.11v2.84h-.46Z"/><path d="M341.37,153.66h.46v2.84h1.76v.4h-2.22Z"/><path d="M346.48,156.5v.4h-2.36v-3.24h2.29v.4h-1.83v1h1.63v.39h-1.63v1.05Z"/><path d="M349.13,155.08v.4l-2.08.82v-.38l1.65-.64-1.65-.63v-.39Z"/><path d="M280,165.77l-1.65.63L280,167v.38l-2.08-.82v-.4l2.08-.82Z"/><path d="M281.72,164.12h.4l-1.53,4.37h-.4Z"/><path d="M285.23,164.78V168h-.47v-1.45H282.9V168h-.47v-3.25h.47v1.39h1.86v-1.39Z"/><path d="M288.55,167.62V168H286.2v-3.25h2.29v.4h-1.83v1h1.63v.39h-1.63v1.05Z"/><path d="M291.37,167.21h-1.73l-.35.82h-.48l1.47-3.25h.46l1.47,3.25h-.48Zm-.16-.37-.7-1.59-.7,1.59Z"/><path d="M292.69,164.78h1.37a1.63,1.63,0,1,1,0,3.25h-1.37Zm1.34,2.84a1.22,1.22,0,1,0,0-2.44h-.87v2.44Z"/><path d="M298.42,166.2v.4l-2.08.82V167l1.66-.64-1.66-.63v-.39Z"/><path d="M271.39,175.42l-1.64.63,1.64.64v.38l-2.08-.82v-.4l2.08-.82Z"/><path d="M275,176.8c0,.56-.42.88-1.24.88h-1.55v-3.25h1.45c.75,0,1.17.32,1.17.84a.76.76,0,0,1-.44.72A.79.79,0,0,1,275,176.8Zm-2.33-2v1h1c.48,0,.75-.18.75-.52s-.27-.52-.75-.52Zm1.86,1.95c0-.37-.28-.54-.79-.54h-1.07v1.08h1.07C274.23,177.3,274.51,177.14,274.51,176.76Z"/><path d="M275.43,176.05a1.73,1.73,0,1,1,1.73,1.66A1.65,1.65,0,0,1,275.43,176.05Zm3,0a1.26,1.26,0,1,0-1.26,1.25A1.21,1.21,0,0,0,278.42,176.05Z"/><path d="M279.59,174.43H281a1.63,1.63,0,1,1,0,3.25h-1.37Zm1.34,2.84a1.22,1.22,0,1,0,0-2.44h-.88v2.44Z"/><path d="M284.52,176.55v1.13h-.46v-1.13l-1.29-2.12h.5l1,1.71,1-1.71h.46Z"/><path d="M288.18,175.85v.4l-2.08.82v-.38l1.65-.64-1.65-.63V175Z"/><path d="M271.39,186.54l-1.64.64,1.64.63v.39l-2.08-.83V187l2.08-.83Z"/><path d="M275,185.55v3.25h-.46v-1.45h-1.87v1.45h-.46v-3.25h.46V187h1.87v-1.4Z"/><path d="M276.69,185.55v3.25h-.46V186h-.73v-.41Z"/><path d="M279.57,187v.39l-2.08.83v-.39l1.65-.63-1.65-.64v-.39Z"/><path d="M281.65,185.55H282v2.95h1.82v.3h-2.16Z"/><path d="M284,187.58a1.24,1.24,0,1,1,1.24,1.24A1.2,1.2,0,0,1,284,187.58Zm2.15,0a.91.91,0,1,0-.91.95A.89.89,0,0,0,286.18,187.58Z"/><path d="M288.41,186.34v.32h-.08a.79.79,0,0,0-.82.9v1.24h-.33v-2.44h.31v.48A.93.93,0,0,1,288.41,186.34Z"/><path d="M291.1,187.68h-2a.91.91,0,0,0,1,.85,1,1,0,0,0,.75-.32l.18.21a1.19,1.19,0,0,1-.94.4,1.21,1.21,0,0,1-1.28-1.24,1.19,1.19,0,1,1,2.38,0S291.1,187.64,291.1,187.68Zm-2-.24h1.73a.87.87,0,0,0-1.73,0Z"/><path d="M295.8,187.38v1.42h-.33v-1.38c0-.52-.26-.78-.7-.78a.78.78,0,0,0-.81.88v1.28h-.33v-1.38c0-.52-.26-.78-.71-.78a.78.78,0,0,0-.81.88v1.28h-.33v-2.44h.31v.44a1,1,0,0,1,.9-.46.86.86,0,0,1,.86.52,1.07,1.07,0,0,1,1-.52A.92.92,0,0,1,295.8,187.38Z"/><path d="M297.83,185.59a.23.23,0,0,1,.24-.23.23.23,0,0,1,.24.22.24.24,0,0,1-.24.25A.24.24,0,0,1,297.83,185.59Zm.08.77h.32v2.44h-.32Z"/><path d="M301.63,187.58a1.18,1.18,0,0,1-1.22,1.24,1.09,1.09,0,0,1-.93-.48v1.36h-.33v-3.34h.32v.48a1.07,1.07,0,0,1,.94-.5A1.18,1.18,0,0,1,301.63,187.58Zm-.33,0a.91.91,0,1,0-.91.95A.9.9,0,0,0,301.3,187.58Z"/><path d="M302,188.52l.14-.26a1.52,1.52,0,0,0,.87.27c.47,0,.66-.15.66-.39,0-.64-1.59-.14-1.59-1.1,0-.4.35-.7,1-.7a1.64,1.64,0,0,1,.86.23l-.14.26a1.26,1.26,0,0,0-.72-.21c-.44,0-.64.18-.64.41,0,.66,1.59.16,1.59,1.1,0,.42-.38.69-1,.69A1.64,1.64,0,0,1,302,188.52Z"/><path d="M306.76,186.36v2.44h-.32v-.45a1,1,0,0,1-1.9-.58v-1.41h.33v1.38c0,.52.27.79.73.79a.79.79,0,0,0,.83-.89v-1.28Z"/><path d="M311.71,187.38v1.42h-.33v-1.38c0-.52-.26-.78-.7-.78a.78.78,0,0,0-.82.88v1.28h-.33v-1.38c0-.52-.26-.78-.71-.78a.78.78,0,0,0-.81.88v1.28h-.33v-2.44H308v.44a1,1,0,0,1,.9-.46.88.88,0,0,1,.87.52,1,1,0,0,1,1-.52A.92.92,0,0,1,311.71,187.38Z"/><path d="M316,185.36v3.44h-.32v-.48a1.05,1.05,0,0,1-.94.5,1.24,1.24,0,0,1,0-2.48,1.09,1.09,0,0,1,.93.48v-1.46Zm-.33,2.22a.91.91,0,1,0-.9.95A.89.89,0,0,0,315.71,187.58Z"/><path d="M316.71,187.58a1.24,1.24,0,1,1,1.24,1.24A1.2,1.2,0,0,1,316.71,187.58Zm2.14,0a.91.91,0,1,0-.9.95A.89.89,0,0,0,318.85,187.58Z"/><path d="M319.86,185.36h.33v3.44h-.33Z"/><path d="M320.86,187.58a1.24,1.24,0,1,1,1.24,1.24A1.2,1.2,0,0,1,320.86,187.58Zm2.15,0a.91.91,0,1,0-.91.95A.89.89,0,0,0,323,187.58Z"/><path d="M325.24,186.34v.32h-.08a.79.79,0,0,0-.82.9v1.24H324v-2.44h.31v.48A.93.93,0,0,1,325.24,186.34Z"/><path d="M326.74,188.52l.15-.26a1.5,1.5,0,0,0,.87.27c.46,0,.65-.15.65-.39,0-.64-1.58-.14-1.58-1.1,0-.4.34-.7,1-.7a1.67,1.67,0,0,1,.86.23l-.15.26a1.21,1.21,0,0,0-.71-.21c-.45,0-.64.18-.64.41,0,.66,1.58.16,1.58,1.1,0,.42-.37.69-1,.69A1.64,1.64,0,0,1,326.74,188.52Z"/><path d="M329.27,185.59a.25.25,0,0,1,.49,0,.25.25,0,0,1-.25.25A.24.24,0,0,1,329.27,185.59Zm.08.77h.33v2.44h-.33Z"/><path d="M331.88,188.65a.78.78,0,0,1-.52.17.64.64,0,0,1-.71-.71v-1.47h-.44v-.28h.44v-.53H331v.53h.74v.28H331v1.45a.39.39,0,0,0,.42.45.5.5,0,0,0,.36-.13Z"/><path d="M335.53,187.29v1.51h-.31v-.38a.92.92,0,0,1-.84.4c-.56,0-.9-.29-.9-.71s.25-.69.95-.69h.77v-.15c0-.41-.23-.64-.69-.64a1.21,1.21,0,0,0-.81.29l-.15-.25a1.55,1.55,0,0,1,1-.33A.87.87,0,0,1,335.53,187.29Zm-.33.78v-.4h-.76c-.48,0-.63.18-.63.43s.23.46.62.46A.77.77,0,0,0,335.2,188.07Z"/><path d="M340.45,187.38v1.42h-.33v-1.38c0-.52-.26-.78-.7-.78a.78.78,0,0,0-.82.88v1.28h-.33v-1.38c0-.52-.26-.78-.7-.78a.78.78,0,0,0-.82.88v1.28h-.33v-2.44h.32v.44a1,1,0,0,1,.89-.46.87.87,0,0,1,.87.52,1.06,1.06,0,0,1,1-.52A.92.92,0,0,1,340.45,187.38Z"/><path d="M343.47,187.68h-2a.91.91,0,0,0,1,.85,1,1,0,0,0,.75-.32l.18.21a1.18,1.18,0,0,1-.94.4,1.21,1.21,0,0,1-1.28-1.24,1.19,1.19,0,1,1,2.38,0S343.47,187.64,343.47,187.68Zm-2-.24h1.73a.87.87,0,0,0-1.73,0Z"/><path d="M345.43,188.65a.75.75,0,0,1-.51.17.65.65,0,0,1-.72-.71v-1.47h-.43v-.28h.43v-.53h.33v.53h.74v.28h-.74v1.45a.39.39,0,0,0,.42.45.54.54,0,0,0,.37-.13Z"/><path d="M346.36,188.57a.71.71,0,0,1-.07.27l-.19.64h-.22l.15-.68a.22.22,0,0,1-.16-.23.23.23,0,0,1,.24-.25A.24.24,0,0,1,346.36,188.57Z"/><path d="M348,187.58a1.2,1.2,0,0,1,1.25-1.24,1.07,1.07,0,0,1,1,.48L350,187a.8.8,0,0,0-.71-.36,1,1,0,0,0,0,1.9.8.8,0,0,0,.71-.36l.25.17a1.09,1.09,0,0,1-1,.48A1.2,1.2,0,0,1,348,187.58Z"/><path d="M350.59,187.58a1.24,1.24,0,1,1,1.25,1.24A1.21,1.21,0,0,1,350.59,187.58Zm2.15,0a.91.91,0,1,0-.9.95A.89.89,0,0,0,352.74,187.58Z"/><path d="M356,187.38v1.42h-.33v-1.38a.68.68,0,0,0-.73-.78.8.8,0,0,0-.86.88v1.28h-.33v-2.44h.32v.45a1,1,0,0,1,.93-.47A.93.93,0,0,1,356,187.38Z"/><path d="M356.54,188.52l.15-.26a1.52,1.52,0,0,0,.87.27c.46,0,.65-.15.65-.39,0-.64-1.58-.14-1.58-1.1,0-.4.34-.7,1-.7a1.67,1.67,0,0,1,.86.23l-.15.26a1.21,1.21,0,0,0-.71-.21c-.45,0-.64.18-.64.41,0,.66,1.58.16,1.58,1.1,0,.42-.37.69-1,.69A1.65,1.65,0,0,1,356.54,188.52Z"/><path d="M361.27,187.68h-2a.91.91,0,0,0,1,.85,1,1,0,0,0,.75-.32l.18.21a1.19,1.19,0,0,1-.94.4,1.21,1.21,0,0,1-1.28-1.24,1.19,1.19,0,1,1,2.38,0S361.27,187.64,361.27,187.68Zm-2-.24H361a.87.87,0,0,0-1.73,0Z"/><path d="M361.7,187.58a1.2,1.2,0,0,1,1.26-1.24,1.05,1.05,0,0,1,1,.48l-.24.17a.83.83,0,0,0-.71-.36,1,1,0,0,0,0,1.9.83.83,0,0,0,.71-.36l.24.17a1.07,1.07,0,0,1-1,.48A1.2,1.2,0,0,1,361.7,187.58Z"/><path d="M365.87,188.65a.78.78,0,0,1-.52.17.64.64,0,0,1-.71-.71v-1.47h-.44v-.28h.44v-.53H365v.53h.74v.28H365v1.45a.39.39,0,0,0,.42.45.52.52,0,0,0,.36-.13Z"/><path d="M368.5,187.68h-2a.91.91,0,0,0,1,.85,1,1,0,0,0,.75-.32l.18.21a1.18,1.18,0,0,1-.94.4,1.21,1.21,0,0,1-1.28-1.24,1.19,1.19,0,1,1,2.38,0S368.5,187.64,368.5,187.68Zm-2-.24h1.73a.87.87,0,0,0-1.73,0Z"/><path d="M370.46,188.65a.75.75,0,0,1-.51.17.65.65,0,0,1-.72-.71v-1.47h-.43v-.28h.43v-.53h.33v.53h.74v.28h-.74v1.45a.39.39,0,0,0,.42.45.5.5,0,0,0,.36-.13Z"/><path d="M373.26,186.36v2.44h-.32v-.45a1,1,0,0,1-.88.47,1,1,0,0,1-1-1v-1.41h.33v1.38a.69.69,0,0,0,.74.79.79.79,0,0,0,.83-.89v-1.28Z"/><path d="M376.3,187.68h-2a.9.9,0,0,0,1,.85,1,1,0,0,0,.75-.32l.18.21a1.29,1.29,0,0,1-2.22-.84,1.17,1.17,0,0,1,1.19-1.24,1.16,1.16,0,0,1,1.18,1.24Zm-2-.24H376a.87.87,0,0,0-1.73,0Z"/><path d="M378.2,186.34v.32h-.08a.79.79,0,0,0-.82.9v1.24H377v-2.44h.32v.48A.91.91,0,0,1,378.2,186.34Z"/><path d="M271.31,192.85v1.51H271V194a.92.92,0,0,1-.84.4c-.55,0-.89-.28-.89-.71s.24-.69.94-.69H271v-.15c0-.41-.24-.64-.7-.64a1.23,1.23,0,0,0-.81.29l-.15-.25a1.56,1.56,0,0,1,1-.33A.87.87,0,0,1,271.31,192.85Zm-.33.78v-.4h-.77c-.47,0-.63.18-.63.43s.23.46.62.46A.78.78,0,0,0,271,193.63Z"/><path d="M274.43,190.92v3.44h-.31v-.48a1.05,1.05,0,0,1-.94.5,1.24,1.24,0,0,1,0-2.48,1.06,1.06,0,0,1,.92.48v-1.46Zm-.32,2.22a.91.91,0,1,0-.91,1A.89.89,0,0,0,274.11,193.14Z"/><path d="M275.27,191.15a.24.24,0,0,1,.25-.23.23.23,0,0,1,.24.23.25.25,0,0,1-.49,0Zm.08.77h.33v2.44h-.33Z"/><path d="M279.07,193.14a1.18,1.18,0,0,1-1.22,1.24,1.06,1.06,0,0,1-.93-.48v1.36h-.32v-3.34h.31v.48a1.07,1.07,0,0,1,.94-.5A1.18,1.18,0,0,1,279.07,193.14Zm-.33,0a.91.91,0,1,0-.91,1A.9.9,0,0,0,278.74,193.14Z"/><path d="M279.66,191.15a.23.23,0,0,1,.24-.23.23.23,0,0,1,.24.23.24.24,0,0,1-.24.24A.24.24,0,0,1,279.66,191.15Zm.08.77h.33v2.44h-.33Z"/><path d="M280.64,194.08l.15-.26a1.53,1.53,0,0,0,.87.28c.46,0,.65-.16.65-.4,0-.64-1.58-.14-1.58-1.1,0-.4.35-.7,1-.7a1.64,1.64,0,0,1,.86.23l-.14.26a1.26,1.26,0,0,0-.72-.21c-.44,0-.64.18-.64.41,0,.66,1.58.16,1.58,1.1,0,.42-.37.69-1,.69A1.65,1.65,0,0,1,280.64,194.08Z"/><path d="M283,193.14a1.2,1.2,0,0,1,1.26-1.24,1.08,1.08,0,0,1,1,.48l-.25.17a.83.83,0,0,0-.71-.36,1,1,0,0,0,0,1.9.83.83,0,0,0,.71-.36l.25.17a1.08,1.08,0,0,1-1,.48A1.2,1.2,0,0,1,283,193.14Z"/><path d="M285.78,191.15a.23.23,0,0,1,.24-.23.24.24,0,0,1,.25.23.25.25,0,0,1-.49,0Zm.08.77h.33v2.44h-.33Z"/><path d="M289.35,192.94v1.42H289V193a.68.68,0,0,0-.73-.78.8.8,0,0,0-.86.88v1.28h-.33v-2.44h.32v.45a1,1,0,0,1,.93-.47A.93.93,0,0,1,289.35,192.94Z"/><path d="M292.51,191.92v2.14a1.07,1.07,0,0,1-1.22,1.22,1.72,1.72,0,0,1-1.14-.37l.17-.25a1.48,1.48,0,0,0,1,.33c.62,0,.9-.28.9-.89v-.31a1.1,1.1,0,0,1-.95.48,1.19,1.19,0,1,1,0-2.37,1.09,1.09,0,0,1,1,.49v-.47Zm-.32,1.16a.93.93,0,1,0-.93.89A.87.87,0,0,0,292.19,193.08Z"/><path d="M296.77,193.24h-2a.9.9,0,0,0,1,.85,1,1,0,0,0,.74-.32l.19.21a1.29,1.29,0,0,1-2.22-.84,1.17,1.17,0,0,1,1.19-1.24,1.16,1.16,0,0,1,1.18,1.24Zm-2-.24h1.73a.87.87,0,0,0-1.73,0Z"/><path d="M297.44,190.92h.33v3.44h-.33Z"/><path d="M298.61,191.15a.24.24,0,0,1,.25-.23.24.24,0,1,1,0,.47A.25.25,0,0,1,298.61,191.15Zm.08.77H299v2.44h-.33Z"/><path d="M301.22,194.21a.75.75,0,0,1-.51.17.65.65,0,0,1-.72-.71V192.2h-.43v-.28H300v-.53h.33v.53h.74v.28h-.74v1.45a.39.39,0,0,0,.42.45.5.5,0,0,0,.36-.13Z"/><path d="M302.15,194.13a.71.71,0,0,1-.07.27l-.19.64h-.23l.16-.68a.22.22,0,0,1-.17-.23.24.24,0,0,1,.25-.25A.25.25,0,0,1,302.15,194.13Z"/><path d="M303.72,194.08l.15-.26a1.48,1.48,0,0,0,.87.28c.46,0,.65-.16.65-.4,0-.64-1.58-.14-1.58-1.1,0-.4.34-.7,1-.7a1.68,1.68,0,0,1,.87.23l-.15.26a1.24,1.24,0,0,0-.72-.21c-.44,0-.63.18-.63.41,0,.66,1.58.16,1.58,1.1,0,.42-.37.69-1,.69A1.64,1.64,0,0,1,303.72,194.08Z"/><path d="M308.45,193.24h-2a.91.91,0,0,0,1,.85,1,1,0,0,0,.75-.32l.18.21a1.19,1.19,0,0,1-.94.4,1.21,1.21,0,0,1-1.28-1.24,1.19,1.19,0,1,1,2.38,0S308.45,193.2,308.45,193.24Zm-2-.24h1.73a.87.87,0,0,0-1.73,0Z"/><path d="M311.35,190.92v3.44H311v-.48a1.06,1.06,0,0,1-1,.5,1.24,1.24,0,0,1,0-2.48,1.07,1.07,0,0,1,.93.48v-1.46Zm-.32,2.22a.91.91,0,1,0-.91,1A.89.89,0,0,0,311,193.14Z"/><path d="M315.71,190.92v3.44h-.32v-.48a1.05,1.05,0,0,1-.94.5,1.24,1.24,0,0,1,0-2.48,1.09,1.09,0,0,1,.93.48v-1.46Zm-.33,2.22a.91.91,0,1,0-.9,1A.89.89,0,0,0,315.38,193.14Z"/><path d="M316.55,191.15a.23.23,0,0,1,.24-.23.24.24,0,1,1-.24.23Zm.07.77H317v2.44h-.33Z"/><path d="M319.71,192.85v1.51h-.32V194a.89.89,0,0,1-.83.4c-.56,0-.9-.28-.9-.71s.25-.69.95-.69h.77v-.15c0-.41-.24-.64-.69-.64a1.21,1.21,0,0,0-.81.29l-.15-.25a1.53,1.53,0,0,1,1-.33A.87.87,0,0,1,319.71,192.85Zm-.33.78v-.4h-.76c-.48,0-.63.18-.63.43s.23.46.62.46A.77.77,0,0,0,319.38,193.63Z"/><path d="M324.63,192.94v1.42h-.33V193c0-.52-.26-.78-.7-.78a.78.78,0,0,0-.82.88v1.28h-.33V193c0-.52-.26-.78-.7-.78a.78.78,0,0,0-.82.88v1.28h-.33v-2.44h.32v.44a1,1,0,0,1,.89-.46.87.87,0,0,1,.87.52,1.07,1.07,0,0,1,1-.52A.92.92,0,0,1,324.63,192.94Z"/><path d="M327.45,192.1l-1.65.64,1.65.63v.39l-2.08-.82v-.4l2.08-.82Z"/><path d="M329.16,190.45h.4L328,194.82h-.4Z"/><path d="M332.67,191.11v3.25h-.47v-1.45h-1.86v1.45h-.46v-3.25h.46v1.4h1.86v-1.4Z"/><path d="M334.38,191.11v3.25h-.46v-2.84h-.73v-.41Z"/><path d="M337.25,192.54v.4l-2.07.82v-.39l1.65-.63-1.65-.64v-.38Z"/><path d="M271.39,203.22l-1.64.64,1.64.63v.39l-2.08-.82v-.4l2.08-.82Z"/><path d="M274.81,203.37c0,.7-.51,1.13-1.35,1.13h-.81v1h-.46v-3.25h1.27C274.3,202.23,274.81,202.66,274.81,203.37Zm-.46,0c0-.47-.32-.73-.91-.73h-.79v1.45h.79C274,204.09,274.35,203.83,274.35,203.37Z"/><path d="M277.44,203.66v.4l-2.08.82v-.39l1.65-.63-1.65-.64v-.38Z"/><path d="M281.38,203.22l-1.65.64,1.65.63v.39l-2.08-.82v-.4l2.08-.82Z"/><path d="M282.17,202.23h.47v3.25h-.47Z"/><path d="M286.62,205.48v-2.36l-1.18,2h-.21l-1.17-2v2.35h-.45v-3.25H284l1.36,2.29,1.33-2.29h.38v3.25Z"/><path d="M290.29,203.84h.44v1.27a1.92,1.92,0,0,1-1.23.41,1.66,1.66,0,1,1,1.26-2.82l-.29.29a1.28,1.28,0,0,0-.94-.38,1.25,1.25,0,1,0,0,2.5,1.39,1.39,0,0,0,.76-.21Z"/><path d="M292.56,205.11l.17-.36a1.67,1.67,0,0,0,1.08.37c.56,0,.8-.21.8-.5,0-.79-2-.29-2-1.5,0-.5.39-.92,1.25-.92a2,2,0,0,1,1,.28l-.15.38a1.64,1.64,0,0,0-.89-.27c-.56,0-.79.23-.79.52,0,.79,2,.29,2,1.49,0,.49-.4.92-1.25.92A2,2,0,0,1,292.56,205.11Z"/><path d="M297.91,205.48l-.7-1h-1v1h-.46v-3.25H297c.85,0,1.36.43,1.36,1.14a1,1,0,0,1-.72,1l.77,1.09Zm0-2.11c0-.47-.31-.73-.9-.73h-.79v1.46H297C297.58,204.1,297.89,203.83,297.89,203.37Z"/><path d="M298.84,203.86a1.74,1.74,0,0,1,3-1.16l-.3.29a1.24,1.24,0,0,0-.92-.38,1.25,1.25,0,1,0,0,2.5,1.25,1.25,0,0,0,.92-.39l.3.29a1.73,1.73,0,0,1-3-1.15Z"/><path d="M302.28,203.12h2.08v.37h-2.08Zm0,1.1h2.08v.37h-2.08Z"/><path d="M306.2,202.23h.39l0,1.26h-.33Zm.84,0h.39l0,1.26h-.33Z"/><path d="M308.21,202.23h.47v2.85h1.75v.4h-2.22Z"/><path d="M310.64,204.25a1.28,1.28,0,1,1,1.28,1.26A1.22,1.22,0,0,1,310.64,204.25Zm2.11,0a.83.83,0,1,0-.83.87A.81.81,0,0,0,312.75,204.25Z"/><path d="M315.13,203v.43H315a.74.74,0,0,0-.78.83v1.22h-.44V203h.43v.42A.92.92,0,0,1,315.13,203Z"/><path d="M317.87,204.4h-2a.84.84,0,0,0,.89.72.91.91,0,0,0,.71-.3l.25.29a1.34,1.34,0,0,1-2.29-.86,1.23,1.23,0,1,1,2.45,0S317.87,204.36,317.87,204.4Zm-2-.32h1.58a.8.8,0,0,0-1.58,0Z"/><path d="M322.57,204.07v1.41h-.44v-1.36c0-.49-.24-.72-.64-.72a.71.71,0,0,0-.74.81v1.27h-.44v-1.36c0-.49-.23-.72-.64-.72a.71.71,0,0,0-.74.81v1.27h-.44V203h.43v.37a1,1,0,0,1,.85-.39.92.92,0,0,1,.85.45,1.13,1.13,0,0,1,.94-.45A.94.94,0,0,1,322.57,204.07Z"/><path d="M324.56,202.26a.29.29,0,0,1,.3-.29.28.28,0,0,1,.3.28.3.3,0,0,1-.6,0Zm.07.76h.45v2.46h-.45Z"/><path d="M328.47,204.25a1.19,1.19,0,0,1-1.24,1.26,1.07,1.07,0,0,1-.86-.4v1.27h-.44V203h.42v.39a1.06,1.06,0,0,1,.88-.41A1.19,1.19,0,0,1,328.47,204.25Zm-.45,0a.83.83,0,1,0-.83.87A.81.81,0,0,0,328,204.25Z"/><path d="M328.78,205.22l.18-.35a1.58,1.58,0,0,0,.86.25c.42,0,.59-.12.59-.33,0-.55-1.55-.07-1.55-1,0-.44.39-.74,1-.74a1.82,1.82,0,0,1,.9.22l-.19.35a1.33,1.33,0,0,0-.71-.19c-.39,0-.58.14-.58.34,0,.58,1.55.1,1.55,1.06,0,.45-.4.73-1.06.73A1.76,1.76,0,0,1,328.78,205.22Z"/><path d="M333.7,203v2.46h-.42v-.37a1,1,0,0,1-.84.4,1,1,0,0,1-1.05-1.07V203h.44v1.37c0,.48.24.72.66.72a.73.73,0,0,0,.77-.82V203Z"/><path d="M338.63,204.07v1.41h-.45v-1.36c0-.49-.23-.72-.63-.72a.71.71,0,0,0-.74.81v1.27h-.45v-1.36c0-.49-.23-.72-.63-.72a.71.71,0,0,0-.74.81v1.27h-.44V203H335v.37a1,1,0,0,1,.85-.39.93.93,0,0,1,.86.45,1.1,1.1,0,0,1,.94-.45A.94.94,0,0,1,338.63,204.07Z"/><path d="M339.31,202.23h.39l0,1.26h-.33Zm.84,0h.39l0,1.26h-.33Z"/><path d="M343.22,203.66v.4l-2.08.82v-.39l1.66-.63-1.66-.64v-.38Z"/><path d="M345.92,203.22l-1.65.64,1.65.63v.39l-2.08-.82v-.4l2.08-.82Z"/><path d="M347.63,201.58h.4l-1.53,4.36h-.4Z"/><path d="M351,203.37c0,.7-.51,1.13-1.36,1.13h-.8v1h-.46v-3.25h1.26C350.46,202.23,351,202.66,351,203.37Zm-.47,0c0-.47-.31-.73-.9-.73h-.79v1.45h.79C350.19,204.09,350.5,203.83,350.5,203.37Z"/><path d="M353.59,203.66v.4l-2.07.82v-.39l1.65-.63-1.65-.64v-.38Z"/><path d="M271.39,214.34l-1.64.64,1.64.63V216l-2.08-.82v-.4l2.08-.82Z"/><path d="M273.1,212.7h.41L272,217.07h-.4Z"/><path d="M276.61,215.73c0,.55-.42.87-1.24.87h-1.55v-3.24h1.46c.74,0,1.16.31,1.16.83a.84.84,0,0,0,.17,1.54Zm-2.33-2v1h1c.48,0,.75-.18.75-.52s-.27-.52-.75-.52Zm1.86,2c0-.38-.27-.54-.79-.54h-1.07v1.08h1.07C275.87,216.23,276.14,216.06,276.14,215.69Z"/><path d="M277.06,215a1.73,1.73,0,1,1,1.73,1.66A1.65,1.65,0,0,1,277.06,215Zm3,0a1.26,1.26,0,1,0-1.26,1.25A1.22,1.22,0,0,0,280.05,215Z"/><path d="M281.22,213.36h1.37a1.62,1.62,0,1,1,0,3.24h-1.37Zm1.34,2.84a1.22,1.22,0,1,0,0-2.44h-.88v2.44Z"/><path d="M286.15,215.48v1.12h-.46v-1.13l-1.29-2.11h.5l1,1.71,1-1.71h.46Z"/><path d="M289.81,214.78v.4l-2.08.82v-.39l1.65-.63-1.65-.64V214Z"/><path class="cls-7" d="M396.15,127.45c0,.14-32.09.26-71.67.26s-71.68-.12-71.68-.26,32.08-.26,71.68-.26S396.15,127.31,396.15,127.45Z"/><path class="cls-7" d="M257.09,122.33a.92.92,0,1,1-.92-.92A.92.92,0,0,1,257.09,122.33Z"/><circle class="cls-7" cx="259.71" cy="122.33" r="0.92"/><path class="cls-7" d="M264.18,122.33a.93.93,0,1,1-.92-.92A.92.92,0,0,1,264.18,122.33Z"/><path class="cls-2" d="M261.9,235.87c-.14,0-.26-24.33-.26-54.34s.12-54.34.26-54.34.26,24.33.26,54.34S262.05,235.87,261.9,235.87Z"/><rect class="cls-8" x="61.15" y="21.87" width="59.25" height="42.24"/><path class="cls-1" d="M120.87,28.13c0,.15-13.38.26-29.87.26s-29.87-.11-29.87-.26S74.5,27.87,91,27.87,120.87,28,120.87,28.13Z"/><path class="cls-1" d="M66,25.05a.81.81,0,1,1-.8-.7A.75.75,0,0,1,66,25.05Z"/><path class="cls-1" d="M68.89,25.05a.74.74,0,0,1-.79.7.71.71,0,1,1,0-1.4A.74.74,0,0,1,68.89,25.05Z"/><ellipse class="cls-1" cx="71" cy="25.05" rx="0.8" ry="0.7"/><path class="cls-1" d="M83.07,45c0,2.53-1.84,4.07-4.87,4.07H75v3.76H73.74V40.9H78.2C81.23,40.9,83.07,42.43,83.07,45Zm-1.26,0c0-1.91-1.26-3-3.64-3H75v6h3.17C80.55,47.94,81.81,46.85,81.81,45Z"/><path class="cls-1" d="M95.74,40.9V52.81H94.49v-5.5H87v5.5H85.78V40.9H87v5.3h7.45V40.9Z"/><path class="cls-1" d="M108.93,45c0,2.53-1.83,4.07-4.86,4.07h-3.2v3.76H99.61V40.9h4.46C107.1,40.9,108.93,42.43,108.93,45Zm-1.26,0c0-1.91-1.25-3-3.64-3h-3.16v6H104C106.42,47.94,107.67,46.85,107.67,45Z"/><rect class="cls-8" x="383.33" y="183.39" width="53.56" height="38.18"/><path class="cls-1" d="M401.39,201.12v7.58h-1.75v-3.11H396.2v3.11h-1.76v-7.58h1.76v3h3.44v-3Z"/><path class="cls-1" d="M404.76,202.55h-2.42v-1.43h6.6v1.43h-2.42v6.15h-1.76Z"/><path class="cls-1" d="M409.88,201.12h1.76v6.15h3.8v1.43h-5.56Z"/><path class="cls-1" d="M423.32,208.7v-4.55l-2.23,3.75h-.79l-2.22-3.65v4.45h-1.65v-7.58h1.45l2.84,4.71,2.79-4.71h1.44l0,7.58Z"/><path class="cls-1" d="M437.31,189.06c0,.09-12.09.17-27,.17s-27-.08-27-.17,12.08-.17,27-.17S437.31,189,437.31,189.06Z"/><path class="cls-1" d="M387.7,186.27a.73.73,0,1,1-.72-.63A.68.68,0,0,1,387.7,186.27Z"/><path class="cls-1" d="M390.33,186.27a.73.73,0,1,1-.72-.63A.68.68,0,0,1,390.33,186.27Z"/><path class="cls-1" d="M393,186.27a.73.73,0,1,1-.72-.63A.68.68,0,0,1,393,186.27Z"/><rect class="cls-8" x="32.72" y="182.84" width="39.49" height="28.15"/><path class="cls-1" d="M72.51,187c0,.07-8.91.12-19.9.12s-19.91,0-19.91-.12,8.91-.13,19.91-.13S72.51,187,72.51,187Z"/><path class="cls-1" d="M35.94,185a.54.54,0,1,1-.53-.46A.5.5,0,0,1,35.94,185Z"/><path class="cls-1" d="M37.88,185a.5.5,0,0,1-.53.47.47.47,0,1,1,0-.93A.5.5,0,0,1,37.88,185Z"/><path class="cls-1" d="M39.82,185a.54.54,0,1,1-.53-.46A.5.5,0,0,1,39.82,185Z"/><path class="cls-8" d="M268,74.37a7.39,7.39,0,0,1,7.68-7.5,7.07,7.07,0,0,1,5.26,2l-.68.7a6.18,6.18,0,0,0-4.54-1.76,6.51,6.51,0,1,0,0,13,6.23,6.23,0,0,0,4.54-1.77l.68.69a7.05,7.05,0,0,1-5.26,2.08A7.4,7.4,0,0,1,268,74.37Z"/><path class="cls-8" d="M283,79.87l.48-.81a7,7,0,0,0,4.88,1.86c3,0,4.27-1.28,4.27-2.89,0-4.44-9.23-1.78-9.23-7.23,0-2.09,1.6-3.93,5.24-3.93a8,8,0,0,1,4.46,1.33l-.4.87a7.3,7.3,0,0,0-4.06-1.25c-2.87,0-4.16,1.33-4.16,3,0,4.44,9.23,1.82,9.23,7.19,0,2.09-1.67,3.91-5.32,3.91A7.58,7.58,0,0,1,283,79.87Z"/><path class="cls-8" d="M295.83,79.87l.48-.81a7,7,0,0,0,4.88,1.86c3,0,4.27-1.28,4.27-2.89,0-4.44-9.23-1.78-9.23-7.23,0-2.09,1.6-3.93,5.24-3.93a8,8,0,0,1,4.46,1.33l-.4.87a7.3,7.3,0,0,0-4.06-1.25c-2.88,0-4.16,1.33-4.16,3,0,4.44,9.23,1.82,9.23,7.19,0,2.09-1.67,3.91-5.33,3.91A7.58,7.58,0,0,1,295.83,79.87Z"/><path class="cls-8" d="M319.13,93.61s0-.28,0-.79,0-1.28,0-2.25c0-2,0-4.87,0-8.56,0-7.39-.07-18-.11-31l.2.21-65.88.05h0l.26-.26c0,15.11,0,29.5,0,42.56l-.24-.24,47.4.11,13.6.07,3.62,0h.95a2,2,0,0,1,.32,0h-1.21l-3.58,0-13.54.07-47.56.12H253v-.24c0-13.06,0-27.45,0-42.56v-.26h.27l65.88.05h.21v.21c0,13-.08,23.66-.11,31.09,0,3.67,0,6.54-.05,8.51,0,1,0,1.7,0,2.22S319.13,93.61,319.13,93.61Z"/><path class="cls-8" d="M319.13,57.36c0,.15-14.75.26-32.95.26s-33-.11-33-.26,14.75-.26,33-.26S319.13,57.22,319.13,57.36Z"/><path class="cls-8" d="M258.11,54.26a.81.81,0,1,1-.8-.71A.76.76,0,0,1,258.11,54.26Z"/><path class="cls-8" d="M261,54.26a.81.81,0,1,1-.8-.71A.76.76,0,0,1,261,54.26Z"/><path class="cls-8" d="M264,54.26a.81.81,0,1,1-.8-.71A.76.76,0,0,1,264,54.26Z"/></g><g id="Character"><path class="cls-9" d="M128.82,239,155,327.22a9.22,9.22,0,0,0,8.84,6.6l106,.29a9.8,9.8,0,0,0,9.81-10.31h0a9.8,9.8,0,0,0-9.79-9.28H229.28l-32.46-90.45H140A11.66,11.66,0,0,0,128.82,239Z"/><path class="cls-7" d="M218.5,321.76c0,.2-10.81.37-24.13.37s-24.14-.17-24.14-.37,10.8-.38,24.14-.38S218.5,321.55,218.5,321.76Z"/><path class="cls-7" d="M136.62,226.87c.19-.06,7.41,21,16.12,47.15s15.61,47.33,15.41,47.4-7.41-21.05-16.12-47.16S136.42,226.94,136.62,226.87Z"/><polygon class="cls-9" points="214.09 412.18 207.63 412.02 207.63 333.82 214.09 333.82 214.09 412.18"/><polygon class="cls-9" points="180.8 411.82 240.93 411.82 213.69 402.35 207.23 402.35 180.8 411.82"/><path class="cls-8" d="M165.59,203.85l9.95,49.71-1.78,37.25,66.88-11.12L238,247.06l-.05-27,16.4,31.78,12.76-24.66-23.37-42.35h0a39.38,39.38,0,0,0-15.29-9.91,31.67,31.67,0,0,0-9.59-1.83h0a38.42,38.42,0,0,1-23.15,0c-.94.12-2.24.24-3.89.44l-.3,0a29.58,29.58,0,0,0-25.81,27.81Z"/><path class="cls-8" d="M191.83,173.56s-27.47.21-30.88,29.23l-.46,21.28,23.67-.21Z"/><path class="cls-10" d="M257.48,210.89c0,.21-21.62.37-48.29.37s-48.29-.16-48.29-.37,21.62-.37,48.29-.37S257.48,210.69,257.48,210.89Z"/><path class="cls-10" d="M257.48,215.49c0,.21-21.62.38-48.29.38s-48.29-.17-48.29-.38,21.62-.37,48.29-.37S257.48,215.29,257.48,215.49Z"/><path class="cls-10" d="M255.94,207.08c0,.21-21.28.37-47.52.37s-47.52-.16-47.52-.37,21.27-.37,47.52-.37S255.94,206.87,255.94,207.08Z"/><path class="cls-7" d="M237.61,251.85c-.21,0-.12-11.76.2-26.27s.75-26.26,1-26.25.11,11.76-.21,26.27S237.82,251.86,237.61,251.85Z"/><path class="cls-11" d="M228.21,232.78s13,.93,15.34,4.36,5.91,13.24,4.56,13.31a3.72,3.72,0,0,1-2.34-.74l-3.56-6.31s.57,6.1-1.56,6.22S228,251.85,228,251.85Z"/><path class="cls-8" d="M160.5,218.4l-.05,33.51a12.72,12.72,0,0,0,15.42,11.75l52.41-10.79-.11-21.49L183,240.06l-.6-22.75Z"/><path class="cls-7" d="M190.4,261a3.38,3.38,0,0,1,.69-.19l2-.46,7.7-1.63,27.28-5.58-.26.33c0-6.75,0-14.2,0-22.07l.44.36L219,233.51l-36,6.86-.39.07v-.39c.34-10,.63-18.28.83-24.16.12-2.87.21-5.13.28-6.75,0-.74.08-1.32.1-1.78a2.53,2.53,0,0,1,.07-.6,3.2,3.2,0,0,1,0,.61v1.78c0,1.62-.07,3.89-.11,6.75-.14,5.88-.33,14.19-.56,24.16l-.38-.32,36-7L228.1,231l.44-.08v.45c0,7.87,0,15.32,0,22.07v.28l-.27.05-27.33,5.31-7.74,1.45-2,.35A3.2,3.2,0,0,1,190.4,261Z"/><path class="cls-7" d="M220.46,173.56s.1.16.21.49a9,9,0,0,1,.41,1.48,12.2,12.2,0,0,1-.24,5.64,14.84,14.84,0,0,1-4.55,7,14.13,14.13,0,0,1-9.54,3.6,12.93,12.93,0,0,1-9.43-3.83,13.26,13.26,0,0,1-3.51-7.59,12,12,0,0,1,.66-5.6,7.9,7.9,0,0,1,.67-1.39c.18-.3.29-.45.31-.43s-.32.66-.71,1.91a12.7,12.7,0,0,0-.41,5.45,13,13,0,0,0,3.48,7.17,12.4,12.4,0,0,0,8.94,3.57,13.56,13.56,0,0,0,9.08-3.38,14.56,14.56,0,0,0,4.5-6.65,12.68,12.68,0,0,0,.46-5.44C220.62,174.28,220.39,173.58,220.46,173.56Z"/><path class="cls-10" d="M223,254.64a15.63,15.63,0,0,1,0-3.3c.08-2,.18-4.84.2-8s0-5.91-.11-7.94a17.16,17.16,0,0,1,0-3.31,13.2,13.2,0,0,1,.5,3.28c.19,2,.34,4.86.32,8s-.2,5.94-.41,8A12.84,12.84,0,0,1,223,254.64Z"/><path class="cls-10" d="M220.29,255.19a14.82,14.82,0,0,1-.1-3.28c0-2.31.05-5,.09-7.9s0-5.58,0-7.89a14.89,14.89,0,0,1,.13-3.28,13.7,13.7,0,0,1,.4,3.26c.13,2,.24,4.82.22,7.92s-.14,5.89-.3,7.91A13.84,13.84,0,0,1,220.29,255.19Z"/><path class="cls-8" d="M272.77,388.33l9.9,27.28,14.06,19.32a3,3,0,0,1-.83,4.27h0a3,3,0,0,1-2.71.23c-5.67-2.35-26.47-11.11-27.08-13.15-.71-2.35-14.15-31.69-14.15-31.69Z"/><g class="cls-12"><path class="cls-1" d="M295.9,439.2l-30.5-14.74.44,1.15a4.48,4.48,0,0,0,2,2.31c2.51,1.35,9.5,4.93,25.23,11.54a3,3,0,0,0,2.79-.26Z"/></g><g class="cls-12"><path class="cls-1" d="M267.55,413.58a1.79,1.79,0,0,1,1.31,2,1.73,1.73,0,0,1-2,1.31,1.9,1.9,0,0,1-1.38-2.13,1.78,1.78,0,0,1,2.21-1.14"/></g><path class="cls-7" d="M285.12,429.79c.19,0,.24-1.64,1.56-3s2.91-1.63,2.88-1.81-.43-.15-1.1,0a4.56,4.56,0,0,0-2.25,1.37,4.72,4.72,0,0,0-1.18,2.36C284.94,429.37,285.05,429.79,285.12,429.79Z"/><path class="cls-7" d="M288.46,432.66c.17.06.7-1.15,1.94-2.1s2.53-1.18,2.51-1.37-1.5-.23-2.9.87S288.29,432.64,288.46,432.66Z"/><path class="cls-7" d="M279.73,426.54c.18.08,1-1.8,2.78-3.44s3.71-2.31,3.65-2.49-2.17.24-4.08,2S279.57,426.51,279.73,426.54Z"/><path class="cls-7" d="M276,418.5c.13.13,1.38-1.07,3.3-1.9s3.64-1,3.63-1.15-1.84-.35-3.89.57S275.89,418.41,276,418.5Z"/><path class="cls-7" d="M272.92,410.57c.14.12,1.29-1.37,3.38-2.07s3.9-.31,3.94-.5-.41-.3-1.17-.41a6.39,6.39,0,0,0-3,.31,6.3,6.3,0,0,0-2.52,1.61C273.05,410.08,272.85,410.52,272.92,410.57Z"/><path class="cls-7" d="M275.67,407a2.66,2.66,0,0,0-.36-1,7.8,7.8,0,0,0-1.86-2.37,3.41,3.41,0,0,0-1.94-1,1.2,1.2,0,0,0-1.16.73,2,2,0,0,0,0,1.39,4.21,4.21,0,0,0,4.85,2.29,4.86,4.86,0,0,0,3.53-4.12,1.73,1.73,0,0,0-.43-1.34,1.17,1.17,0,0,0-1.37-.13,4.1,4.1,0,0,0-1.42,1.62,8.54,8.54,0,0,0-1,2.82,2.48,2.48,0,0,0,0,1.1,13.11,13.11,0,0,1,1.46-3.68,3.89,3.89,0,0,1,1.28-1.39.62.62,0,0,1,.74.07,1.16,1.16,0,0,1,.24.9,4.36,4.36,0,0,1-3.11,3.53,3.66,3.66,0,0,1-4.14-1.88,1.38,1.38,0,0,1-.07-1,.65.65,0,0,1,.63-.42,3.05,3.05,0,0,1,1.65.8A11.47,11.47,0,0,1,275.67,407Z"/><path class="cls-8" d="M314.58,381.2l-.85,22.17s22.24,8.31,22.48,12.43l-43-.12-.08-34.6Z"/><g class="cls-12"><path class="cls-1" d="M300.42,401.47a1.76,1.76,0,0,0-1.22,2,1.7,1.7,0,0,0,2,1.23,1.86,1.86,0,0,0,1.28-2.13,1.76,1.76,0,0,0-2.2-1.05"/></g><g class="cls-12"><path class="cls-1" d="M293.17,415.68v-3.45l41.36,1.38s1.91.84,1.69,2.19Z"/></g><path class="cls-7" d="M314.43,403.15c0,.21-1.06.3-2.1,1s-1.59,1.55-1.78,1.47.12-1.3,1.39-2.09S314.47,403,314.43,403.15Z"/><path class="cls-7" d="M318.94,405c0,.2-.87.56-1.58,1.45s-.93,1.82-1.14,1.81-.34-1.2.57-2.28S318.93,404.83,318.94,405Z"/><path class="cls-7" d="M321.48,410.44c-.19.05-.48-1,.07-2.16s1.52-1.6,1.61-1.42-.52.78-1,1.73S321.69,410.42,321.48,410.44Z"/><path class="cls-7" d="M314.06,398.08c-.09.19-1.05-.1-2.24,0s-2.12.45-2.22.27.78-.93,2.18-1S314.16,397.91,314.06,398.08Z"/><g class="cls-3"><polygon points="314.41 385.59 314.26 389.54 293.11 389.29 293.09 385.73 314.41 385.59"/></g><path class="cls-7" d="M314.15,393.6a4,4,0,0,1-2.16,0,10.17,10.17,0,0,1-2.25-.7,12.29,12.29,0,0,1-1.23-.66,2.58,2.58,0,0,1-.65-.51.91.91,0,0,1-.1-1.12,1.16,1.16,0,0,1,.92-.48,3.11,3.11,0,0,1,.81.11,7.79,7.79,0,0,1,3.33,1.78c1,.93,1.33,1.71,1.26,1.75s-.58-.59-1.6-1.35a8.13,8.13,0,0,0-1.91-1.09,7.81,7.81,0,0,0-1.24-.39c-.46-.12-.84-.12-1,.08s-.05.11,0,.24a2.22,2.22,0,0,0,.48.37,11.15,11.15,0,0,0,1.14.66,12.11,12.11,0,0,0,2.08.8A16.63,16.63,0,0,1,314.15,393.6Z"/><path class="cls-7" d="M313.88,393.9a3.41,3.41,0,0,1-.57-2.08,7.17,7.17,0,0,1,.3-2.36,7.7,7.7,0,0,1,.56-1.31,1.77,1.77,0,0,1,1.37-1.08,1,1,0,0,1,.9.6,3,3,0,0,1,.22.79,4.7,4.7,0,0,1,0,1.45,5,5,0,0,1-.93,2.23c-.84,1.11-1.72,1.36-1.74,1.29s.67-.51,1.31-1.58a4.87,4.87,0,0,0,.69-2,4.39,4.39,0,0,0,0-1.25c-.06-.46-.23-.83-.4-.78s-.58.34-.76.7a7.63,7.63,0,0,0-.54,1.17,7.74,7.74,0,0,0-.42,2.15C313.77,393.08,314,393.87,313.88,393.9Z"/><path class="cls-7" d="M293.13,274.93C267.7,277.56,234,281,234,281l4.6,41.39s49.53-13.09,49.17-12,2.3,88.06,2.3,88.06h29.82l.56-98.53A24.76,24.76,0,0,0,293.13,274.93Z"/><path class="cls-7" d="M173.15,291.63v12.83c0,8.74,9.95,18,18.68,18h6.76c5.32,0,13.66-3.87,18-7l2.58-1.89,31.06,96.21s35.53-6.37,35.53-7.49-24.06-78.8-35.17-114.86c-4.54-14.72-20.31-23.28-34.88-18.28-.49.17-1,.35-1.49.55C198.26,276.06,173.15,291.63,173.15,291.63Z"/><path class="cls-9" d="M285.72,402.28a1.74,1.74,0,0,1-.15-.35c-.11-.27-.24-.61-.4-1-.33-.91-.82-2.25-1.4-4-1.2-3.48-2.83-8.54-4.81-14.81-4-12.54-9.28-29.9-15.06-49.11-2.87-9.61-5.61-18.76-8.11-27.09-1.23-4.16-2.41-8.12-3.51-11.83-.55-1.85-1.09-3.64-1.6-5.36a46.89,46.89,0,0,0-1.62-4.86,20,20,0,0,0-5-7.11,41.93,41.93,0,0,0-5.26-4.09c-1.52-1-2.73-1.78-3.56-2.28-.38-.23-.69-.42-.93-.58a1.58,1.58,0,0,1-.31-.22,1.56,1.56,0,0,1,.35.15l1,.52c.85.46,2.09,1.18,3.64,2.17a39.61,39.61,0,0,1,5.38,4,20.27,20.27,0,0,1,5.22,7.21,46.89,46.89,0,0,1,1.68,4.9c.53,1.72,1.07,3.51,1.64,5.35l3.58,11.81c2.51,8.33,5.27,17.47,8.17,27.08,5.79,19.17,11,36.53,14.84,49.16L284,396.82l1.28,4c.13.42.23.77.32,1.05S285.74,402.27,285.72,402.28Z"/><path class="cls-9" d="M293.22,298c.18.13-1.51,2.67-2.92,6.12s-2.05,6.42-2.27,6.38.1-3.13,1.58-6.67S293.07,297.84,293.22,298Z"/><path class="cls-9" d="M298.92,302c.08.21-2.48,1.33-5.15,3.45s-4.39,4.32-4.57,4.19,1.32-2.6,4.11-4.78S298.87,301.78,298.92,302Z"/><path class="cls-9" d="M250.52,409.77c-.19.06-8.58-25.69-18.73-57.5s-18.23-57.67-18-57.73,8.58,25.68,18.74,57.5S250.72,409.7,250.52,409.77Z"/><polygon class="cls-9" points="212.41 259.68 314.06 260.66 333.02 207.08 259.08 207.58 241.92 255.76 212.41 256.2 212.41 259.68"/><path class="cls-1" d="M289.48,238.48a4.12,4.12,0,1,1,4.65-3.5A4.11,4.11,0,0,1,289.48,238.48Z"/><path class="cls-7" d="M204.12,114.65c1-3.56,3.64-5.32,7.13-6.51a11.51,11.51,0,0,1,10.5,1.71c2,1.49,3.51,3.67,5.84,4.48,3.84,1.33,8.34-1.54,12,.18a5.25,5.25,0,0,1-2.48,10c2.5.91,3.28,4.49,1.82,6.72s-4.47,3.07-7.1,2.58a14.77,14.77,0,0,1-6.89-3.86c-2-1.79-3.76-3.8-5.88-5.42a11.48,11.48,0,0,0-7.36-2.71c-3.6.2-6.7,2.92-8.31,6.15s-2,6.93-2.18,10.54-.26,7.27-1.33,10.72c-.13.41-.32.86-.72,1-.59.18-1.09-.44-1.38-1a52.91,52.91,0,0,1-6.05-19.71c-.41-4-.3-7.78,1.89-11.14s7.75-5.84,10.48-3.72"/><path class="cls-11" d="M197.14,131.39l-1.84,40.46c-.32,6.88.63,17.05,11.53,17.05h0c9.46-.71,12.25-9.55,12.54-16,.13-3.05.25-5.59.29-5.9,0,0,10.34-.5,11.55-10.66.59-4.91,1-15.12,1.2-24.36a19.05,19.05,0,0,0-17-19.43l-1-.1C203.74,112,197.35,120.73,197.14,131.39Z"/><path class="cls-13" d="M219.69,166.89a23.79,23.79,0,0,1-12.86-5.18s2.35,7.65,12.6,7.82Z"/><path class="cls-7" d="M228.72,138.51a1.44,1.44,0,0,1-1.55,1.31,1.39,1.39,0,0,1-1.36-1.47,1.44,1.44,0,0,1,1.55-1.31A1.39,1.39,0,0,1,228.72,138.51Z"/><path class="cls-7" d="M229.69,136.77c-.2.17-1.21-.76-2.77-.92s-2.8.49-2.95.28.15-.41.69-.72a4,4,0,0,1,2.38-.47,3.89,3.89,0,0,1,2.18,1C229.67,136.33,229.79,136.69,229.69,136.77Z"/><path class="cls-7" d="M213.33,137.41a1.45,1.45,0,0,1-1.56,1.31,1.39,1.39,0,0,1-1.35-1.47,1.44,1.44,0,0,1,1.55-1.31A1.39,1.39,0,0,1,213.33,137.41Z"/><path class="cls-7" d="M214.29,135.42c-.2.18-1.21-.76-2.77-.92s-2.8.5-3,.29.15-.42.69-.73a4,4,0,0,1,2.38-.46,3.82,3.82,0,0,1,2.18,1C214.26,135,214.39,135.35,214.29,135.42Z"/><path class="cls-7" d="M218.73,147.62a10.58,10.58,0,0,1,2.59-.18c.41,0,.79,0,.89-.31a2.11,2.11,0,0,0-.14-1.21c-.27-1-.56-2.06-.86-3.16-1.18-4.51-2-8.19-1.8-8.24s1.28,3.57,2.46,8.07q.42,1.66.81,3.18a2.39,2.39,0,0,1,0,1.59,1,1,0,0,1-.72.51,2.74,2.74,0,0,1-.69,0A10.17,10.17,0,0,1,218.73,147.62Z"/><path class="cls-7" d="M214,148.22c.25,0,.08,1.71,1.4,3.06s3.15,1.37,3.14,1.61-.44.28-1.2.22a4.21,4.21,0,0,1-2.63-1.24,3.67,3.67,0,0,1-1.07-2.56C213.67,148.59,213.9,148.19,214,148.22Z"/><path class="cls-7" d="M215.35,129.34c-.2.41-1.74,0-3.6.07s-3.39.37-3.59,0c-.09-.2.21-.57.85-.92a6.15,6.15,0,0,1,2.74-.64,6.06,6.06,0,0,1,2.74.62C215.13,128.78,215.44,129.15,215.35,129.34Z"/><path class="cls-7" d="M229.6,132.18c-.31.33-1.35-.15-2.64-.31s-2.42,0-2.63-.41c-.09-.2.12-.53.63-.82a3.73,3.73,0,0,1,2.21-.35,3.67,3.67,0,0,1,2,.94C229.63,131.64,229.74,132,229.6,132.18Z"/><path class="cls-11" d="M197.17,139c-.17-.09-6.77-2.81-7.29,4.17s6.6,6.06,6.62,5.86S197.17,139,197.17,139Z"/><path class="cls-13" d="M194.57,146.24s-.13.07-.34.15a1.17,1.17,0,0,1-.91,0,3,3,0,0,1-1.19-2.8,3.87,3.87,0,0,1,.47-1.71,1.39,1.39,0,0,1,1-.87.61.61,0,0,1,.69.39c.08.2,0,.33.06.35s.16-.11.13-.4a.79.79,0,0,0-.25-.46.88.88,0,0,0-.66-.22,1.69,1.69,0,0,0-1.35,1,4.23,4.23,0,0,0-.56,1.92c-.06,1.41.56,2.78,1.55,3.14a1.27,1.27,0,0,0,1.12-.1C194.54,146.4,194.59,146.25,194.57,146.24Z"/><path class="cls-7" d="M234.79,130.12a14.77,14.77,0,0,1-12.74-4.32c-2.25-2.37-3.84-5.59-6.84-6.87a8.3,8.3,0,0,0-6.41.19,16,16,0,0,0-5.26,3.89c1.41,5.38-.52,11-2.43,16.24a2.79,2.79,0,0,1-1,1.52c-.89.54-2.07-.08-2.71-.91a8.64,8.64,0,0,1-1.4-4.74,28.64,28.64,0,0,1,1.27-11.27,19.49,19.49,0,0,1,6.4-9.26,18.55,18.55,0,0,1,13.46-3.52,22.83,22.83,0,0,1,12.64,6.1,13.23,13.23,0,0,1,3.75,5.38"/></g><g id="Plant"><path class="cls-8" d="M39.26,345.16A18.91,18.91,0,0,1,51,343.74c2.13.35,4.34,1,5.79,2.58s1.72,4.41.06,5.78a5.51,5.51,0,0,1-3.65.93c-3.1,0-6.54-.58-9,1.28-1.42,1.07-2.36,2.83-4,3.36a4,4,0,0,1-4.4-2,6.83,6.83,0,0,1-.49-5A7.7,7.7,0,0,1,39.26,345.16Z"/><path class="cls-8" d="M31.09,329.4c2.18,3.11,6.42,2.08,8.38.18s2.8-4.66,3.55-7.28c1.73-6,3.47-12.3,2.19-18.41a10.27,10.27,0,0,0-2.35-5,5.34,5.34,0,0,0-5.07-1.69c-2.13.57-3.46,2.66-4.42,4.65A44,44,0,0,0,29,320.68c0,3,.35,6.21,2.06,8.72"/><path class="cls-8" d="M25.11,333.86a11.34,11.34,0,0,0,1.76-10.42,20.13,20.13,0,0,0-6.18-9,33.3,33.3,0,0,0-11-6.52,11.87,11.87,0,0,0-5-.85,5.23,5.23,0,0,0-4.17,2.53c-1.16,2.22,0,4.91,1.16,7.11A85.19,85.19,0,0,0,8.91,327.8c2.18,2.81,4.67,5.58,8,6.85s6.76,1.12,8.52-1.18"/><path class="cls-7" d="M30.94,376.36a6.68,6.68,0,0,0,.2-1.41c.1-1,.23-2.33.38-3.86a53.57,53.57,0,0,1,.87-5.67,44.17,44.17,0,0,1,2-6.68,24.55,24.55,0,0,1,3.42-6.05,12.75,12.75,0,0,1,4.31-3.59A12.23,12.23,0,0,1,45.81,348a6.65,6.65,0,0,0,1.4-.2,6.29,6.29,0,0,0-1.43,0,11,11,0,0,0-3.79,1,12.73,12.73,0,0,0-4.55,3.62,24.07,24.07,0,0,0-3.54,6.17,41,41,0,0,0-2,6.79,46.1,46.1,0,0,0-.75,5.74c-.13,1.64-.17,3-.2,3.88A6.63,6.63,0,0,0,30.94,376.36Z"/><path class="cls-7" d="M31.21,373.39a3.1,3.1,0,0,0,0-.66c0-.49,0-1.11,0-1.87,0-1.63,0-4,.09-6.9.14-5.82.64-12.09,1.61-20.92.92-8.31,2.15-18,3.45-24.26.28-1.43.56-2.72.82-3.85s.47-2.1.67-2.89.33-1.34.44-1.82a2.58,2.58,0,0,0,.12-.65,2.86,2.86,0,0,0-.23.62c-.14.47-.32,1.07-.55,1.8s-.49,1.74-.77,2.87-.6,2.4-.91,3.83a215.52,215.52,0,0,0-3.62,22.51c-1,8.85-1.41,16.91-1.45,22.75,0,2.92,0,5.28.11,6.91,0,.77.08,1.39.11,1.88A2.56,2.56,0,0,0,31.21,373.39Z"/><path class="cls-7" d="M31.25,357.84a13.32,13.32,0,0,0,0-2c-.08-1.26-.25-3.08-.61-5.31a69.48,69.48,0,0,0-1.72-7.74,63.67,63.67,0,0,0-3.24-9.16,48.61,48.61,0,0,0-9.51-14.8,24.12,24.12,0,0,0-2.23-2.08c-.34-.29-.65-.58-1-.81l-.86-.6a11.17,11.17,0,0,0-1.66-1.05,58.93,58.93,0,0,1,5.42,4.83,51.34,51.34,0,0,1,9.26,14.74A72.54,72.54,0,0,1,28.39,343c.85,2.84,1.41,5.46,1.84,7.66s.64,4,.78,5.26A11.48,11.48,0,0,0,31.25,357.84Z"/><polygon class="cls-7" points="16.22 385.27 17.78 406.61 45.2 406.61 46.76 385.27 16.22 385.27"/><rect class="cls-7" x="13.57" y="376.86" width="36.45" height="8.41"/><polygon class="cls-9" points="13.57 405.79 13.57 408.13 15.29 408.13 49.42 408.13 49.42 405.79 13.57 405.79"/><polygon class="cls-9" points="16.97 412.23 15.29 408.13 48.12 408.13 46.16 412.23 16.97 412.23"/><path class="cls-2" d="M46.25,392.24a1,1,0,0,1-.13.2l-.41.54-1.6,2-.07.09L44,395l-3.92-5.42h.22l-3.86,5.47-.12.17-.14-.16c-1.42-1.7-3-3.54-4.58-5.45h.27l-.26.32-4.09,5.13-.14.18-.13-.18-3.86-5.47h.22L18.82,395l-.08.1-.07-.11c-.62-1-1.12-1.89-1.49-2.5-.15-.28-.28-.49-.38-.67s-.12-.23-.11-.24a2.09,2.09,0,0,1,.15.21c.12.17.26.38.43.65l1.56,2.45h-.15l4.69-5.49.12-.14.1.15,3.9,5.45h-.26l4.09-5.14.25-.32.13-.16.13.16c1.61,1.91,3.15,3.76,4.57,5.46h-.25l3.9-5.44.11-.16.11.16c1.55,2.2,2.86,4.08,3.84,5.48H44c.7-.84,1.25-1.51,1.66-2l.44-.52Z"/><path class="cls-9" d="M47.14,385.13c0,.09-6.87.17-15.35.17s-15.34-.08-15.34-.17,6.87-.17,15.34-.17S47.14,385,47.14,385.13Z"/><path class="cls-7" d="M48.52,408.36c0,.09-7.46.17-16.67.17s-16.68-.08-16.68-.17,7.47-.17,16.68-.17S48.52,408.26,48.52,408.36Z"/></g><g id="Devices"><polygon class="cls-7" points="372.65 162.65 353.6 242.31 358.93 242.31 377.69 162.65 372.65 162.65"/><path class="cls-7" d="M365.33,215.12C365,216.58,374,260,374,260h-4.32l-6.77-34.41Z"/><rect class="cls-8" x="339.54" y="317.41" width="89.23" height="94.59"/><rect class="cls-7" x="428.77" y="331.24" width="4.38" height="4.38"/><rect class="cls-7" x="428.77" y="345.15" width="4.38" height="4.38"/><rect class="cls-7" x="428.77" y="359.06" width="4.38" height="4.38"/><rect class="cls-7" x="428.77" y="372.97" width="4.38" height="4.38"/><path class="cls-7" d="M433.31,360.34a5.71,5.71,0,0,1,1.34-.3,22.54,22.54,0,0,1,3.76-.35,10.14,10.14,0,0,1,5.42,1.42,6.68,6.68,0,0,1,2.32,2.45,6.53,6.53,0,0,1,.69,3.56,7.47,7.47,0,0,1-1.14,3.43,8.82,8.82,0,0,1-2.3,2.44,11.75,11.75,0,0,1-5.22,2.06,16.93,16.93,0,0,1-3.77.13A6,6,0,0,1,433,375a8.63,8.63,0,0,1,1.38,0,20.74,20.74,0,0,0,3.7-.29,11.86,11.86,0,0,0,5-2.09,7.67,7.67,0,0,0,3.21-5.52,6.15,6.15,0,0,0-.62-3.28,6.08,6.08,0,0,0-2.13-2.28,10,10,0,0,0-5.17-1.47,29.41,29.41,0,0,0-3.72.19A8.68,8.68,0,0,1,433.31,360.34Z"/><path class="cls-7" d="M432.22,346.51a1.47,1.47,0,0,1,.41-.25,8.87,8.87,0,0,1,1.3-.53,10.25,10.25,0,0,1,5.13-.28,4.5,4.5,0,0,1,1.63.65,2.84,2.84,0,0,1,1.15,1.55,4.48,4.48,0,0,1-1,4A4.36,4.36,0,0,1,439,353a2.86,2.86,0,0,1-2.42-.13,2.44,2.44,0,0,1-1.39-2.1,2.54,2.54,0,0,1,1.42-2.17,3.9,3.9,0,0,1,2.55-.26,5.18,5.18,0,0,1,2.23,1.06,6,6,0,0,1,2.22,4,5.57,5.57,0,0,1-1.14,4,8,8,0,0,1-2.74,2.32,13.35,13.35,0,0,1-5,1.3c-.6.05-1.07.06-1.39.06a1.47,1.47,0,0,1-.49,0s.67-.09,1.86-.24a14.09,14.09,0,0,0,4.82-1.42,7.85,7.85,0,0,0,2.57-2.25,5.13,5.13,0,0,0,1-3.65,5.53,5.53,0,0,0-2.06-3.63,4.81,4.81,0,0,0-2-1,3.35,3.35,0,0,0-2.21.23,2,2,0,0,0-1.14,1.7,2,2,0,0,0,1.11,1.65,2.38,2.38,0,0,0,2,.12,4,4,0,0,0,1.65-1.2,4.08,4.08,0,0,0,1-3.57,3,3,0,0,0-2.45-2,10.43,10.43,0,0,0-5,.12C432.83,346.24,432.24,346.56,432.22,346.51Z"/><path class="cls-7" d="M432.26,332.93a2.88,2.88,0,0,1,1-.18,7.28,7.28,0,0,1,2.68.38,7.64,7.64,0,0,1,3.34,2.25,7.6,7.6,0,0,1,.28,9.3,7.62,7.62,0,0,1-3.19,2.44,7.19,7.19,0,0,1-2.65.54,2.36,2.36,0,0,1-1-.12,9.78,9.78,0,0,0,3.48-.76,7.37,7.37,0,0,0,2.95-2.39,7.27,7.27,0,0,0-.26-8.71,7.53,7.53,0,0,0-3.09-2.2A10,10,0,0,0,432.26,332.93Z"/><path class="cls-7" d="M366,267.16a8.31,8.31,0,0,1,.75,1.76A33.92,33.92,0,0,1,368,274.3c.37,2.36.68,5.26,1,8.64s.59,7.23,1.14,11.45c.13,1.06.3,2.14.52,3.22a14.26,14.26,0,0,0,1,3.23,11.75,11.75,0,0,0,2.19,2.7,17.31,17.31,0,0,0,10.09,4.67,14.2,14.2,0,0,0,7.88-1.36,9.51,9.51,0,0,0,5.09-6.39,7.18,7.18,0,0,0-.3-4.25,7.46,7.46,0,0,0-2.77-3.35,8.43,8.43,0,0,0-4.22-1.41,6.73,6.73,0,0,0-4.27,1.26,4.6,4.6,0,0,0-1.45,1.71,3.48,3.48,0,0,0-.28,2.18,5.29,5.29,0,0,0,2.77,3.52,13,13,0,0,0,4.56,1.26,42.11,42.11,0,0,0,4.74.33,73.49,73.49,0,0,0,9.32-.53c6.08-.68,12-1.66,17.63-1.72s11.14.73,15.71,3a18.47,18.47,0,0,1,5.84,4.36,13.6,13.6,0,0,1,3,6A16.18,16.18,0,0,1,445.41,324a18.93,18.93,0,0,1-5.93,6.33,21.47,21.47,0,0,1-4.9,2.5,14.65,14.65,0,0,1-1.83.56,4.69,4.69,0,0,1,.45-.17c.31-.1.76-.26,1.34-.48a23.58,23.58,0,0,0,4.83-2.57,19.08,19.08,0,0,0,5.79-6.31,16,16,0,0,0,1.63-11,13.09,13.09,0,0,0-3-5.81,18,18,0,0,0-5.73-4.24c-4.49-2.18-9.91-3-15.51-2.88S411.09,301,405,301.69a75.86,75.86,0,0,1-9.37.54,43.35,43.35,0,0,1-4.81-.33,13.61,13.61,0,0,1-4.74-1.32,5.83,5.83,0,0,1-3-3.88,4.09,4.09,0,0,1,.32-2.51A5.26,5.26,0,0,1,385,292.3a7.15,7.15,0,0,1,4.6-1.36,8.81,8.81,0,0,1,4.49,1.5A8,8,0,0,1,397,296a7.85,7.85,0,0,1,.32,4.54,10,10,0,0,1-5.36,6.72,14.66,14.66,0,0,1-8.15,1.39,17.67,17.67,0,0,1-10.33-4.83,11.83,11.83,0,0,1-2.26-2.83,14.27,14.27,0,0,1-1-3.32c-.21-1.1-.38-2.19-.51-3.25-.52-4.24-.77-8.1-1.06-11.47s-.57-6.29-.9-8.64a36.15,36.15,0,0,0-1.09-5.38,12.59,12.59,0,0,0-.47-1.34Z"/><path class="cls-7" d="M423.69,408.05s0-.15,0-.42,0-.68,0-1.21c0-1.07,0-2.64,0-4.69,0-4.1,0-10.1-.06-17.72,0-15.22-.07-36.92-.12-62.88l.23.23-80.65,0h0l.26-.26c0,31.95,0,61.82,0,86.92l-.22-.22,58.45.11,16.38.06,4.33,0,1.5,0s-.49,0-1.45,0l-4.29,0-16.33.06-58.59.11h-.22v-.22c0-25.1,0-55,0-86.92v-.26H343l80.65,0h.23v.23c-.05,26-.09,47.77-.12,63,0,7.6,0,13.57-.06,17.67,0,2,0,3.58,0,4.64,0,.52,0,.91,0,1.19S423.69,408.05,423.69,408.05Z"/><path class="cls-7" d="M401,331.82a.41.41,0,0,1-.41.42.42.42,0,0,1-.42-.42.41.41,0,0,1,.42-.41A.41.41,0,0,1,401,331.82Z"/><path class="cls-7" d="M403.25,331.82a.41.41,0,0,1-.41.42.42.42,0,0,1-.42-.42.41.41,0,0,1,.42-.41A.41.41,0,0,1,403.25,331.82Z"/><path class="cls-7" d="M405.53,331.82a.41.41,0,0,1-.41.42.42.42,0,0,1-.42-.42.41.41,0,0,1,.42-.41A.41.41,0,0,1,405.53,331.82Z"/><path class="cls-7" d="M407.81,331.82a.41.41,0,0,1-.41.42.42.42,0,0,1-.42-.42.41.41,0,0,1,.42-.41A.41.41,0,0,1,407.81,331.82Z"/><path class="cls-7" d="M410.09,331.82a.42.42,0,1,1-.83,0,.42.42,0,0,1,.83,0Z"/><path class="cls-7" d="M412.37,331.82a.42.42,0,0,1-.42.42.41.41,0,0,1-.41-.42.41.41,0,0,1,.41-.41A.41.41,0,0,1,412.37,331.82Z"/><path class="cls-7" d="M414.65,331.82a.42.42,0,0,1-.42.42.41.41,0,0,1-.41-.42.41.41,0,0,1,.41-.41A.41.41,0,0,1,414.65,331.82Z"/><circle class="cls-7" cx="413.18" cy="333.35" r="0.41"/><circle class="cls-7" cx="410.85" cy="333.35" r="0.41"/><path class="cls-7" d="M408.93,333.35a.41.41,0,0,1-.41.42.42.42,0,0,1-.42-.42.41.41,0,0,1,.42-.41A.41.41,0,0,1,408.93,333.35Z"/><circle class="cls-7" cx="406.19" cy="333.35" r="0.41"/><circle class="cls-7" cx="403.86" cy="333.35" r="0.41"/><path class="cls-7" d="M401.94,333.35a.42.42,0,0,1-.42.42.41.41,0,0,1-.41-.42.41.41,0,0,1,.41-.41A.41.41,0,0,1,401.94,333.35Z"/><path class="cls-7" d="M401,335.09a.41.41,0,0,1-.41.41.41.41,0,0,1-.42-.41.42.42,0,0,1,.42-.42A.41.41,0,0,1,401,335.09Z"/><path class="cls-7" d="M403.25,335.09a.41.41,0,0,1-.41.41.41.41,0,0,1-.42-.41.42.42,0,0,1,.42-.42A.41.41,0,0,1,403.25,335.09Z"/><path class="cls-7" d="M405.53,335.09a.41.41,0,0,1-.41.41.41.41,0,0,1-.42-.41.42.42,0,0,1,.42-.42A.41.41,0,0,1,405.53,335.09Z"/><path class="cls-7" d="M407.81,335.09a.41.41,0,0,1-.41.41.41.41,0,0,1-.42-.41.42.42,0,0,1,.42-.42A.41.41,0,0,1,407.81,335.09Z"/><path class="cls-7" d="M410.09,335.09a.42.42,0,0,1-.83,0,.42.42,0,1,1,.83,0Z"/><path class="cls-7" d="M412.37,335.09a.41.41,0,0,1-.42.41.41.41,0,0,1-.41-.41.41.41,0,0,1,.41-.42A.42.42,0,0,1,412.37,335.09Z"/><path class="cls-7" d="M414.65,335.09a.41.41,0,0,1-.42.41.41.41,0,0,1-.41-.41.41.41,0,0,1,.41-.42A.42.42,0,0,1,414.65,335.09Z"/><path class="cls-7" d="M413.6,336.62a.41.41,0,0,1-.42.41.41.41,0,0,1-.41-.41.41.41,0,0,1,.41-.42A.42.42,0,0,1,413.6,336.62Z"/><path class="cls-7" d="M411.27,336.62a.41.41,0,0,1-.42.41.41.41,0,0,1-.41-.41.41.41,0,0,1,.41-.42A.42.42,0,0,1,411.27,336.62Z"/><path class="cls-7" d="M408.93,336.62a.41.41,0,0,1-.41.41.41.41,0,0,1-.42-.41.42.42,0,0,1,.42-.42A.41.41,0,0,1,408.93,336.62Z"/><path class="cls-7" d="M406.6,336.62a.41.41,0,0,1-.41.41.41.41,0,0,1-.42-.41.42.42,0,0,1,.42-.42A.41.41,0,0,1,406.6,336.62Z"/><path class="cls-7" d="M404.27,336.62a.42.42,0,0,1-.83,0,.42.42,0,1,1,.83,0Z"/><path class="cls-7" d="M401.94,336.62a.41.41,0,0,1-.42.41.41.41,0,0,1-.41-.41.41.41,0,0,1,.41-.42A.42.42,0,0,1,401.94,336.62Z"/><path class="cls-7" d="M401,338.35a.41.41,0,0,1-.41.42.42.42,0,0,1-.42-.42.41.41,0,0,1,.42-.41A.41.41,0,0,1,401,338.35Z"/><path class="cls-7" d="M403.25,338.35a.41.41,0,0,1-.41.42.42.42,0,0,1-.42-.42.41.41,0,0,1,.42-.41A.41.41,0,0,1,403.25,338.35Z"/><path class="cls-7" d="M405.53,338.35a.41.41,0,0,1-.41.42.42.42,0,0,1-.42-.42.41.41,0,0,1,.42-.41A.41.41,0,0,1,405.53,338.35Z"/><path class="cls-7" d="M407.81,338.35a.41.41,0,0,1-.41.42.42.42,0,0,1-.42-.42.41.41,0,0,1,.42-.41A.41.41,0,0,1,407.81,338.35Z"/><path class="cls-7" d="M410.09,338.35a.42.42,0,1,1-.83,0,.42.42,0,0,1,.83,0Z"/><path class="cls-7" d="M412.37,338.35a.42.42,0,0,1-.42.42.41.41,0,0,1-.41-.42.41.41,0,0,1,.41-.41A.41.41,0,0,1,412.37,338.35Z"/><path class="cls-7" d="M414.65,338.35a.42.42,0,0,1-.42.42.41.41,0,0,1-.41-.42.41.41,0,0,1,.41-.41A.41.41,0,0,1,414.65,338.35Z"/><circle class="cls-7" cx="413.18" cy="339.88" r="0.41"/><circle class="cls-7" cx="410.85" cy="339.88" r="0.41"/><path class="cls-7" d="M408.93,339.88a.41.41,0,0,1-.41.42.42.42,0,0,1-.42-.42.41.41,0,0,1,.42-.41A.41.41,0,0,1,408.93,339.88Z"/><circle class="cls-7" cx="406.19" cy="339.88" r="0.41"/><circle class="cls-7" cx="403.86" cy="339.88" r="0.41"/><path class="cls-7" d="M401.94,339.88a.42.42,0,0,1-.42.42.41.41,0,0,1-.41-.42.41.41,0,0,1,.41-.41A.41.41,0,0,1,401.94,339.88Z"/><path class="cls-2" d="M369.44,238.38a5,5,0,0,1,1.62.28,9.22,9.22,0,0,1,3.94,2.58,17.07,17.07,0,0,1,3.49,6.6,65.58,65.58,0,0,1,2.19,9.66,121.4,121.4,0,0,1,.64,25.76,15.14,15.14,0,0,1-2.24,7.14,9.19,9.19,0,0,1-2.82,2.73,6.3,6.3,0,0,1-3.9.92,6.1,6.1,0,0,1-3.71-1.72,4.57,4.57,0,0,1-1.09-1.82,3.93,3.93,0,0,1,0-2.15,4.6,4.6,0,0,1,2.79-3.14,3.29,3.29,0,0,1,2.21,0,4.1,4.1,0,0,1,1.77,1.33,5.51,5.51,0,0,1,1,4.15,11.39,11.39,0,0,1-1.44,3.93,15.47,15.47,0,0,1-5.7,5.74,15.28,15.28,0,0,1-14.81.21,17.53,17.53,0,0,1-5.4-4.65,22.45,22.45,0,0,1-3.27-5.87,38.32,38.32,0,0,1-2.19-11.81c-.2-3.67,0-7-.36-9.87a16.39,16.39,0,0,0-.93-3.9,11.13,11.13,0,0,0-1.67-2.92,8.31,8.31,0,0,0-3.71-2.75,12.3,12.3,0,0,0-1.6-.38,5,5,0,0,1,1.63.28,8.29,8.29,0,0,1,3.83,2.72,10.91,10.91,0,0,1,1.75,2.95,16.88,16.88,0,0,1,1,4c.39,2.92.21,6.25.43,9.9a38.46,38.46,0,0,0,2.23,11.66,22.3,22.3,0,0,0,3.23,5.74,17,17,0,0,0,5.27,4.52,14.77,14.77,0,0,0,19.82-5.78,10.89,10.89,0,0,0,1.38-3.75,4.91,4.91,0,0,0-.87-3.76,3.48,3.48,0,0,0-1.53-1.16,2.76,2.76,0,0,0-1.86,0,4.11,4.11,0,0,0-2.46,2.78,3.6,3.6,0,0,0,1,3.48,5.59,5.59,0,0,0,3.39,1.58,5.81,5.81,0,0,0,3.59-.86,8.62,8.62,0,0,0,2.67-2.57,14.69,14.69,0,0,0,2.17-6.91,123.8,123.8,0,0,0-.52-25.65,65.67,65.67,0,0,0-2.11-9.63,16.89,16.89,0,0,0-3.36-6.55,9.16,9.16,0,0,0-3.82-2.62A10.88,10.88,0,0,0,369.44,238.38Z"/><rect class="cls-2" x="328.37" y="252.85" width="33.22" height="6.33"/><rect class="cls-7" x="78.47" y="318.28" width="43.33" height="93.27"/><path class="cls-9" d="M118.07,401.73s0-.14,0-.4,0-.66,0-1.16c0-1,0-2.53,0-4.46,0-3.9,0-9.56-.07-16.66,0-14.22-.07-34.24-.12-57.54l.25.25H81.82l.26-.26c0,31.16-.06,59.46-.08,80.22l-.18-.19,26.46.11,7.24,0,1.89,0,.66,0s-.2,0-.62,0l-1.86,0-7.19.05-26.58.1h-.19v-.19c0-20.76,0-49.06-.08-80.22v-.26h.27l36.25,0h.25v.24c0,23.37-.09,43.44-.12,57.7,0,7.09,0,12.72-.07,16.61,0,1.91,0,3.39,0,4.41,0,.49,0,.86,0,1.13S118.07,401.73,118.07,401.73Z"/><path class="cls-9" d="M115.83,328.3s0-.35,0-1,0-1.56-.06-2.7l.11.11c-5.61.09-17.62.15-31.52.15h0l.26-.26h0v3.65l-.26-.26c8.81,0,16.65.06,22.32.12l6.71.07,1.83,0,.66,0a3.08,3.08,0,0,1-.59,0l-1.78,0-6.64.08c-5.66.05-13.59.11-22.51.11h-.26v-3.91h0l.26-.26h0c13.9,0,25.91.06,31.52.14H116v.12c0,1.17,0,2.08-.07,2.77A5.64,5.64,0,0,1,115.83,328.3Z"/><path class="cls-9" d="M87.48,330.94c0,.15-.65.26-1.45.26s-1.46-.11-1.46-.26.65-.26,1.46-.26S87.48,330.8,87.48,330.94Z"/><path class="cls-9" d="M115,335.76c0,.14-6.71.26-15,.26s-15-.12-15-.26,6.71-.26,15-.26S115,335.61,115,335.76Z"/><path class="cls-9" d="M115.12,341.57c0,.14-6.6.26-14.73.26s-14.73-.12-14.73-.26,6.6-.26,14.73-.26S115.12,341.43,115.12,341.57Z"/><circle class="cls-8" cx="100" cy="355.15" r="2.38"/><path class="cls-9" d="M93.28,355a9.76,9.76,0,0,1-3.19.26,9.72,9.72,0,0,1-3.18-.26,10.05,10.05,0,0,1,3.18-.26A10.09,10.09,0,0,1,93.28,355Z"/><path class="cls-9" d="M112.64,354.43a9.18,9.18,0,0,1-3,.26,9.22,9.22,0,0,1-3-.26,8.91,8.91,0,0,1,3-.26A8.88,8.88,0,0,1,112.64,354.43Z"/><path class="cls-7" d="M80,365.09a9.25,9.25,0,0,1-1.62-.3,13.87,13.87,0,0,1-4.29-2,18.38,18.38,0,0,1-5.17-5.39,31.11,31.11,0,0,1-3.77-9.17,37.4,37.4,0,0,1-1.2-11.95,24.5,24.5,0,0,1,4.55-12.93,20.42,20.42,0,0,1,5.43-5.16,18.3,18.3,0,0,1,3.49-1.73,18.1,18.1,0,0,1,3.86-.92c2.64-.37,5.34-.32,8-.48a19.92,19.92,0,0,0,7.91-1.82,8.9,8.9,0,0,0,4.92-6,8.42,8.42,0,0,0-8.42-10.3,6,6,0,0,0-3.34,1.24,3.6,3.6,0,0,0-1.4,3,4.84,4.84,0,0,0,4.46,4.31,7.32,7.32,0,0,0,5.72-2.57,13.79,13.79,0,0,0,2.77-5.42,47.42,47.42,0,0,0,1.15-5.61,92.49,92.49,0,0,0,.53-17.31c-.1-2-.18-3.61-.24-4.72,0-.52,0-.92-.06-1.22a2.21,2.21,0,0,1,0-.42,2.26,2.26,0,0,1,.06.41c0,.3.06.71.11,1.23.08,1.07.21,2.66.33,4.71a88.84,88.84,0,0,1-.36,17.37,48.65,48.65,0,0,1-1.14,5.67,14,14,0,0,1-2.83,5.6,7.72,7.72,0,0,1-6.07,2.74,5.3,5.3,0,0,1-4.91-4.74A4.12,4.12,0,0,1,90,297.78a6.49,6.49,0,0,1,3.61-1.36,9,9,0,0,1,7.13,14.69,10.43,10.43,0,0,1-3.35,2.61,20.58,20.58,0,0,1-8.12,1.88c-2.73.15-5.42.1-8,.46a18.08,18.08,0,0,0-3.76.89,17.84,17.84,0,0,0-3.39,1.68,19.89,19.89,0,0,0-5.31,5,24.15,24.15,0,0,0-4.51,12.69,37.34,37.34,0,0,0,1.12,11.82,31.44,31.44,0,0,0,3.66,9.1,18.34,18.34,0,0,0,5,5.38,14.43,14.43,0,0,0,4.21,2.05,12,12,0,0,0,1.19.3Z"/><rect class="cls-7" x="65.19" y="173.6" width="102.6" height="70.46"/><rect class="cls-7" x="108.56" y="234.45" width="13.97" height="26.58"/></g><g id="Desk"><polygon class="cls-7" points="75.4 260 75.4 269.57 128.34 269.57 128.34 412.02 133.21 412.02 133.21 269.57 354.31 270.66 354.31 412.02 359.08 412.02 359.08 270.39 393.2 270.67 393.2 259.18 75.4 260"/><polygon class="cls-7" points="109.28 267.71 130.15 282.74 128.34 284.48 107.29 268.62 109.28 267.71"/><polygon class="cls-7" points="378.75 269.11 354.53 286.36 356.35 288.1 380.74 270.03 378.75 269.11"/><rect class="cls-7" x="152.38" y="256.48" width="54.72" height="4.03"/></g></g></svg>