<svg xmlns="http://www.w3.org/2000/svg" viewBox="0 0 749.48 749.48"><defs><style>.cls-1{fill:#5396ce;}</style></defs><g id="Layer_2" data-name="Layer 2"><g id="Layer_1_Image" data-name="Layer 1 Image"><path class="cls-1" d="M374.74,40A334.83,334.83,0,0,1,505,683.19,334.83,334.83,0,0,1,244.46,66.29,332.47,332.47,0,0,1,374.74,40m0-40C167.78,0,0,167.78,0,374.74S167.78,749.48,374.74,749.48,749.48,581.7,749.48,374.74,581.7,0,374.74,0Z"/><path class="cls-1" d="M243.82,269.34q-42,0-73.56,26.66-37.51,31.61-37.51,79,0,40,29.12,70.1,34.55,35.06,84.42,35.05a123,123,0,0,0,15.3-1q46.91-4.93,77.51-30.61l-20.74-31.1q-30.62,22.21-72.07,22.22-21.24,0-37.52-11.36Q187,413,179.15,386.84H354.89v-16.3q-1.47-37.5-27.15-65.65-33.08-35.55-83.92-35.55Zm-57.76,78.49q1.49-5.41,6.91-11.84,19.74-25.19,50.85-25.18,44.43,0,63.19,37Z"/><polygon class="cls-1" points="591.85 269.84 386.49 269.84 386.49 329.08 424.5 329.08 424.5 311.3 525.21 311.3 394.38 443.61 394.38 480.14 600.74 480.14 600.74 420.9 563.71 420.9 563.71 438.67 459.55 438.67 591.85 304.89 591.85 269.84 591.85 269.84"/></g></g></svg>