<svg xmlns="http://www.w3.org/2000/svg" viewBox="0 0 320.59 257.54"><defs><style>.cls-1{fill:#5396ce;}.cls-2{fill:#263238;}.cls-3{fill:#e0e0e0;}.cls-4{fill:#ffbe9d;}.cls-5{fill:#eb996e;}.cls-6,.cls-9{fill:#fff;}.cls-7{opacity:0.3;}.cls-8{opacity:0.4;}.cls-9{opacity:0.5;}.cls-10{fill:#455a64;}.cls-11{fill:#fafafa;}</style></defs><g id="Layer_2" data-name="Layer 2"><g id="Character"><path class="cls-1" d="M61.39,193.79,31.2,163.47l15.18-27.89c15.18-19.43,47.31-18.18,47.31-18.18a184.59,184.59,0,0,1,47.4,2.86c25.52,5,23.47,21.86,23.47,21.86L168,204.69l3.66,50.95-94.14,1.9L61.39,193.79"/><path class="cls-1" d="M112.11,254.61l-84.33,1A27.41,27.41,0,0,1,2.67,216.51l36.05-66.87,32.85,22.2L49.16,218.33l68.27,1.22Z"/><path class="cls-1" d="M161.54,132l67.67,104.47L189.74,239s-23.58-37.16-23.05-36.39C167.66,204,161.54,132,161.54,132Z"/><path class="cls-2" d="M69.87,177.84a2.92,2.92,0,0,1,.1-.53c.09-.41.21-.91.36-1.52.31-1.31.76-3.21,1.24-5.58s1-5.19,1.33-8.36a44.79,44.79,0,0,0,0-10.3,27.14,27.14,0,0,0-3.49-9.62,39.17,39.17,0,0,0-5-6.76,47.69,47.69,0,0,0-4.09-4,19.65,19.65,0,0,1-1.58-1.38s.17.08.46.29.72.5,1.25.93a40.28,40.28,0,0,1,4.23,3.87,37.11,37.11,0,0,1,5.17,6.77,27,27,0,0,1,3.6,9.79,43.07,43.07,0,0,1-.08,10.43,83.71,83.71,0,0,1-1.44,8.38c-.52,2.36-1,4.25-1.41,5.55-.18.65-.34,1.16-.45,1.49A1.74,1.74,0,0,1,69.87,177.84Z"/><path class="cls-2" d="M67.16,181.45a9.54,9.54,0,0,1-.58,1.51c-.4,1-1,2.34-1.77,4-1.53,3.4-3.71,8-6.21,13.15s-4.85,9.67-6.6,13c-.88,1.64-1.6,3-2.11,3.87a9.07,9.07,0,0,1-.84,1.38,11.27,11.27,0,0,1,.66-1.48l2-3.94,6.47-13,6.33-13.07c.79-1.61,1.43-3,1.93-4A9.59,9.59,0,0,1,67.16,181.45Z"/><path class="cls-2" d="M112.11,254.61s0-.06,0-.18,0-.3,0-.51c0-.49.12-1.15.2-2,.2-1.78.47-4.32.83-7.51.74-6.46,1.79-15.57,3-26.3l.24.27-24.91,0L48,218.34l-13.21-.09-3.59,0-.93,0-.32,0a1.14,1.14,0,0,1,.32,0l.93,0,3.59,0L48,218l43.58-.08,24.91,0h.27l0,.27c-1.32,10.72-2.44,19.82-3.23,26.28-.41,3.18-.73,5.71-1,7.48-.11.85-.21,1.51-.27,2l-.08.51A1.37,1.37,0,0,1,112.11,254.61Z"/><path class="cls-2" d="M49.76,219.05a24.84,24.84,0,0,1-1.68-2.11,35,35,0,0,0-4.5-4.63,34,34,0,0,0-5.32-3.66,24,24,0,0,1-2.36-1.31,10.26,10.26,0,0,1,2.53,1,27,27,0,0,1,9.94,8.4A10.24,10.24,0,0,1,49.76,219.05Z"/><path class="cls-2" d="M169.38,225.66a4.34,4.34,0,0,1-.14-.86c-.07-.62-.16-1.44-.28-2.49-.23-2.16-.54-5.29-.87-9.17-.69-7.74-1.48-18.46-2.18-30.3s-1.19-22.58-1.47-30.36c-.15-3.88-.24-7-.29-9.2,0-1.05,0-1.88,0-2.5a5.9,5.9,0,0,1,0-.88,5,5,0,0,1,.09.87c0,.62.08,1.45.14,2.5.1,2.22.26,5.35.45,9.2.37,7.76.92,18.49,1.62,30.34s1.43,22.55,2,30.3c.3,3.84.54,7,.71,9.18.08,1.05.14,1.88.19,2.5S169.39,225.66,169.38,225.66Z"/><path class="cls-3" d="M94.1,168.81a8.08,8.08,0,0,1,.11-1.36c.12-1,.27-2.22.46-3.78.44-3.31,1-7.83,1.73-13.06l.39.23c-2,1.42-4.2,2.95-6.47,4.53L83.74,160l-.47.33.08-.57c.8-5.19,1.48-9.67,2-12.94.26-1.54.46-2.79.62-3.73a7.36,7.36,0,0,1,.28-1.33,8.93,8.93,0,0,1-.12,1.35c-.12.95-.28,2.21-.47,3.76-.46,3.27-1.08,7.76-1.8,13l-.38-.24L90,155l6.49-4.51.47-.33-.08.57c-.77,5.22-1.44,9.73-1.92,13-.25,1.55-.45,2.81-.6,3.76A7.36,7.36,0,0,1,94.1,168.81Z"/><path class="cls-3" d="M131.74,172.87a8,8,0,0,1-1-1l-2.61-2.77-8.94-9.69.43-.14c-.2,2.45-.42,5.11-.65,7.87s-.47,5.5-.68,8l0,.57-.39-.43-8.68-9.79-2.48-2.86a9.27,9.27,0,0,1-.85-1.07,8.09,8.09,0,0,1,1,1l2.59,2.77,8.82,9.67-.43.15c.21-2.49.43-5.19.66-8s.47-5.41.68-7.86l0-.58.38.43,8.8,9.81,2.51,2.86A10.39,10.39,0,0,1,131.74,172.87Z"/><path class="cls-3" d="M150.68,171.53a9.7,9.7,0,0,1-.68,1.19L148,176,140.84,187l-.25-.38,7.79-1.34,7.9-1.34.57-.09-.32.47c-2.93,4.36-5.46,8.12-7.3,10.87l-2.15,3.12a8.16,8.16,0,0,1-.82,1.08,10.2,10.2,0,0,1,.68-1.18l2-3.19,7.15-11,.25.38-7.91,1.36-7.78,1.32-.57.1.32-.48c2.92-4.4,5.44-8.2,7.29-11l2.14-3.15A9.73,9.73,0,0,1,150.68,171.53Z"/><path class="cls-3" d="M125.49,190.91a7.67,7.67,0,0,1-.68,1.19c-.51.81-1.19,1.89-2,3.23l-7.14,11.07-.24-.38,7.78-1.34,7.9-1.34.57-.1-.32.48c-2.93,4.36-5.46,8.12-7.3,10.87l-2.15,3.11a8.66,8.66,0,0,1-.82,1.09,9.27,9.27,0,0,1,.68-1.18c.51-.8,1.19-1.88,2-3.19l7.15-11,.25.38-7.9,1.36-7.79,1.32-.57.1.32-.48,7.29-11,2.14-3.15A8.64,8.64,0,0,1,125.49,190.91Z"/><path class="cls-3" d="M179.91,171.26a7.67,7.67,0,0,1-.68,1.19l-2,3.22c-1.8,2.81-4.27,6.64-7.13,11.08l-.25-.38,7.78-1.34,7.91-1.34.57-.1-.33.48-7.3,10.87-2.15,3.11a8.66,8.66,0,0,1-.82,1.09,9.27,9.27,0,0,1,.68-1.18l2-3.19,7.15-11,.25.38-7.9,1.36-7.79,1.32-.57.1.32-.48,7.29-11,2.14-3.15A8.64,8.64,0,0,1,179.91,171.26Z"/><path class="cls-3" d="M52.46,155.25a7.45,7.45,0,0,1-.67,1.19l-2,3.23-7.13,11.07-.25-.38L50.16,169l7.91-1.34.57-.09-.32.47L51,178.93c-.88,1.28-1.6,2.33-2.15,3.11a6.91,6.91,0,0,1-.82,1.09,8.8,8.8,0,0,1,.69-1.18l2-3.19,7.15-11,.25.38-7.9,1.36-7.79,1.32-.56.1.31-.48,7.29-11,2.15-3.15A8.16,8.16,0,0,1,52.46,155.25Z"/><path class="cls-3" d="M12.93,230a8,8,0,0,1,.92,1L16.29,234l8.31,10.22-.44.12c.36-2.44.74-5.08,1.14-7.82s.82-5.46,1.19-7.93l.08-.57.36.45L35,238.76l2.29,3a8.36,8.36,0,0,1,.78,1.12,8.56,8.56,0,0,1-.91-1L34.74,239l-8.2-10.2.44-.12c-.36,2.47-.75,5.15-1.16,7.94s-.8,5.38-1.17,7.81l-.08.57-.36-.45-8.16-10.34-2.33-3A9.31,9.31,0,0,1,12.93,230Z"/><path class="cls-3" d="M103.22,181.61a7.67,7.67,0,0,1-1.36.17l-3.79.33-13.14,1,.15-.43,5.77,5.41,5.83,5.5.42.4-.58,0-13.07.71-3.78.17a7.87,7.87,0,0,1-1.36,0,7.84,7.84,0,0,1,1.35-.17l3.77-.3,13.06-.91-.15.43-5.85-5.48L84.74,183l-.41-.39.57,0,13.15-.8,3.8-.18A7.53,7.53,0,0,1,103.22,181.61Z"/><path class="cls-3" d="M81.06,232a7.05,7.05,0,0,1,1,1l2.49,2.88L93,245.94l-.44.13c.31-2.44.65-5.09,1-7.83s.71-5.48,1-8l.08-.57.36.45,8.26,10.16,2.35,3a8.93,8.93,0,0,1,.8,1.1,8.2,8.2,0,0,1-.93-1l-2.46-2.88-8.4-10,.43-.12-1,8c-.36,2.75-.7,5.4-1,7.83l-.08.57-.36-.44-8.37-10.17-2.38-3A8.56,8.56,0,0,1,81.06,232Z"/><path class="cls-3" d="M41.46,195.05a7.88,7.88,0,0,1-1.36.17l-3.79.33-13.14,1,.15-.43,5.76,5.4L34.92,207l.42.39-.58,0-13.07.71-3.78.16a10.84,10.84,0,0,1-1.36,0,7.63,7.63,0,0,1,1.35-.17l3.77-.31,13.06-.9-.15.43-5.85-5.49L23,196.46l-.41-.39.57,0,13.15-.79,3.8-.18A7.53,7.53,0,0,1,41.46,195.05Z"/><path class="cls-3" d="M75.49,230.88a12.11,12.11,0,0,1-1.36.17l-3.8.33-13.14,1,.16-.43,5.76,5.4,5.83,5.51.42.39-.58,0L55.71,244l-3.78.16a7.87,7.87,0,0,1-1.36,0,10.71,10.71,0,0,1,1.35-.16l3.77-.31,13.06-.9-.15.43-5.85-5.49L57,232.29l-.42-.39.57,0,13.15-.79,3.81-.19A8.08,8.08,0,0,1,75.49,230.88Z"/><path class="cls-3" d="M152.3,139.72a8.1,8.1,0,0,1-1.36.17l-3.8.33-13.14,1,.16-.43,5.76,5.41,5.83,5.5.42.4-.58,0-13.07.71-3.78.17a9.44,9.44,0,0,1-1.36,0,7.84,7.84,0,0,1,1.35-.17l3.77-.31,13.06-.9-.15.43-5.85-5.48-5.74-5.43-.42-.39.57,0,13.15-.8,3.81-.18A7.62,7.62,0,0,1,152.3,139.72Z"/><path class="cls-4" d="M114.93,230.88s16.83-4.85,22.4-6.27c2.17-.55,11.46,4.35,17.88,8.42,0,0,8.84,5.24,8.12,6.86-.78,1.78-4,1.41-9.24-1,0,0,1.81,5.26-1.75,5.15,0,0,1.77,5.69-1.57,6.28s-4.12-6.67-7.06-7.06-9-.79-9-.79-5.07,8.39-9,9-13-.47-13-.47Z"/><path class="cls-5" d="M143.65,232a26.92,26.92,0,0,1,4.7,2.65,27.92,27.92,0,0,1,4.42,3.1,28.72,28.72,0,0,1-4.7-2.66A28.28,28.28,0,0,1,143.65,232Z"/><path class="cls-5" d="M142.66,235.27a35.85,35.85,0,0,1,5.57,2.29,34.61,34.61,0,0,1,5.37,2.76A34.58,34.58,0,0,1,148,238,34.77,34.77,0,0,1,142.66,235.27Z"/><path class="cls-5" d="M144.46,243.12a13.68,13.68,0,0,1,3.79.25,14.29,14.29,0,0,1,3.73.78,14.52,14.52,0,0,1-3.8-.26A14,14,0,0,1,144.46,243.12Z"/><path class="cls-2" d="M93.05,57.32a3.46,3.46,0,0,1-4.87,4.09c-2.28-1.15-2.57-4.3-2.12-6.82s1.3-5.2.25-7.53c-.81-1.78-2.56-2.91-3.92-4.31a11,11,0,0,1-3.07-9.36A9.29,9.29,0,0,1,85.7,26.1c3.35-.94,7.48.09,10-2.33C97.48,22,97.59,19.13,99,17c2.17-3.25,6.76-3.77,10.63-3.24s7.83,1.78,11.63.83c3.17-.79,5.77-3,8.74-4.36a17.6,17.6,0,0,1,19.56,3.79,17.6,17.6,0,0,1,2.75,19.72A10.92,10.92,0,0,1,147,39"/><path class="cls-4" d="M112.34,139.92h0a19.27,19.27,0,0,0,19.26-19.54L131.35,102s15.44-1.54,16.46-16.84.29-50.61.29-50.61h0a53.32,53.32,0,0,0-53.84,3.81L91.9,40l1.15,81A19.28,19.28,0,0,0,112.34,139.92Z"/><path class="cls-2" d="M144,62.26a2.29,2.29,0,0,1,0-4.56,1.15,1.15,0,0,1,.37,0,2.29,2.29,0,0,1,0,4.56A1.15,1.15,0,0,1,144,62.26Z"/><path class="cls-2" d="M147,57.37c-.25.25-1.69-1-3.8-1.11s-3.7.88-3.92.6.16-.6.86-1.07a5.23,5.23,0,0,1,6.16.41C147,56.76,147.17,57.26,147,57.37Z"/><path class="cls-2" d="M122.65,57.89a2.23,2.23,0,1,1-3.1.56A2.22,2.22,0,0,1,122.65,57.89Z"/><path class="cls-2" d="M124,58c-.26.25-1.7-1-3.81-1.11s-3.69.88-3.91.6c-.11-.13.15-.6.85-1.07a5.23,5.23,0,0,1,6.16.41C124,57.37,124.16,57.87,124,58Z"/><path class="cls-2" d="M131.54,75.84c0-.17,1.32-.36,3.45-.54.56,0,1-.13,1-.42a3,3,0,0,0-.3-1.61L134.3,68.9c-2-6.23-3.31-11.36-3-11.46s2.17,4.87,4.14,11.1c.46,1.52.9,3,1.34,4.4a3.54,3.54,0,0,1,.18,2.31,1.46,1.46,0,0,1-1,.83,3.66,3.66,0,0,1-.95.07C132.88,76.11,131.55,76,131.54,75.84Z"/><path class="cls-6" d="M124.57,77.79a39.55,39.55,0,0,0,10.17,3.57,5.84,5.84,0,0,1-7,2C123.25,81.38,124.57,77.79,124.57,77.79Z"/><path class="cls-5" d="M131.38,101.77A35.65,35.65,0,0,1,111.73,95s4.12,11.28,19.47,10.73Z"/><path class="cls-2" d="M148.2,38.41s-9.24,4.7-21.5-1.13c-8-3.82-17.36-5.58-19.38-3.94S105,43.2,97.19,45.75c0,0,.84,15.65-5.41,15.22S89,36.2,89,36.2l15.14-7.76L120.69,25l15.76,1.91L148.66,30Z"/><path class="cls-4" d="M92.92,55.94c-.25-.13-10.35-3.69-10.59,6.8S92.67,71.3,92.7,71,92.92,55.94,92.92,55.94Z"/><path class="cls-5" d="M89.59,67s-.19.12-.5.26a1.88,1.88,0,0,1-1.37,0c-1.1-.43-2-2.21-2-4.11a6.17,6.17,0,0,1,.57-2.6,2.13,2.13,0,0,1,1.41-1.37.92.92,0,0,1,1.06.52c.14.3.07.51.12.53s.23-.17.16-.61a1.15,1.15,0,0,0-.4-.66,1.37,1.37,0,0,0-1-.29,2.54,2.54,0,0,0-1.94,1.58,6.08,6.08,0,0,0-.7,2.91c0,2.11,1.06,4.11,2.56,4.59a2,2,0,0,0,1.68-.24C89.56,67.2,89.62,67,89.59,67Z"/><path class="cls-2" d="M87.58,23.11a4.76,4.76,0,0,1,3.64.13,4.83,4.83,0,0,1,2.84,2.28,16.55,16.55,0,0,0-3-1.79A15.53,15.53,0,0,0,87.58,23.11Z"/><path class="cls-2" d="M93.89,16.83c.18,0-.1,2.21.26,4.83a20.71,20.71,0,0,0,1.47,4.57c-.05,0-.44-.37-.88-1.16a9.68,9.68,0,0,1-1.1-3.33A10.86,10.86,0,0,1,93.89,16.83Z"/><path class="cls-2" d="M137,52.33c-.06-.12.39-.48,1.24-.83a9.4,9.4,0,0,1,3.52-.63,9.52,9.52,0,0,1,3.5.7c.84.37,1.28.74,1.23.86-.13.28-2.15-.51-4.74-.52S137.1,52.61,137,52.33Z"/><path class="cls-2" d="M113.59,50.13c0-.12.4-.49,1.25-.83a9.6,9.6,0,0,1,7,.07c.84.36,1.28.73,1.22.85-.13.28-2.15-.51-4.74-.51S113.72,50.41,113.59,50.13Z"/><path class="cls-2" d="M135.17,54a4.33,4.33,0,0,1,0,.62c0,.45,0,1,0,1.7s0,1.62.06,2.62a10,10,0,0,0,.49,3.4,9.2,9.2,0,0,0,2.22,3.5,8.92,8.92,0,0,0,4.13,2.27,8.67,8.67,0,0,0,2.56.22,8.29,8.29,0,0,0,2.61-.55,8.85,8.85,0,0,0,4.32-3.49,9,9,0,0,0,1.4-5.12c0-1.79,0-3.52,0-5.17l.25.24-13-.11L136.56,54l-1,0-.37,0a10.07,10.07,0,0,1,1.29-.06l3.71-.06,13.14-.12h.24V54c0,1.65,0,3.38,0,5.17a9.34,9.34,0,0,1-6.05,9.09,9.27,9.27,0,0,1-5.46.31,9.19,9.19,0,0,1-6.58-6.11A9.93,9.93,0,0,1,135,58.9c0-1,0-1.93.05-2.7s0-1.23,0-1.67A4.23,4.23,0,0,1,135.17,54Z"/><path class="cls-2" d="M110.65,53.47a2.87,2.87,0,0,1,0,.62l.06,1.69c0,.74,0,1.62,0,2.62a9.67,9.67,0,0,0,.5,3.4,9.1,9.1,0,0,0,2.21,3.5,9,9,0,0,0,4.13,2.27,8.38,8.38,0,0,0,2.56.22,8.29,8.29,0,0,0,2.62-.55,8.82,8.82,0,0,0,4.31-3.49,9,9,0,0,0,1.4-5.12c0-1.79,0-3.51,0-5.16l.24.24-13-.12L112,53.52l-1,0a1.75,1.75,0,0,1-.38,0,10.46,10.46,0,0,1,1.29-.06l3.71-.07,13.14-.12H129v.25c0,1.65,0,3.37,0,5.16a9.53,9.53,0,0,1-1.48,5.4A9.33,9.33,0,0,1,123,67.72a8.72,8.72,0,0,1-2.77.57,9,9,0,0,1-2.7-.25A9.22,9.22,0,0,1,111,61.92a9.93,9.93,0,0,1-.44-3.54c0-1,0-1.93,0-2.69s0-1.23,0-1.67A3.76,3.76,0,0,1,110.65,53.47Z"/><path class="cls-2" d="M135.39,54.71a11.4,11.4,0,0,1-3.45.26,11.4,11.4,0,0,1-3.45-.26,11.79,11.79,0,0,1,3.45-.26A11.79,11.79,0,0,1,135.39,54.71Z"/><path class="cls-2" d="M91.53,54.85a90.34,90.34,0,0,1,9.56-.29,88.39,88.39,0,0,1,9.57.23,90.45,90.45,0,0,1-9.57.29A88.27,88.27,0,0,1,91.53,54.85Z"/></g><g id="Shield"><path class="cls-1" d="M296.9,14.28,257.14,0,217.77,14.09c-5,2.37-9.43,3.79-9.43,8.47V45.88a88.13,88.13,0,0,0,13,46.39,80.75,80.75,0,0,0,36.23,32C273.62,119,285.63,105.1,293,93.18a88.09,88.09,0,0,0,13-46.4v-21C306,19.14,302.41,15.88,296.9,14.28Z"/><g class="cls-7"><path d="M257.53,110.73a64.19,64.19,0,0,1-28.66-25.51,69.68,69.68,0,0,1-10.26-36.71V32.16c0-3.71,2.23-7.18,6.67-9.25L257.15,11V0L217.77,14.09c-4.13,1.8-9.43,3.79-9.43,8.47V45.88a88.13,88.13,0,0,0,13,46.39,80.75,80.75,0,0,0,36.23,32Z"/></g><g class="cls-8"><path d="M257.53,124.26a47.58,47.58,0,0,0,7.81-3.35,70,70,0,0,0,16.53-13,89.3,89.3,0,0,0,11.49-15.45A84.83,84.83,0,0,0,306,45.62l0-19.25c0-9.58-4.94-10.29-9.07-12.09L257.14,0V11L289.39,23.1c4.44,2.07,6.67,5.54,6.67,9.25V48.7A69.77,69.77,0,0,1,285.8,85.41c-5.81,9.43-14.42,19.15-28.27,25.32Z"/></g><path class="cls-9" d="M267.69,47.46l0-3.15a10.32,10.32,0,0,0-20.64,0L247,47.5a5.78,5.78,0,0,0-4.92,5.71V71.77a5.77,5.77,0,0,0,5.77,5.77h19.27a5.77,5.77,0,0,0,5.78-5.77V53.21A5.78,5.78,0,0,0,267.69,47.46Zm-7.53,19.69h-5l.79-3.64a3.07,3.07,0,1,1,3.33-.06C259.6,64.86,260.16,67.15,260.16,67.15Zm5.3-19.72H249.27l0-3.12a8.1,8.1,0,0,1,16.2,0Z"/><path class="cls-6" d="M225.05,47.23a12.6,12.6,0,0,1-.6-3.23,56.9,56.9,0,0,1-.32-7.91c.05-1.55.15-3,.29-4.36a9.23,9.23,0,0,1,.89-3.51,4,4,0,0,1,1.74-1.75c.54-.25.87-.24.88-.21a4.56,4.56,0,0,0-2.18,2.18,9.43,9.43,0,0,0-.69,3.35c-.11,1.33-.19,2.79-.23,4.32-.09,3.06,0,5.84.11,7.85A19.77,19.77,0,0,1,225.05,47.23Z"/><path class="cls-6" d="M225.63,57.38c-.19,0-.36-1-.39-2.14s.12-2.15.31-2.15.37.95.39,2.14S225.83,57.38,225.63,57.38Z"/></g><g id="Device"><polygon class="cls-10" points="198.9 171.53 165.71 253.62 105.85 253.62 105.85 257.32 284.13 257.32 320.59 171.53 198.9 171.53"/><path class="cls-11" d="M249.64,220c-1.2,4.13-4.7,6.74-7.82,5.83s-4.67-5-3.47-9.12,4.71-6.75,7.82-5.84S250.84,215.86,249.64,220Z"/></g></g></svg>