<svg xmlns="http://www.w3.org/2000/svg" viewBox="0 0 643.42 396.62"><defs><style>.cls-1{fill:#ebebeb;}.cls-2{fill:#e0e0e0;}.cls-3{fill:#f5f5f5;}.cls-4{fill:#fafafa;}.cls-5{fill:#263238;}.cls-6{fill:#f5b045;}.cls-7{opacity:0.3;}.cls-11,.cls-8{fill:#fff;}.cls-9{fill:#455a64;}.cls-10,.cls-11{opacity:0.5;}.cls-12{fill:#ffbe9d;}.cls-13{fill:#eb996e;}.cls-14{opacity:0.2;}</style></defs><g id="Layer_2" data-name="Layer 2"><g id="Background_Complete" data-name="Background Complete"><path class="cls-1" d="M98.59,379.85c17.56-15.38,19.15-40.53,16-62.61-.53-3.69-.55-7.64-2.67-10.69s-6.47-4.82-9.62-2.89c-2.6,1.59-3.45,4.92-4.69,7.73a21.75,21.75,0,0,1-7.77,9.25c-2.22,1.49-5.05,2.55-7.52,1.53-3.39-1.41-4.25-5.78-4.63-9.46q-1.08-10.31-2.14-20.6c-.39-3.68-.79-7.44-2.32-10.81s-4.42-6.33-8-6.93-7.72,1.9-8.06,5.59c-.14,1.53.34,3.06.4,4.59s-.46,3.31-1.86,3.9-3-.29-4.23-1.25c-4.21-3.29-7.31-7.8-10.25-12.29s-5.81-9.11-9.7-12.79-9-6.36-14.33-6.07S6.56,260.2,5.8,265.52s2.84,10.27,6.6,14.11a82.83,82.83,0,0,0,18.91,14.42,6.78,6.78,0,0,1,3.2,2.76c1.07,2.37-1,5.06-3.32,6.13-2.64,1.22-5.65,1.26-8.48,1.92s-5.81,2.26-6.59,5.09c-1.1,3.93,2.48,7.53,5.87,9.77a71,71,0,0,0,22.15,9.73c2.82.69,5.77,1.24,8.16,2.91s4.07,4.82,3,7.56-4.33,3.94-7.22,3.73-5.6-1.47-8.42-2.2c-5.27-1.35-11.76-.28-14.52,4.45-1.81,3.11-1.56,7.13-.1,10.44a26.84,26.84,0,0,0,6.58,8.48C40.82,373.44,52,380,64.22,382.73s23.18,2.67,34.37-2.88"/><path class="cls-2" d="M100.7,396.26a163.81,163.81,0,0,0-9.36-29.68,333.11,333.11,0,0,0-17-34.06l-4.92-8.7c-1.62-2.86-3.23-5.68-5-8.35A165.69,165.69,0,0,0,53.55,300.7c-3.69-4.53-7.36-8.69-10.82-12.56s-6.77-7.4-9.91-10.49a132,132,0,0,0-15.92-13.5c-2-1.44-3.58-2.5-4.67-3.21l-1.23-.8a2.39,2.39,0,0,0-.44-.25,3,3,0,0,0,.4.31l1.2.85c1.06.75,2.62,1.85,4.59,3.32A138.64,138.64,0,0,1,32.48,278c3.11,3.1,6.39,6.65,9.83,10.53s7.09,8.05,10.76,12.58a167.47,167.47,0,0,1,10.81,14.73c1.73,2.65,3.32,5.46,4.94,8.32l4.92,8.7a340.71,340.71,0,0,1,17,34,166.22,166.22,0,0,1,9.47,29.53"/><path class="cls-2" d="M64.24,315.46a7.35,7.35,0,0,0,.19-1.61c.08-1,.15-2.54.21-4.4.11-3.73.1-8.87.06-14.55s0-10.8.19-14.51c.08-1.86.16-3.36.23-4.4a6.75,6.75,0,0,0,0-1.62,7,7,0,0,0-.29,1.6c-.15,1-.31,2.53-.45,4.39-.3,3.71-.43,8.86-.39,14.55s.1,10.66.13,14.53c0,1.75,0,3.22,0,4.4A8.33,8.33,0,0,0,64.24,315.46Z"/><path class="cls-2" d="M15.94,311.84a11.51,11.51,0,0,0,1.92,0c1.22,0,3-.08,5.19-.07,4.39,0,10.44.19,17.12.7s12.7,1.26,17,1.91c2.17.31,3.92.61,5.14.81a9.3,9.3,0,0,0,1.89.25A10.16,10.16,0,0,0,62.4,315c-1.2-.28-2.95-.65-5.12-1-4.33-.78-10.36-1.59-17.06-2.11a164.52,164.52,0,0,0-17.18-.5c-2.2.05-4,.17-5.2.28A9.36,9.36,0,0,0,15.94,311.84Z"/><path class="cls-2" d="M90.66,365.78a3,3,0,0,0,.26-.62c.17-.48.37-1.08.62-1.8.53-1.56,1.24-3.85,2.08-6.69,1.69-5.67,3.77-13.58,5.95-22.34s4.18-16.68,5.75-22.38l1.87-6.75c.2-.73.36-1.34.5-1.84a2.4,2.4,0,0,0,.13-.65,2.47,2.47,0,0,0-.26.61l-.62,1.8c-.53,1.57-1.24,3.85-2.09,6.69-1.68,5.68-3.76,13.59-5.94,22.35s-4.19,16.68-5.75,22.38l-1.87,6.74c-.2.74-.37,1.34-.5,1.84A2.43,2.43,0,0,0,90.66,365.78Z"/><path class="cls-2" d="M25.54,352.45a2.85,2.85,0,0,0,.65.18l1.89.41,7,1.44c5.89,1.22,14,3,23,5s17.1,3.67,23,4.77c3,.55,5.35,1,7,1.22l1.91.29a3.14,3.14,0,0,0,.68,0,2.22,2.22,0,0,0-.65-.19l-1.9-.41-7-1.44c-5.89-1.22-14-3-23-5s-17.11-3.67-23-4.76c-3-.55-5.36-1-7-1.23l-1.92-.28A2,2,0,0,0,25.54,352.45Z"/><rect class="cls-3" x="100.06" y="136.53" width="84.76" height="259.65"/><rect class="cls-4" x="184.56" y="136.53" width="66.99" height="259.65"/><rect class="cls-2" x="104.61" y="178.09" width="71.9" height="20.24"/><rect class="cls-3" x="106.62" y="180.63" width="4.03" height="15.49"/><path class="cls-4" d="M115.39,183.89a1.28,1.28,0,1,1-1.28-1.28A1.28,1.28,0,0,1,115.39,183.89Z"/><circle class="cls-4" cx="114.11" cy="189.37" r="1.28"/><rect class="cls-3" x="120.5" y="182.61" width="3.96" height="11.9"/><rect class="cls-3" x="126.22" y="182.61" width="3.96" height="11.9"/><rect class="cls-3" x="131.93" y="182.61" width="3.96" height="11.9"/><rect class="cls-3" x="137.65" y="182.61" width="3.96" height="11.9"/><rect class="cls-3" x="143.36" y="182.61" width="3.96" height="11.9"/><rect class="cls-3" x="149.08" y="182.61" width="3.96" height="11.9"/><rect class="cls-3" x="154.79" y="182.61" width="3.96" height="11.9"/><rect class="cls-3" x="160.51" y="182.61" width="3.96" height="11.9"/><rect class="cls-3" x="166.22" y="182.61" width="3.96" height="11.9"/><rect class="cls-3" x="171.94" y="182.61" width="3.96" height="11.9"/><rect class="cls-2" x="104.61" y="210.51" width="71.9" height="20.24"/><rect class="cls-3" x="106.62" y="213.06" width="4.03" height="15.49"/><path class="cls-4" d="M115.39,216.32a1.28,1.28,0,1,1-1.28-1.28A1.28,1.28,0,0,1,115.39,216.32Z"/><circle class="cls-4" cx="114.11" cy="221.79" r="1.28"/><rect class="cls-3" x="120.5" y="215.04" width="3.96" height="11.9"/><rect class="cls-3" x="126.22" y="215.04" width="3.96" height="11.9"/><rect class="cls-3" x="131.93" y="215.04" width="3.96" height="11.9"/><rect class="cls-3" x="137.65" y="215.04" width="3.96" height="11.9"/><rect class="cls-3" x="143.36" y="215.04" width="3.96" height="11.9"/><rect class="cls-3" x="149.08" y="215.04" width="3.96" height="11.9"/><rect class="cls-3" x="154.79" y="215.04" width="3.96" height="11.9"/><rect class="cls-3" x="160.51" y="215.04" width="3.96" height="11.9"/><rect class="cls-3" x="166.22" y="215.04" width="3.96" height="11.9"/><rect class="cls-3" x="171.94" y="215.04" width="3.96" height="11.9"/><rect class="cls-2" x="104.61" y="242.94" width="71.9" height="20.24"/><rect class="cls-3" x="106.62" y="245.48" width="4.03" height="15.49"/><path class="cls-4" d="M115.39,248.74a1.28,1.28,0,1,1-1.28-1.28A1.28,1.28,0,0,1,115.39,248.74Z"/><circle class="cls-4" cx="114.11" cy="254.21" r="1.28"/><rect class="cls-3" x="120.5" y="247.46" width="3.96" height="11.9"/><rect class="cls-3" x="126.22" y="247.46" width="3.96" height="11.9"/><rect class="cls-3" x="131.93" y="247.46" width="3.96" height="11.9"/><rect class="cls-3" x="137.65" y="247.46" width="3.96" height="11.9"/><rect class="cls-3" x="143.36" y="247.46" width="3.96" height="11.9"/><rect class="cls-3" x="149.08" y="247.46" width="3.96" height="11.9"/><rect class="cls-3" x="154.79" y="247.46" width="3.96" height="11.9"/><rect class="cls-3" x="160.51" y="247.46" width="3.96" height="11.9"/><rect class="cls-3" x="166.22" y="247.46" width="3.96" height="11.9"/><rect class="cls-3" x="171.94" y="247.46" width="3.96" height="11.9"/><rect class="cls-2" x="104.61" y="275.36" width="71.9" height="20.24"/><rect class="cls-3" x="106.62" y="277.9" width="4.03" height="15.49"/><path class="cls-4" d="M115.39,281.16a1.28,1.28,0,1,1-1.28-1.28A1.28,1.28,0,0,1,115.39,281.16Z"/><circle class="cls-4" cx="114.11" cy="286.64" r="1.28"/><rect class="cls-3" x="120.5" y="279.88" width="3.96" height="11.9"/><rect class="cls-3" x="126.22" y="279.88" width="3.96" height="11.9"/><rect class="cls-3" x="131.93" y="279.88" width="3.96" height="11.9"/><rect class="cls-3" x="137.65" y="279.88" width="3.96" height="11.9"/><rect class="cls-3" x="143.36" y="279.88" width="3.96" height="11.9"/><rect class="cls-3" x="149.08" y="279.88" width="3.96" height="11.9"/><rect class="cls-3" x="154.79" y="279.88" width="3.96" height="11.9"/><rect class="cls-3" x="160.51" y="279.88" width="3.96" height="11.9"/><rect class="cls-3" x="166.22" y="279.88" width="3.96" height="11.9"/><rect class="cls-3" x="171.94" y="279.88" width="3.96" height="11.9"/><rect class="cls-2" x="104.61" y="307.78" width="71.9" height="20.24"/><rect class="cls-3" x="106.62" y="310.33" width="4.03" height="15.49"/><path class="cls-4" d="M115.39,313.59a1.28,1.28,0,1,1-1.28-1.28A1.28,1.28,0,0,1,115.39,313.59Z"/><circle class="cls-4" cx="114.11" cy="319.06" r="1.28"/><rect class="cls-3" x="120.5" y="312.31" width="3.96" height="11.9"/><rect class="cls-3" x="126.22" y="312.31" width="3.96" height="11.9"/><rect class="cls-3" x="131.93" y="312.31" width="3.96" height="11.9"/><rect class="cls-3" x="137.65" y="312.31" width="3.96" height="11.9"/><rect class="cls-3" x="143.36" y="312.31" width="3.96" height="11.9"/><rect class="cls-3" x="149.08" y="312.31" width="3.96" height="11.9"/><rect class="cls-3" x="154.79" y="312.31" width="3.96" height="11.9"/><rect class="cls-3" x="160.51" y="312.31" width="3.96" height="11.9"/><rect class="cls-3" x="166.22" y="312.31" width="3.96" height="11.9"/><rect class="cls-3" x="171.94" y="312.31" width="3.96" height="11.9"/><rect class="cls-2" x="104.61" y="340.21" width="71.9" height="20.24"/><rect class="cls-3" x="106.62" y="342.75" width="4.03" height="15.49"/><path class="cls-4" d="M115.39,346a1.28,1.28,0,1,1-1.28-1.28A1.28,1.28,0,0,1,115.39,346Z"/><circle class="cls-4" cx="114.11" cy="351.48" r="1.28"/><rect class="cls-3" x="120.5" y="344.73" width="3.96" height="11.9"/><rect class="cls-3" x="126.22" y="344.73" width="3.96" height="11.9"/><rect class="cls-3" x="131.93" y="344.73" width="3.96" height="11.9"/><rect class="cls-3" x="137.65" y="344.73" width="3.96" height="11.9"/><rect class="cls-3" x="143.36" y="344.73" width="3.96" height="11.9"/><rect class="cls-3" x="149.08" y="344.73" width="3.96" height="11.9"/><rect class="cls-3" x="154.79" y="344.73" width="3.96" height="11.9"/><rect class="cls-3" x="160.51" y="344.73" width="3.96" height="11.9"/><rect class="cls-3" x="166.22" y="344.73" width="3.96" height="11.9"/><rect class="cls-3" x="171.94" y="344.73" width="3.96" height="11.9"/><rect class="cls-2" x="104.61" y="372.63" width="71.9" height="20.24"/><rect class="cls-3" x="106.62" y="375.17" width="4.03" height="15.49"/><circle class="cls-4" cx="114.11" cy="378.43" r="1.28"/><circle class="cls-4" cx="114.11" cy="383.91" r="1.28"/><rect class="cls-3" x="120.5" y="377.15" width="3.96" height="11.9"/><rect class="cls-3" x="126.22" y="377.15" width="3.96" height="11.9"/><rect class="cls-3" x="131.93" y="377.15" width="3.96" height="11.9"/><rect class="cls-3" x="137.65" y="377.15" width="3.96" height="11.9"/><rect class="cls-3" x="143.36" y="377.15" width="3.96" height="11.9"/><rect class="cls-3" x="149.08" y="377.15" width="3.96" height="11.9"/><rect class="cls-3" x="154.79" y="377.15" width="3.96" height="11.9"/><rect class="cls-3" x="160.51" y="377.15" width="3.96" height="11.9"/><rect class="cls-3" x="166.22" y="377.15" width="3.96" height="11.9"/><rect class="cls-3" x="171.94" y="377.15" width="3.96" height="11.9"/><path class="cls-2" d="M149.08,178.09a2.49,2.49,0,0,1-.08-.63c0-.41-.06-1-.08-1.79s0-1.74-.09-2.84a18.58,18.58,0,0,0-.49-3.69,13.39,13.39,0,0,0-1.92-4,8.89,8.89,0,0,0-3.94-3.16,18.63,18.63,0,0,0-5.58-1.13l-6.19-.54c-8.49-.74-16.18-1.21-21.76-1.32-2.79-.06-5,0-6.61,0l-1.79,0a3.44,3.44,0,0,1-.63,0,2.34,2.34,0,0,1,.62-.08l1.8-.11c1.56-.07,3.82-.14,6.62-.12,5.59,0,13.3.43,21.8,1.16l6.19.55a19.42,19.42,0,0,1,5.72,1.2,9.25,9.25,0,0,1,4.1,3.35,13.38,13.38,0,0,1,1.92,4.19,17.36,17.36,0,0,1,.43,3.77c0,1.12,0,2.07,0,2.85s0,1.33,0,1.8A3.07,3.07,0,0,1,149.08,178.09Z"/><path class="cls-2" d="M127.27,178.09a2.08,2.08,0,0,1,0-.59c0-.45,0-1,0-1.69s0-1.64-.09-2.67a8.11,8.11,0,0,0-.88-3.32,6.34,6.34,0,0,0-3.24-2.49,8.86,8.86,0,0,0-4.72-.48,8.1,8.1,0,0,0-2.44.83,4.65,4.65,0,0,0-1.89,1.79,2.55,2.55,0,0,0,0,2.51,3.35,3.35,0,0,0,2.14,1.6,2.7,2.7,0,0,0,2.49-.72A3.61,3.61,0,0,0,119,168a5.38,5.38,0,0,0-1.89-1.67,6.85,6.85,0,0,0-2.37-.61c-.81-.12-1.6-.23-2.37-.32-1.53-.17-3-.27-4.26-.32-2.62-.11-4.75-.07-6.22-.07h-1.69a2.52,2.52,0,0,1-.59,0,2.49,2.49,0,0,1,.59-.07l1.69-.09c1.47-.06,3.59-.15,6.23-.09,1.31,0,2.76.11,4.3.26.77.08,1.57.18,2.38.29.42.07.82.12,1.25.2a4.78,4.78,0,0,1,1.27.44,5.73,5.73,0,0,1,2.08,1.81,4.14,4.14,0,0,1,.85,2.77,4.2,4.2,0,0,1-1.27,2.72,3.23,3.23,0,0,1-3,.85,3.87,3.87,0,0,1-2.47-1.86,3.05,3.05,0,0,1,0-3,5.14,5.14,0,0,1,2.1-2,8.64,8.64,0,0,1,2.6-.86,9.32,9.32,0,0,1,5,.55,6.74,6.74,0,0,1,3.4,2.7,8.28,8.28,0,0,1,.85,3.49c.06,1,0,1.95,0,2.69s-.06,1.25-.08,1.69A3.86,3.86,0,0,1,127.27,178.09Z"/><path class="cls-2" d="M155,178.09a3.22,3.22,0,0,1-.15-.67c-.08-.44-.21-1.09-.39-1.92a37.51,37.51,0,0,0-2.12-6.85,20,20,0,0,0-6.26-8.39,11.81,11.81,0,0,0-5.72-2.18,61.08,61.08,0,0,0-6.74-.36c-9.29-.17-17.71-.14-23.81-.38-3-.11-5.51-.26-7.21-.38l-2-.17a3,3,0,0,1-.68-.09,3.32,3.32,0,0,1,.69,0l2,.07c1.7.06,4.16.15,7.2.21,6.09.15,14.51.06,23.81.23a60.36,60.36,0,0,1,6.8.38,12.19,12.19,0,0,1,5.94,2.3,18.11,18.11,0,0,1,4,4.19,24.84,24.84,0,0,1,2.35,4.43,35.17,35.17,0,0,1,2,7c.15.84.24,1.5.29,1.94A3.25,3.25,0,0,1,155,178.09Z"/><rect class="cls-2" x="105.6" y="139.76" width="69.92" height="10.15"/><rect class="cls-3" x="120.98" y="144.84" width="38.07" height="5.08"/></g><g id="Floor"><path class="cls-5" d="M643.42,396.36c0,.14-144,.26-321.7.26S0,396.5,0,396.36s144-.26,321.72-.26S643.42,396.21,643.42,396.36Z"/></g><g id="Plants"><path class="cls-6" d="M590.59,271.38s-5.76-3.74-12.64,10-9.45,21.7-9.45,21.7-1.83,2.89-3.82,1S560,297,556.6,298s-4.58,4.91-3.87,10.61,1.81,18.25,1.9,19.38-.53,2.77-2.09,1.71-10.55-10.9-15-6.35.17,20.1.64,21.81.14,2.45-.67,2.88-3.53-3.17-6.2-5.87-6.24-5.35-8.57-2.51-3,14.54,8.3,33.45l5.81,8.42,10.25-.66c21.85-2.73,30.67-10.45,31.48-14s-3.5-4.76-7.27-5.21-8.27-.37-8.43-1.27.22-1.62,1.85-2.3,16.72-6.64,17.59-12.92-12.44-7.31-14.23-7.89-.87-2.09.07-2.7,11.51-7.48,16.44-10.43,7.32-6.22,6-9.59-7.16-2.14-9.85-2.56-1.53-3.64-1.53-3.64,4.66-6.92,11.28-20.81,0-16.16,0-16.16"/><path class="cls-5" d="M584.42,283.7s0,.11-.13.3-.22.49-.39.86l-1.54,3.3c-1.34,2.86-3.31,7-5.76,12.09-4.9,10.18-11.79,24.19-19.46,39.64s-14.59,29.46-19.54,39.61l-5.86,12-1.6,3.27-.43.84c-.09.19-.15.29-.15.29l.12-.3.39-.86,1.54-3.3c1.34-2.86,3.31-7,5.76-12.08,4.91-10.19,11.8-24.2,19.46-39.66s14.59-29.44,19.55-39.6l5.86-12c.69-1.41,1.22-2.51,1.6-3.27l.42-.84Z"/><path class="cls-5" d="M560.15,305.53a3.8,3.8,0,0,1,.26.69c.16.45.36,1.11.6,1.93.48,1.63,1.08,3.9,1.7,6.41l1.56,6.45q.27,1.15.48,1.95a3.35,3.35,0,0,1,.14.73,3.33,3.33,0,0,1-.27-.69c-.16-.45-.36-1.11-.59-1.93-.46-1.63-1-3.91-1.65-6.42s-1.18-4.71-1.6-6.44c-.2-.77-.36-1.42-.49-1.95A2.3,2.3,0,0,1,560.15,305.53Z"/><path class="cls-5" d="M565.83,323.86c0-.09,4.6-1.54,10.33-3.24s10.39-3,10.42-2.91-4.6,1.54-10.33,3.24S565.86,324,565.83,323.86Z"/><path class="cls-5" d="M553,347.06a3.54,3.54,0,0,1,.76-.05h2c1.73,0,4.12,0,6.76-.16s5-.31,6.75-.46l2.05-.17a3.55,3.55,0,0,1,.75,0,2.69,2.69,0,0,1-.74.16c-.48.08-1.17.18-2,.28-1.72.21-4.11.44-6.76.56s-5.05.11-6.78.07c-.87,0-1.57-.06-2.06-.1A2.6,2.6,0,0,1,553,347.06Z"/><path class="cls-5" d="M544.2,331.62a2.35,2.35,0,0,1,.41.56c.25.38.59.93,1,1.61.84,1.37,2,3.27,3.21,5.37s2.34,4,3.12,5.43c.39.7.7,1.27.91,1.66a2.2,2.2,0,0,1,.29.64,3.09,3.09,0,0,1-.41-.57c-.24-.37-.58-.92-1-1.61-.84-1.36-2-3.26-3.21-5.37s-2.34-4-3.12-5.43c-.39-.69-.71-1.26-.92-1.66A3.36,3.36,0,0,1,544.2,331.62Z"/><path class="cls-5" d="M530.26,350.66a3,3,0,0,1,.52.73l1.3,2.05c1.08,1.75,2.55,4.17,4.16,6.86s3.06,5.13,4.08,6.91c.49.84.89,1.55,1.21,2.11a5.13,5.13,0,0,1,.4.8,4.33,4.33,0,0,1-.52-.73l-1.3-2.06c-1.08-1.74-2.55-4.16-4.16-6.85s-3.05-5.13-4.08-6.91l-1.2-2.11A5.3,5.3,0,0,1,530.26,350.66Z"/><path class="cls-5" d="M541.78,369.58a4.58,4.58,0,0,1,1-.08l2.6-.12c2.2-.09,5.23-.23,8.58-.48s6.36-.54,8.55-.77l2.59-.27a5.6,5.6,0,0,1,1-.06,4.32,4.32,0,0,1-.93.19c-.61.11-1.49.24-2.58.38-2.18.29-5.21.63-8.56.88s-6.39.35-8.59.38h-2.6A5.61,5.61,0,0,1,541.78,369.58Z"/><path class="cls-6" d="M95.54,368.77a16.54,16.54,0,0,0-10.27-1.32,8.53,8.53,0,0,0-5.1,2.23c-1.28,1.39-1.53,3.86-.09,5.07a4.94,4.94,0,0,0,3.2.84c2.72,0,5.74-.47,7.9,1.18,1.23.94,2,2.49,3.52,3a3.51,3.51,0,0,0,3.87-1.68,6,6,0,0,0,.46-4.42A6.73,6.73,0,0,0,95.54,368.77Z"/><g class="cls-7"><path d="M95.54,368.77a16.54,16.54,0,0,0-10.27-1.32,8.53,8.53,0,0,0-5.1,2.23c-1.28,1.39-1.53,3.86-.09,5.07a4.94,4.94,0,0,0,3.2.84c2.72,0,5.74-.47,7.9,1.18,1.23.94,2,2.49,3.52,3a3.51,3.51,0,0,0,3.87-1.68,6,6,0,0,0,.46-4.42A6.73,6.73,0,0,0,95.54,368.77Z"/></g><path class="cls-6" d="M102.8,355c-1.93,2.72-5.64,1.79-7.35.11S93,351,92.38,348.69c-1.48-5.28-3-10.81-1.8-16.16a8.86,8.86,0,0,1,2.09-4.38,4.68,4.68,0,0,1,4.45-1.45c1.87.51,3,2.36,3.85,4.11a38.48,38.48,0,0,1,3.69,16.54c0,2.66-.34,5.45-1.86,7.64"/><g class="cls-7"><path class="cls-8" d="M102.8,355c-1.93,2.72-5.64,1.79-7.35.11S93,351,92.38,348.69c-1.48-5.28-3-10.81-1.8-16.16a8.86,8.86,0,0,1,2.09-4.38,4.68,4.68,0,0,1,4.45-1.45c1.87.51,3,2.36,3.85,4.11a38.48,38.48,0,0,1,3.69,16.54c0,2.66-.34,5.45-1.86,7.64"/></g><path class="cls-6" d="M108,358.94a9.94,9.94,0,0,1-1.49-9.15A17.68,17.68,0,0,1,112,342a29.15,29.15,0,0,1,9.74-5.66,10.44,10.44,0,0,1,4.37-.71,4.58,4.58,0,0,1,3.65,2.24c1,2,0,4.31-1.06,6.23a75.11,75.11,0,0,1-6.44,9.66c-1.93,2.45-4.13,4.86-7,5.95s-5.94.94-7.47-1.09"/><path class="cls-5" d="M102.64,396.19a6.42,6.42,0,0,1-.16-1.24c-.08-.91-.19-2-.31-3.39a50.18,50.18,0,0,0-.72-5,39.34,39.34,0,0,0-1.77-5.87,21.7,21.7,0,0,0-3-5.33A11.06,11.06,0,0,0,93,372.21a10.53,10.53,0,0,0-3.18-1,6.16,6.16,0,0,1-1.23-.18,5.23,5.23,0,0,1,1.25,0,9.75,9.75,0,0,1,3.32.88,11.21,11.21,0,0,1,4,3.21,21,21,0,0,1,3.07,5.43,36.92,36.92,0,0,1,1.75,6,41.9,41.9,0,0,1,.62,5c.1,1.44.13,2.6.15,3.41A5.34,5.34,0,0,1,102.64,396.19Z"/><path class="cls-5" d="M102.43,393.58a2.12,2.12,0,0,1,0-.57c0-.44,0-1,0-1.65,0-1.43,0-3.5,0-6.05-.09-5.11-.48-12.16-1.27-19.92s-1.89-14.74-2.89-19.75c-.23-1.26-.47-2.39-.7-3.38s-.39-1.84-.57-2.54-.28-1.18-.37-1.6a2.37,2.37,0,0,1-.1-.57,2.71,2.71,0,0,1,.2.54l.46,1.59c.21.68.42,1.53.66,2.52s.52,2.11.78,3.37a188.9,188.9,0,0,1,3,19.77c.79,7.77,1.13,14.84,1.13,20,0,2.56-.06,4.64-.14,6.07,0,.66-.08,1.21-.11,1.64A2.29,2.29,0,0,1,102.43,393.58Z"/><path class="cls-5" d="M102.49,379.94a9.82,9.82,0,0,1,0-1.72c.07-1.1.24-2.7.56-4.65a61.06,61.06,0,0,1,1.57-6.78,59.4,59.4,0,0,1,2.89-8A43,43,0,0,1,116,345.85a19.54,19.54,0,0,1,2-1.81c.3-.26.57-.51.84-.71l.76-.52a10,10,0,0,1,1.46-.91,50.63,50.63,0,0,0-4.78,4.2A45.18,45.18,0,0,0,108,359a64.75,64.75,0,0,0-2.91,7.94c-.76,2.49-1.27,4.78-1.66,6.71s-.59,3.52-.72,4.61A11.87,11.87,0,0,1,102.49,379.94Z"/></g><g id="Server"><path class="cls-5" d="M266.61,98.5c-.14,0-.26-11-.26-24.65s.12-24.64.26-24.64.26,11,.26,24.64S266.75,98.5,266.61,98.5Z"/><rect class="cls-5" x="407.01" y="265.61" width="112.71" height="123.66"/><rect class="cls-9" x="390.55" y="290.34" width="123.21" height="30.57"/><rect class="cls-5" x="396.02" y="296.64" width="24.26" height="3.73"/><rect class="cls-5" x="396.02" y="303.06" width="24.26" height="3.73"/><rect class="cls-5" x="396.02" y="309.7" width="24.26" height="3.73"/><path class="cls-5" d="M429.88,298.89a1.4,1.4,0,1,1-1.39-1.39A1.4,1.4,0,0,1,429.88,298.89Z"/><path class="cls-5" d="M436,298.89a1.4,1.4,0,1,1-1.39-1.39A1.4,1.4,0,0,1,436,298.89Z"/><path class="cls-5" d="M442.16,298.89a1.39,1.39,0,1,1-1.39-1.39A1.4,1.4,0,0,1,442.16,298.89Z"/><path class="cls-5" d="M448.3,298.89a1.39,1.39,0,1,1-1.39-1.39A1.4,1.4,0,0,1,448.3,298.89Z"/><path class="cls-5" d="M495.89,298.89a1.39,1.39,0,1,1-1.39-1.39A1.4,1.4,0,0,1,495.89,298.89Z"/><path class="cls-5" d="M502.15,298.89a1.39,1.39,0,1,1-1.39-1.39A1.4,1.4,0,0,1,502.15,298.89Z"/><path class="cls-5" d="M454.44,298.89a1.39,1.39,0,1,1-1.39-1.39A1.4,1.4,0,0,1,454.44,298.89Z"/><path class="cls-5" d="M484.6,298.89a1.39,1.39,0,1,1-1.39-1.39A1.4,1.4,0,0,1,484.6,298.89Z"/><path class="cls-3" d="M460.58,298.89a1.39,1.39,0,1,1-1.39-1.39A1.4,1.4,0,0,1,460.58,298.89Z"/><path class="cls-3" d="M466.72,298.89a1.39,1.39,0,1,1-1.39-1.39A1.4,1.4,0,0,1,466.72,298.89Z"/><path class="cls-3" d="M479.18,298.89a1.39,1.39,0,1,1-1.39-1.39A1.4,1.4,0,0,1,479.18,298.89Z"/><path class="cls-3" d="M507.25,298.89a1.4,1.4,0,1,1-1.39-1.39A1.4,1.4,0,0,1,507.25,298.89Z"/><path class="cls-6" d="M472.87,298.89a1.4,1.4,0,1,1-1.4-1.39A1.4,1.4,0,0,1,472.87,298.89Z"/><path class="cls-6" d="M490.45,298.89a1.39,1.39,0,1,1-1.39-1.39A1.4,1.4,0,0,1,490.45,298.89Z"/><path class="cls-5" d="M504.46,305.6a1.4,1.4,0,1,1,1.4,1.39A1.4,1.4,0,0,1,504.46,305.6Z"/><path class="cls-5" d="M498.32,305.6a1.4,1.4,0,1,1,1.39,1.39A1.39,1.39,0,0,1,498.32,305.6Z"/><path class="cls-5" d="M492.18,305.6a1.39,1.39,0,1,1,1.39,1.39A1.39,1.39,0,0,1,492.18,305.6Z"/><path class="cls-5" d="M486,305.6a1.39,1.39,0,1,1,1.39,1.39A1.39,1.39,0,0,1,486,305.6Z"/><path class="cls-5" d="M438.45,305.6a1.39,1.39,0,1,1,1.39,1.39A1.39,1.39,0,0,1,438.45,305.6Z"/><path class="cls-5" d="M432.19,305.6a1.39,1.39,0,1,1,1.39,1.39A1.39,1.39,0,0,1,432.19,305.6Z"/><path class="cls-5" d="M479.9,305.6a1.39,1.39,0,1,1,1.39,1.39A1.39,1.39,0,0,1,479.9,305.6Z"/><path class="cls-5" d="M449.74,305.6a1.39,1.39,0,1,1,1.39,1.39A1.39,1.39,0,0,1,449.74,305.6Z"/><path class="cls-3" d="M473.76,305.6a1.39,1.39,0,1,1,1.39,1.39A1.39,1.39,0,0,1,473.76,305.6Z"/><path class="cls-3" d="M467.62,305.6A1.39,1.39,0,1,1,469,307,1.39,1.39,0,0,1,467.62,305.6Z"/><path class="cls-3" d="M455.16,305.6a1.39,1.39,0,1,1,1.39,1.39A1.39,1.39,0,0,1,455.16,305.6Z"/><path class="cls-3" d="M427.09,305.6a1.4,1.4,0,1,1,1.4,1.39A1.4,1.4,0,0,1,427.09,305.6Z"/><path class="cls-6" d="M461.48,305.6a1.39,1.39,0,1,1,1.39,1.39A1.39,1.39,0,0,1,461.48,305.6Z"/><path class="cls-6" d="M443.89,305.6a1.4,1.4,0,1,1,1.39,1.39A1.39,1.39,0,0,1,443.89,305.6Z"/><circle class="cls-5" cx="428.49" cy="311.57" r="1.39"/><circle class="cls-5" cx="434.63" cy="311.57" r="1.39"/><circle class="cls-5" cx="440.77" cy="311.57" r="1.39"/><circle class="cls-5" cx="446.91" cy="311.57" r="1.39"/><circle class="cls-5" cx="494.5" cy="311.57" r="1.39"/><circle class="cls-5" cx="500.76" cy="311.57" r="1.39"/><circle class="cls-5" cx="453.05" cy="311.57" r="1.39"/><path class="cls-5" d="M484.6,311.57a1.39,1.39,0,1,1-1.39-1.39A1.39,1.39,0,0,1,484.6,311.57Z"/><circle class="cls-3" cx="459.19" cy="311.57" r="1.39"/><path class="cls-3" d="M466.72,311.57a1.39,1.39,0,1,1-1.39-1.39A1.39,1.39,0,0,1,466.72,311.57Z"/><circle class="cls-3" cx="477.79" cy="311.57" r="1.39"/><path class="cls-3" d="M507.25,311.57a1.4,1.4,0,1,1-1.39-1.39A1.39,1.39,0,0,1,507.25,311.57Z"/><circle class="cls-6" cx="471.47" cy="311.57" r="1.39"/><circle class="cls-6" cx="489.06" cy="311.57" r="1.39"/><rect class="cls-9" x="390.55" y="328.07" width="123.21" height="30.57"/><path class="cls-5" d="M429.57,336.31a1.39,1.39,0,1,1-1.39-1.39A1.39,1.39,0,0,1,429.57,336.31Z"/><path class="cls-5" d="M435.71,336.31a1.39,1.39,0,1,1-1.39-1.39A1.39,1.39,0,0,1,435.71,336.31Z"/><path class="cls-5" d="M441.85,336.31a1.39,1.39,0,1,1-1.39-1.39A1.39,1.39,0,0,1,441.85,336.31Z"/><path class="cls-5" d="M448,336.31a1.4,1.4,0,1,1-1.4-1.39A1.4,1.4,0,0,1,448,336.31Z"/><path class="cls-5" d="M495.58,336.31a1.39,1.39,0,1,1-1.39-1.39A1.39,1.39,0,0,1,495.58,336.31Z"/><path class="cls-5" d="M501.85,336.31a1.4,1.4,0,1,1-1.4-1.39A1.4,1.4,0,0,1,501.85,336.31Z"/><path class="cls-5" d="M454.14,336.31a1.4,1.4,0,1,1-1.4-1.39A1.4,1.4,0,0,1,454.14,336.31Z"/><path class="cls-5" d="M484.3,336.31a1.4,1.4,0,1,1-1.4-1.39A1.4,1.4,0,0,1,484.3,336.31Z"/><path class="cls-3" d="M460.28,336.31a1.4,1.4,0,1,1-1.39-1.39A1.39,1.39,0,0,1,460.28,336.31Z"/><path class="cls-3" d="M466.42,336.31a1.39,1.39,0,1,1-1.39-1.39A1.39,1.39,0,0,1,466.42,336.31Z"/><path class="cls-3" d="M478.88,336.31a1.39,1.39,0,1,1-1.39-1.39A1.39,1.39,0,0,1,478.88,336.31Z"/><path class="cls-3" d="M506.94,336.31a1.39,1.39,0,1,1-1.39-1.39A1.39,1.39,0,0,1,506.94,336.31Z"/><path class="cls-6" d="M472.56,336.31a1.39,1.39,0,1,1-1.39-1.39A1.39,1.39,0,0,1,472.56,336.31Z"/><path class="cls-6" d="M490.14,336.31a1.39,1.39,0,1,1-1.39-1.39A1.39,1.39,0,0,1,490.14,336.31Z"/><path class="cls-5" d="M504.16,343a1.39,1.39,0,1,1,1.39,1.39A1.39,1.39,0,0,1,504.16,343Z"/><path class="cls-5" d="M498,343a1.39,1.39,0,1,1,1.39,1.39A1.39,1.39,0,0,1,498,343Z"/><path class="cls-5" d="M491.88,343a1.39,1.39,0,1,1,1.39,1.39A1.39,1.39,0,0,1,491.88,343Z"/><path class="cls-5" d="M485.73,343a1.4,1.4,0,1,1,1.4,1.39A1.4,1.4,0,0,1,485.73,343Z"/><path class="cls-5" d="M438.15,343a1.39,1.39,0,1,1,1.39,1.39A1.39,1.39,0,0,1,438.15,343Z"/><path class="cls-5" d="M431.88,343a1.4,1.4,0,1,1,1.4,1.39A1.4,1.4,0,0,1,431.88,343Z"/><path class="cls-5" d="M479.59,343a1.4,1.4,0,1,1,1.4,1.39A1.4,1.4,0,0,1,479.59,343Z"/><path class="cls-5" d="M449.43,343a1.4,1.4,0,1,1,1.4,1.39A1.4,1.4,0,0,1,449.43,343Z"/><path class="cls-3" d="M473.45,343a1.4,1.4,0,1,1,1.39,1.39A1.39,1.39,0,0,1,473.45,343Z"/><path class="cls-3" d="M467.31,343a1.39,1.39,0,1,1,1.39,1.39A1.39,1.39,0,0,1,467.31,343Z"/><path class="cls-3" d="M454.85,343a1.39,1.39,0,1,1,1.39,1.39A1.39,1.39,0,0,1,454.85,343Z"/><path class="cls-3" d="M426.79,343a1.39,1.39,0,1,1,1.39,1.39A1.39,1.39,0,0,1,426.79,343Z"/><path class="cls-6" d="M461.17,343a1.39,1.39,0,1,1,1.39,1.39A1.39,1.39,0,0,1,461.17,343Z"/><path class="cls-6" d="M443.59,343a1.39,1.39,0,1,1,1.39,1.39A1.39,1.39,0,0,1,443.59,343Z"/><circle class="cls-5" cx="428.18" cy="348.99" r="1.39"/><circle class="cls-5" cx="434.32" cy="348.99" r="1.39"/><circle class="cls-5" cx="440.46" cy="348.99" r="1.39"/><circle class="cls-5" cx="446.6" cy="348.99" r="1.39"/><circle class="cls-5" cx="494.19" cy="348.99" r="1.39"/><circle class="cls-5" cx="500.45" cy="348.99" r="1.39"/><circle class="cls-5" cx="452.74" cy="348.99" r="1.39"/><circle class="cls-5" cx="482.9" cy="348.99" r="1.39"/><circle class="cls-3" cx="458.89" cy="348.99" r="1.39"/><circle class="cls-3" cx="465.03" cy="348.99" r="1.39"/><circle class="cls-3" cx="477.49" cy="348.99" r="1.39"/><path class="cls-3" d="M506.94,349a1.39,1.39,0,1,1-1.39-1.39A1.39,1.39,0,0,1,506.94,349Z"/><circle class="cls-6" cx="471.17" cy="348.99" r="1.39"/><circle class="cls-6" cx="488.75" cy="348.99" r="1.39"/><rect class="cls-5" x="396.02" y="334.36" width="24.26" height="3.73"/><rect class="cls-5" x="396.02" y="340.78" width="24.26" height="3.73"/><rect class="cls-5" x="396.02" y="347.42" width="24.26" height="3.73"/><rect class="cls-9" x="390.55" y="365.79" width="123.21" height="30.57"/><rect class="cls-5" x="396.02" y="372.08" width="24.26" height="3.73"/><rect class="cls-5" x="396.02" y="378.51" width="24.26" height="3.73"/><rect class="cls-5" x="396.02" y="385.15" width="24.26" height="3.73"/><path class="cls-5" d="M429.13,374a1.4,1.4,0,1,1-1.4-1.4A1.4,1.4,0,0,1,429.13,374Z"/><path class="cls-5" d="M435.27,374a1.4,1.4,0,1,1-1.4-1.4A1.4,1.4,0,0,1,435.27,374Z"/><path class="cls-5" d="M441.41,374a1.4,1.4,0,1,1-1.39-1.4A1.4,1.4,0,0,1,441.41,374Z"/><path class="cls-5" d="M447.55,374a1.39,1.39,0,1,1-1.39-1.4A1.39,1.39,0,0,1,447.55,374Z"/><path class="cls-5" d="M495.14,374a1.4,1.4,0,1,1-1.39-1.4A1.4,1.4,0,0,1,495.14,374Z"/><path class="cls-5" d="M501.4,374a1.39,1.39,0,1,1-1.39-1.4A1.39,1.39,0,0,1,501.4,374Z"/><path class="cls-5" d="M453.69,374a1.39,1.39,0,1,1-1.39-1.4A1.39,1.39,0,0,1,453.69,374Z"/><path class="cls-5" d="M483.85,374a1.39,1.39,0,1,1-1.39-1.4A1.39,1.39,0,0,1,483.85,374Z"/><path class="cls-3" d="M459.83,374a1.39,1.39,0,1,1-1.39-1.4A1.39,1.39,0,0,1,459.83,374Z"/><path class="cls-3" d="M466,374a1.39,1.39,0,1,1-1.39-1.4A1.39,1.39,0,0,1,466,374Z"/><path class="cls-3" d="M478.43,374a1.39,1.39,0,1,1-1.39-1.4A1.39,1.39,0,0,1,478.43,374Z"/><path class="cls-3" d="M506.5,374a1.4,1.4,0,1,1-1.4-1.4A1.4,1.4,0,0,1,506.5,374Z"/><path class="cls-6" d="M472.11,374a1.39,1.39,0,1,1-1.39-1.4A1.39,1.39,0,0,1,472.11,374Z"/><path class="cls-6" d="M489.7,374a1.4,1.4,0,1,1-1.39-1.4A1.4,1.4,0,0,1,489.7,374Z"/><path class="cls-5" d="M503.71,380.74a1.4,1.4,0,1,1,1.39,1.4A1.4,1.4,0,0,1,503.71,380.74Z"/><path class="cls-5" d="M497.57,380.74a1.39,1.39,0,1,1,1.39,1.4A1.39,1.39,0,0,1,497.57,380.74Z"/><path class="cls-5" d="M491.43,380.74a1.39,1.39,0,1,1,1.39,1.4A1.39,1.39,0,0,1,491.43,380.74Z"/><path class="cls-5" d="M485.29,380.74a1.39,1.39,0,1,1,1.39,1.4A1.39,1.39,0,0,1,485.29,380.74Z"/><path class="cls-5" d="M437.7,380.74a1.39,1.39,0,1,1,1.39,1.4A1.39,1.39,0,0,1,437.7,380.74Z"/><path class="cls-5" d="M431.44,380.74a1.39,1.39,0,1,1,1.39,1.4A1.39,1.39,0,0,1,431.44,380.74Z"/><path class="cls-5" d="M479.15,380.74a1.39,1.39,0,1,1,1.39,1.4A1.39,1.39,0,0,1,479.15,380.74Z"/><path class="cls-5" d="M449,380.74a1.39,1.39,0,1,1,1.39,1.4A1.39,1.39,0,0,1,449,380.74Z"/><path class="cls-3" d="M473,380.74a1.39,1.39,0,1,1,1.39,1.4A1.39,1.39,0,0,1,473,380.74Z"/><path class="cls-3" d="M466.87,380.74a1.39,1.39,0,1,1,1.39,1.4A1.39,1.39,0,0,1,466.87,380.74Z"/><path class="cls-3" d="M454.41,380.74a1.39,1.39,0,1,1,1.39,1.4A1.39,1.39,0,0,1,454.41,380.74Z"/><path class="cls-3" d="M426.34,380.74a1.4,1.4,0,1,1,1.39,1.4A1.4,1.4,0,0,1,426.34,380.74Z"/><path class="cls-6" d="M460.72,380.74a1.4,1.4,0,1,1,1.4,1.4A1.4,1.4,0,0,1,460.72,380.74Z"/><path class="cls-6" d="M443.14,380.74a1.39,1.39,0,1,1,1.39,1.4A1.39,1.39,0,0,1,443.14,380.74Z"/><path class="cls-5" d="M429.13,386.71a1.4,1.4,0,1,1-1.4-1.39A1.4,1.4,0,0,1,429.13,386.71Z"/><path class="cls-5" d="M435.27,386.71a1.4,1.4,0,1,1-1.4-1.39A1.4,1.4,0,0,1,435.27,386.71Z"/><path class="cls-5" d="M441.41,386.71a1.4,1.4,0,1,1-1.39-1.39A1.39,1.39,0,0,1,441.41,386.71Z"/><path class="cls-5" d="M447.55,386.71a1.39,1.39,0,1,1-1.39-1.39A1.39,1.39,0,0,1,447.55,386.71Z"/><path class="cls-5" d="M495.14,386.71a1.4,1.4,0,1,1-1.39-1.39A1.39,1.39,0,0,1,495.14,386.71Z"/><path class="cls-5" d="M501.4,386.71a1.39,1.39,0,1,1-1.39-1.39A1.39,1.39,0,0,1,501.4,386.71Z"/><path class="cls-5" d="M453.69,386.71a1.39,1.39,0,1,1-1.39-1.39A1.39,1.39,0,0,1,453.69,386.71Z"/><path class="cls-5" d="M483.85,386.71a1.39,1.39,0,1,1-1.39-1.39A1.39,1.39,0,0,1,483.85,386.71Z"/><path class="cls-3" d="M459.83,386.71a1.39,1.39,0,1,1-1.39-1.39A1.39,1.39,0,0,1,459.83,386.71Z"/><path class="cls-3" d="M466,386.71a1.39,1.39,0,1,1-1.39-1.39A1.39,1.39,0,0,1,466,386.71Z"/><path class="cls-3" d="M478.43,386.71a1.39,1.39,0,1,1-1.39-1.39A1.39,1.39,0,0,1,478.43,386.71Z"/><path class="cls-3" d="M506.5,386.71a1.4,1.4,0,1,1-1.4-1.39A1.4,1.4,0,0,1,506.5,386.71Z"/><path class="cls-6" d="M472.11,386.71a1.39,1.39,0,1,1-1.39-1.39A1.39,1.39,0,0,1,472.11,386.71Z"/><path class="cls-6" d="M489.7,386.71a1.4,1.4,0,1,1-1.39-1.39A1.39,1.39,0,0,1,489.7,386.71Z"/><polygon class="cls-5" points="532.28 320.86 513.76 320.91 513.76 290.34 532.28 290.29 532.28 320.86"/><polygon class="cls-5" points="532.28 283.69 513.76 283.74 513.76 253.18 532.28 253.13 532.28 283.69"/><polygon class="cls-5" points="532.28 358.35 513.76 358.4 513.76 327.83 532.28 327.78 532.28 358.35"/><polygon class="cls-5" points="532.28 396.31 513.76 396.36 513.76 365.79 532.28 365.74 532.28 396.31"/><rect class="cls-9" x="391.45" y="252.89" width="123.21" height="30.57"/><rect class="cls-5" x="396.92" y="259.19" width="24.26" height="3.73"/><rect class="cls-5" x="396.92" y="265.61" width="24.26" height="3.73"/><rect class="cls-5" x="396.92" y="272.25" width="24.26" height="3.73"/><path class="cls-5" d="M430.77,261.44a1.39,1.39,0,1,1-1.39-1.39A1.4,1.4,0,0,1,430.77,261.44Z"/><path class="cls-5" d="M436.91,261.44a1.39,1.39,0,1,1-1.39-1.39A1.4,1.4,0,0,1,436.91,261.44Z"/><path class="cls-5" d="M443.05,261.44a1.39,1.39,0,1,1-1.39-1.39A1.4,1.4,0,0,1,443.05,261.44Z"/><path class="cls-5" d="M449.19,261.44a1.39,1.39,0,1,1-1.39-1.39A1.4,1.4,0,0,1,449.19,261.44Z"/><path class="cls-5" d="M496.78,261.44a1.39,1.39,0,1,1-1.39-1.39A1.4,1.4,0,0,1,496.78,261.44Z"/><path class="cls-5" d="M503,261.44a1.39,1.39,0,1,1-1.39-1.39A1.4,1.4,0,0,1,503,261.44Z"/><path class="cls-5" d="M455.33,261.44a1.39,1.39,0,1,1-1.39-1.39A1.4,1.4,0,0,1,455.33,261.44Z"/><path class="cls-5" d="M485.49,261.44a1.39,1.39,0,1,1-1.39-1.39A1.4,1.4,0,0,1,485.49,261.44Z"/><path class="cls-3" d="M461.47,261.44a1.39,1.39,0,1,1-1.39-1.39A1.4,1.4,0,0,1,461.47,261.44Z"/><path class="cls-3" d="M467.62,261.44a1.4,1.4,0,1,1-1.4-1.39A1.4,1.4,0,0,1,467.62,261.44Z"/><path class="cls-3" d="M480.08,261.44a1.4,1.4,0,1,1-1.4-1.39A1.4,1.4,0,0,1,480.08,261.44Z"/><path class="cls-3" d="M508.14,261.44a1.39,1.39,0,1,1-1.39-1.39A1.4,1.4,0,0,1,508.14,261.44Z"/><path class="cls-6" d="M473.76,261.44a1.4,1.4,0,1,1-1.39-1.39A1.4,1.4,0,0,1,473.76,261.44Z"/><path class="cls-6" d="M491.34,261.44a1.39,1.39,0,1,1-1.39-1.39A1.4,1.4,0,0,1,491.34,261.44Z"/><path class="cls-5" d="M505.36,268.15a1.39,1.39,0,1,1,1.39,1.39A1.39,1.39,0,0,1,505.36,268.15Z"/><path class="cls-5" d="M499.21,268.15a1.4,1.4,0,1,1,1.4,1.39A1.4,1.4,0,0,1,499.21,268.15Z"/><path class="cls-5" d="M493.07,268.15a1.4,1.4,0,1,1,1.4,1.39A1.4,1.4,0,0,1,493.07,268.15Z"/><path class="cls-5" d="M486.93,268.15a1.4,1.4,0,1,1,1.39,1.39A1.39,1.39,0,0,1,486.93,268.15Z"/><path class="cls-5" d="M439.34,268.15a1.4,1.4,0,1,1,1.39,1.39A1.39,1.39,0,0,1,439.34,268.15Z"/><path class="cls-5" d="M433.08,268.15a1.39,1.39,0,1,1,1.39,1.39A1.39,1.39,0,0,1,433.08,268.15Z"/><path class="cls-5" d="M480.79,268.15a1.39,1.39,0,1,1,1.39,1.39A1.39,1.39,0,0,1,480.79,268.15Z"/><path class="cls-5" d="M450.63,268.15a1.39,1.39,0,1,1,1.39,1.39A1.39,1.39,0,0,1,450.63,268.15Z"/><path class="cls-3" d="M474.65,268.15a1.39,1.39,0,1,1,1.39,1.39A1.39,1.39,0,0,1,474.65,268.15Z"/><path class="cls-3" d="M468.51,268.15a1.39,1.39,0,1,1,1.39,1.39A1.39,1.39,0,0,1,468.51,268.15Z"/><path class="cls-3" d="M456.05,268.15a1.39,1.39,0,1,1,1.39,1.39A1.39,1.39,0,0,1,456.05,268.15Z"/><path class="cls-3" d="M428,268.15a1.39,1.39,0,1,1,1.39,1.39A1.39,1.39,0,0,1,428,268.15Z"/><path class="cls-6" d="M462.37,268.15a1.39,1.39,0,1,1,1.39,1.39A1.39,1.39,0,0,1,462.37,268.15Z"/><path class="cls-6" d="M444.78,268.15a1.4,1.4,0,1,1,1.4,1.39A1.4,1.4,0,0,1,444.78,268.15Z"/><path class="cls-5" d="M430.77,274.12a1.39,1.39,0,1,1-1.39-1.39A1.39,1.39,0,0,1,430.77,274.12Z"/><path class="cls-5" d="M436.91,274.12a1.39,1.39,0,1,1-1.39-1.39A1.39,1.39,0,0,1,436.91,274.12Z"/><path class="cls-5" d="M443.05,274.12a1.39,1.39,0,1,1-1.39-1.39A1.39,1.39,0,0,1,443.05,274.12Z"/><path class="cls-5" d="M449.19,274.12a1.39,1.39,0,1,1-1.39-1.39A1.39,1.39,0,0,1,449.19,274.12Z"/><path class="cls-5" d="M496.78,274.12a1.39,1.39,0,1,1-1.39-1.39A1.39,1.39,0,0,1,496.78,274.12Z"/><path class="cls-5" d="M503,274.12a1.39,1.39,0,1,1-1.39-1.39A1.39,1.39,0,0,1,503,274.12Z"/><path class="cls-5" d="M455.33,274.12a1.39,1.39,0,1,1-1.39-1.39A1.39,1.39,0,0,1,455.33,274.12Z"/><path class="cls-5" d="M485.49,274.12a1.39,1.39,0,1,1-1.39-1.39A1.39,1.39,0,0,1,485.49,274.12Z"/><path class="cls-3" d="M461.47,274.12a1.39,1.39,0,1,1-1.39-1.39A1.39,1.39,0,0,1,461.47,274.12Z"/><path class="cls-3" d="M467.62,274.12a1.4,1.4,0,1,1-1.4-1.39A1.4,1.4,0,0,1,467.62,274.12Z"/><path class="cls-3" d="M480.08,274.12a1.4,1.4,0,1,1-1.4-1.39A1.4,1.4,0,0,1,480.08,274.12Z"/><path class="cls-3" d="M508.14,274.12a1.39,1.39,0,1,1-1.39-1.39A1.39,1.39,0,0,1,508.14,274.12Z"/><path class="cls-6" d="M473.76,274.12a1.4,1.4,0,1,1-1.39-1.39A1.39,1.39,0,0,1,473.76,274.12Z"/><path class="cls-6" d="M491.34,274.12a1.39,1.39,0,1,1-1.39-1.39A1.39,1.39,0,0,1,491.34,274.12Z"/><path class="cls-5" d="M311.82,33.74l1,0,3,0,11.61,0,42.71-.09,140.92-.07A30.89,30.89,0,0,1,521.28,35a27.85,27.85,0,0,1,8.9,4.9,29.35,29.35,0,0,1,10.16,16.73,49.29,49.29,0,0,1,.57,9.66q0,4.78,0,9.46,0,9.36,0,18.31c0,23.85,0,45.32,0,63.36q0,6.76,0,12.86c0,2,0,4,0,5.92a11.91,11.91,0,0,1-1.07,5.46,11.3,11.3,0,0,1-7.55,6.2,17.14,17.14,0,0,1-4.4.33h-4l-11.61-.05-3,0-1,0,1,0,3,0,11.61,0h4a17,17,0,0,0,4.34-.35,11,11,0,0,0,7.34-6.08,11.47,11.47,0,0,0,1-5.34c0-1.92,0-3.89,0-5.92q0-6.09,0-12.86c0-18,0-39.51-.06-63.36q0-8.94,0-18.31V66.33a47,47,0,0,0-.57-9.55,28.81,28.81,0,0,0-10-16.44,27.75,27.75,0,0,0-8.74-4.81,30.41,30.41,0,0,0-10-1.53l-140.92-.08-42.71-.08-11.61-.05-3,0Z"/><rect class="cls-1" x="210.96" y="99.86" width="96.61" height="295.95"/><polygon class="cls-2" points="383.79 395.81 307.58 395.81 307.44 99.86 383.79 99.86 383.79 395.81"/><rect class="cls-5" x="216.31" y="147.22" width="81.95" height="23.07"/><rect class="cls-9" x="218.6" y="150.12" width="4.59" height="17.66"/><path class="cls-8" d="M228.6,153.84a1.46,1.46,0,1,1-1.46-1.46A1.47,1.47,0,0,1,228.6,153.84Z"/><path class="cls-8" d="M228.6,160.08a1.46,1.46,0,1,1-1.46-1.46A1.47,1.47,0,0,1,228.6,160.08Z"/><rect class="cls-9" x="234.43" y="152.38" width="4.51" height="13.56"/><rect class="cls-9" x="240.94" y="152.38" width="4.51" height="13.56"/><rect class="cls-9" x="247.45" y="152.38" width="4.51" height="13.56"/><rect class="cls-9" x="253.97" y="152.38" width="4.51" height="13.56"/><rect class="cls-9" x="260.48" y="152.38" width="4.51" height="13.56"/><rect class="cls-9" x="267" y="152.38" width="4.51" height="13.56"/><rect class="cls-9" x="273.51" y="152.38" width="4.51" height="13.56"/><rect class="cls-9" x="280.02" y="152.38" width="4.51" height="13.56"/><rect class="cls-9" x="286.54" y="152.38" width="4.51" height="13.56"/><rect class="cls-9" x="293.05" y="152.38" width="4.51" height="13.56"/><rect class="cls-5" x="216.31" y="180.37" width="81.95" height="23.07"/><rect class="cls-9" x="218.6" y="183.27" width="4.59" height="17.66"/><path class="cls-8" d="M228.6,187a1.46,1.46,0,1,1-1.46-1.46A1.46,1.46,0,0,1,228.6,187Z"/><path class="cls-8" d="M228.6,193.22a1.46,1.46,0,1,1-1.46-1.46A1.46,1.46,0,0,1,228.6,193.22Z"/><rect class="cls-9" x="234.43" y="185.52" width="4.51" height="13.56"/><rect class="cls-9" x="240.94" y="185.52" width="4.51" height="13.56"/><rect class="cls-9" x="247.45" y="185.52" width="4.51" height="13.56"/><rect class="cls-9" x="253.97" y="185.52" width="4.51" height="13.56"/><rect class="cls-9" x="260.48" y="185.52" width="4.51" height="13.56"/><rect class="cls-9" x="267" y="185.52" width="4.51" height="13.56"/><rect class="cls-9" x="273.51" y="185.52" width="4.51" height="13.56"/><rect class="cls-9" x="280.02" y="185.52" width="4.51" height="13.56"/><rect class="cls-9" x="286.54" y="185.52" width="4.51" height="13.56"/><rect class="cls-9" x="293.05" y="185.52" width="4.51" height="13.56"/><rect class="cls-5" x="216.31" y="213.78" width="81.95" height="23.07"/><rect class="cls-9" x="218.6" y="216.68" width="4.59" height="17.66"/><path class="cls-8" d="M228.6,220.39a1.46,1.46,0,1,1-1.46-1.45A1.46,1.46,0,0,1,228.6,220.39Z"/><path class="cls-8" d="M228.6,226.63a1.46,1.46,0,1,1-1.46-1.45A1.46,1.46,0,0,1,228.6,226.63Z"/><rect class="cls-9" x="234.43" y="218.94" width="4.51" height="13.56"/><rect class="cls-9" x="240.94" y="218.94" width="4.51" height="13.56"/><rect class="cls-9" x="247.45" y="218.94" width="4.51" height="13.56"/><rect class="cls-9" x="253.97" y="218.94" width="4.51" height="13.56"/><rect class="cls-9" x="260.48" y="218.94" width="4.51" height="13.56"/><rect class="cls-9" x="267" y="218.94" width="4.51" height="13.56"/><rect class="cls-9" x="273.51" y="218.94" width="4.51" height="13.56"/><rect class="cls-9" x="280.02" y="218.94" width="4.51" height="13.56"/><rect class="cls-9" x="286.54" y="218.94" width="4.51" height="13.56"/><rect class="cls-9" x="293.05" y="218.94" width="4.51" height="13.56"/><rect class="cls-5" x="216.31" y="249.87" width="81.95" height="23.07"/><rect class="cls-9" x="218.6" y="252.77" width="4.59" height="17.66"/><path class="cls-8" d="M228.6,256.49a1.46,1.46,0,1,1-1.46-1.46A1.47,1.47,0,0,1,228.6,256.49Z"/><path class="cls-8" d="M228.6,262.73a1.46,1.46,0,1,1-1.46-1.46A1.46,1.46,0,0,1,228.6,262.73Z"/><rect class="cls-9" x="234.43" y="255.03" width="4.51" height="13.56"/><rect class="cls-9" x="240.94" y="255.03" width="4.51" height="13.56"/><rect class="cls-9" x="247.45" y="255.03" width="4.51" height="13.56"/><rect class="cls-9" x="253.97" y="255.03" width="4.51" height="13.56"/><rect class="cls-9" x="260.48" y="255.03" width="4.51" height="13.56"/><rect class="cls-9" x="267" y="255.03" width="4.51" height="13.56"/><rect class="cls-9" x="273.51" y="255.03" width="4.51" height="13.56"/><rect class="cls-9" x="280.02" y="255.03" width="4.51" height="13.56"/><rect class="cls-9" x="286.54" y="255.03" width="4.51" height="13.56"/><rect class="cls-9" x="293.05" y="255.03" width="4.51" height="13.56"/><rect class="cls-5" x="216.31" y="286.32" width="81.95" height="23.07"/><rect class="cls-9" x="218.6" y="289.22" width="4.59" height="17.66"/><path class="cls-8" d="M228.6,292.94a1.46,1.46,0,1,1-1.46-1.46A1.46,1.46,0,0,1,228.6,292.94Z"/><path class="cls-8" d="M228.6,299.18a1.46,1.46,0,1,1-1.46-1.46A1.46,1.46,0,0,1,228.6,299.18Z"/><rect class="cls-9" x="234.43" y="291.48" width="4.51" height="13.56"/><rect class="cls-9" x="240.94" y="291.48" width="4.51" height="13.56"/><rect class="cls-9" x="247.45" y="291.48" width="4.51" height="13.56"/><rect class="cls-9" x="253.97" y="291.48" width="4.51" height="13.56"/><rect class="cls-9" x="260.48" y="291.48" width="4.51" height="13.56"/><rect class="cls-9" x="267" y="291.48" width="4.51" height="13.56"/><rect class="cls-9" x="273.51" y="291.48" width="4.51" height="13.56"/><rect class="cls-9" x="280.02" y="291.48" width="4.51" height="13.56"/><rect class="cls-9" x="286.54" y="291.48" width="4.51" height="13.56"/><rect class="cls-9" x="293.05" y="291.48" width="4.51" height="13.56"/><rect class="cls-5" x="216.31" y="358.86" width="81.95" height="23.07"/><rect class="cls-9" x="218.6" y="361.76" width="4.59" height="17.66"/><path class="cls-8" d="M228.6,365.48a1.46,1.46,0,1,1-1.46-1.46A1.47,1.47,0,0,1,228.6,365.48Z"/><path class="cls-8" d="M228.6,371.72a1.46,1.46,0,1,1-1.46-1.46A1.47,1.47,0,0,1,228.6,371.72Z"/><rect class="cls-9" x="234.43" y="364.02" width="4.51" height="13.56"/><rect class="cls-9" x="240.94" y="364.02" width="4.51" height="13.56"/><rect class="cls-9" x="247.45" y="364.02" width="4.51" height="13.56"/><rect class="cls-9" x="253.97" y="364.02" width="4.51" height="13.56"/><rect class="cls-9" x="260.48" y="364.02" width="4.51" height="13.56"/><rect class="cls-9" x="267" y="364.02" width="4.51" height="13.56"/><rect class="cls-9" x="273.51" y="364.02" width="4.51" height="13.56"/><rect class="cls-9" x="280.02" y="364.02" width="4.51" height="13.56"/><rect class="cls-9" x="286.54" y="364.02" width="4.51" height="13.56"/><rect class="cls-9" x="293.05" y="364.02" width="4.51" height="13.56"/><rect class="cls-5" x="216.31" y="322.62" width="81.95" height="23.07"/><rect class="cls-9" x="218.6" y="325.52" width="4.59" height="17.66"/><path class="cls-8" d="M228.6,329.24a1.46,1.46,0,1,1-1.46-1.46A1.47,1.47,0,0,1,228.6,329.24Z"/><path class="cls-8" d="M228.6,335.48a1.46,1.46,0,1,1-1.46-1.46A1.47,1.47,0,0,1,228.6,335.48Z"/><rect class="cls-9" x="234.43" y="327.78" width="4.51" height="13.56"/><rect class="cls-9" x="240.94" y="327.78" width="4.51" height="13.56"/><rect class="cls-9" x="247.45" y="327.78" width="4.51" height="13.56"/><rect class="cls-9" x="253.97" y="327.78" width="4.51" height="13.56"/><rect class="cls-9" x="260.48" y="327.78" width="4.51" height="13.56"/><rect class="cls-9" x="267" y="327.78" width="4.51" height="13.56"/><rect class="cls-9" x="273.51" y="327.78" width="4.51" height="13.56"/><rect class="cls-9" x="280.02" y="327.78" width="4.51" height="13.56"/><rect class="cls-9" x="286.54" y="327.78" width="4.51" height="13.56"/><rect class="cls-9" x="293.05" y="327.78" width="4.51" height="13.56"/><path class="cls-5" d="M267,147.22a3.31,3.31,0,0,1-.09-.71c0-.47-.06-1.16-.08-2s0-2-.1-3.24a19.86,19.86,0,0,0-.56-4.21A14.77,14.77,0,0,0,264,132.4a10.28,10.28,0,0,0-4.49-3.62,21.78,21.78,0,0,0-6.37-1.29l-7.06-.61c-9.67-.84-18.44-1.38-24.8-1.49-3.18-.07-5.75,0-7.53,0l-2,0a4,4,0,0,1-.72,0,3.2,3.2,0,0,1,.72-.08l2-.12c1.78-.07,4.36-.15,7.54-.13,6.38,0,15.17.5,24.85,1.34l7.06.62a21.93,21.93,0,0,1,6.51,1.36,10.72,10.72,0,0,1,4.66,3.81,15.17,15.17,0,0,1,2.19,4.77,19.87,19.87,0,0,1,.49,4.29c0,1.27,0,2.36,0,3.25s0,1.53,0,2A5.61,5.61,0,0,1,267,147.22Z"/><path class="cls-5" d="M242.13,147.22a4.36,4.36,0,0,1,0-.67c0-.49,0-1.13,0-1.93s0-1.86-.09-3a9.26,9.26,0,0,0-1-3.8,7.25,7.25,0,0,0-3.7-2.85,10.13,10.13,0,0,0-5.4-.55,9.22,9.22,0,0,0-2.79,1,5.21,5.21,0,0,0-2.16,2,2.92,2.92,0,0,0,0,2.89,3.88,3.88,0,0,0,2.46,1.85,3.12,3.12,0,0,0,2.88-.83,4.28,4.28,0,0,0,1.29-2.74,4.17,4.17,0,0,0-.86-2.8,6.12,6.12,0,0,0-2.17-1.92,8,8,0,0,0-2.71-.69c-.92-.14-1.82-.26-2.69-.36-1.75-.2-3.38-.31-4.87-.37-3-.11-5.41-.07-7.08-.07h-1.93a3.84,3.84,0,0,1-.67,0,2.54,2.54,0,0,1,.67-.07l1.92-.1c1.68-.06,4.1-.17,7.1-.1,1.5,0,3.14.13,4.9.31.88.09,1.79.2,2.72.33l1.42.22a5.38,5.38,0,0,1,1.44.51,6.71,6.71,0,0,1,2.36,2.05,4.63,4.63,0,0,1-.49,6.21,3.64,3.64,0,0,1-3.34,1,4.38,4.38,0,0,1-2.8-2.1,3.44,3.44,0,0,1,0-3.39,5.69,5.69,0,0,1,2.37-2.25,9.85,9.85,0,0,1,2.95-1,10.6,10.6,0,0,1,5.64.62,7.6,7.6,0,0,1,3.86,3.07,9.55,9.55,0,0,1,1,4c.06,1.2,0,2.23,0,3.06s-.06,1.44-.08,1.93A2.94,2.94,0,0,1,242.13,147.22Z"/><path class="cls-5" d="M273.69,147.22a3.8,3.8,0,0,1-.17-.76c-.09-.5-.23-1.24-.43-2.19a43.13,43.13,0,0,0-2.41-7.82,22.73,22.73,0,0,0-7.14-9.57,13.41,13.41,0,0,0-6.53-2.49,68.09,68.09,0,0,0-7.69-.42c-10.59-.2-20.19-.15-27.13-.42-3.48-.12-6.28-.29-8.22-.42l-2.23-.19a4.5,4.5,0,0,1-.78-.1,4,4,0,0,1,.79,0l2.23.08c1.94.08,4.75.19,8.22.26,6.94.17,16.53.07,27.13.27a67.47,67.47,0,0,1,7.75.43,13.88,13.88,0,0,1,6.75,2.61,20.62,20.62,0,0,1,4.51,4.77,27.54,27.54,0,0,1,2.67,5.05,39.45,39.45,0,0,1,2.28,7.92c.17,1,.28,1.7.33,2.21A6.42,6.42,0,0,1,273.69,147.22Z"/><rect class="cls-5" x="217.44" y="103.54" width="79.7" height="11.57"/><rect class="cls-9" x="234.97" y="109.32" width="43.39" height="5.78"/><path class="cls-5" d="M329.65,343.49c0,.06-.87.14-2.4.59a20.8,20.8,0,0,0-6,2.95,17,17,0,0,0-3.38,3.14,11.71,11.71,0,0,0-1.38,2.14,13.62,13.62,0,0,0-.87,2.57c-.91,3.66-.64,7.84-.46,12.2s-.1,8.7-1.82,12.19a13.5,13.5,0,0,1-3.26,4.34,15.53,15.53,0,0,1-4,2.54,15.35,15.35,0,0,1-3.73,1.11,13.36,13.36,0,0,1-2.94.13,10.14,10.14,0,0,1-1.83-.29,3.16,3.16,0,0,1-.62-.19c0-.06.87.21,2.46.28a14.8,14.8,0,0,0,2.88-.21,15.21,15.21,0,0,0,3.63-1.17,15.55,15.55,0,0,0,3.86-2.52,13.26,13.26,0,0,0,3.1-4.23c1.65-3.39,1.92-7.63,1.74-12s-.45-8.59.51-12.33a15.46,15.46,0,0,1,.92-2.66,12,12,0,0,1,1.47-2.21,16.48,16.48,0,0,1,3.5-3.17,19.79,19.79,0,0,1,6.18-2.85,12.25,12.25,0,0,1,1.82-.34A2.81,2.81,0,0,1,329.65,343.49Z"/><rect class="cls-5" x="292.92" y="383.33" width="6.54" height="7.96"/><rect class="cls-9" x="329.65" y="323.39" width="36.69" height="40.2"/><circle class="cls-5" cx="348" cy="343.65" r="12.08" transform="translate(-62.66 609.27) rotate(-77.54)"/><path class="cls-9" d="M354,343.65a6,6,0,1,1-6-6A6,6,0,0,1,354,343.65Z"/><circle class="cls-5" cx="334.62" cy="329.63" r="1.12"/><circle class="cls-5" cx="360.73" cy="329.63" r="1.12"/><path class="cls-5" d="M362.09,359.31a1.12,1.12,0,1,1-1.12-1.12A1.13,1.13,0,0,1,362.09,359.31Z"/><circle class="cls-5" cx="334.62" cy="359.77" r="1.12"/><rect class="cls-5" x="366.34" y="323.39" width="2.96" height="40.2"/><path class="cls-6" d="M321.69,55.29c3.62-8.45,1.42-17.27-4.53-24.29a25.46,25.46,0,0,0-24.93-8.08A27.87,27.87,0,0,0,237,26.51,20.87,20.87,0,0,0,221,54.82Z"/><path class="cls-5" d="M530.11,271.13l.36,0,1,0,4-.05a22,22,0,0,0,6.27-.73,19.24,19.24,0,0,0,13.05-12.06,21.4,21.4,0,0,0,.77-2.66,19,19,0,0,0,.35-2.84c.11-1.93,0-4,0-6,0-8.27,0-17.35,0-26.89,0-2.38,0-4.74,0-7.06a27.46,27.46,0,0,0-.14-3.42,14.38,14.38,0,0,0-.77-3.25,15.54,15.54,0,0,0-8.48-9c-3.77-1.72-7.82-1.13-11.47-1.29l-10.23-.1-14.8-.19-4-.08-1.05,0-.36,0a1.41,1.41,0,0,1,.36,0l1.05,0,4,0,14.81,0,10.22,0,5.7,0a15.73,15.73,0,0,1,6,1.25,16,16,0,0,1,9.58,12.68,27,27,0,0,1,.13,3.48c0,2.32,0,4.68,0,7.06,0,9.54,0,18.62,0,26.89,0,2.07,0,4.07-.06,6.05a21.28,21.28,0,0,1-.37,2.9,20.79,20.79,0,0,1-.8,2.71,19.48,19.48,0,0,1-13.39,12.2,21.94,21.94,0,0,1-6.34.66l-4-.05-1,0Z"/><polygon class="cls-8" points="263.41 55 263.41 40.83 256.31 40.83 267 25.74 277.69 40.72 270.72 40.72 270.72 55 263.41 55"/></g><g id="Character"><polygon class="cls-2" points="506.55 238.74 514.09 248.59 528.47 242.24 519.27 227.48 506.55 238.74"/><polygon class="cls-9" points="511.02 239.9 511.25 244.78 516.01 247.01 515.76 242.01 511.02 239.9"/><polygon class="cls-9" points="515.53 237.17 515.76 242.05 520.52 244.28 520.27 239.28 515.53 237.17"/><polygon class="cls-9" points="520.12 234.44 520.35 239.32 525.1 241.55 524.86 236.55 520.12 234.44"/><path class="cls-6" d="M529,242l-1.64-2.51-14.09,8.91,3.33,5.57.92-.46c4.09-2.09,20.67-10.9,22.86-13.24C542.85,237.69,529,242,529,242Z"/><g class="cls-10"><path class="cls-8" d="M521.78,250.87a5.85,5.85,0,0,0-3.57-2.15,4.85,4.85,0,0,0-4.09,1.08l2.41,4Z"/></g><path class="cls-11" d="M535.91,240.13s5-1.26,4.88-.24S524.25,250.44,516.64,254l-.17-.34,19.25-10.95S535.1,240.65,535.91,240.13Z"/><path class="cls-5" d="M516.24,253.8l.26-.12.74-.37,2.68-1.41c2.25-1.2,5.34-2.9,8.71-4.85s6.39-3.8,8.56-5.15l2.55-1.63.68-.45.23-.17a1.34,1.34,0,0,0-.25.13l-.71.42c-.7.43-1.56,1-2.58,1.57-2.18,1.33-5.21,3.15-8.58,5.1s-6.45,3.68-8.68,4.91l-2.65,1.46-.72.4A1.55,1.55,0,0,0,516.24,253.8Z"/><path class="cls-5" d="M535.84,242.94a7,7,0,0,1-.23-1.53,6.33,6.33,0,0,1,.31-1.52,2.71,2.71,0,0,0-.08,3.05Z"/><path class="cls-5" d="M530.35,243.25c.06,0,.12-.36.13-.81a1.86,1.86,0,0,0-.06-.82c-.06,0-.12.36-.14.81S530.29,243.25,530.35,243.25Z"/><path class="cls-5" d="M528.83,243.31s.19-.26.31-.63.17-.68.12-.69-.19.26-.31.63S528.78,243.3,528.83,243.31Z"/><path class="cls-5" d="M527.3,242.38c0,.05.39-.1.81-.34s.73-.46.71-.51-.39.1-.81.34A2.28,2.28,0,0,0,527.3,242.38Z"/><path class="cls-5" d="M526.5,241.57a1.56,1.56,0,0,0,1-.24c.51-.24.84-.58.8-.62a6.75,6.75,0,0,0-.88.44A5.85,5.85,0,0,0,526.5,241.57Z"/><path class="cls-5" d="M530.11,241.72a3.24,3.24,0,0,0,.92-.55,6.52,6.52,0,0,0,.86-.78,3.74,3.74,0,0,0,.43-.56.65.65,0,0,0,.06-.42.42.42,0,0,0-.36-.29,2,2,0,0,0-1.8,1.71,1.88,1.88,0,0,0,0,.79.84.84,0,0,0,.12.27,3.28,3.28,0,0,1,0-1,1.87,1.87,0,0,1,.49-1,1.67,1.67,0,0,1,1.14-.56c.21,0,.26.23.15.42a3.36,3.36,0,0,1-.39.52,6.7,6.7,0,0,1-.81.8C530.45,241.48,530.09,241.69,530.11,241.72Z"/><path class="cls-5" d="M530.38,241.62a1.18,1.18,0,0,0-.27-.7,1.82,1.82,0,0,0-.64-.53,1.08,1.08,0,0,0-1.05,0,.41.41,0,0,0,0,.59,1.15,1.15,0,0,0,.39.32,3.48,3.48,0,0,0,.76.31,1.46,1.46,0,0,0,.75.06s-.28-.06-.71-.2a3.6,3.6,0,0,1-.7-.33c-.24-.12-.54-.42-.33-.6a1,1,0,0,1,.84,0,1.73,1.73,0,0,1,.61.45A4.3,4.3,0,0,1,530.38,241.62Z"/><path class="cls-5" d="M514.25,249.69s.39-.28,1.08-.58a5.2,5.2,0,0,1,5.51.82c.58.49.84.89.87.87s0-.12-.17-.29a4,4,0,0,0-.6-.69,5.18,5.18,0,0,0-2.7-1.3,5.24,5.24,0,0,0-3,.46,5,5,0,0,0-.78.48C514.33,249.6,514.24,249.68,514.25,249.69Z"/><path class="cls-5" d="M522.78,248.41A13.53,13.53,0,0,0,527,246s-.94.56-2.1,1.22S522.75,248.36,522.78,248.41Z"/><path class="cls-5" d="M520,250c0,.06.19.16.41.32s.38.32.43.29-.06-.27-.31-.46S520,250,520,250Z"/><path class="cls-5" d="M518.13,249.34s.16.15.4.21.44.08.45,0-.16-.15-.4-.21S518.14,249.29,518.13,249.34Z"/><path class="cls-5" d="M516.26,249.62s.22-.07.48-.12.47,0,.49-.08-.22-.18-.53-.12S516.22,249.58,516.26,249.62Z"/><path class="cls-5" d="M515,250c0,.06.13.08.28.06s.26-.09.25-.14-.14-.08-.28-.06S515,249.91,515,250Z"/><path class="cls-5" d="M411.16,231.44l56.23-53a18.5,18.5,0,0,1,13.22-5.57h0a18.49,18.49,0,0,1,16.05,9.31l28.77,49.44-18.25,10.53-27.71-35.23L451.7,232Z"/><path class="cls-5" d="M394.6,234.1c-.24.71-1.9,18.83,22.41,18.83h65A14.89,14.89,0,0,0,496.87,238h0A14.89,14.89,0,0,0,482,223.15H421.49a14.92,14.92,0,0,0-6.27,1.38Z"/><path class="cls-9" d="M487.72,223.15c0,.14-13.41.26-30,.26s-30-.12-30-.26,13.41-.26,30-.26S487.72,223,487.72,223.15Z"/><path class="cls-9" d="M477.7,194.49c.15,0,.16,2.81.67,6.22s1.3,6.1,1.15,6.15a19.51,19.51,0,0,1-1.67-6.07A19.8,19.8,0,0,1,477.7,194.49Z"/><path class="cls-9" d="M480.46,194.09a26.73,26.73,0,0,1,0,6.39,27,27,0,0,1-1.06,6.31c-.15,0,.25-2.85.54-6.35S480.31,194.09,480.46,194.09Z"/><path class="cls-5" d="M430.08,114.33A1.89,1.89,0,0,1,427,116c-1.11-.86-.94-2.59-.43-3.9s1.25-2.66.93-4a9.57,9.57,0,0,0-1.66-2.74,6,6,0,0,1-.67-5.37,5.09,5.09,0,0,1,4.2-3.26c1.91-.15,4,.84,5.63-.21,1.16-.76,1.52-2.3,2.49-3.28,1.52-1.53,4.05-1.33,6.08-.63s4,1.78,6.18,1.67c1.8-.1,3.44-1,5.18-1.44a9.41,9.41,0,0,1,9.56,15c-.88,1.09-2.84,4.36-6.76,3.55"/><path class="cls-12" d="M432.31,99.53l-.52,2.82-8.16,42.12c-.95,4.89,2.5,9.6,7.74,10.57h0c5.3,1,10.43-2.21,11.47-7.13,1.09-5.17,2.33-10.59,2.33-10.59s6.89.28,10.08-8.13c1.58-4.18,2.84-11.31,3.67-17.18a9.37,9.37,0,0,0-8.34-10.66Z"/><path class="cls-5" d="M455,116.19a1.14,1.14,0,0,1-1.31.9,1.09,1.09,0,0,1-.94-1.24A1.14,1.14,0,0,1,454,115,1.09,1.09,0,0,1,455,116.19Z"/><path class="cls-5" d="M456.62,115.38c-.17.11-.88-.69-2.08-.93s-2.21.17-2.31,0,.15-.32.59-.52a3.18,3.18,0,0,1,1.88-.17,3,3,0,0,1,1.62.92C456.63,115,456.7,115.33,456.62,115.38Z"/><path class="cls-5" d="M443.51,113.86a1.14,1.14,0,0,1-1.31.9,1.09,1.09,0,0,1-.94-1.24,1.14,1.14,0,0,1,1.31-.91A1.1,1.1,0,0,1,443.51,113.86Z"/><path class="cls-5" d="M444.78,113.15c-.17.12-.88-.68-2.08-.93s-2.21.17-2.31,0,.15-.31.59-.51a3.11,3.11,0,0,1,1.88-.18,3,3,0,0,1,1.62.92C444.79,112.81,444.86,113.1,444.78,113.15Z"/><path class="cls-5" d="M447.29,123a8.1,8.1,0,0,1,2,.06c.31,0,.62,0,.71-.17a1.54,1.54,0,0,0,0-1q-.19-1.2-.42-2.52a39.33,39.33,0,0,1-.76-6.53,42.18,42.18,0,0,1,1.29,6.45c.13.88.26,1.72.38,2.53a1.83,1.83,0,0,1-.09,1.23.79.79,0,0,1-.6.35,2.24,2.24,0,0,1-.54,0A7.9,7.9,0,0,1,447.29,123Z"/><path class="cls-13" d="M445.17,137.32a22.63,22.63,0,0,1-11-5.52s1.59,6.56,10.46,7.55Z"/><path class="cls-5" d="M443.59,123.05c.19,0-.07,1.33.85,2.49s2.34,1.3,2.31,1.48-.36.19-.95.09a3.33,3.33,0,0,1-1.95-1.17,2.93,2.93,0,0,1-.63-2.07C443.29,123.32,443.5,123,443.59,123.05Z"/><path class="cls-5" d="M446.07,108.52c-.19.3-1.35-.11-2.8-.23s-2.66,0-2.78-.3c-.06-.16.2-.43.73-.65a4.83,4.83,0,0,1,4.25.41C445.94,108.06,446.15,108.37,446.07,108.52Z"/><path class="cls-5" d="M456.9,111.81c-.27.23-1-.22-2-.44s-1.87-.2-2-.52c-.06-.16.13-.41.55-.59a2.9,2.9,0,0,1,1.74-.1,2.86,2.86,0,0,1,1.51.88C457,111.4,457,111.7,456.9,111.81Z"/><path class="cls-5" d="M460,108.21s-4.92,1.41-10.31-2.57c-3.54-2.62-7.89-4.35-9-3.75s-2,4.57-6.08,5.06c0,0-1.07,7.66-4.06,6.86s.62-15.88.62-15.88l8.42,1.28L448,99.1l7.46,2.41,5.62,2.65Z"/><path class="cls-5" d="M431.4,95.73c0-.13.75-.25,1.52.23s1,1.21.9,1.25-.49-.47-1.14-.85S431.4,95.86,431.4,95.73Z"/><path class="cls-5" d="M434.44,93.69c.14,0-.09.92-.15,2s.23,1.9.11,2-.64-.79-.57-2A3,3,0,0,1,434.44,93.69Z"/><path class="cls-12" d="M431.36,110.73c-.11-.09-4.67-2.76-5.77,2.3s4.2,5.12,4.24,5S431.36,110.73,431.36,110.73Z"/><path class="cls-13" d="M428.7,115.75s-.1,0-.26.08a.86.86,0,0,1-.66-.13,2.22,2.22,0,0,1-.58-2.18,2.85,2.85,0,0,1,.52-1.2,1,1,0,0,1,.81-.54.47.47,0,0,1,.47.36c0,.16,0,.25,0,.26s.13-.06.14-.27a.61.61,0,0,0-.13-.36.67.67,0,0,0-.46-.24,1.27,1.27,0,0,0-1.1.58,3.22,3.22,0,0,0-.61,1.35,2.33,2.33,0,0,0,.81,2.46.94.94,0,0,0,.83,0C428.67,115.87,428.72,115.77,428.7,115.75Z"/><path class="cls-9" d="M448.13,113.69c-.05,0,0-.48-.27-1.29a5.36,5.36,0,0,0-2-2.84,5.15,5.15,0,1,0,0,8.26,5.36,5.36,0,0,0,2-2.84c.23-.81.22-1.29.27-1.29s0,.12,0,.34a4.14,4.14,0,0,1-.1,1,5.38,5.38,0,0,1-1.94,3.08,5.54,5.54,0,0,1-5.28.85,5.48,5.48,0,0,1-2.63-1.94,5.59,5.59,0,0,1,0-6.66,5.57,5.57,0,0,1,7.91-1.09,5.35,5.35,0,0,1,1.94,3.08,4.07,4.07,0,0,1,.1,1C448.16,113.57,448.15,113.69,448.13,113.69Z"/><path class="cls-9" d="M461,116s0-.48-.26-1.29a5.42,5.42,0,0,0-2-2.84,5.16,5.16,0,1,0,0,8.26,5.42,5.42,0,0,0,2-2.84c.22-.81.21-1.29.26-1.29s0,.12,0,.35a3.75,3.75,0,0,1-.11,1,5.3,5.3,0,0,1-1.94,3.08,5.59,5.59,0,1,1,0-8.84,5.35,5.35,0,0,1,1.94,3.08,3.75,3.75,0,0,1,.11,1C461.06,115.9,461.05,116,461,116Z"/><path class="cls-9" d="M438,110.71a10.62,10.62,0,0,1-3.24.27,10.28,10.28,0,0,1-3.24-.25,10.62,10.62,0,0,1,3.24-.27A10.28,10.28,0,0,1,438,110.71Z"/><path class="cls-9" d="M450.28,115c-.13.06-.45-.43-1-.6s-1.12.07-1.2,0,0-.21.29-.35a1.42,1.42,0,0,1,1.05-.1,1.46,1.46,0,0,1,.84.66C450.35,114.79,450.34,115,450.28,115Z"/><polygon class="cls-2" points="438.38 222.72 438.38 219.38 485.88 220.36 513.24 176.66 515.75 178.47 487.73 223.15 438.38 222.72"/><path class="cls-12" d="M471.25,208.16l2.39,3.54V219a1.58,1.58,0,0,1-1.73-.7,28.8,28.8,0,0,1-1.16-4.37l-1.16,3a2.59,2.59,0,0,1-3,1.57l-8.8-2.21L461.35,206Z"/><path class="cls-6" d="M422.61,137.66s-13.15,3.29-17.09,9.2-8.44,15.74-13.28,34.78c-4.22,16.62-7.48,43.16-2.91,49.39,3.15,4.28,5.16,5.37,5.16,5.37l10.15-3.63a78.42,78.42,0,0,0,26.42-15.9l15.56-14.2-8.24-6.5s6.27-33.87,4.61-45.7C441.53,140.13,422.61,137.66,422.61,137.66Z"/><path class="cls-6" d="M426,147.87c-5.06,1.25-9.93,3.31-16.84,3.88a7.66,7.66,0,0,1-4.67-1c-4.37-2.7-2.85-7.69-.47-11.05,2.53-3.56,6.51-6.62,10.86-6.18a5,5,0,0,1,2.48-5.86,8.22,8.22,0,0,1,6.73-.15,24.39,24.39,0,0,1,5.89,3.62l7.43,5.61a14.06,14.06,0,0,1,4.35,4.44c1,1.85,4.52,9.12,2.94,10.49,0,0-2,.59-3,0l-.18-.13A18.16,18.16,0,0,0,426,147.87Z"/><path class="cls-6" d="M418.53,154l-8.69,40.62a14.55,14.55,0,0,0,9.25,16.71l37.77,7.25,4.71-14.08h0L430.92,195l9-39.25Z"/><path class="cls-5" d="M409.52,202.38a.81.81,0,0,1,.06.24l.14.7c0,.16.07.33.1.52s.15.39.22.6l.26.71.42.76a10,10,0,0,0,3,3.22,16.86,16.86,0,0,0,5.54,2.42l37.37,6.84-.25.14c1.55-4.46,3.2-9.17,4.91-14.08l.16.31-30.66-9.54-.23-.08.06-.24c.53-2.09,1.1-4.33,1.68-6.59,1.78-7.11,3.45-14.07,4.9-20.83.71-3.38,1.39-6.71,1.85-10,.14-.82.14-1.63.21-2.44a10.46,10.46,0,0,0-.27-2.38,9.87,9.87,0,0,0-2.09-4.16,10.24,10.24,0,0,0-8-3.59,10.47,10.47,0,0,0-7.43,3.77,19.38,19.38,0,0,0-3.83,7.06,60.22,60.22,0,0,0-1.74,7.31c-1.86,9.42-3.36,17-4.41,22.34-.53,2.61-.94,4.66-1.22,6.06L410,193c-.08.35-.13.53-.13.53s0-.18.08-.54.16-.91.28-1.59c.26-1.41.64-3.46,1.12-6.08,1-5.3,2.46-12.94,4.25-22.37a62.63,62.63,0,0,1,1.71-7.37,20.05,20.05,0,0,1,3.89-7.22,10.9,10.9,0,0,1,7.75-3.93,10.68,10.68,0,0,1,8.39,3.73,10.48,10.48,0,0,1,2.2,4.36,10.93,10.93,0,0,1,.28,2.49c-.07.83-.07,1.68-.2,2.5-.47,3.31-1.14,6.65-1.85,10-1.45,6.76-3.11,13.73-4.9,20.85-.57,2.26-1.14,4.5-1.68,6.59l-.17-.31,30.64,9.58.24.07-.08.24c-1.73,4.9-3.38,9.62-4.95,14.07l-.06.18-.19,0c-15.46-2.89-28.33-5.25-37.35-7a17.21,17.21,0,0,1-5.59-2.5A9.94,9.94,0,0,1,410.6,206c-.15-.27-.28-.53-.41-.77s-.17-.5-.24-.72-.15-.43-.21-.62l-.09-.53c0-.3-.08-.53-.11-.71A.87.87,0,0,1,409.52,202.38Z"/><path class="cls-5" d="M425.65,200.29c-.06,0-.11-.48.08-1.22a5.62,5.62,0,0,1,1.52-2.51,5.54,5.54,0,0,1,2.58-1.42c.74-.16,1.22-.09,1.22,0s-.45.14-1.12.38a6.78,6.78,0,0,0-2.32,1.44,6.68,6.68,0,0,0-1.53,2.26C425.81,199.85,425.73,200.3,425.65,200.29Z"/><g class="cls-14"><path d="M417.65,153.49a233.94,233.94,0,0,0-9.1,43.39,34.91,34.91,0,0,0-.2,10.2c.59,3.37,2.25,6.69,5.11,8.55a12.75,12.75,0,0,0,9.23,1.41c3.14-.6,8.2-1.29,11.09-2.65l-16.9-3.49s-10.9-.68-6.22-21.54S417.65,153.49,417.65,153.49Z"/></g><g class="cls-14"><path d="M403.24,150c-.07,1.67.09,3.73,1.6,4.42s3.25-.58,4.51-1.74a72.41,72.41,0,0,1,17.18-11.78,40.3,40.3,0,0,0-23.26,9.4"/></g><path class="cls-5" d="M436.34,144.93a28.53,28.53,0,0,0-4.66-2.49,20,20,0,0,0-5.54-1.26,18.6,18.6,0,0,0-6.9.75,34.9,34.9,0,0,0-6.41,2.81c-1.91,1-3.6,2-5.06,2.79s-2.67,1.32-3.53,1.67a7,7,0,0,1-1.36.45,9.83,9.83,0,0,1,1.28-.64c.83-.4,2-1,3.43-1.81l5-2.88a33.17,33.17,0,0,1,6.49-2.89,18.34,18.34,0,0,1,7.09-.72,19.24,19.24,0,0,1,5.64,1.39,16.41,16.41,0,0,1,3.42,1.91,9.61,9.61,0,0,1,.84.66C436.26,144.83,436.35,144.92,436.34,144.93Z"/><path class="cls-5" d="M441.63,147c-.07.06-1.26-1.13-3.38-2.83a48.75,48.75,0,0,0-18.8-9.37c-2.63-.66-4.3-.9-4.29-1a4.64,4.64,0,0,1,1.19.08,31.61,31.61,0,0,1,3.19.55,43.48,43.48,0,0,1,18.95,9.44c1,.9,1.84,1.66,2.36,2.22A5.48,5.48,0,0,1,441.63,147Z"/><path class="cls-2" d="M444.15,179.91a3.09,3.09,0,0,1-.2-.84c-.1-.56-.24-1.37-.33-2.4a12.17,12.17,0,0,1,.17-3.73,2.14,2.14,0,0,1,1.64-1.68,1.27,1.27,0,0,1,1.29.52,1.15,1.15,0,0,1-.08,1.46l-.05,0-.07,0a1.63,1.63,0,0,1-1.44-.57,2.53,2.53,0,0,1-.61-1.41c-.12-1-.13-2-.19-3-.25-4.8-.45-9.14-.57-12.28,0-1.5-.08-2.75-.11-3.73a8.22,8.22,0,0,1,0-1.37,6.55,6.55,0,0,1,.18,1.36c.07,1,.16,2.23.27,3.72.21,3.14.47,7.47.72,12.27.06,1,.07,2,.17,2.92a2.15,2.15,0,0,0,.48,1.15,1.13,1.13,0,0,0,1,.42l-.12.06a.67.67,0,0,0,0-.84.8.8,0,0,0-.82-.33,1.73,1.73,0,0,0-1.31,1.34,12.91,12.91,0,0,0-.27,3.6C444,178.7,444.22,179.9,444.15,179.91Z"/><path class="cls-5" d="M427.73,213a10.72,10.72,0,0,1-1.22,1.15c-.8.72-2,1.72-3.52,2.92a109.65,109.65,0,0,1-12.44,8.51A104.46,104.46,0,0,1,397,232.25c-1.79.73-3.25,1.28-4.28,1.62a10.61,10.61,0,0,1-1.6.49,8.89,8.89,0,0,1,1.53-.68c1-.4,2.44-1,4.21-1.77a122.3,122.3,0,0,0,13.39-6.8,133.74,133.74,0,0,0,12.49-8.35c1.53-1.16,2.77-2.12,3.61-2.79A11,11,0,0,1,427.73,213Z"/><path class="cls-5" d="M397.27,235.71c-.11.09-.71-.51-1.33-1.34s-1-1.57-.92-1.65.71.51,1.34,1.34S397.39,235.62,397.27,235.71Z"/><path class="cls-5" d="M403.31,233.16c-.08.11-.91-.35-1.68-1.21s-1.16-1.71-1-1.78.68.63,1.42,1.43S403.4,233,403.31,233.16Z"/><path class="cls-5" d="M410.89,230.66c-.1.09-.94-.68-1.87-1.73s-1.59-2-1.48-2.07.95.68,1.87,1.73S411,230.56,410.89,230.66Z"/><path class="cls-5" d="M419,226.34c-.11.09-1-.81-2-2a7.67,7.67,0,0,1-1.6-2.33c.11-.09,1,.8,2,2A7.86,7.86,0,0,1,419,226.34Z"/><path class="cls-5" d="M426.59,220.68c-.1.11-1-.6-2.14-1.58s-1.88-1.85-1.78-2,1.05.6,2.13,1.58S426.69,220.58,426.59,220.68Z"/></g><g id="Wifi"><circle class="cls-9" cx="496.81" cy="139.53" r="2.32" transform="translate(246.73 590.92) rotate(-76.7)"/><path class="cls-9" d="M492.17,136.56a6.44,6.44,0,0,1,9.31-.13,1.3,1.3,0,0,0,1.85-1.83,9.07,9.07,0,0,0-13,.1c-1.15,1.22.68,3.08,1.84,1.86Z"/><path class="cls-9" d="M484.29,125.75a19,19,0,0,1,12.46-5,18.5,18.5,0,0,1,12.71,4.86c1.23,1.15,3.09-.68,1.86-1.83a21.15,21.15,0,0,0-14.56-5.64,21.79,21.79,0,0,0-14.31,5.74c-1.27,1.1.57,2.95,1.84,1.85Z"/><path class="cls-9" d="M487.4,131.74a12.78,12.78,0,0,1,18.77-.27c1.17,1.21,3-.63,1.85-1.84a15.38,15.38,0,0,0-22.46.26c-1.14,1.23.69,3.09,1.84,1.85Z"/></g></g></svg>