<svg xmlns="http://www.w3.org/2000/svg" viewBox="0 0 680.74 404.12"><defs><style>.cls-1{fill:#ebebeb;}.cls-2{fill:#f5f5f5;}.cls-3{fill:#e0e0e0;}.cls-12,.cls-13,.cls-14,.cls-15,.cls-4{fill:#fff;}.cls-5{fill:#fafafa;}.cls-6{fill:#ffbe9d;}.cls-7{fill:#eb996e;}.cls-8{fill:#263238;}.cls-9{fill:#455a64;}.cls-10{opacity:0.3;}.cls-11{fill:#f5b045;}.cls-12{font-size:14.79px;}.cls-12,.cls-13,.cls-14,.cls-15{font-family:RobotoMono-Bold, Roboto Mono;font-weight:700;}.cls-13{font-size:11px;}.cls-14{font-size:14px;}.cls-15{font-size:13px;}</style></defs><g id="Layer_2" data-name="Layer 2"><g id="Background_Complete" data-name="Background Complete"><path class="cls-1" d="M629.45,206.4H568.94a7.57,7.57,0,0,1-7.58-7.57V115.07a7.57,7.57,0,0,1,7.58-7.57h38.37L637,138.12v60.71A7.57,7.57,0,0,1,629.45,206.4Z"/><path class="cls-2" d="M607.31,107.5v23.57a7,7,0,0,0,7.05,7H637Z"/><path class="cls-3" d="M607.62,133.14s-.29,5.72,6.21,7.6a6.69,6.69,0,0,0,.75.16c3,.53,22.44,4,22.44,3.55v-6.33H614.36S608.7,137.92,607.62,133.14Z"/><path class="cls-3" d="M629.45,206.4s.45,0,1.31-.15a7.66,7.66,0,0,0,3.43-1.6,7.5,7.5,0,0,0,2.71-5.35c0-2.44,0-5.27,0-8.44,0-12.68-.06-30.82-.1-52.74l.07.15-29.74-30.6.18.08H570.64a18.54,18.54,0,0,0-2.9.1,7.3,7.3,0,0,0-6.09,6.69c0,1.34,0,2.74,0,4.1V142.8c0,10.47,0,20.57,0,30.19q0,7.23,0,14.07v6.73c0,1.11,0,2.2,0,3.29a17.61,17.61,0,0,0,.14,3.19,7.39,7.39,0,0,0,3.43,4.86,7.24,7.24,0,0,0,2.79,1,29.49,29.49,0,0,0,3,.08l11.42,0,34.47.08,9.37,0,2.44,0,.83,0-.83,0-2.44,0-9.37.05-34.47.08-11.42,0a28.1,28.1,0,0,1-3-.07,7.8,7.8,0,0,1-6.59-6.18,18,18,0,0,1-.16-3.27v-3.29q0-3.31,0-6.73,0-6.84,0-14.07c0-9.62,0-19.72,0-30.19q0-7.86,0-16v-8.17c0-1.37,0-2.72,0-4.14a7.83,7.83,0,0,1,6.52-7.16,19,19,0,0,1,3-.11h36.78l.07.07L637.18,138l.06.07v.09c0,21.92-.07,40.06-.09,52.74,0,3.17,0,6-.06,8.46a7.56,7.56,0,0,1-6.32,7,5.23,5.23,0,0,1-1,.09Z"/><path class="cls-3" d="M637,138.12a3.8,3.8,0,0,1-.58,0l-1.67.05-6.14.08-9.11,0h-5.38a7.32,7.32,0,0,1-6.75-5.1,8.25,8.25,0,0,1-.33-2.89c0-1.86,0-3.66,0-5.38,0-3.41,0-6.49.06-9.1s.06-4.62.08-6.14c0-.68,0-1.23,0-1.67a3.8,3.8,0,0,1,0-.58,2.23,2.23,0,0,1,.06.58c0,.44,0,1,0,1.67,0,1.52,0,3.6.08,6.14s0,5.69,0,9.1c0,1.72,0,3.52,0,5.38a7,7,0,0,0,1.7,5.17,6.77,6.77,0,0,0,4.88,2.31l5.37,0,9.11.06,6.14.08,1.67.05A2.23,2.23,0,0,1,637,138.12Z"/><path class="cls-3" d="M606.17,128.53c0,.15-7.15.26-16,.26s-16-.11-16-.26,7.15-.26,16-.26S606.17,128.39,606.17,128.53Z"/><path class="cls-3" d="M621.32,140.29c0,.14-10.54.26-23.54.26s-23.54-.12-23.54-.26,10.54-.26,23.54-.26S621.32,140.15,621.32,140.29Z"/><path class="cls-3" d="M621.32,152.05c0,.14-10.54.26-23.54.26s-23.54-.12-23.54-.26,10.54-.26,23.54-.26S621.32,151.91,621.32,152.05Z"/><path class="cls-3" d="M621.32,163.81c0,.14-10.54.26-23.54.26s-23.54-.12-23.54-.26,10.54-.26,23.54-.26S621.32,163.67,621.32,163.81Z"/><path class="cls-3" d="M621.32,175.57c0,.14-10.54.26-23.54.26s-23.54-.12-23.54-.26,10.54-.26,23.54-.26S621.32,175.43,621.32,175.57Z"/><path class="cls-3" d="M621.32,190.07c0,.15-10.54.26-23.54.26s-23.54-.11-23.54-.26,10.54-.26,23.54-.26S621.32,189.93,621.32,190.07Z"/><rect class="cls-3" x="547.79" y="166.98" width="51.4" height="23.1" rx="4.22"/><path class="cls-4" d="M553.75,174.51h4c2.86,0,4.82,1.72,4.82,4.36s-2,4.37-4.82,4.37h-4Zm3.86,7.07a2.71,2.71,0,1,0,0-5.41h-1.84v5.41Z"/><path class="cls-4" d="M563.5,178.87a4.78,4.78,0,1,1,4.77,4.52A4.51,4.51,0,0,1,563.5,178.87Zm7.5,0a2.73,2.73,0,1,0-2.73,2.8A2.66,2.66,0,0,0,571,178.87Z"/><path class="cls-4" d="M574,178.87a4.8,4.8,0,0,1,8.33-3l-1.29,1.19a2.84,2.84,0,0,0-2.2-1,2.8,2.8,0,0,0,0,5.59,2.79,2.79,0,0,0,2.2-1l1.29,1.2a4.8,4.8,0,0,1-8.33-3Z"/><path class="cls-4" d="M589,183.24l-2.1-3-2.07,3h-2.32l3.23-4.44-3.07-4.29H585l2,2.83,2-2.83h2.18l-3,4.21,3.25,4.52Z"/><path class="cls-1" d="M557.62,314.55,511.8,394.7,421.13,396a5.49,5.49,0,0,0-5.4,5.19h0l92.2.26,3.47-.12,115.44.23,23.33-40.23L680,318.62A4.22,4.22,0,0,0,676.5,312l-115.24.44A4.22,4.22,0,0,0,557.62,314.55Z"/><path class="cls-3" d="M680,315a2,2,0,0,1-.55.06l-1.62.05-6.24.11-22.92.18L573,315.6h-5.5a4.55,4.55,0,0,0-4.2,2q-2.61,4.69-5.13,9.26l-9.74,17.56-16.53,29.71-11.24,20c-1.31,2.29-2.35,4.09-3.1,5.41-.34.56-.61,1-.84,1.39a2.25,2.25,0,0,1-.31.45,1.73,1.73,0,0,1,.21-.51l.74-1.45,2.91-5.51c2.63-4.84,6.35-11.71,10.92-20.16l16.33-29.83,9.67-17.59,5.16-9.34a5.7,5.7,0,0,1,5.15-2.49H573l75.64.16,22.92.19,6.24.1,1.62.06A2,2,0,0,1,680,315Z"/><path class="cls-4" d="M598.75,355.32c-2,2.26-2.09,5.54-.11,7.32s5.24,1.4,7.28-.86,2.09-5.54.11-7.32S600.79,353.06,598.75,355.32Z"/><path class="cls-2" d="M15.3,316.06V364h-8v5.2h8v32.08H164.88V372.08H153.8v-6.36h11.08v-9.53h4.93v-4.34H164V316.06Z"/><polygon class="cls-3" points="125.16 316.2 125.16 400.74 164.88 400.74 164.88 371.55 153.8 371.55 153.8 365.72 164.88 365.92 164.88 356.38 169.9 356.39 169.81 351.46 163.96 351.32 163.96 316.06 125.16 316.2"/><path class="cls-3" d="M128,368.5c0,.3-27.07.53-60.45.53s-60.45-.23-60.45-.53S34.15,368,67.54,368,128,368.21,128,368.5Z"/><path class="cls-3" d="M128,363.63c0,.3-27.07.54-60.45.54s-60.45-.24-60.45-.54,27.06-.53,60.45-.53S128,363.34,128,363.63Z"/><path class="cls-3" d="M135.76,350.53c0,.3-27.07.53-60.45.53s-60.46-.23-60.46-.53S41.92,350,75.31,350,135.76,350.24,135.76,350.53Z"/><path class="cls-3" d="M136.5,386.24c0,.29-27.06.53-60.45.53s-60.45-.24-60.45-.53,27.06-.53,60.45-.53S136.5,385.94,136.5,386.24Z"/><path class="cls-1" d="M514.44,112.05H455.33a7.4,7.4,0,0,1-7.4-7.4V22.83a7.4,7.4,0,0,1,7.4-7.4h37.49l29,29.91v59.31A7.4,7.4,0,0,1,514.44,112.05Z"/><path class="cls-2" d="M492.82,15.43v23a6.88,6.88,0,0,0,6.88,6.88h22.14Z"/><path class="cls-3" d="M493.12,40.48s-.29,5.59,6.07,7.42c.24.07.48.12.73.17,2.89.51,21.92,3.9,21.92,3.46V45.34H499.7S494.17,45.16,493.12,40.48Z"/><path class="cls-3" d="M514.44,112.05s.45,0,1.28-.15a7.42,7.42,0,0,0,3.35-1.57,7.26,7.26,0,0,0,2.65-5.21c0-2.39,0-5.16,0-8.25,0-12.39-.06-30.11-.1-51.53l.06.16c-8.78-9-18.58-19.13-29-29.89l.18.07H457a19,19,0,0,0-2.84.11,7.1,7.1,0,0,0-5.94,6.52c-.05,1.31,0,2.68,0,4V49.92c0,10.23,0,20.1,0,29.5q0,7,0,13.73,0,3.34,0,6.58V103a16.78,16.78,0,0,0,.14,3.11,7.19,7.19,0,0,0,3.34,4.75,7.08,7.08,0,0,0,2.73,1,28,28,0,0,0,2.91.08l11.15,0,33.68.08,9.15,0,2.38,0,.81,0-.81,0-2.38,0-9.15.05-33.68.08-11.15,0a27,27,0,0,1-3-.07,7.62,7.62,0,0,1-6.44-6,17.13,17.13,0,0,1-.15-3.19V99.73c0-2.16,0-4.35,0-6.58q0-6.68,0-13.73c0-9.4,0-19.27,0-29.5q0-7.68,0-15.61v-8c0-1.34,0-2.66,0-4a7.56,7.56,0,0,1,1.4-3.9,7.7,7.7,0,0,1,5-3.1,20.73,20.73,0,0,1,2.93-.11h35.92l.08.08C503.44,26,513.22,36.14,522,45.19l.06.07v.08c0,21.42-.07,39.14-.09,51.53,0,3.1,0,5.85-.06,8.26a7.46,7.46,0,0,1-2.75,5.31,7.29,7.29,0,0,1-3.43,1.52,5,5,0,0,1-1,.09A2.73,2.73,0,0,1,514.44,112.05Z"/><path class="cls-3" d="M521.84,45.34a2.18,2.18,0,0,1-.57.06l-1.63.05-6,.08-8.89,0h-5.26a7.16,7.16,0,0,1-5.15-2.42,7.06,7.06,0,0,1-1.45-2.57,8.34,8.34,0,0,1-.33-2.82c0-1.82,0-3.58,0-5.25,0-3.34,0-6.35.06-8.9s.06-4.51.08-6c0-.66,0-1.2,0-1.63a2,2,0,0,1,.05-.57,2.6,2.6,0,0,1,.05.57l.05,1.63c0,1.49.05,3.52.08,6s0,5.56.06,8.9c0,1.67,0,3.43,0,5.25a6.88,6.88,0,0,0,1.66,5,6.66,6.66,0,0,0,4.77,2.25l5.25,0,8.89.06,6,.08,1.63,0A3.74,3.74,0,0,1,521.84,45.34Z"/><path class="cls-3" d="M491.7,36c0,.15-7,.26-15.59.26s-15.6-.11-15.6-.26,7-.26,15.6-.26S491.7,35.84,491.7,36Z"/><path class="cls-3" d="M506.5,47.47c0,.14-10.3.26-23,.26s-23-.12-23-.26,10.3-.26,23-.26S506.5,47.33,506.5,47.47Z"/><path class="cls-3" d="M506.5,59c0,.14-10.3.26-23,.26s-23-.12-23-.26,10.3-.26,23-.26S506.5,58.81,506.5,59Z"/><path class="cls-3" d="M506.5,70.44c0,.15-10.3.26-23,.26s-23-.11-23-.26,10.3-.26,23-.26S506.5,70.3,506.5,70.44Z"/><path class="cls-3" d="M506.5,81.93c0,.15-10.3.26-23,.26s-23-.11-23-.26,10.3-.26,23-.26S506.5,81.79,506.5,81.93Z"/><path class="cls-3" d="M506.5,96.1c0,.14-10.3.26-23,.26s-23-.12-23-.26,10.3-.26,23-.26S506.5,96,506.5,96.1Z"/><rect class="cls-3" x="434.68" y="73.54" width="50.21" height="22.56" rx="4.22"/><path class="cls-4" d="M454.31,84c0,1.9-1.43,3.08-3.71,3.08h-1.71v2.35h-2V80.9h3.68C452.88,80.9,454.31,82.08,454.31,84Zm-2,0c0-.94-.61-1.48-1.81-1.48h-1.61v2.95h1.61C451.7,85.46,452.31,84.92,452.31,84Z"/><path class="cls-4" d="M455.71,80.9h3.87c2.79,0,4.7,1.68,4.7,4.26s-1.91,4.26-4.7,4.26h-3.87Zm3.77,6.9a2.64,2.64,0,1,0,0-5.28h-1.8V87.8Z"/><path class="cls-4" d="M467.74,82.48v2.25h3.94v1.59h-3.94v3.1h-2V80.9h6.45v1.58Z"/><rect class="cls-1" x="215.86" y="21.15" width="31.94" height="55.04" transform="translate(463.66 97.35) rotate(180)"/><rect class="cls-1" x="126.77" y="8.36" width="25.22" height="68.71" transform="translate(278.76 85.43) rotate(180)"/><path class="cls-5" d="M126.48,13.32c0-.21,5.76-.38,12.88-.38s12.88.17,12.88.38-5.77.39-12.88.39S126.48,13.54,126.48,13.32Z"/><path class="cls-5" d="M127.87,16.58c0-.21,5.46-.38,12.19-.38s12.18.17,12.18.38-5.46.39-12.18.39S127.87,16.79,127.87,16.58Z"/><path class="cls-5" d="M138.66,63.52c-.21,0-.38-9.1-.38-20.32s.17-20.33.38-20.33S139,32,139,43.2,138.87,63.52,138.66,63.52Z"/><path class="cls-5" d="M126.77,69.81c0-.21,5.53-.39,12.34-.39s12.35.18,12.35.39-5.53.38-12.35.38S126.77,70,126.77,69.81Z"/><path class="cls-5" d="M126.77,72.76c0-.22,5.67-.39,12.66-.39s12.65.17,12.65.39-5.66.38-12.65.38S126.77,73,126.77,72.76Z"/><rect class="cls-3" x="151.97" y="0.93" width="20.26" height="76.14" transform="translate(324.21 78) rotate(180)"/><path class="cls-5" d="M151.85,35.9A20.34,20.34,0,0,1,155,38.07l7.31,5.54,7.3,5.57a19.29,19.29,0,0,1,2.93,2.44,18.75,18.75,0,0,1-3.25-2c-1.94-1.32-4.59-3.21-7.44-5.39s-5.39-4.21-7.19-5.73A18.16,18.16,0,0,1,151.85,35.9Z"/><path class="cls-5" d="M151.76,24c.13-.16,4.78,3.59,10.36,8.38s10,8.8,9.87,9-4.78-3.59-10.36-8.38S151.62,24.14,151.76,24Z"/><rect class="cls-1" x="63.93" y="4.59" width="9.69" height="72.53" transform="translate(137.54 81.72) rotate(180)"/><path class="cls-5" d="M64.33,14.47c0,.25,2,.46,4.54.46s4.54-.21,4.54-.46-2-.45-4.54-.45S64.33,14.22,64.33,14.47Z"/><path class="cls-5" d="M64.13,12.89c0,.26,2,.46,4.54.46s4.54-.2,4.54-.46-2-.45-4.54-.45S64.13,12.64,64.13,12.89Z"/><path class="cls-5" d="M64.33,71.52c0,.25,2,.45,4.54.45s4.54-.2,4.54-.45-2-.46-4.54-.46S64.33,71.26,64.33,71.52Z"/><path class="cls-5" d="M64.13,69.94c0,.25,2,.45,4.54.45s4.54-.2,4.54-.45-2-.46-4.54-.46S64.13,69.69,64.13,69.94Z"/><path class="cls-5" d="M69.06,60.46c.26,0,.46-8.3.46-18.55s-.2-18.56-.46-18.56-.45,8.31-.45,18.56S68.81,60.46,69.06,60.46Z"/><rect class="cls-3" x="107.35" y="4.13" width="19.38" height="72.53" transform="translate(234.08 80.79) rotate(180)"/><path class="cls-5" d="M121.28,77.59a1.81,1.81,0,0,0,.22-.39c.14-.27.33-.67.56-1.21a21.07,21.07,0,0,0,1.4-4.92,12.81,12.81,0,0,0-1.13-8,10.62,10.62,0,0,0-3.43-3.79A8,8,0,0,0,113.31,58a5.81,5.81,0,0,0-2.88,1.33A3.83,3.83,0,0,0,109,62.37a4.37,4.37,0,0,0,1.66,3.08,6,6,0,0,0,3.3,1.4,8.79,8.79,0,0,0,6.87-2.5,11,11,0,0,0,3.41-7,18.44,18.44,0,0,0-1-8.09,14.82,14.82,0,0,0-4.75-7.07,7.78,7.78,0,0,0-4.18-1.65A5.48,5.48,0,0,0,110,42.11a3.58,3.58,0,0,0-1,2.27,4.18,4.18,0,0,0,.67,2.38,6.28,6.28,0,0,0,3.91,2.66,9.08,9.08,0,0,0,8.53-2.86,14.21,14.21,0,0,0,3.33-8.16,20.1,20.1,0,0,0-.84-8.47,11.71,11.71,0,0,0-5-6.44,8.58,8.58,0,0,0-7.7-.8,4,4,0,0,0-2.51,2.95,4.69,4.69,0,0,0,.89,3.66A6,6,0,0,0,116.8,31,11.36,11.36,0,0,0,122,27.37a16.48,16.48,0,0,0,3.86-9.95A16,16,0,0,0,124,9.54a15.58,15.58,0,0,0-3-4.11,12,12,0,0,0-1-.87,1.63,1.63,0,0,0-.38-.25A18.34,18.34,0,0,1,123.7,9.7a15.77,15.77,0,0,1,1.6,7.7A16.05,16.05,0,0,1,121.46,27a10.76,10.76,0,0,1-4.86,3.4,5.35,5.35,0,0,1-5.73-1.51,3.93,3.93,0,0,1-.72-3.05,3.25,3.25,0,0,1,2.06-2.37,7.83,7.83,0,0,1,7,.79,10.9,10.9,0,0,1,4.61,6,19.33,19.33,0,0,1,.77,8.08A13.39,13.39,0,0,1,121.43,46a8.24,8.24,0,0,1-7.66,2.59,5.36,5.36,0,0,1-3.34-2.27,2.77,2.77,0,0,1,.21-3.53,4.56,4.56,0,0,1,3.64-1.27,6.84,6.84,0,0,1,3.7,1.46,14,14,0,0,1,4.47,6.64,17.74,17.74,0,0,1,1,7.71,10.17,10.17,0,0,1-3.12,6.48,8,8,0,0,1-6.24,2.34c-2.13-.18-4.21-1.8-4.34-3.76a3.13,3.13,0,0,1,1.14-2.52,5.16,5.16,0,0,1,2.54-1.2,7.34,7.34,0,0,1,5.16,1.17,10,10,0,0,1,3.3,3.55A12.47,12.47,0,0,1,123.11,71a23.1,23.1,0,0,1-1.22,4.9A17.41,17.41,0,0,0,121.28,77.59Z"/><rect class="cls-5" x="73.46" y="10.63" width="33.62" height="66.06" transform="translate(180.55 87.32) rotate(180)"/><path class="cls-3" d="M74.62,21.61c0,.25,7.28.46,16.27.46s16.27-.21,16.27-.46-7.28-.46-16.27-.46S74.62,21.36,74.62,21.61Z"/><path class="cls-3" d="M74.2,26.62c0,.25,7.19.45,16.06.45s16.07-.2,16.07-.45-7.19-.46-16.07-.46S74.2,26.37,74.2,26.62Z"/><path class="cls-3" d="M73.12,69.22c0,.26,7.57.46,16.92.46s16.91-.2,16.91-.46-7.57-.45-16.91-.45S73.12,69,73.12,69.22Z"/><path class="cls-3" d="M73.57,63.34c0,.25,7.38.45,16.48.45s16.49-.2,16.49-.45-7.38-.46-16.49-.46S73.57,63.09,73.57,63.34Z"/><rect class="cls-1" x="172.22" y="3.66" width="19.38" height="72.53" transform="translate(363.81 79.86) rotate(180)"/><path class="cls-5" d="M186.15,77.13a2.14,2.14,0,0,0,.22-.4c.14-.26.33-.67.55-1.21a20.89,20.89,0,0,0,1.41-4.91,12.83,12.83,0,0,0-1.13-8,10.72,10.72,0,0,0-3.44-3.79,8,8,0,0,0-5.58-1.31,5.85,5.85,0,0,0-2.89,1.33,3.79,3.79,0,0,0-1.38,3.06A4.39,4.39,0,0,0,175.56,65a6,6,0,0,0,3.31,1.41,8.84,8.84,0,0,0,6.87-2.5,11.06,11.06,0,0,0,3.4-7,18.45,18.45,0,0,0-1-8.09,15,15,0,0,0-4.75-7.07,7.76,7.76,0,0,0-4.19-1.64,5.39,5.39,0,0,0-4.35,1.54,3.5,3.5,0,0,0-1,2.27,4.09,4.09,0,0,0,.66,2.37A6.33,6.33,0,0,0,178.43,49,9.13,9.13,0,0,0,187,46.1a14.23,14.23,0,0,0,3.32-8.17,20.05,20.05,0,0,0-.83-8.46,11.69,11.69,0,0,0-5-6.44,8.53,8.53,0,0,0-7.69-.81,4.07,4.07,0,0,0-2.51,3,4.7,4.7,0,0,0,.88,3.65,6.05,6.05,0,0,0,6.53,1.73,11.28,11.28,0,0,0,5.15-3.66A16.49,16.49,0,0,0,190.68,17a16,16,0,0,0-4.84-12,11.75,11.75,0,0,0-1-.87,2.23,2.23,0,0,0-.37-.26,18.91,18.91,0,0,1,4.11,5.4,15.7,15.7,0,0,1,1.6,7.69,16,16,0,0,1-3.85,9.55,10.67,10.67,0,0,1-4.86,3.41,5.35,5.35,0,0,1-5.72-1.51,3.89,3.89,0,0,1-.72-3.05A3.23,3.23,0,0,1,177.08,23a7.74,7.74,0,0,1,6.94.79,10.85,10.85,0,0,1,4.62,6,19.38,19.38,0,0,1,.77,8.09,13.49,13.49,0,0,1-3.11,7.65,8.24,8.24,0,0,1-7.66,2.58,5.39,5.39,0,0,1-3.34-2.26,2.79,2.79,0,0,1,.21-3.54A4.59,4.59,0,0,1,179.14,41a6.94,6.94,0,0,1,3.71,1.47,14.14,14.14,0,0,1,4.47,6.63,17.78,17.78,0,0,1,1,7.72,10.22,10.22,0,0,1-3.12,6.48A8,8,0,0,1,179,65.63c-2.13-.17-4.21-1.8-4.34-3.76a3.13,3.13,0,0,1,1.13-2.52,5.28,5.28,0,0,1,2.55-1.2,7.46,7.46,0,0,1,5.16,1.17,10.2,10.2,0,0,1,3.3,3.55A12.57,12.57,0,0,1,188,70.56a22.72,22.72,0,0,1-1.23,4.9A15.3,15.3,0,0,0,186.15,77.13Z"/><rect class="cls-3" x="37" width="26.93" height="76.2" transform="translate(100.92 76.2) rotate(180)"/><rect class="cls-3" x="191.6" y="8.36" width="25.19" height="67.83" transform="translate(408.38 84.56) rotate(180)"/><path class="cls-5" d="M217.42,42.19a20.69,20.69,0,0,0,4,2.85,14,14,0,0,0,5.07,1.4,13,13,0,0,0,6.29-1.09c2.12-.91,4.07-2.07,6-2.76a9.63,9.63,0,0,1,5.49-.5A5.86,5.86,0,0,1,247.49,44a2.41,2.41,0,0,1,.63,1.21c-.07,0-.26-.42-.85-1a6,6,0,0,0-3.08-1.6,9.3,9.3,0,0,0-5.13.64c-1.87.68-3.79,1.85-6,2.8a13.38,13.38,0,0,1-6.64,1.09,13.76,13.76,0,0,1-5.26-1.63,11.9,11.9,0,0,1-2.94-2.25A3.8,3.8,0,0,1,217.42,42.19Z"/><path class="cls-5" d="M216.85,48.9a21.12,21.12,0,0,0,4,2.85,14,14,0,0,0,5.07,1.41,13.13,13.13,0,0,0,6.29-1.1c2.12-.91,4.07-2.07,6-2.75a9.45,9.45,0,0,1,5.49-.5,5.88,5.88,0,0,1,3.18,1.92,2.31,2.31,0,0,1,.62,1.22c-.06,0-.25-.42-.85-1a6,6,0,0,0-3.07-1.6,9.39,9.39,0,0,0-5.13.64c-1.88.69-3.79,1.85-6,2.8a13.32,13.32,0,0,1-6.65,1.09,13.64,13.64,0,0,1-5.26-1.63A11.4,11.4,0,0,1,217.67,50,3.59,3.59,0,0,1,216.85,48.9Z"/><path class="cls-5" d="M217.27,27.18c0-.21,6.93-.39,15.48-.39s15.49.18,15.49.39-6.93.38-15.49.38S217.27,27.39,217.27,27.18Z"/><path class="cls-5" d="M205.86,19.29a3.6,3.6,0,0,0-2.19-.18A2.63,2.63,0,0,0,202,20.52a2.44,2.44,0,0,0,3.13,3,2.67,2.67,0,0,0,1.34-1.76,3.7,3.7,0,0,0-.26-2.18s.24.09.48.47a2.78,2.78,0,0,1,.32,1.81,3.14,3.14,0,0,1-1.57,2.29,3.09,3.09,0,0,1-4.08-3.93,3.1,3.1,0,0,1,2.22-1.65,2.78,2.78,0,0,1,1.83.25C205.75,19.05,205.88,19.26,205.86,19.29Z"/><path class="cls-5" d="M204.23,69.4c-.21,0-.39-9.5-.39-21.23s.18-21.24.39-21.24.38,9.51.38,21.24S204.44,69.4,204.23,69.4Z"/><rect class="cls-1" x="13.43" y="75.81" width="260.68" height="14.88"/><rect class="cls-3" x="251.35" y="75.81" width="22.76" height="14.88"/></g><g id="Character"><path class="cls-6" d="M287.22,74.67,286,177.08c-.21,17.42,3,43,30.58,42.13h0c23.84-2.6,30.17-25.17,30.35-41.42.09-7.71.18-14.14.24-14.93,0,0,26.1-2.13,28.3-27.91,1.07-12.46,1.17-38.3,1-61.67a48.2,48.2,0,0,0-44.7-47.68l-2.48-.18C302.26,25,286.87,47.71,287.22,74.67Z"/><path class="cls-7" d="M347.12,162.86s-16.34-.23-32.87-12.39c0,0,6.82,19.45,32.73,19Z"/><path class="cls-8" d="M332.34,83.84c-.51.52-3.49-1.87-7.81-2s-7.54,2-8,1.45c-.22-.25.31-1.2,1.72-2.19a10.79,10.79,0,0,1,6.42-1.82,10.39,10.39,0,0,1,6.2,2.25C332.17,82.63,332.59,83.61,332.34,83.84Z"/><path class="cls-8" d="M331.43,92.78a3.5,3.5,0,0,1-3.62,3.27,3.35,3.35,0,0,1-3.36-3.41,3.49,3.49,0,0,1,3.61-3.27A3.35,3.35,0,0,1,331.43,92.78Z"/><path class="cls-8" d="M343.16,113.89c0-.23,2.49-.48,6.52-.69,1,0,2-.17,2.22-.84s0-1.84-.46-3c-.77-2.52-1.58-5.17-2.43-7.93-3.36-11.29-5.71-20.53-5.25-20.66s3.54,8.9,6.9,20.19q1.2,4.17,2.3,8c.3,1.18.86,2.53.24,4a2.55,2.55,0,0,1-1.78,1.36,7.22,7.22,0,0,1-1.73.12C345.65,114.28,343.16,114.11,343.16,113.89Z"/><path class="cls-8" d="M330.5,67.6c-.42,1-3.87.24-8,.45s-7.55,1.13-8,.21c-.21-.44.43-1.33,1.84-2.18a13.2,13.2,0,0,1,6.06-1.71,12.88,12.88,0,0,1,6.16,1.21C330,66.32,330.68,67.15,330.5,67.6Z"/><path class="cls-8" d="M371.52,75.61c-.45.78-3.82-.09-7.91-.22s-7.47.4-7.9-.42c-.19-.38.48-1.08,1.91-1.7a14,14,0,0,1,6-1,14.55,14.55,0,0,1,6,1.48C371.07,74.48,371.72,75.23,371.52,75.61Z"/><path class="cls-6" d="M287.94,93.93c-.43-.22-17.35-6.54-18.08,11.14s17.18,14.77,17.23,14.26S287.94,93.93,287.94,93.93Z"/><path class="cls-7" d="M282,112.41c-.08-.06-.32.2-.85.42a3.07,3.07,0,0,1-2.31,0c-1.84-.76-3.29-3.79-3.24-7a10.24,10.24,0,0,1,1-4.38A3.53,3.53,0,0,1,279,99.16a1.58,1.58,0,0,1,1.79.91c.22.51.09.86.18.89s.39-.28.28-1a2,2,0,0,0-.65-1.13,2.32,2.32,0,0,0-1.69-.52,4.35,4.35,0,0,0-3.33,2.61,10.63,10.63,0,0,0-1.27,4.88c0,3.57,1.66,7,4.18,7.82a3.27,3.27,0,0,0,2.84-.35C281.92,112.84,282,112.44,282,112.41Z"/><path class="cls-8" d="M339,126.13c.19-.45-3.28-1.48-5.71-4.73a20,20,0,0,1-2.45-4.62c-.51-1.28-.9-2.09-1.1-2s-.13.92.15,2.32a13.06,13.06,0,0,0,2.28,5.17,10.58,10.58,0,0,0,4.52,3.46C338,126.25,338.94,126.28,339,126.13Z"/><path class="cls-8" d="M410.65,50.13a4.15,4.15,0,0,0-2-2.43c-2-1.2-4.34-1-6.59-1.07a37.23,37.23,0,0,1-19.39-5.9,87.43,87.43,0,0,0-9-10.93c-7.82-8.06-14.25-13.54-20.9-16.22-8.6-3.46-23-4.87-32-2.51s-17,9.63-18.27,18.82c-5-4.25-12.59-4.22-18.71-1.76l-.16-.06C276.87,30.5,273,37.71,271,44.67s-2.87,14.4-6.56,20.63c-.77,1.31-1.68,2.87-1,4.23a2.88,2.88,0,0,0,3,1.31,8.4,8.4,0,0,0,3.18-1.44l-2.28,5.47a16.08,16.08,0,0,0,7.42-.5c1.45,6.51,3.18,13.94,4.85,18.35,2.86,0,5.47.2,7.23,1.78,2.38,2.15,3.45,6.19,7.42,4.66,2-.79,3.87-5,4.55-7.09a100.46,100.46,0,0,0,4.35-42.59,32.36,32.36,0,0,1,10-7.2l-.3.27c7.2-2.5,15.35-5,22.19-1.58,5.3,2.62,8.42,8.13,12.38,12.52a40.47,40.47,0,0,0,28.85,13.32c.38,7.26-.23,17.52.15,24.78L382.51,80V80c.5-.85.92-1.71,1.32-2.57l.14-.26v0A44,44,0,0,1,386,73l.07.06c3.93,3.47,9.73-1.84,6.62-6.07a10.38,10.38,0,0,0-2.19-2.2,7.17,7.17,0,0,0,6.84,1.77,5.64,5.64,0,0,0,4-5.56,4.77,4.77,0,0,0-2.86-3.84,16.21,16.21,0,0,0,9.2-2C409.48,54.12,411.27,52.42,410.65,50.13Z"/><path class="cls-9" d="M310.67,32.85a22.21,22.21,0,0,0-2.58,2.36,18.45,18.45,0,0,0-4,8.57,32.27,32.27,0,0,0-.66,6.55c0,2.38.18,4.92.36,7.6a67,67,0,0,1,.2,8.46,30.15,30.15,0,0,1-.59,4.46,9.27,9.27,0,0,1-1.82,4.33A3.92,3.92,0,0,1,298,76.4a5.85,5.85,0,0,1-3.27-1.85c-1.66-1.94-2.07-4.39-2.49-6.56l.55.07a22,22,0,0,1-3.14,5.4,7.67,7.67,0,0,1-5,2.73,4.9,4.9,0,0,1-2.66-.46,4.29,4.29,0,0,1-1.8-1.78,4.4,4.4,0,0,1-.55-2.29,3.15,3.15,0,0,1,.83-2l.27.24a16.84,16.84,0,0,1-5.54,4.16,16.13,16.13,0,0,1-1.72.66,2.44,2.44,0,0,1-.61.15,4.15,4.15,0,0,1,.58-.24c.38-.16.95-.39,1.66-.75a17.16,17.16,0,0,0,5.35-4.22l.27.24a3.34,3.34,0,0,0-.17,3.84,3.83,3.83,0,0,0,1.64,1.57,4.43,4.43,0,0,0,2.41.39,7.17,7.17,0,0,0,4.65-2.59,21.22,21.22,0,0,0,3-5.29l.38-.83.17.9c.41,2.16.85,4.52,2.36,6.26a5.25,5.25,0,0,0,2.93,1.66,3.3,3.3,0,0,0,3.1-1,8.82,8.82,0,0,0,1.68-4,29.92,29.92,0,0,0,.58-4.37,70.12,70.12,0,0,0-.16-8.38c-.17-2.68-.34-5.24-.31-7.64a32.18,32.18,0,0,1,.74-6.64,18.28,18.28,0,0,1,4.2-8.63A10.39,10.39,0,0,1,310.67,32.85Z"/><path class="cls-9" d="M390.45,57.94s-.06.07-.2.18l-.65.47a9.53,9.53,0,0,1-1.09.7,14,14,0,0,1-1.57.82,22.85,22.85,0,0,1-11,2,29.22,29.22,0,0,1-15.56-5.75c-5.15-3.7-9.68-9.16-13.37-15.41-1.88-3.12-3.41-6.32-5.09-9.28a34.36,34.36,0,0,0-5.77-7.85,17.61,17.61,0,0,0-7.43-4.51,12.68,12.68,0,0,0-3.92-.45,13.3,13.3,0,0,0-3.58.69,14.86,14.86,0,0,0-8.29,7,17.67,17.67,0,0,0-1.33,3.87,1.08,1.08,0,0,1,0-.27c0-.22.07-.48.12-.79a12.8,12.8,0,0,1,1-2.92,14.69,14.69,0,0,1,2.89-3.91,15.12,15.12,0,0,1,5.47-3.4,14,14,0,0,1,3.7-.75,13.1,13.1,0,0,1,4.08.44,18,18,0,0,1,7.68,4.59,34.13,34.13,0,0,1,5.89,8c1.71,3,3.24,6.17,5.1,9.26,3.66,6.2,8.12,11.6,13.18,15.27a29,29,0,0,0,15.26,5.77,23.08,23.08,0,0,0,10.91-1.77A34.59,34.59,0,0,0,390.45,57.94Z"/><path class="cls-9" d="M392.8,46.61a4,4,0,0,1-.92.64,18.82,18.82,0,0,1-2.74,1.39,26.27,26.27,0,0,1-4.34,1.43,30.06,30.06,0,0,1-5.54.73,29.19,29.19,0,0,1-5.59-.38,26.24,26.24,0,0,1-4.41-1.14,20.77,20.77,0,0,1-2.83-1.21,4.25,4.25,0,0,1-1-.58c0-.11,1.47.63,3.92,1.39a30.71,30.71,0,0,0,4.37,1,34,34,0,0,0,5.48.32,33,33,0,0,0,5.44-.67,30.74,30.74,0,0,0,4.3-1.28C391.37,47.33,392.74,46.51,392.8,46.61Z"/><path class="cls-8" d="M371.72,85.47c-.52.52-3.49-1.88-7.81-2s-7.55,2-8,1.45c-.22-.25.31-1.21,1.72-2.19a10.77,10.77,0,0,1,6.42-1.83,10.42,10.42,0,0,1,6.19,2.26C371.54,84.25,372,85.24,371.72,85.47Z"/><path class="cls-8" d="M367.31,94a3.49,3.49,0,0,1-3.62,3.27,3.34,3.34,0,0,1-3.36-3.4A3.51,3.51,0,0,1,364,90.62,3.35,3.35,0,0,1,367.31,94Z"/><path class="cls-6" d="M528.42,188.32c0-7.49-7.16-7.49-7.16-7.49-2.73-3.59-5.8-2.28-5.8-2.28l-11.59,7.81c-1.7,2.93-12.95,14-12.95,14-3.07-2.28-3.07-6.84-6.74-12.38s-12-4.88-12-4.88,6.48,14.65,7.16,23.77-5,34.56-5,34.56l32.77,9.21s2.07-14,5.74-15.08c4.42-1.36,6.88-7.88,6.88-7.88,4.77-9.67,14.47-23.74,15.84-30.9S528.42,188.32,528.42,188.32Z"/><path class="cls-9" d="M284.75,172.12c20.87,13.11,41.9,18,63.2,9.55l32,8.18,31.5,210.5L226.76,402l9.1-48.89,22.9-175.65Z"/><path class="cls-9" d="M380,189.85s24.9,10.35,34.41,28.46,24.78,69,24.78,69l28.15-51.68L519.55,249s-38.88,107.24-48.64,117c-10.69,10.69-39.81,21.47-54.07,13.15s-17.16-39.89-17.16-39.89Z"/><path class="cls-8" d="M381.69,277.89c-.14,0-.26-9.34-.26-20.87s.12-20.89.26-20.89.26,9.35.26,20.89S381.84,277.89,381.69,277.89Z"/><path class="cls-8" d="M391.44,201.88a28.53,28.53,0,0,1-1.21,3.45c-.78,2.11-1.83,5-2.84,8.33s-1.82,6.3-2.37,8.48a28.19,28.19,0,0,1-.94,3.53,3.29,3.29,0,0,1,.1-1c.09-.62.26-1.52.49-2.63.45-2.21,1.2-5.25,2.22-8.55s2.12-6.23,3-8.31c.43-1,.8-1.88,1.08-2.45A3.94,3.94,0,0,1,391.44,201.88Z"/><path class="cls-9" d="M255.38,256.23l5.78-79.31s-43.48,4-57.87,34.71c-12.12,25.85-45.59,103.62-49.17,114.26C143.6,357.11,160,400,227.73,397.55l7.72-42.45Z"/><path class="cls-8" d="M206.7,364a4,4,0,0,1,.35-.76l1.1-2.13c1-1.89,2.42-4.55,4.15-7.81l1.39-2.58a7.57,7.57,0,0,1,2-2.55,5.43,5.43,0,0,1,3.35-1,15.55,15.55,0,0,1,3.6.59,37.13,37.13,0,0,1,7.28,2.75,19.37,19.37,0,0,1,3.49,2.22l.4.35a1.47,1.47,0,0,1,.35.54,4.79,4.79,0,0,1,.22,1.09,17.31,17.31,0,0,1,0,2.16,83.11,83.11,0,0,1-.82,8.29c-.36,2.67-.77,5.22-1.18,7.66-.82,4.87-1.63,9.23-2.34,12.9s-1.28,6.57-1.69,8.67c-.2,1-.35,1.77-.47,2.36a8.27,8.27,0,0,1-.17.82,3.33,3.33,0,0,1,.07-.84c.07-.55.19-1.35.37-2.38l1.53-8.7c.66-3.67,1.44-8,2.23-12.91.39-2.43.79-5,1.15-7.65s.7-5.41.8-8.24a16,16,0,0,0,0-2.08,4.17,4.17,0,0,0-.19-1,.78.78,0,0,0-.21-.33l-.38-.34a19,19,0,0,0-3.4-2.17,37.13,37.13,0,0,0-7.16-2.74,15,15,0,0,0-3.49-.59,5,5,0,0,0-3.08.85,7.26,7.26,0,0,0-1.89,2.41l-1.42,2.56-4.29,7.72-1.19,2.09A6.09,6.09,0,0,1,206.7,364Z"/><path class="cls-8" d="M175.25,326.27a2.66,2.66,0,0,1,.52,0l1.46.05c1.26.07,3.09.17,5.35.38a69.07,69.07,0,0,1,7.9,1.15,41.1,41.1,0,0,1,9.29,3.08,36.65,36.65,0,0,1,8.17,5.39,21.79,21.79,0,0,1,5,6.27,14,14,0,0,1,1.5,5.17,9.53,9.53,0,0,1,0,1.47,2.31,2.31,0,0,1,0,.5c-.06,0,0-.7-.19-2a14.57,14.57,0,0,0-1.63-5,22,22,0,0,0-4.95-6.08,37,37,0,0,0-8.08-5.28,41.17,41.17,0,0,0-9.16-3.08,77.86,77.86,0,0,0-7.83-1.25c-2.25-.26-4.08-.42-5.34-.54l-1.45-.16A1.85,1.85,0,0,1,175.25,326.27Z"/><path class="cls-8" d="M221.78,322.27a19.88,19.88,0,0,1-1.08,3.12c-.75,1.9-1.86,4.49-3.13,7.32S215.2,338,214.31,340a26.27,26.27,0,0,1-1.42,3,17.47,17.47,0,0,1,1.08-3.13c.74-1.89,1.85-4.48,3.12-7.32s2.37-5.26,3.27-7.25A22.55,22.55,0,0,1,221.78,322.27Z"/><path class="cls-8" d="M245.84,259.85c-.15,0-.26-5-.26-11.23s.11-11.23.26-11.23.26,5,.26,11.23S246,259.85,245.84,259.85Z"/><g class="cls-10"><path d="M214.39,349.72c-11.44,4-19.17,14.37-22.3,26.08-.32,1.22-.54,2.67.28,3.64a2.88,2.88,0,0,0,3.59.3,8.54,8.54,0,0,0,2.55-2.94c5.51-8.81,10.89-17,15.88-27.08Z"/></g><g class="cls-10"><path d="M200.2,327.1c-6-3.33-12.86-4.75-19.69-5.17a30,30,0,0,0-8,.7c-3.57.75-7.68,2.56-8.46,5.12,8.21-2.57,20.3-.88,28.7,1A30.84,30.84,0,0,1,212.89,343,28.68,28.68,0,0,0,200.2,327.1Z"/></g><path class="cls-8" d="M239.44,226.07a7.44,7.44,0,0,1-.4-1.25c-.21-.81-.56-2-1-3.41a56.48,56.48,0,0,0-4.83-10.67,57.06,57.06,0,0,0-7-9.41c-1-1.11-1.87-2-2.47-2.56a6.29,6.29,0,0,1-.91-1,6,6,0,0,1,1,.81c.65.54,1.55,1.38,2.61,2.46a49.28,49.28,0,0,1,11.9,20.22,35.21,35.21,0,0,1,.88,3.47A6.11,6.11,0,0,1,239.44,226.07Z"/><path class="cls-11" d="M255.41,401.92,207,285c-2.21-5.34.56-9.66,6.2-9.66h9.74c4,0,6.69-2.19,6.95-5.61l.32-4.3c.26-3.42,3-5.61,7-5.61h46.32a16.21,16.21,0,0,1,10.72,4.74l3.76,3.64A16.15,16.15,0,0,0,308.65,273h59c5.63,0,11.94,4.32,14.09,9.66l48,119.28Z"/><g class="cls-10"><path d="M255.41,401.92,207,285c-2.21-5.34.56-9.66,6.2-9.66h9.74c4,0,6.69-2.19,6.95-5.61l.32-4.3c.26-3.42,3-5.61,7-5.61h46.32a16.21,16.21,0,0,1,10.72,4.74l3.76,3.64A16.15,16.15,0,0,0,308.65,273h59c5.63,0,11.94,4.32,14.09,9.66l48,119.28Z"/></g><path class="cls-3" d="M247.4,362.22l-18.27-70.65c-1.2-4.65,1.85-9.32,6.09-9.32H378.44a6.54,6.54,0,0,1,6.1,5.26l26.6,106.34c1.17,4.67-.7,7.47-4.94,7.42l-144.11,0a6.52,6.52,0,0,1-6-5.22Z"/><path class="cls-1" d="M257.3,398.72l-7.78-111.25a6.82,6.82,0,0,1,6.8-7.3H404.73V398.72Z"/><path class="cls-5" d="M255.64,401.27l17.66-114.7a8.21,8.21,0,0,1,8.07-6.4H431.49a8.11,8.11,0,0,1,7.58,11.3l-32.42,105Z"/><path class="cls-11" d="M255.41,401.87l36.41-107.42A10.77,10.77,0,0,1,302,287H456.71a7.55,7.55,0,0,1,6.91,10L429.76,401.92Z"/><g class="cls-10"><path d="M330.24,383.88s-5.84.27-8.54.45a79.38,79.38,0,0,1-37.6-6.67c-3.64-1.62-7.49-3.91-8.6-7.74-1.23-4.29,1.55-8.76,4.94-11.67s7.51-5,10.45-8.34,4.33-8.79,1.43-12.19l-.8.59c-2.09,5.3-7.92,7.86-12.75,10.9a45,45,0,0,0-18.9,24.7c-1.7,5.56-2.15,12,1.22,16.78,2.39,3.37,6.31,5.28,10.18,6.71,11.71,4.34,24.22,4.51,36.71,4.52,3.94,0,16-.16,16-.16,3.81-1,5.06-3,7.36-6.23C333.49,392.58,333,386.19,330.24,383.88Z"/></g><path class="cls-6" d="M330.24,383.88l-40.36-6.07-15.68-9a7.11,7.11,0,0,1-3.6-5.7.62.62,0,0,0,0-.13,7.17,7.17,0,0,1,4.44-6.83c5-2.09,12.85-4.88,16.21-10.77,4.82-8.45,0-10.21,0-10.21l-33.71,13.48-23.86,16.24L228.87,392l33.29,10.87s37.1,2.09,47.34.94,10.23-5.91,10.23-5.91c1.9-.6,5.75-4,5.75-7.12,5-4.66,4.76-6.86,4.76-6.86"/><path class="cls-7" d="M278.61,395.54a7.55,7.55,0,0,1,1.66.32c1.06.25,2.59.59,4.49,1A95.24,95.24,0,0,0,314.89,398c1.93-.23,3.48-.45,4.55-.63a7.79,7.79,0,0,1,1.69-.18,9.23,9.23,0,0,1-1.64.45c-1.06.25-2.61.54-4.53.84a82.15,82.15,0,0,1-30.3-1.18c-1.9-.45-3.42-.86-4.46-1.2A8.44,8.44,0,0,1,278.61,395.54Z"/><path class="cls-7" d="M282.3,389.3a7.93,7.93,0,0,1,1.69.32c1.07.26,2.63.6,4.56,1a98.33,98.33,0,0,0,15.25,1.69,104.53,104.53,0,0,0,15.35-.71c2-.23,3.53-.46,4.62-.63a9.2,9.2,0,0,1,1.71-.2,8.29,8.29,0,0,1-1.66.46c-1.08.26-2.65.55-4.61.85a86.35,86.35,0,0,1-15.43.91,82.8,82.8,0,0,1-15.33-1.9c-1.93-.43-3.48-.84-4.53-1.18A8.31,8.31,0,0,1,282.3,389.3Z"/><path class="cls-1" d="M520.36,240l-71.72,14.17A9.15,9.15,0,0,1,437.9,247l-19.61-99.27a9.15,9.15,0,0,1,7.2-10.75L471,128l42.37,29.34,14.22,71.95A9.15,9.15,0,0,1,520.36,240Z"/><path class="cls-2" d="M471,128l5.52,27.94a8.5,8.5,0,0,0,10,6.7l26.86-5.3Z"/><path class="cls-3" d="M477.35,158.28s1,6.84,9.14,7.55c.3,0,.61,0,.92,0,3.63-.06,27.53-.52,27.43-1s-1.49-7.5-1.49-7.5l-26.86,5.3S479.74,163.7,477.35,158.28Z"/><path class="cls-8" d="M520.36,240l.39-.11a7.47,7.47,0,0,0,1.13-.37,9.08,9.08,0,0,0,5.67-9.67c-.52-2.91-1.23-6.25-2-10l-12.44-62.49.09.13-42.39-29.3.19,0-26.25,5.2-13.73,2.71-3.48.69a23.81,23.81,0,0,0-3.43.81,8.87,8.87,0,0,0-5,4.65,8.65,8.65,0,0,0-.72,4.75c.25,1.61.62,3.26.93,4.88l1.91,9.68q1.89,9.62,3.73,18.93l7.06,35.79q1.68,8.57,3.28,16.67c.53,2.7,1.05,5.37,1.57,8,.26,1.31.51,2.61.77,3.9a20.35,20.35,0,0,0,.91,3.75,9,9,0,0,0,5.23,5,8.8,8.8,0,0,0,3.55.51,33.48,33.48,0,0,0,3.56-.6l13.54-2.66,40.86-8,11.12-2.14,2.89-.55,1-.17s-.33.09-1,.23l-2.89.59-11.1,2.24-40.83,8.15L451,253.89a31.42,31.42,0,0,1-3.6.62,9.34,9.34,0,0,1-9.21-5.75,21.23,21.23,0,0,1-1-3.83c-.25-1.29-.51-2.59-.77-3.9q-.78-3.93-1.58-8l-3.3-16.66-7.09-35.79q-1.83-9.3-3.74-18.93L418.88,152c-.31-1.63-.68-3.23-.94-4.91a9.3,9.3,0,0,1,.76-5,9.41,9.41,0,0,1,5.26-4.92,23.48,23.48,0,0,1,3.51-.83l3.48-.69,13.73-2.71,26.25-5.18.1,0,.09.06,42.36,29.37.07,0,0,.08c5.09,26,9.31,47.51,12.25,62.54.72,3.76,1.42,7.09,1.92,10a9.12,9.12,0,0,1-5.84,9.76,6.72,6.72,0,0,1-1.14.34Z"/><path class="cls-8" d="M513.35,157.3a4,4,0,0,1-.68.18l-2,.44-7.26,1.52-10.78,2.18-6.38,1.26a8.75,8.75,0,0,1-9.13-4.43,10.13,10.13,0,0,1-1.07-3.33c-.43-2.21-.85-4.34-1.24-6.38-.78-4.05-1.48-7.71-2.08-10.8l-1.35-7.29c-.15-.82-.26-1.48-.35-2a3.36,3.36,0,0,1-.08-.7,3.7,3.7,0,0,1,.19.68l.43,2c.37,1.77.89,4.24,1.52,7.26s1.37,6.74,2.19,10.78c.41,2,.83,4.16,1.27,6.37a9.79,9.79,0,0,0,1,3.18,8.36,8.36,0,0,0,2.23,2.59,8.26,8.26,0,0,0,6.37,1.59l6.37-1.23,10.8-2.07,7.3-1.36,2-.34A3.36,3.36,0,0,1,513.35,157.3Z"/><path class="cls-8" d="M474.55,153.16c0,.14-8.42,1.93-18.87,4s-18.94,3.62-19,3.48,8.42-1.93,18.87-4S474.52,153,474.55,153.16Z"/><path class="cls-8" d="M495.25,163.55c0,.14-12.44,2.72-27.84,5.76s-27.92,5.4-28,5.26,12.44-2.72,27.85-5.77S495.22,163.41,495.25,163.55Z"/><path class="cls-8" d="M498,177.49c0,.14-12.44,2.72-27.84,5.76s-27.92,5.4-28,5.26,12.44-2.73,27.85-5.77S498,177.34,498,177.49Z"/><path class="cls-8" d="M445,202.44c0-.14,12.44-2.72,27.84-5.76s27.92-5.4,27.95-5.26-12.44,2.72-27.85,5.77S445,202.58,445,202.44Z"/><path class="cls-8" d="M503.51,205.36c0,.14-12.44,2.72-27.84,5.76s-27.92,5.4-27.95,5.26,12.44-2.72,27.84-5.77S503.48,205.22,503.51,205.36Z"/><path class="cls-8" d="M506.26,219.3c0,.14-12.44,2.72-27.84,5.76s-27.92,5.4-27.95,5.26,12.44-2.73,27.85-5.77S506.23,219.16,506.26,219.3Z"/><rect class="cls-11" x="416.48" y="206.11" width="62.09" height="27.9" rx="4.22" transform="translate(-34.16 90.89) rotate(-11.17)"/><path class="cls-6" d="M509.08,166.12s5.3-6.7,9.38-3,2.9,5.68-1,11.6c0,0,8.66-.45,5.88,8.44,0,0,8.63-1,7.8,6.33,0,0,6.52,6.37,3.13,10.48s-15.68,11.53-18.78,10.25-3.13-5.67-3.13-5.67-3.69-1.66-4.71-3.61.73-4.67.73-4.67-3.11-3.18-3.88-4.07.42-5,.42-5l5-4.82s-6.84,3-8.27,1.84-3-2.12-1.51-4.18,7-6.7,7-6.7Z"/><path class="cls-7" d="M513.07,205.11a23.55,23.55,0,0,1,2.25-2.72,25.8,25.8,0,0,1,6.32-5.79,61.91,61.91,0,0,0,7.1-4.57c1.65-1.37,2.3-2.57,2.42-2.49s-.4,1.38-2,2.92-4.25,3.12-7,4.83a31.88,31.88,0,0,0-6.34,5.49A11,11,0,0,1,513.07,205.11Z"/><path class="cls-7" d="M508.28,197.6c-.16-.16,3-3.59,7.1-7.66,2-2,3.81-4,5.32-5.15a6.45,6.45,0,0,1,2.66-1.58c.06.11-.93.72-2.27,2s-3.05,3.26-5.13,5.29C511.88,194.59,508.44,197.76,508.28,197.6Z"/><path class="cls-7" d="M509.91,182.42c-.16-.21,1.8-1.77,4-3.84s3.3-4.27,3.51-4.19-.61,2.61-2.93,4.78S510,182.57,509.91,182.42Z"/><path class="cls-7" d="M509.08,166.1a1.71,1.71,0,0,1-.08.5l-.34,1.41q-.51,2-1.4,5.39v0l0,0c-1,.88-2.13,1.89-3.34,3a29.37,29.37,0,0,0-3.69,3.95,2.11,2.11,0,0,0-.38,1.25,2,2,0,0,0,.67,1.17,12.85,12.85,0,0,0,1.22,1,1.83,1.83,0,0,0,1.38.27,26.47,26.47,0,0,0,6.71-2.08l1.6-.66-1.24,1.21-4.95,4.83.08-.1a6.31,6.31,0,0,0-.26,5,14.17,14.17,0,0,0,3.92,4l.34.25L509,197c-1.09,1.28-1.85,3.3-.44,4.54a18.33,18.33,0,0,0,4.7,3.21l-.59.32v-.12h0c.11.12-.23-.29.24.35,1.12-.53.32-.22.57-.3h0v.6a7.4,7.4,0,0,0,.08.81A6.52,6.52,0,0,0,514,208a4.07,4.07,0,0,0,.88,1.32,2.43,2.43,0,0,0,1.28.73,7.65,7.65,0,0,0,3.27-.64,28.58,28.58,0,0,0,3.25-1.46,53.93,53.93,0,0,0,5.79-3.5,34.45,34.45,0,0,0,5.06-4.15,4.13,4.13,0,0,0,1.31-2.61,6.28,6.28,0,0,0-.53-2.91,16.63,16.63,0,0,0-3.41-5l-.12-.13v-.19a6.24,6.24,0,0,0-.29-2.84,4.2,4.2,0,0,0-1.75-2.06,9.26,9.26,0,0,0-5.33-1l-.5,0,.12-.49c.13-.54.28-1.07.39-1.6a8.67,8.67,0,0,0,.13-1.59,4.48,4.48,0,0,0-.89-2.82,6.52,6.52,0,0,0-5.16-2h-.58l.31-.48A49.43,49.43,0,0,0,520,170a6.81,6.81,0,0,0,.71-2.26,3.67,3.67,0,0,0-.45-2.09,9.29,9.29,0,0,0-2.72-3,4,4,0,0,0-3.24-.33,10.74,10.74,0,0,0-4,2.52c-.41.37-.7.68-.9.88s-.3.31-.32.3a1.37,1.37,0,0,1,.25-.36c.18-.22.45-.55.84-1a13.83,13.83,0,0,1,1.56-1.37,8.27,8.27,0,0,1,2.5-1.34,4.33,4.33,0,0,1,3.54.29l.83.61.75.72a8.4,8.4,0,0,1,1.36,1.76,4.13,4.13,0,0,1,.53,2.37,6.94,6.94,0,0,1-.73,2.44,47,47,0,0,1-2.77,4.65l-.27-.47a9,9,0,0,1,3,.43,5.62,5.62,0,0,1,2.69,1.78,5.18,5.18,0,0,1,1.06,3.21,10.16,10.16,0,0,1-.13,1.73c-.11.56-.27,1.12-.4,1.7l-.38-.46a9.94,9.94,0,0,1,5.8,1.09,4.89,4.89,0,0,1,2.06,2.42,7,7,0,0,1,.36,3.21l-.11-.32a17.24,17.24,0,0,1,3.59,5.2,6.86,6.86,0,0,1,.6,3.29,4.81,4.81,0,0,1-.48,1.69,7,7,0,0,1-1,1.39,34.4,34.4,0,0,1-5.18,4.27,54,54,0,0,1-5.88,3.56,29.37,29.37,0,0,1-3.34,1.5,8.48,8.48,0,0,1-3.68.69,4.09,4.09,0,0,1-2.79-2.55,7.4,7.4,0,0,1-.49-1.77c0-.3-.07-.6-.08-.9v-.75h0c.24-.09-.55.22.57-.31.47.64.13.23.23.35v.24l-.06.6-.52-.28a18.88,18.88,0,0,1-4.92-3.4,3.88,3.88,0,0,1-.85-1.35,3.23,3.23,0,0,1-.06-1.6,6,6,0,0,1,1.35-2.65l.06.58a14.56,14.56,0,0,1-4.13-4.29,5.11,5.11,0,0,1-.46-2.93,9.1,9.1,0,0,1,.73-2.74l0-.06.05,0,5-4.8.36.54a26.11,26.11,0,0,1-6.93,2.07,2.44,2.44,0,0,1-1.79-.41,13.88,13.88,0,0,1-1.25-1.07,2.51,2.51,0,0,1-.82-1.52,2.54,2.54,0,0,1,.48-1.58,29,29,0,0,1,3.84-4c1.24-1.12,2.38-2.11,3.4-3l-.05.09c.66-2.29,1.19-4.08,1.56-5.38.18-.56.32-1,.43-1.38A2.28,2.28,0,0,1,509.08,166.1Z"/></g><g id="Files"><path class="cls-1" d="M144.89,220H83.19a7.71,7.71,0,0,1-7.72-7.72v-85.4a7.72,7.72,0,0,1,7.72-7.72h39.13l30.29,31.22v61.9A7.72,7.72,0,0,1,144.89,220Z"/><path class="cls-2" d="M122.32,119.2v24a7.18,7.18,0,0,0,7.18,7.18h23.11Z"/><path class="cls-3" d="M122.63,145.34s-.3,5.83,6.34,7.75a6.43,6.43,0,0,0,.76.17c3,.54,22.88,4.08,22.88,3.62v-6.46H129.5S123.73,150.22,122.63,145.34Z"/><path class="cls-8" d="M144.89,220s.46,0,1.33-.15a7.75,7.75,0,0,0,3.5-1.63,7.63,7.63,0,0,0,2.77-5.45c0-2.49,0-5.38,0-8.61,0-12.93,0-31.43-.09-53.78l.06.15-30.31-31.2.18.08H84.93a19.38,19.38,0,0,0-3,.11,7.46,7.46,0,0,0-6.21,6.82c0,1.37,0,2.8,0,4.19q0,4.18,0,8.33v16.28c0,10.68,0,21,0,30.79q0,7.36,0,14.34v10.22a16.54,16.54,0,0,0,.14,3.25,7.54,7.54,0,0,0,3.49,5,7.42,7.42,0,0,0,2.85,1,25.61,25.61,0,0,0,3,.08l11.64,0,35.15.08,9.56.05,2.48,0,.85,0-.85,0-2.48,0-9.56.05-35.15.08-11.64,0a29.26,29.26,0,0,1-3.09-.08,7.93,7.93,0,0,1-6.72-6.29,18.77,18.77,0,0,1-.15-3.34c0-1.11,0-2.22,0-3.35v-6.87q0-7,0-14.34c0-9.81,0-20.11,0-30.79V130.58c0-1.41,0-2.79,0-4.23a7.86,7.86,0,0,1,1.47-4.06,7.94,7.94,0,0,1,5.18-3.24,19.62,19.62,0,0,1,3.05-.11h37.49l.08.07,30.27,31.25.06.06v.09c0,22.35-.07,40.85-.1,53.78,0,3.24,0,6.11,0,8.62a7.69,7.69,0,0,1-6.45,7.13,4.63,4.63,0,0,1-1,.09A2.86,2.86,0,0,1,144.89,220Z"/><path class="cls-8" d="M152.61,150.42a2.08,2.08,0,0,1-.59.05l-1.71.05-6.26.08-9.28.06h-5.49a7.48,7.48,0,0,1-6.88-5.19,8.85,8.85,0,0,1-.34-2.95c0-1.9,0-3.73,0-5.48,0-3.48,0-6.62,0-9.29s.07-4.71.09-6.26l0-1.7a2.08,2.08,0,0,1,0-.59,2.7,2.7,0,0,1,.05.59c0,.45,0,1,0,1.7,0,1.55,0,3.67.08,6.26s0,5.81.06,9.29c0,1.75,0,3.58,0,5.48a7.92,7.92,0,0,0,.33,2.79,6.72,6.72,0,0,0,1.41,2.49,6.9,6.9,0,0,0,5,2.35l5.48,0,9.28,0,6.26.09,1.71.05A2.08,2.08,0,0,1,152.61,150.42Z"/><path class="cls-8" d="M121.15,140.65c0,.14-7.29.26-16.27.26s-16.28-.12-16.28-.26,7.28-.26,16.28-.26S121.15,140.5,121.15,140.65Z"/><path class="cls-8" d="M136.6,152.64c0,.14-10.75.26-24,.26s-24-.12-24-.26,10.74-.26,24-.26S136.6,152.49,136.6,152.64Z"/><path class="cls-8" d="M136.6,164.63c0,.14-10.75.26-24,.26s-24-.12-24-.26,10.74-.26,24-.26S136.6,164.48,136.6,164.63Z"/><path class="cls-8" d="M136.6,176.62c0,.14-10.75.26-24,.26s-24-.12-24-.26,10.74-.26,24-.26S136.6,176.47,136.6,176.62Z"/><path class="cls-8" d="M136.6,188.61c0,.14-10.75.26-24,.26s-24-.12-24-.26,10.74-.26,24-.26S136.6,188.47,136.6,188.61Z"/><path class="cls-8" d="M136.6,200.6c0,.14-10.75.26-24,.26s-24-.12-24-.26,10.74-.26,24-.26S136.6,200.46,136.6,200.6Z"/><rect class="cls-11" x="61.63" y="179.85" width="52.41" height="23.55" rx="4.22"/><path class="cls-1" d="M105.59,360.77h-61a7.63,7.63,0,0,1-7.63-7.63v-84.5A7.63,7.63,0,0,1,44.54,261H83.26l30,30.89v61.25A7.64,7.64,0,0,1,105.59,360.77Z"/><path class="cls-2" d="M83.26,261v23.78a7.1,7.1,0,0,0,7.1,7.11h22.87Z"/><path class="cls-3" d="M83.57,286.87s-.3,5.77,6.26,7.66a4.91,4.91,0,0,0,.76.17c3,.54,22.64,4,22.64,3.58v-6.39H90.36S84.65,291.7,83.57,286.87Z"/><path class="cls-8" d="M105.59,360.77s.46,0,1.32-.15a7.6,7.6,0,0,0,3.46-1.62,7.51,7.51,0,0,0,2.73-5.38c0-2.47,0-5.33,0-8.52,0-12.79,0-31.09-.09-53.21l.06.15-30-30.86.18.07h-37a20.13,20.13,0,0,0-2.93.11,7.43,7.43,0,0,0-4.8,3,7.33,7.33,0,0,0-1.35,3.76c0,1.35,0,2.77,0,4.14v54.82l0,14.18v10.11a17,17,0,0,0,.15,3.22,7.4,7.4,0,0,0,6.27,5.9,25,25,0,0,0,3,.08l11.53,0,34.77.08,9.45.05,2.46,0,.84,0-.84,0-2.46,0-9.45,0L58.07,361H46.54a26.35,26.35,0,0,1-3.06-.07,7.82,7.82,0,0,1-3-1,7.9,7.9,0,0,1-3.67-5.19,18.28,18.28,0,0,1-.15-3.3V327.08l0-30.47V272.26c0-1.39,0-2.75,0-4.18a7.9,7.9,0,0,1,6.58-7.22,20.56,20.56,0,0,1,3-.12H83.36l.08.08,29.94,30.91.06.06v.09c0,22.12-.07,40.42-.09,53.21,0,3.2,0,6,0,8.53a7.71,7.71,0,0,1-2.85,5.48,7.48,7.48,0,0,1-3.53,1.57,4.63,4.63,0,0,1-1,.09Z"/><path class="cls-8" d="M113.23,291.89a2.16,2.16,0,0,1-.59.05L111,292l-6.19.08-9.19.06H90.14a7.31,7.31,0,0,1-5.3-2.49,7.18,7.18,0,0,1-1.5-2.64,8.71,8.71,0,0,1-.34-2.92c0-1.88,0-3.69,0-5.43,0-3.44,0-6.55,0-9.18s.07-4.66.09-6.2c0-.68,0-1.24,0-1.68a2.36,2.36,0,0,1,.06-.59,2.81,2.81,0,0,1,0,.59c0,.44,0,1,0,1.68,0,1.54,0,3.64.08,6.2s0,5.74.06,9.18c0,1.74,0,3.55,0,5.43a8,8,0,0,0,.32,2.76,6.89,6.89,0,0,0,6.33,4.78l5.41,0,9.19.06,6.19.08,1.69,0A2.81,2.81,0,0,1,113.23,291.89Z"/><path class="cls-8" d="M82.1,282.22c0,.15-7.21.26-16.1.26s-16.1-.11-16.1-.26S57.11,282,66,282,82.1,282.08,82.1,282.22Z"/><path class="cls-8" d="M97.38,294.09c0,.14-10.63.26-23.74.26s-23.74-.12-23.74-.26,10.63-.26,23.74-.26S97.38,293.94,97.38,294.09Z"/><path class="cls-8" d="M97.38,306c0,.14-10.63.26-23.74.26S49.9,306.09,49.9,306s10.63-.26,23.74-.26S97.38,305.8,97.38,306Z"/><path class="cls-8" d="M97.38,317.81c0,.14-10.63.26-23.74.26S49.9,318,49.9,317.81s10.63-.26,23.74-.26S97.38,317.67,97.38,317.81Z"/><path class="cls-8" d="M97.38,329.67c0,.15-10.63.26-23.74.26s-23.74-.11-23.74-.26,10.63-.26,23.74-.26S97.38,329.53,97.38,329.67Z"/><path class="cls-8" d="M97.38,341.54c0,.14-10.63.26-23.74.26s-23.74-.12-23.74-.26,10.63-.26,23.74-.26S97.38,341.39,97.38,341.54Z"/><rect class="cls-11" x="23.22" y="321.01" width="51.85" height="23.3" rx="4.22"/><path class="cls-1" d="M225.62,119.41H165a7.59,7.59,0,0,1-7.59-7.59v-84A7.59,7.59,0,0,1,165,20.27h38.47L233.21,51v60.86A7.59,7.59,0,0,1,225.62,119.41Z"/><path class="cls-2" d="M203.43,20.27V43.9A7.06,7.06,0,0,0,210.49,51h22.72Z"/><path class="cls-3" d="M203.74,46s-.3,5.74,6.23,7.62c.24.07.49.12.74.17,3,.53,22.5,4,22.5,3.55V51H210.49S204.82,50.77,203.74,46Z"/><path class="cls-8" d="M225.62,119.41s.45,0,1.31-.16a7.69,7.69,0,0,0,3.44-1.6,7.55,7.55,0,0,0,2.72-5.36c0-2.44,0-5.28,0-8.46,0-12.71-.05-30.89-.09-52.87l.06.15-29.8-30.66.18.07H166.68a20,20,0,0,0-2.92.11,7.31,7.31,0,0,0-4.76,3,7.22,7.22,0,0,0-1.34,3.73c0,1.34,0,2.75,0,4.12v24.2c0,10.49,0,20.62,0,30.26,0,4.82,0,9.53,0,14.1v6.75c0,1.11,0,2.21,0,3.3a17.65,17.65,0,0,0,.14,3.19,7.4,7.4,0,0,0,6.24,5.87,26.78,26.78,0,0,0,3,.07l11.45,0,34.55.08,9.39,0,2.45,0,.83,0-.83,0-2.45,0-9.39.05-34.55.08-11.45,0a28.39,28.39,0,0,1-3-.08,7.93,7.93,0,0,1-3-1,7.83,7.83,0,0,1-3.64-5.16,18,18,0,0,1-.16-3.27v-3.3q0-3.33,0-6.75c0-4.57,0-9.28,0-14.1,0-9.64,0-19.77,0-30.26q0-7.87,0-16V31.46c0-1.39,0-2.74,0-4.16a7.71,7.71,0,0,1,1.44-4,7.82,7.82,0,0,1,5.1-3.18,20.29,20.29,0,0,1,3-.12h36.86l.07.08,29.75,30.71.06.07V51c0,22-.07,40.16-.09,52.87,0,3.18,0,6-.05,8.48a7.6,7.6,0,0,1-2.83,5.44,7.53,7.53,0,0,1-3.51,1.57,6.24,6.24,0,0,1-1,.09Z"/><path class="cls-8" d="M233.21,51a2.27,2.27,0,0,1-.59.06l-1.67,0-6.15.09-9.13.05h-5.4A7.26,7.26,0,0,1,205,48.73a7.34,7.34,0,0,1-1.49-2.63,8.31,8.31,0,0,1-.33-2.9c0-1.87,0-3.67,0-5.39,0-3.42,0-6.51.06-9.13s.06-4.63.08-6.15c0-.68,0-1.23,0-1.67a2.08,2.08,0,0,1,.05-.59,2.08,2.08,0,0,1,0,.59c0,.44,0,1,.05,1.67,0,1.52.05,3.61.08,6.15s0,5.71.06,9.13c0,1.72,0,3.52,0,5.39a7.87,7.87,0,0,0,.31,2.74,6.86,6.86,0,0,0,6.29,4.75l5.38,0,9.13.06,6.15.08,1.67,0A3.86,3.86,0,0,1,233.21,51Z"/><path class="cls-8" d="M202.28,41.36c0,.14-7.16.26-16,.26s-16-.12-16-.26,7.17-.26,16-.26S202.28,41.21,202.28,41.36Z"/><path class="cls-8" d="M217.47,53.14c0,.15-10.57.26-23.59.26s-23.6-.11-23.6-.26,10.56-.26,23.6-.26S217.47,53,217.47,53.14Z"/><path class="cls-8" d="M217.47,64.93c0,.14-10.57.26-23.59.26s-23.6-.12-23.6-.26,10.56-.26,23.6-.26S217.47,64.79,217.47,64.93Z"/><path class="cls-8" d="M217.47,76.72c0,.14-10.57.26-23.59.26s-23.6-.12-23.6-.26,10.56-.26,23.6-.26S217.47,76.57,217.47,76.72Z"/><path class="cls-8" d="M217.47,88.5c0,.15-10.57.26-23.59.26s-23.6-.11-23.6-.26,10.56-.26,23.6-.26S217.47,88.36,217.47,88.5Z"/><path class="cls-8" d="M217.47,100.29c0,.15-10.57.26-23.59.26s-23.6-.12-23.6-.26,10.56-.26,23.6-.26S217.47,100.15,217.47,100.29Z"/><rect class="cls-11" x="143.77" y="79.89" width="51.52" height="23.15" rx="4.22"/><path class="cls-1" d="M600.8,372.63H539.18a7.71,7.71,0,0,1-7.71-7.71v-85.3a7.71,7.71,0,0,1,7.71-7.71h39.08l30.25,31.18v61.83A7.71,7.71,0,0,1,600.8,372.63Z"/><path class="cls-2" d="M578.26,271.91v24a7.17,7.17,0,0,0,7.17,7.17h23.08Z"/><path class="cls-3" d="M578.57,298s-.3,5.83,6.33,7.74a6.27,6.27,0,0,0,.75.17c3,.54,22.86,4.07,22.86,3.61v-6.45H585.43S579.66,302.9,578.57,298Z"/><path class="cls-8" d="M600.8,372.63s.46,0,1.33-.16a7.79,7.79,0,0,0,3.5-1.63,7.63,7.63,0,0,0,2.76-5.44c0-2.49,0-5.37,0-8.59,0-12.92,0-31.39-.09-53.72l.06.15-30.27-31.15.18.07H540.92a20.54,20.54,0,0,0-3,.11,7.46,7.46,0,0,0-4.84,3,7.37,7.37,0,0,0-1.37,3.79c0,1.37,0,2.8,0,4.19q0,4.19,0,8.32v16.26c0,10.66,0,20.95,0,30.75q0,7.35,0,14.32v6.86c0,1.12,0,2.24,0,3.35a17.27,17.27,0,0,0,.15,3.24,7.53,7.53,0,0,0,6.33,6c1,.12,2,.06,3,.08h11.64l35.1.09,9.54,0,2.48,0,.85,0-.85,0-2.48,0-9.54.05-35.1.08-11.64,0a29.14,29.14,0,0,1-3.08-.08,7.91,7.91,0,0,1-6.71-6.28,17.77,17.77,0,0,1-.15-3.33c0-1.11,0-2.23,0-3.35v-6.86q0-7,0-14.32c0-9.8,0-20.09,0-30.75V283.28c0-1.41,0-2.78,0-4.22a7.84,7.84,0,0,1,1.46-4.06,8,8,0,0,1,5.18-3.23,21,21,0,0,1,3-.12h37.44l.07.08,30.23,31.2.06.07v.08c0,22.33-.07,40.8-.09,53.72,0,3.22,0,6.09,0,8.6a7.74,7.74,0,0,1-2.87,5.53,7.63,7.63,0,0,1-3.57,1.6,6.54,6.54,0,0,1-1,.09Z"/><path class="cls-8" d="M608.51,303.09a2.41,2.41,0,0,1-.6.06l-1.7,0-6.25.09-9.27.05h-5.48a7.42,7.42,0,0,1-6.87-5.18,8.79,8.79,0,0,1-.34-2.94c0-1.9,0-3.73,0-5.48,0-3.47,0-6.61.05-9.27s.06-4.71.08-6.25c0-.7,0-1.26.05-1.7a2.41,2.41,0,0,1,.06-.6,4.13,4.13,0,0,1,0,.6l.05,1.7c0,1.54,0,3.66.08,6.25s0,5.8.06,9.27c0,1.75,0,3.58,0,5.48a8.13,8.13,0,0,0,.32,2.78,7,7,0,0,0,1.41,2.49,6.93,6.93,0,0,0,5,2.34l5.47,0,9.27.06,6.25.08,1.7.05A4.13,4.13,0,0,1,608.51,303.09Z"/><path class="cls-8" d="M577.09,293.33c0,.15-7.28.26-16.25.26s-16.26-.11-16.26-.26,7.28-.26,16.26-.26S577.09,293.19,577.09,293.33Z"/><path class="cls-8" d="M592.52,305.31c0,.14-10.74.26-24,.26s-24-.12-24-.26,10.73-.26,24-.26S592.52,305.16,592.52,305.31Z"/><path class="cls-8" d="M592.52,317.28c0,.15-10.74.26-24,.26s-24-.11-24-.26,10.73-.26,24-.26S592.52,317.14,592.52,317.28Z"/><path class="cls-8" d="M592.52,329.26c0,.14-10.74.26-24,.26s-24-.12-24-.26,10.73-.26,24-.26S592.52,329.11,592.52,329.26Z"/><path class="cls-8" d="M592.52,341.23c0,.15-10.74.26-24,.26s-24-.11-24-.26,10.73-.26,24-.26S592.52,341.09,592.52,341.23Z"/><path class="cls-8" d="M592.52,356c0,.15-10.74.26-24,.26s-24-.11-24-.26,10.73-.26,24-.26S592.52,355.86,592.52,356Z"/><rect class="cls-11" x="517.65" y="332.48" width="52.34" height="23.52" rx="4.22"/><text class="cls-12" transform="matrix(0.98, -0.19, 0.19, 0.98, 431.96, 227.93)">POST</text><text class="cls-13" transform="translate(524.7 348.23)">DELETE</text><text class="cls-14" transform="translate(155.73 96.06)">GET</text><text class="cls-15" transform="translate(68.55 196.09)">PATCH</text><text class="cls-14" transform="translate(36.94 337.41)">PUT</text></g><g id="Desk"><path class="cls-8" d="M667.72,401.92c0,.14-149.48.26-333.84.26S0,402.06,0,401.92s149.45-.26,333.88-.26S667.72,401.78,667.72,401.92Z"/></g></g></svg>