<svg id="Layer_1" data-name="Layer 1" xmlns="http://www.w3.org/2000/svg" viewBox="0 0 267.32 170.55"><defs><style>.cls-1{fill:#f06f63;}.cls-2{fill:#f5b045;}</style></defs><path class="cls-1" d="M130.63,121.53a41.06,41.06,0,0,1-5.26,3.33,48.34,48.34,0,0,1-22.13,5.52,38.76,38.76,0,0,1-17.83-4.11,46.52,46.52,0,0,1-13.92-10.71,49.81,49.81,0,0,1-9.11-15,46.52,46.52,0,0,1-.25-33.62A44.21,44.21,0,0,1,85,42a43.68,43.68,0,0,1,19-4q12.57,0,21.75,5.51A40.06,40.06,0,0,1,130.7,47a47,47,0,0,0-5.55,5.86,47.91,47.91,0,0,0-4.64,7,22.3,22.3,0,0,0-4.57-3.24,25,25,0,0,0-6.16-2.25,29.77,29.77,0,0,0-6.28-.7,23.82,23.82,0,0,0-11.61,2.69,25.67,25.67,0,0,0-8.21,7,30.92,30.92,0,0,0-4.94,9.75,37,37,0,0,0-1.67,10.84A35.45,35.45,0,0,0,79,95.55a31,31,0,0,0,5.46,9.81,27.28,27.28,0,0,0,8.46,6.8,23.19,23.19,0,0,0,10.84,2.56,28.1,28.1,0,0,0,6.42-.77,24.37,24.37,0,0,0,6.35-2.43,23.07,23.07,0,0,0,4-2.8,42.81,42.81,0,0,0,4.21,6.55A43.92,43.92,0,0,0,130.63,121.53Z"/><path class="cls-2" d="M164.84,130.38a41.36,41.36,0,0,1-18.15-3.92,44.57,44.57,0,0,1-14-10.39,48.12,48.12,0,0,1-12.25-31.88,45.92,45.92,0,0,1,3.39-17.45A48.31,48.31,0,0,1,133.22,52a44.71,44.71,0,0,1,14.18-10.2A42.08,42.08,0,0,1,165.23,38a39.91,39.91,0,0,1,18,4,45,45,0,0,1,13.92,10.58,48.82,48.82,0,0,1,9,14.88,46.82,46.82,0,0,1,3.21,16.94A46,46,0,0,1,206,101.83a47.24,47.24,0,0,1-9.23,14.63,44.51,44.51,0,0,1-14.11,10.13A42,42,0,0,1,164.84,130.38ZM138.42,84.19a36.57,36.57,0,0,0,1.79,11.42,30.42,30.42,0,0,0,5.2,9.75,25.72,25.72,0,0,0,8.34,6.8A24,24,0,0,0,165,114.72a23.68,23.68,0,0,0,11.35-2.63,25.64,25.64,0,0,0,8.34-7,30.94,30.94,0,0,0,5.13-9.81,36.3,36.3,0,0,0,1.74-11.1,35.54,35.54,0,0,0-1.86-11.42A31.79,31.79,0,0,0,184.41,63a25.22,25.22,0,0,0-8.34-6.73,26,26,0,0,0-22.52.13,25.44,25.44,0,0,0-8.34,6.92,31.18,31.18,0,0,0-5.06,9.75A36.34,36.34,0,0,0,138.42,84.19Z"/></svg>